mtllib ./air_con_corner_slim.mtl
g air_con_corner_slim
v -0.1997695 0.6507962 0.1997627
v -0.0001126528 0.7258294 -0.0001770258
v 0.2000721 0.6506588 0.1999115
v 0.2000721 0.6506588 0.1999115
v -0.0001126528 0.7258294 -0.0001770258
v 0.199826 0.6506588 -0.1999737
v -0.2001262 0.6506398 -0.1999851
v -0.0001126528 0.7258294 -0.0001770258
v -0.1997695 0.6507962 0.1997627
v 0.199826 0.6506588 -0.1999737
v -0.0001126528 0.7258294 -0.0001770258
v -0.2001262 0.6506398 -0.1999851
v -0.2001376 -3.814697E-05 -0.1996704
v 0.199826 0.6506588 -0.1999737
v -0.2001262 0.6506398 -0.1999851
v 0.199826 -5.722046E-06 -0.1999737
v 0.2000721 -5.722046E-06 0.1999115
v -0.1997695 0.6507962 0.1997627
v 0.2000721 0.6506588 0.1999115
v -0.1997609 5.722046E-05 0.1997322
v -0.1997609 5.722046E-05 0.1997322
v 0.199826 -5.722046E-06 -0.1999737
v -0.2001376 -3.814697E-05 -0.1996704
v 0.2000721 -5.722046E-06 0.1999115
v 0.2000721 -5.722046E-06 0.1999115
v 0.199826 0.6506588 -0.1999737
v 0.199826 -5.722046E-06 -0.1999737
v 0.2000721 0.6506588 0.1999115
v -0.1997695 0.6507962 0.1997627
v -0.2001376 -3.814697E-05 -0.1996704
v -0.2001262 0.6506398 -0.1999851
v -0.1997609 5.722046E-05 0.1997322

vn 0.000190746 0.9361806 0.3515194
vn 0.000190746 0.9361806 0.3515194
vn 0.000190746 0.9361806 0.3515194
vn 0.3517281 0.9361021 -0.0002164171
vn 0.3517281 0.9361021 -0.0002164171
vn 0.3517281 0.9361021 -0.0002164171
vn -0.3518346 0.9360622 -5.231351E-05
vn -0.3518346 0.9360622 -5.231351E-05
vn -0.3518346 0.9360622 -5.231351E-05
vn -3.455751E-05 0.9359371 -0.352167
vn -3.455751E-05 0.9359371 -0.352167
vn -3.455751E-05 0.9359371 -0.352167
vn -0.0003648032 -0.0002418336 -0.9999999
vn -0.0003648032 -0.0002418336 -0.9999999
vn 2.863674E-05 -0.0004836691 -0.9999999
vn -0.0007582398 0 -0.9999997
vn -0.0004102527 -2.345245E-05 0.9999999
vn -0.0004102527 -2.345245E-05 0.9999999
vn -0.0003720803 0 1
vn -0.0004484215 -4.690271E-05 0.9999999
vn -3.813818E-05 -1 0.0001193452
vn -3.813818E-05 -1 0.0001193452
vn 8.125068E-05 -0.9999999 0.0002386985
vn -0.000157422 -1 9.686124E-08
vn 0.9999998 0 -0.0006152964
vn 0.9999998 0 -0.0006152964
vn 0.9999998 0 -0.0006152964
vn 0.9999998 0 -0.0006152964
vn -0.9999995 2.398782E-06 0.0009176927
vn -0.9999995 2.398782E-06 0.0009176927
vn -0.9999996 1.801948E-05 0.0008922405
vn -0.9999995 -1.323395E-05 0.0009431646

vt 0.1447835 0.3151513
vt 0.1427871 0.3130156
vt 0.1407851 0.3151529
vt 0.1389659 0.3188655
vt 0.1411042 0.3168646
vt 0.1389682 0.3148667
vt 0.1410733 0.309339
vt 0.1389365 0.3113371
vt 0.1410694 0.3133365
vt 0.1352507 0.3130483
vt 0.13725 0.315183
vt 0.1392502 0.3130482
vt 0.1447736 0.3089286
vt 0.1348378 0.318689
vt 0.1447733 0.3186888
vt 0.1348378 0.3089291
vt 0.1448332 0.3089822
vt 0.1349004 0.3187443
vt 0.1448332 0.3187422
vt 0.1349006 0.3089832
vt 0.1349014 0.3194513
vt 0.1448279 0.3094606
vt 0.134892 0.3094682
vt 0.144834 0.3194558
vt 0.1352856 0.3095159
vt 0.1452195 0.3192759
vt 0.1452195 0.3095159
vt 0.1352856 0.3192759
vt 0.1451492 0.319362
vt 0.1352265 0.3095995
vt 0.1352187 0.3193597
vt 0.1451485 0.3096009

g model
usemtl model
usemap model
f 2/2/2 1/1/1 3/3/3
f 5/5/5 4/4/4 6/6/6
f 8/8/8 7/7/7 9/9/9
f 11/11/11 10/10/10 12/12/12
f 14/14/14 13/13/13 15/15/15
f 16/16/16 13/13/13 14/14/14
f 18/18/18 17/17/17 19/19/19
f 20/20/20 17/17/17 18/18/18
f 22/22/22 21/21/21 23/23/23
f 24/24/24 21/21/21 22/22/22
f 26/26/26 25/25/25 27/27/27
f 28/28/28 25/25/25 26/26/26
f 30/30/30 29/29/29 31/31/31
f 32/32/32 29/29/29 30/30/30
