mtllib ./air_con_3_block.mtl
g air_con_3_block
v 0.9482808 5.722046E-05 1.500407
v 0.9975815 0.3694134 1.500407
v 0.9975815 5.722046E-05 1.500407
v 0.9482808 0.3694134 1.500407
v 0.9482808 5.722046E-05 1.448117
v 0.9482808 0.3694134 1.500407
v 0.9482808 5.722046E-05 1.500407
v 0.9482808 0.3694134 1.448117
v 0.9975815 5.722046E-05 1.448117
v 0.9482808 0.3694134 1.448117
v 0.9482808 5.722046E-05 1.448117
v 0.9975815 0.3694134 1.448117
v 0.9975815 5.722046E-05 1.500407
v 0.9975815 0.3694134 1.448117
v 0.9975815 5.722046E-05 1.448117
v 0.9975815 0.3694134 1.500407
v 0.002418518 5.722046E-05 1.500607
v 0.05171919 0.3694134 1.500607
v 0.05171919 5.722046E-05 1.500607
v 0.002418518 0.3694134 1.500607
v 0.002418518 5.722046E-05 1.448318
v 0.002418518 0.3694134 1.500607
v 0.002418518 5.722046E-05 1.500607
v 0.002418518 0.3694134 1.448318
v 0.05171919 5.722046E-05 1.448318
v 0.002418518 0.3694134 1.448318
v 0.002418518 5.722046E-05 1.448318
v 0.05171919 0.3694134 1.448318
v 0.05171919 5.722046E-05 1.500607
v 0.05171919 0.3694134 1.448318
v 0.05171919 5.722046E-05 1.448318
v 0.05171919 0.3694134 1.500607
v 0.9275141 0.4344578 1.601508
v 0.06699181 0.795332 1.601657
v 0.9275141 0.7945881 1.601508
v 0.06699181 0.434391 1.601657
v 0.9275141 0.4344578 1.50047
v 0.9275141 0.7945881 1.601508
v 0.9275141 0.7943172 1.50047
v 0.9275141 0.4344578 1.601508
v 0.06699181 0.434391 1.500619
v 0.9275141 0.4344578 1.601508
v 0.9275141 0.4344578 1.50047
v 0.06699181 0.434391 1.601657
v 0.06699181 0.7947636 1.500619
v 0.06699181 0.434391 1.601657
v 0.06699181 0.434391 1.500619
v 0.06699181 0.795332 1.601657
v 0.9275141 0.7943172 1.50047
v 0.06699181 0.795332 1.601657
v 0.06699181 0.7947636 1.500619
v 0.9275141 0.7945881 1.601508
v 0.4974346 0.9445286 1.000731
v 0.9974904 0.8693008 0.4997454
v 0.9973755 0.8694935 1.500387
v 0.4974346 0.9445286 1.000731
v -0.002413511 0.8693204 0.4995799
v 0.9974904 0.8693008 0.4997454
v 0.4974346 0.9445286 1.000731
v 0.9973755 0.8694935 1.500387
v -0.002373219 0.8693371 1.500744
v 0.4974346 0.9445286 1.000731
v -0.002373219 0.8693371 1.500744
v -0.002413511 0.8693204 0.4995799
v -0.002413511 0.8693204 0.4995799
v -0.002373219 0.8693371 1.500744
v -0.002058029 0.3693218 1.500755
v -0.002367139 0.3693073 0.4995516
v 0.9973755 0.8694935 1.500387
v 0.9974904 0.8693008 0.4997454
v 0.9974036 0.369276 0.4997406
v 0.997344 0.3694172 1.500379
v -0.002367139 0.3693073 0.4995516
v -0.002058029 0.3693218 1.500755
v 0.997344 0.3694172 1.500379
v 0.9974036 0.369276 0.4997406
v 0.06699181 0.7947636 1.500619
v -0.002373219 0.8693371 1.500744
v 0.9275141 0.7943172 1.50047
v 0.9973755 0.8694935 1.500387
v -0.002058029 0.3693218 1.500755
v 0.06699181 0.434391 1.500619
v 0.997344 0.3694172 1.500379
v 0.9275141 0.4344578 1.50047
v 0.04688215 -5.912781E-05 -1.500608
v -0.002418518 0.369297 -1.500608
v -0.002418518 -5.912781E-05 -1.500608
v 0.04688215 0.369297 -1.500608
v 0.04688215 -5.912781E-05 -1.448318
v 0.04688215 0.369297 -1.500608
v 0.04688215 -5.912781E-05 -1.500608
v 0.04688215 0.369297 -1.448318
v -0.002418518 -5.912781E-05 -1.448318
v 0.04688215 0.369297 -1.448318
v 0.04688215 -5.912781E-05 -1.448318
v -0.002418518 0.369297 -1.448318
v -0.002418518 -5.912781E-05 -1.500608
v -0.002418518 0.369297 -1.448318
v -0.002418518 -5.912781E-05 -1.448318
v -0.002418518 0.369297 -1.500608
v 0.9927444 -5.912781E-05 -1.500809
v 0.9434438 0.369297 -1.500809
v 0.9434438 -5.912781E-05 -1.500809
v 0.9927444 0.369297 -1.500809
v 0.9927444 -5.912781E-05 -1.448519
v 0.9927444 0.369297 -1.500809
v 0.9927444 -5.912781E-05 -1.500809
v 0.9927444 0.369297 -1.448519
v 0.9434438 -5.912781E-05 -1.448519
v 0.9927444 0.369297 -1.448519
v 0.9927444 -5.912781E-05 -1.448519
v 0.9434438 0.369297 -1.448519
v 0.9434438 -5.912781E-05 -1.500809
v 0.9434438 0.369297 -1.448519
v 0.9434438 -5.912781E-05 -1.448519
v 0.9434438 0.369297 -1.500809
v 0.06764889 0.4343414 -1.601709
v 0.9281712 0.7952137 -1.601858
v 0.06764889 0.7944736 -1.601708
v 0.9281712 0.4342747 -1.601858
v 0.06764889 0.4343414 -1.500671
v 0.06764889 0.7944736 -1.601708
v 0.06764889 0.794199 -1.500671
v 0.06764889 0.4343414 -1.601709
v 0.9281712 0.4342747 -1.50082
v 0.06764889 0.4343414 -1.601709
v 0.06764889 0.4343414 -1.500671
v 0.9281712 0.4342747 -1.601858
v 0.9281712 0.7946491 -1.50082
v 0.9281712 0.4342747 -1.601858
v 0.9281712 0.4342747 -1.50082
v 0.9281712 0.7952137 -1.601858
v 0.06764889 0.794199 -1.500671
v 0.9281712 0.7952137 -1.601858
v 0.9281712 0.7946491 -1.50082
v 0.06764889 0.7944736 -1.601708
v 0.4977283 0.9444103 -1.000931
v -0.002527177 0.8692846 -0.5008744
v -0.002212524 0.869379 -1.500587
v 0.4977283 0.9444103 -1.000931
v 0.9975247 0.8692417 -0.5009928
v -0.002527177 0.8692846 -0.5008744
v 0.4977283 0.9444103 -1.000931
v -0.002212524 0.869379 -1.500587
v 0.9975362 0.8692188 -1.500944
v 0.4977283 0.9444103 -1.000931
v 0.9975362 0.8692188 -1.500944
v 0.9975247 0.8692417 -0.5009928
v 0.9975247 0.8692417 -0.5009928
v 0.9975362 0.8692188 -1.500944
v 0.997221 0.3692055 -1.500956
v 0.9975247 0.3692379 -0.5009928
v -0.002212524 0.869379 -1.500587
v -0.002527177 0.8692846 -0.5008744
v -0.002538204 0.3692845 -0.5008829
v -0.002181053 0.3693008 -1.50058
v 0.9975247 0.3692379 -0.5009928
v 0.997221 0.3692055 -1.500956
v -0.002181053 0.3693008 -1.50058
v -0.002538204 0.3692845 -0.5008829
v 0.9281712 0.7946491 -1.50082
v 0.9975362 0.8692188 -1.500944
v 0.06764889 0.794199 -1.500671
v -0.002212524 0.869379 -1.500587
v 0.997221 0.3692055 -1.500956
v 0.9281712 0.4342747 -1.50082
v -0.002181053 0.3693008 -1.50058
v 0.06764889 0.4343414 -1.500671
v 0.4974346 0.9442959 -0.0008077621
v 0.9975247 0.8692417 -0.5009928
v 0.9974904 0.8693008 0.4997454
v 0.4974346 0.9442959 -0.0008077621
v -0.002527177 0.8692846 -0.5008744
v 0.9975247 0.8692417 -0.5009928
v 0.4974346 0.9442959 -0.0008077621
v 0.9974904 0.8693008 0.4997454
v -0.002413511 0.8693204 0.4995799
v 0.4974346 0.9442959 -0.0008077621
v -0.002413511 0.8693204 0.4995799
v -0.002527177 0.8692846 -0.5008744
v 0.9974904 0.8693008 0.4997454
v 0.9975247 0.8692417 -0.5009928
v 0.9975247 0.3692379 -0.5009928
v 0.9974036 0.369276 0.4997406
v -0.002538204 0.3692845 -0.5008829
v -0.002367139 0.3693073 0.4995516
v 0.9974036 0.369276 0.4997406
v 0.9975247 0.3692379 -0.5009928
v -0.002413511 0.8693204 0.4995799
v -0.002538204 0.3692845 -0.5008829
v -0.002527177 0.8692846 -0.5008744
v -0.002367139 0.3693073 0.4995516

vn 0 0 1
vn 0 0 1
vn 0 0 1
vn 0 0 1
vn -1 0 0
vn -1 0 0
vn -1 0 0
vn -1 0 0
vn 0 0 -1
vn 0 0 -1
vn 0 0 -1
vn 0 0 -1
vn 1 0 0
vn 1 0 0
vn 1 0 0
vn 1 0 0
vn 0 0 1
vn 0 0 1
vn 0 0 1
vn 0 0 1
vn -1 0 0
vn -1 0 0
vn -1 0 0
vn -1 0 0
vn 0 0 -1
vn 0 0 -1
vn 0 0 -1
vn 0 0 -1
vn 1 0 0
vn 1 0 0
vn 1 0 0
vn 1 0 0
vn 0.0001731641 0 1
vn 0.0001731641 0 1
vn 0.0001731642 0 1
vn 0.0001731642 0 1
vn 1 0 0
vn 1 0 0
vn 1 0 0
vn 1 0 0
vn 7.764681E-05 -0.9999999 0
vn 7.764681E-05 -0.9999999 0
vn 7.764681E-05 -0.9999999 0
vn 7.764681E-05 -0.9999999 0
vn -1 0 0
vn -1 0 0
vn -0.9999999 0 0
vn -1 0 0
vn 0.000690927 0.9999912 -0.004153317
vn 0.000690927 0.9999912 -0.004153317
vn 0.0005178174 0.999984 -0.005625417
vn 0.0008640371 0.9999961 -0.00268119
vn 0.148595 0.9888982 -0.0001733805
vn 0.148595 0.9888982 -0.0001733805
vn 0.148595 0.9888982 -0.0001733805
vn 4.396372E-05 0.9889197 -0.1484519
vn 4.396372E-05 0.9889197 -0.1484519
vn 4.396372E-05 0.9889197 -0.1484519
vn -0.0001016324 0.9888963 0.1486077
vn -0.0001016324 0.9888963 0.1486077
vn -0.0001016324 0.9888963 0.1486077
vn -0.148777 0.9888707 -1.049768E-05
vn -0.148777 0.9888707 -1.049768E-05
vn -0.148777 0.9888707 -1.049768E-05
vn -1 -0.0003615548 0.0001745002
vn -0.9999998 -0.0006303599 4.02557E-05
vn -1 -0.0003615548 0.0001745002
vn -0.9999999 -9.275894E-05 0.00030874
vn 1 -0.0001182448 8.722512E-05
vn 1 -0.0001735612 0.0001148775
vn 1 -0.0001182448 8.722512E-05
vn 1 -6.293385E-05 5.95755E-05
vn 3.205802E-05 -1 7.776805E-05
vn 9.545974E-05 -1 1.443705E-05
vn 3.205802E-05 -1 7.776805E-05
vn -3.13561E-05 -1 0.0001411115
vn 0.0009970176 -0.0007791558 0.9999992
vn 0.0005816075 -0.0002198627 0.9999998
vn 0.0005658863 -0.0001986721 0.9999998
vn 0.0006266209 0.0005229338 0.9999996
vn 0.001097491 0.0008883184 0.999999
vn 0.0005698082 0.0002871394 0.9999998
vn 0.000602429 0.0002282535 0.9999997
vn 0.0005236876 -0.0008380422 0.9999996
vn 0 0 -1
vn 0 0 -1
vn 0 0 -1
vn 0 0 -1
vn 1 0 0
vn 1 0 0
vn 1 0 0
vn 1 0 0
vn 0 0 1
vn 0 0 1
vn 0 0 1
vn 0 0 1
vn -1 0 0
vn -1 0 0
vn -1 0 0
vn -1 0 0
vn 0 0 -1
vn 0 0 -1
vn 0 0 -1
vn 0 0 -1
vn 1 0 0
vn 1 0 0
vn 1 0 0
vn 1 0 0
vn 0 0 1
vn 0 0 1
vn 0 0 1
vn 0 0 1
vn -1 0 0
vn -1 0 0
vn -1 0 0
vn -1 0 0
vn -0.0001737188 1.32258E-06 -1
vn -0.0001737188 1.32258E-06 -1
vn -0.0001742747 2.648123E-06 -1
vn -0.0001731641 0 -1
vn -1 0 0
vn -1 0 0
vn -1 0 0
vn -1 0 0
vn -7.750827E-05 -0.9999999 0
vn -7.750827E-05 -0.9999999 0
vn -7.750827E-05 -0.9999999 0
vn -7.750827E-05 -0.9999999 0
vn 1 0 0
vn 1 0 0
vn 1 0 0
vn 1 0 0
vn -0.0006908554 0.9999911 0.004152747
vn -0.0006908554 0.9999911 0.004152747
vn -0.0005221185 0.9999842 0.005587664
vn -0.0008595946 0.9999959 0.00271779
vn -0.1484639 0.9889179 4.666588E-05
vn -0.1484639 0.9889179 4.666588E-05
vn -0.1484639 0.9889179 4.666588E-05
vn 5.997135E-05 0.9888934 0.1486259
vn 5.997135E-05 0.9888934 0.1486259
vn 5.997135E-05 0.9888934 0.1486259
vn 0.000105348 0.9888967 -0.1486041
vn 0.000105348 0.9888967 -0.1486041
vn 0.000105348 0.9888967 -0.1486041
vn 0.1487463 0.9888754 -2.091882E-05
vn 0.1487463 0.9888754 -2.091882E-05
vn 0.1487463 0.9888754 -2.091882E-05
vn 0.9999999 -0.0003151821 -0.0001460885
vn 0.9999999 -0.0006303621 1.151868E-05
vn 0.9999999 -0.0003151821 -0.0001460885
vn 1 0 -0.0003036968
vn -0.9999999 -2.044206E-05 -0.0003360024
vn -0.9999999 2.205906E-05 -0.0003147415
vn -0.9999999 -2.044206E-05 -0.0003360024
vn -1 -6.293722E-05 -0.0003572603
vn -7.097637E-05 -1 8.046099E-06
vn -9.535265E-05 -0.9999999 3.242527E-05
vn -7.097637E-05 -1 8.046099E-06
vn -4.660969E-05 -0.9999999 -1.632346E-05
vn -0.0009941799 -0.0007719438 -0.9999992
vn -0.0005793268 -0.000209238 -0.9999998
vn -0.0005679204 -0.0001894388 -0.9999998
vn -0.000630291 0.0005321827 -0.9999996
vn -0.001094712 0.0008898044 -0.999999
vn -0.0005701572 0.0002878997 -0.9999998
vn -0.0006047101 0.0002292341 -0.9999998
vn -0.0005236864 -0.0008380439 -0.9999996
vn 0.1483669 0.9889324 -5.328334E-05
vn 0.1483669 0.9889324 -5.328334E-05
vn 0.1483669 0.9889324 -5.328334E-05
vn 2.482303E-05 0.9889323 -0.1483673
vn 2.482303E-05 0.9889323 -0.1483673
vn 2.482303E-05 0.9889323 -0.1483673
vn -5.124033E-06 0.9889611 0.1481757
vn -5.124033E-06 0.9889611 0.1481757
vn -5.124033E-06 0.9889611 0.1481757
vn -0.1483553 0.9889341 -1.855543E-05
vn -0.1483553 0.9889341 -1.855543E-05
vn -0.1483553 0.9889341 -1.855543E-05
vn 1 -8.678225E-05 7.761197E-05
vn 1 0 3.424739E-05
vn 1 -8.678225E-05 7.761197E-05
vn 1 -0.0001735613 0.0001209749
vn -3.897098E-05 -1 3.042628E-05
vn -3.133373E-05 -1 2.279423E-05
vn -3.897098E-05 -1 3.042628E-05
vn -4.660373E-05 -1 3.805382E-05
vn -1 -3.534985E-05 0.0001423033
vn -1 -3.534985E-05 0.0001423033
vn -1 2.20518E-05 0.0001136136
vn -1 -9.275115E-05 0.0001709927

vt 0.1390541 0.3109667
vt 0.139547 0.3171603
vt 0.139547 0.3109667
vt 0.1390541 0.3171603
vt 0.1405337 0.3109667
vt 0.1410566 0.3171603
vt 0.1410566 0.3109667
vt 0.1405337 0.3171603
vt 0.1390541 0.3109667
vt 0.139547 0.3171603
vt 0.139547 0.3109667
vt 0.1390541 0.3171603
vt 0.1405337 0.3109667
vt 0.1410566 0.3171603
vt 0.1410566 0.3109667
vt 0.1405337 0.3171603
vt 0.1390541 0.3109667
vt 0.139547 0.3171603
vt 0.139547 0.3109667
vt 0.1390541 0.3171603
vt 0.1405337 0.3109667
vt 0.1410566 0.3171603
vt 0.1410566 0.3109667
vt 0.1405337 0.3171603
vt 0.1390541 0.3109667
vt 0.139547 0.3171603
vt 0.139547 0.3109667
vt 0.1390541 0.3171603
vt 0.1405337 0.3109667
vt 0.1410566 0.3171603
vt 0.1410566 0.3109667
vt 0.1405337 0.3171603
vt 0.143926 0.3122879
vt 0.1353208 0.3158966
vt 0.143926 0.3158892
vt 0.1353208 0.3122872
vt 0.1411452 0.3123129
vt 0.1391348 0.3159142
vt 0.1411452 0.3159115
vt 0.1391348 0.3123129
vt 0.1438709 0.3143063
vt 0.1352656 0.3122973
vt 0.1352656 0.3143077
vt 0.1438709 0.3122959
vt 0.1391347 0.3160865
vt 0.1411451 0.3124827
vt 0.1391347 0.3124827
vt 0.1411451 0.3160922
vt 0.1443357 0.315121
vt 0.1357304 0.3131091
vt 0.1357304 0.3151195
vt 0.1443357 0.3131106
vt 0.1400317 0.3143401
vt 0.1455369 0.3198108
vt 0.1454715 0.3088117
vt 0.1399997 0.3143423
vt 0.1345327 0.3198441
vt 0.1455373 0.3197788
vt 0.1400321 0.314315
vt 0.1455015 0.3088146
vt 0.1345083 0.3088674
vt 0.1400009 0.3143127
vt 0.1345004 0.308842
vt 0.134561 0.3198432
vt 0.1348056 0.3191493
vt 0.1448042 0.3191528
vt 0.1448059 0.3141562
vt 0.1348073 0.3141528
vt 0.1348674 0.3192073
vt 0.1448662 0.3192073
vt 0.1448662 0.3142073
vt 0.1348674 0.3142073
vt 0.1448625 0.3194572
vt 0.1448625 0.3094568
vt 0.1348642 0.3094608
vt 0.1348636 0.3194596
vt 0.1355803 0.3159597
vt 0.1348863 0.3167057
vt 0.1441856 0.3159552
vt 0.1448813 0.3167067
vt 0.1348959 0.3117052
vt 0.1355803 0.3123559
vt 0.1448813 0.3117045
vt 0.1441856 0.3123566
vt 0.1390541 0.3109667
vt 0.139547 0.3171603
vt 0.139547 0.3109667
vt 0.1390541 0.3171603
vt 0.1405337 0.3109667
vt 0.1410566 0.3171603
vt 0.1410566 0.3109667
vt 0.1405337 0.3171603
vt 0.1390541 0.3109667
vt 0.139547 0.3171603
vt 0.139547 0.3109667
vt 0.1390541 0.3171603
vt 0.1405337 0.3109667
vt 0.1410566 0.3171603
vt 0.1410566 0.3109667
vt 0.1405337 0.3171603
vt 0.1390541 0.3109667
vt 0.139547 0.3171603
vt 0.139547 0.3109667
vt 0.1390541 0.3171603
vt 0.1405337 0.3109667
vt 0.1410566 0.3171603
vt 0.1410566 0.3109667
vt 0.1405337 0.3171603
vt 0.1390541 0.3109667
vt 0.139547 0.3171603
vt 0.139547 0.3109667
vt 0.1390541 0.3171603
vt 0.1405337 0.3109667
vt 0.1410566 0.3171603
vt 0.1410566 0.3109667
vt 0.1405337 0.3171603
vt 0.143926 0.3122879
vt 0.1353208 0.3158966
vt 0.143926 0.3158892
vt 0.1353208 0.3122872
vt 0.1411452 0.3123129
vt 0.1391348 0.3159142
vt 0.1411452 0.3159115
vt 0.1391348 0.3123129
vt 0.1438709 0.3143063
vt 0.1352656 0.3122973
vt 0.1352656 0.3143077
vt 0.1438709 0.3122959
vt 0.1391347 0.3160865
vt 0.1411451 0.3124827
vt 0.1391347 0.3124827
vt 0.1411451 0.3160922
vt 0.1443357 0.315121
vt 0.1357304 0.3131091
vt 0.1357304 0.3151195
vt 0.1443357 0.3131106
vt 0.1400317 0.3143401
vt 0.1455369 0.3198108
vt 0.1454715 0.3088117
vt 0.1399997 0.3143423
vt 0.1345327 0.3198441
vt 0.1455373 0.3197788
vt 0.1400321 0.314315
vt 0.1455015 0.3088146
vt 0.1345083 0.3088674
vt 0.1400009 0.3143127
vt 0.1345004 0.308842
vt 0.134561 0.3198432
vt 0.1348056 0.3191493
vt 0.1448042 0.3191528
vt 0.1448059 0.3141562
vt 0.1348073 0.3141528
vt 0.1348674 0.3192073
vt 0.1448662 0.3192064
vt 0.1448661 0.3142073
vt 0.1348675 0.3142075
vt 0.1448625 0.3194572
vt 0.1448625 0.3094568
vt 0.1348642 0.3094608
vt 0.1348636 0.3194596
vt 0.1355803 0.3159597
vt 0.1348863 0.3167057
vt 0.1441856 0.3159552
vt 0.1448813 0.3167067
vt 0.1348959 0.3117052
vt 0.1355803 0.3123559
vt 0.1448813 0.3117045
vt 0.1441856 0.3123566
vt 0.1400317 0.3143401
vt 0.1455369 0.3198108
vt 0.1454715 0.3088117
vt 0.1399997 0.3143423
vt 0.134561 0.3198432
vt 0.1455373 0.3197788
vt 0.1400321 0.314315
vt 0.1455015 0.3088146
vt 0.1345083 0.3088674
vt 0.1400009 0.3143127
vt 0.1345004 0.308842
vt 0.134561 0.3198432
vt 0.1348674 0.3192073
vt 0.1448662 0.3192073
vt 0.1448662 0.3142073
vt 0.1348674 0.3142073
vt 0.1448625 0.3194572
vt 0.1448625 0.3094568
vt 0.1348642 0.3094608
vt 0.1348636 0.3194596
vt 0.1448622 0.3167774
vt 0.1348575 0.3117771
vt 0.1348576 0.3167771
vt 0.1448619 0.3117773

g model
usemtl model
usemap model
f 2/2/2 1/1/1 3/3/3
f 2/2/2 4/4/4 1/1/1
f 6/6/6 5/5/5 7/7/7
f 6/6/6 8/8/8 5/5/5
f 10/10/10 9/9/9 11/11/11
f 10/10/10 12/12/12 9/9/9
f 14/14/14 13/13/13 15/15/15
f 14/14/14 16/16/16 13/13/13
f 18/18/18 17/17/17 19/19/19
f 18/18/18 20/20/20 17/17/17
f 22/22/22 21/21/21 23/23/23
f 22/22/22 24/24/24 21/21/21
f 26/26/26 25/25/25 27/27/27
f 26/26/26 28/28/28 25/25/25
f 30/30/30 29/29/29 31/31/31
f 30/30/30 32/32/32 29/29/29
f 34/34/34 33/33/33 35/35/35
f 34/34/34 36/36/36 33/33/33
f 38/38/38 37/37/37 39/39/39
f 38/38/38 40/40/40 37/37/37
f 42/42/42 41/41/41 43/43/43
f 42/42/42 44/44/44 41/41/41
f 46/46/46 45/45/45 47/47/47
f 46/46/46 48/48/48 45/45/45
f 50/50/50 49/49/49 51/51/51
f 50/50/50 52/52/52 49/49/49
f 54/54/54 53/53/53 55/55/55
f 57/57/57 56/56/56 58/58/58
f 60/60/60 59/59/59 61/61/61
f 63/63/63 62/62/62 64/64/64
f 66/66/66 65/65/65 67/67/67
f 65/65/65 68/68/68 67/67/67
f 70/70/70 69/69/69 71/71/71
f 69/69/69 72/72/72 71/71/71
f 74/74/74 73/73/73 75/75/75
f 73/73/73 76/76/76 75/75/75
f 78/78/78 77/77/77 79/79/79
f 78/78/78 79/79/79 80/80/80
f 78/78/78 81/81/81 77/77/77
f 81/81/81 82/82/82 77/77/77
f 81/81/81 83/83/83 82/82/82
f 83/83/83 80/80/80 79/79/79
f 83/83/83 84/84/84 82/82/82
f 83/83/83 79/79/79 84/84/84
f 86/86/86 85/85/85 87/87/87
f 86/86/86 88/88/88 85/85/85
f 90/90/90 89/89/89 91/91/91
f 90/90/90 92/92/92 89/89/89
f 94/94/94 93/93/93 95/95/95
f 94/94/94 96/96/96 93/93/93
f 98/98/98 97/97/97 99/99/99
f 98/98/98 100/100/100 97/97/97
f 102/102/102 101/101/101 103/103/103
f 102/102/102 104/104/104 101/101/101
f 106/106/106 105/105/105 107/107/107
f 106/106/106 108/108/108 105/105/105
f 110/110/110 109/109/109 111/111/111
f 110/110/110 112/112/112 109/109/109
f 114/114/114 113/113/113 115/115/115
f 114/114/114 116/116/116 113/113/113
f 118/118/118 117/117/117 119/119/119
f 118/118/118 120/120/120 117/117/117
f 122/122/122 121/121/121 123/123/123
f 122/122/122 124/124/124 121/121/121
f 126/126/126 125/125/125 127/127/127
f 126/126/126 128/128/128 125/125/125
f 130/130/130 129/129/129 131/131/131
f 130/130/130 132/132/132 129/129/129
f 134/134/134 133/133/133 135/135/135
f 134/134/134 136/136/136 133/133/133
f 138/138/138 137/137/137 139/139/139
f 141/141/141 140/140/140 142/142/142
f 144/144/144 143/143/143 145/145/145
f 147/147/147 146/146/146 148/148/148
f 150/150/150 149/149/149 151/151/151
f 149/149/149 152/152/152 151/151/151
f 154/154/154 153/153/153 155/155/155
f 153/153/153 156/156/156 155/155/155
f 158/158/158 157/157/157 159/159/159
f 157/157/157 160/160/160 159/159/159
f 162/162/162 161/161/161 163/163/163
f 162/162/162 163/163/163 164/164/164
f 162/162/162 165/165/165 161/161/161
f 165/165/165 166/166/166 161/161/161
f 165/165/165 167/167/167 166/166/166
f 167/167/167 164/164/164 163/163/163
f 167/167/167 168/168/168 166/166/166
f 167/167/167 163/163/163 168/168/168
f 170/170/170 169/169/169 171/171/171
f 173/173/173 172/172/172 174/174/174
f 176/176/176 175/175/175 177/177/177
f 179/179/179 178/178/178 180/180/180
f 182/182/182 181/181/181 183/183/183
f 181/181/181 184/184/184 183/183/183
f 186/186/186 185/185/185 187/187/187
f 185/185/185 188/188/188 187/187/187
f 190/190/190 189/189/189 191/191/191
f 192/192/192 189/189/189 190/190/190
