mtllib ./air_con_end.mtl
g air_con_end
v -0.4300262 0.8181 -0.6009225
v -0.4300262 0.4579697 -0.6009234
v 0.4304961 0.8188438 -0.6010722
v 0.4304961 0.4579029 -0.6010722
v -0.4300262 0.8178291 -0.4998851
v -0.4300262 0.4579697 -0.4998851
v -0.4300262 0.8181 -0.6009225
v -0.4300262 0.4579697 -0.6009234
v -0.4300262 0.4579697 -0.4998851
v 0.4304961 0.4579029 -0.5000339
v -0.4300262 0.4579697 -0.6009234
v 0.4304961 0.4579029 -0.6010722
v 0.4304961 0.4579029 -0.5000339
v 0.4304961 0.8182755 -0.5000339
v 0.4304961 0.4579029 -0.6010722
v 0.4304961 0.8188438 -0.6010722
v 0.4304961 0.8182755 -0.5000339
v -0.4300262 0.8178291 -0.4998851
v 0.4304961 0.8188438 -0.6010722
v -0.4300262 0.8181 -0.6009225
v -0.4998876 0.8930054 -0.4998012
v 5.328655E-05 0.9680386 -0.0001454353
v -0.5000368 0.8929825 0.5000386
v -0.5000368 0.8929825 0.5000386
v 5.328655E-05 0.9680386 -0.0001454353
v 0.4998497 0.8929825 0.4997926
v 0.4998611 0.892849 -0.5001588
v 5.328655E-05 0.9680386 -0.0001454353
v -0.4998876 0.8930054 -0.4998012
v 0.4998497 0.8929825 0.4997926
v 5.328655E-05 0.9680386 -0.0001454353
v 0.4998611 0.892849 -0.5001588
v 0.4995459 0.3928337 -0.5001702
v 0.4998497 0.8929825 0.4997926
v 0.4998611 0.892849 -0.5001588
v 0.4998497 0.3929806 0.4997926
v -0.5000368 0.3929806 0.5000386
v -0.4998876 0.8930054 -0.4998012
v -0.5000368 0.8929825 0.5000386
v -0.4998561 0.3929291 -0.4997935
v -0.4300262 0.8178291 -0.4998851
v 0.4304961 0.8182755 -0.5000339
v 0.4998611 0.892849 -0.5001588
v -0.4998876 0.8930054 -0.4998012
v 0.4995459 0.3928337 -0.5001702
v 0.4304961 0.4579029 -0.5000339
v -0.4300262 0.4579697 -0.4998851
v -0.4998561 0.3929291 -0.4997935
v 0.4998497 0.8929825 0.4997926
v -0.5000368 0.3929806 0.5000386
v -0.5000368 0.8929825 0.5000386
v 0.4998497 0.3929806 0.4997926
v 0.5994588 -0.0001220703 -0.600203
v 0.5998236 0.2500267 0.5997519
v 0.5998372 0.2498932 -0.6001897
v 0.5998236 2.479553E-05 0.5997519
v -0.6000404 2.479553E-05 0.6000476
v -0.5998613 0.2500496 -0.5997605
v -0.6000404 0.2500267 0.6000476
v -0.5998236 -2.670288E-05 -0.599751
v -0.5998236 -2.670288E-05 -0.599751
v 0.5998236 2.479553E-05 0.5997519
v 0.5994588 -0.0001220703 -0.600203
v -0.6000404 2.479553E-05 0.6000476
v 0.5998236 0.2500267 0.5997519
v -0.6000404 2.479553E-05 0.6000476
v -0.6000404 0.2500267 0.6000476
v 0.5998236 2.479553E-05 0.5997519
v 0.5998372 0.2498932 -0.6001897
v 0.4998497 0.3929806 0.4997926
v 0.4995459 0.3928337 -0.5001702
v 0.5998236 0.2500267 0.5997519
v -0.4998561 0.3929291 -0.4997935
v -0.6000404 0.2500267 0.6000476
v -0.5998613 0.2500496 -0.5997605
v -0.5000368 0.3929806 0.5000386
v 0.5998236 0.2500267 0.5997519
v -0.5000368 0.3929806 0.5000386
v 0.4998497 0.3929806 0.4997926
v -0.6000404 0.2500267 0.6000476
v -0.5998613 0.2500496 -0.5997605
v 0.5994588 -0.0001220703 -0.600203
v 0.5998372 0.2498932 -0.6001897
v -0.5998236 -2.670288E-05 -0.599751
v -0.4998561 0.3929291 -0.4997935
v 0.5998372 0.2498932 -0.6001897
v 0.4995459 0.3928337 -0.5001702
v -0.5998613 0.2500496 -0.5997605

vn -0.0001739976 2.648137E-06 -1
vn -0.0001734417 1.32258E-06 -1
vn -0.0001734417 1.32258E-06 -1
vn -0.0001728871 0 -1
vn -1 0 0
vn -1 0 0
vn -1 0 0
vn -1 0 0
vn -7.757753E-05 -1 0
vn -7.757753E-05 -1 0
vn -7.757753E-05 -1 0
vn -7.757753E-05 -1 0
vn 1 0 0
vn 1 0 0
vn 1 0 0
vn 1 0 0
vn -0.0005176804 0.9999841 0.005625398
vn -0.000690822 0.9999911 0.004153027
vn -0.000690822 0.9999911 0.004153027
vn -0.0008639657 0.9999961 0.002680616
vn -0.1484223 0.9889241 4.827224E-07
vn -0.1484223 0.9889241 4.827224E-07
vn -0.1484223 0.9889241 4.827224E-07
vn 3.652534E-05 0.9889228 0.1484312
vn 3.652534E-05 0.9889228 0.1484312
vn 3.652534E-05 0.9889228 0.1484312
vn 0.0001015466 0.9888967 -0.148604
vn 0.0001015466 0.9888967 -0.148604
vn 0.0001015466 0.9888967 -0.148604
vn 0.1486356 0.9888921 -0.0001303367
vn 0.1486356 0.9888921 -0.0001303367
vn 0.1486356 0.9888921 -0.0001303367
vn 1 -0.0003151823 -0.0001461127
vn 1 -0.0003151823 -0.0001461127
vn 0.9999999 -0.0006303597 1.152882E-05
vn 1 0 -0.0003037565
vn -1 -3.147005E-05 -0.0001650123
vn -1 -3.147005E-05 -0.0001650123
vn -1 0 -0.0001492739
vn -1 -6.293567E-05 -0.0001807484
vn -0.0005688405 -0.0001946539 -0.9999999
vn -0.0009985503 -0.0007790217 -0.9999992
vn -0.0005819667 -0.0002152111 -0.9999998
vn -0.0006305735 0.0005303612 -0.9999997
vn -0.001099529 0.0008920131 -0.9999989
vn -0.0005711988 0.0002871408 -0.9999998
vn -0.0005256127 -0.0008433068 -0.9999995
vn -0.0006057045 0.0002283925 -0.9999998
vn 0.0002460759 0 1
vn 0.0002460759 0 1
vn 0.0002460759 0 1
vn 0.0002460759 0 1
vn 0.9999997 -0.0007567105 -0.0001462473
vn 0.9999997 -0.0007567105 -0.0001462473
vn 0.9999988 -0.001513388 1.149382E-05
vn 1 0 -0.0003039951
vn -1 -7.533163E-05 -0.0001650317
vn -1 -7.533163E-05 -0.0001650317
vn -1 0 -0.0001493335
vn -1 -0.0001506415 -0.0001807253
vn -3.972481E-05 -1 8.266271E-05
vn -3.972481E-05 -1 8.266271E-05
vn -7.947427E-05 -1 0.000122417
vn 1.057332E-08 -1 4.292255E-05
vn 0.0002463938 0 1
vn 0.0002463938 0 1
vn 0.0002463938 0 1
vn 0.0002463938 0 1
vn 0.8190446 0.5737298 -0.0001811507
vn 0.8190446 0.5737298 -0.0001811507
vn 0.8184952 0.5745133 -0.0003330043
vn 0.8195023 0.5730758 -5.448345E-05
vn -0.8193324 0.5733188 -0.0001415116
vn -0.8193324 0.5733188 -0.0001415116
vn -0.8192236 0.5734743 -0.0001113976
vn -0.8194629 0.5731323 -0.0001776396
vn 0.00020179 0.5731409 0.8194569
vn 0.00020179 0.5731409 0.8194569
vn 0.0002016473 0.5731401 0.8194574
vn 0.000201909 0.5731415 0.8194564
vn -0.0003673197 7.878275E-06 -0.9999999
vn -0.0003673197 7.878275E-06 -0.9999999
vn -0.0003577107 5.394391E-05 -0.9999999
vn -0.0003769298 -3.819211E-05 -0.9999999
vn -0.0002346141 0.5732937 -0.8193499
vn -0.0002346141 0.5732937 -0.8193499
vn -0.0002541648 0.5731929 -0.8194203
vn -0.0002183256 0.5733777 -0.8192912

vt 0.143926 0.3158892
vt 0.143926 0.3122879
vt 0.1353208 0.3158966
vt 0.1353208 0.3122872
vt 0.1411452 0.3159115
vt 0.1411452 0.3123129
vt 0.1391348 0.3159142
vt 0.1391348 0.3123129
vt 0.1352656 0.3143077
vt 0.1438709 0.3143063
vt 0.1352656 0.3122973
vt 0.1438709 0.3122959
vt 0.1391347 0.3124827
vt 0.1391347 0.3160865
vt 0.1411451 0.3124827
vt 0.1411451 0.3160922
vt 0.1357304 0.3151195
vt 0.1443357 0.315121
vt 0.1357304 0.3131091
vt 0.1443357 0.3131106
vt 0.1454715 0.3088117
vt 0.1400317 0.3143401
vt 0.1455369 0.3198108
vt 0.1455373 0.3197788
vt 0.1399997 0.3143423
vt 0.1345327 0.3198441
vt 0.1345083 0.3088674
vt 0.1400321 0.314315
vt 0.1455015 0.3088146
vt 0.134561 0.3198432
vt 0.1400009 0.3143127
vt 0.1345004 0.308842
vt 0.1448059 0.3141583
vt 0.1348056 0.3191473
vt 0.1448023 0.3191529
vt 0.134809 0.3141528
vt 0.1448662 0.3142073
vt 0.1348674 0.3192073
vt 0.1448662 0.3192073
vt 0.1348674 0.3142073
vt 0.1441856 0.3159552
vt 0.1355803 0.3159597
vt 0.1348863 0.3167057
vt 0.1448813 0.3167067
vt 0.1348959 0.3117052
vt 0.1355803 0.3123559
vt 0.1441856 0.3123566
vt 0.1448813 0.3117045
vt 0.144919 0.3169191
vt 0.1349228 0.3119205
vt 0.1349228 0.3169191
vt 0.144919 0.3119205
vt 0.1440056 0.1907773
vt 0.1356059 0.1925283
vt 0.1440055 0.1925274
vt 0.1356059 0.1907783
vt 0.1440662 0.1908324
vt 0.1356675 0.1925826
vt 0.1440662 0.1925824
vt 0.1356676 0.1908321
vt 0.1348642 0.3094608
vt 0.1448625 0.3194572
vt 0.1448625 0.3094568
vt 0.1348636 0.3194596
vt 0.1437347 0.1902582
vt 0.1353357 0.1885082
vt 0.1353357 0.1902582
vt 0.1437347 0.1885082
vt 0.1444112 0.3184794
vt 0.1356157 0.311652
vt 0.1424539 0.3189442
vt 0.1362042 0.3097301
vt 0.1357048 0.3114773
vt 0.144497 0.3183068
vt 0.1362935 0.3095558
vt 0.1425406 0.31877
vt 0.1445175 0.3183263
vt 0.1357254 0.3114971
vt 0.1425618 0.31879
vt 0.1363139 0.3095748
vt 0.1440094 0.1903436
vt 0.1356142 0.1885924
vt 0.1356115 0.1903425
vt 0.1440091 0.1885931
vt 0.1424646 0.318766
vt 0.1362188 0.3095514
vt 0.1356324 0.3114758
vt 0.1444201 0.3183028

g model
usemtl model
usemap model
f 2/2/2 1/1/1 3/3/3
f 4/4/4 2/2/2 3/3/3
f 6/6/6 5/5/5 7/7/7
f 8/8/8 6/6/6 7/7/7
f 10/10/10 9/9/9 11/11/11
f 12/12/12 10/10/10 11/11/11
f 14/14/14 13/13/13 15/15/15
f 16/16/16 14/14/14 15/15/15
f 18/18/18 17/17/17 19/19/19
f 20/20/20 18/18/18 19/19/19
f 22/22/22 21/21/21 23/23/23
f 25/25/25 24/24/24 26/26/26
f 28/28/28 27/27/27 29/29/29
f 31/31/31 30/30/30 32/32/32
f 34/34/34 33/33/33 35/35/35
f 36/36/36 33/33/33 34/34/34
f 38/38/38 37/37/37 39/39/39
f 40/40/40 37/37/37 38/38/38
f 42/42/42 41/41/41 43/43/43
f 41/41/41 44/44/44 43/43/43
f 45/45/45 42/42/42 43/43/43
f 46/46/46 42/42/42 45/45/45
f 47/47/47 46/46/46 48/48/48
f 48/48/48 46/46/46 45/45/45
f 44/44/44 41/41/41 48/48/48
f 41/41/41 47/47/47 48/48/48
f 50/50/50 49/49/49 51/51/51
f 52/52/52 49/49/49 50/50/50
f 54/54/54 53/53/53 55/55/55
f 56/56/56 53/53/53 54/54/54
f 58/58/58 57/57/57 59/59/59
f 60/60/60 57/57/57 58/58/58
f 62/62/62 61/61/61 63/63/63
f 64/64/64 61/61/61 62/62/62
f 66/66/66 65/65/65 67/67/67
f 68/68/68 65/65/65 66/66/66
f 70/70/70 69/69/69 71/71/71
f 72/72/72 69/69/69 70/70/70
f 74/74/74 73/73/73 75/75/75
f 76/76/76 73/73/73 74/74/74
f 78/78/78 77/77/77 79/79/79
f 80/80/80 77/77/77 78/78/78
f 82/82/82 81/81/81 83/83/83
f 84/84/84 81/81/81 82/82/82
f 86/86/86 85/85/85 87/87/87
f 88/88/88 85/85/85 86/86/86
