mtllib ./air_con_end_vent.mtl
g air_con_end_vent
v 0.9027572 0.6628361 -0.4296622
v 0.6770325 0.8781128 0.43086
v 0.6768827 0.8773689 -0.4296622
v 0.9029059 0.6627693 0.43086
v 0.4995441 0.4580879 -0.4296622
v 0.5867352 0.8182182 -0.4296622
v 0.4995441 0.8179474 -0.4296622
v 0.7005825 0.4580879 -0.4296622
v 0.4996929 0.4580212 0.43086
v 0.7005825 0.4580879 -0.4296622
v 0.4995441 0.4580879 -0.4296622
v 0.7007313 0.4580212 0.43086
v 0.4996929 0.8183937 0.43086
v 0.7007313 0.4580212 0.43086
v 0.4996929 0.4580212 0.43086
v 0.586885 0.8189621 0.43086
v 0.4995441 0.8179474 -0.4296622
v 0.586885 0.8189621 0.43086
v 0.4996929 0.8183937 0.43086
v 0.5867352 0.8182182 -0.4296622
v 0.4996929 0.8183937 0.43086
v 0.50006 0.8930159 0.4999595
v 0.4995441 0.8179474 -0.4296622
v 0.4999794 0.8929548 -0.4999417
v 0.5000628 0.3930106 0.4998806
v 0.4996929 0.4580212 0.43086
v 0.4997408 0.3929243 -0.4999424
v 0.4995441 0.4580879 -0.4296622
v 0.7005825 0.4580879 -0.4296622
v 0.6768827 0.8773689 -0.4296622
v 0.5867352 0.8182182 -0.4296622
v 0.9027572 0.6628361 -0.4296622
v 0.5867352 0.8182182 -0.4296622
v 0.6770325 0.8781128 0.43086
v 0.586885 0.8189621 0.43086
v 0.6768827 0.8773689 -0.4296622
v 0.7007313 0.4580212 0.43086
v 0.9027572 0.6628361 -0.4296622
v 0.7005825 0.4580879 -0.4296622
v 0.9029059 0.6627693 0.43086
v 0.586885 0.8189621 0.43086
v 0.9029059 0.6627693 0.43086
v 0.7007313 0.4580212 0.43086
v 0.6770325 0.8781128 0.43086
v -0.4297352 0.4580193 -0.6008457
v 0.4307871 0.8188934 -0.6009945
v -0.4297352 0.8181496 -0.6008447
v 0.4307871 0.4579525 -0.6009945
v -0.4297352 0.4580193 -0.4998074
v -0.4297352 0.8181496 -0.6008447
v -0.4297352 0.8178787 -0.4998074
v -0.4297352 0.4580193 -0.6008457
v 0.4307871 0.4579525 -0.4999561
v -0.4297352 0.4580193 -0.6008457
v -0.4297352 0.4580193 -0.4998074
v 0.4307871 0.4579525 -0.6009945
v 0.4307871 0.818325 -0.4999561
v 0.4307871 0.4579525 -0.6009945
v 0.4307871 0.4579525 -0.4999561
v 0.4307871 0.8188934 -0.6009945
v -0.4297352 0.8178787 -0.4998074
v 0.4307871 0.8188934 -0.6009945
v 0.4307871 0.818325 -0.4999561
v -0.4297352 0.8181496 -0.6008447
v 0.0003442764 0.9680882 -6.771088E-05
v -0.4995387 0.893055 0.5000052
v -0.4995159 0.893033 -0.4998121
v 0.0003442764 0.9680882 -6.771088E-05
v 0.50006 0.8930159 0.4999595
v -0.4995387 0.893055 0.5000052
v 0.0003442764 0.9680882 -6.771088E-05
v -0.4995159 0.893033 -0.4998121
v 0.4999794 0.8929548 -0.4999417
v 0.0003442764 0.9680882 -6.771088E-05
v 0.4999794 0.8929548 -0.4999417
v 0.50006 0.8930159 0.4999595
v 0.4307871 0.818325 -0.4999561
v 0.4999794 0.8929548 -0.4999417
v -0.4297352 0.8178787 -0.4998074
v -0.4995159 0.893033 -0.4998121
v 0.4997408 0.3929243 -0.4999424
v 0.4307871 0.4579525 -0.4999561
v -0.4994951 0.392972 -0.4997275
v -0.4297352 0.4580193 -0.4998074
v 0.6001143 0.2500763 0.5998292
v 0.6001282 0.2499428 -0.600112
v 0.5997496 -7.247925E-05 -0.6001253
v 0.6001143 7.43866E-05 0.5998292
v -0.5995703 0.2500992 -0.5996828
v -0.5997496 0.2500763 0.6001248
v -0.5997496 7.43866E-05 0.6001248
v -0.5995326 2.288818E-05 -0.5996733
v 0.6001143 7.43866E-05 0.5998292
v 0.5997496 -7.247925E-05 -0.6001253
v -0.5995326 2.288818E-05 -0.5996733
v -0.5997496 7.43866E-05 0.6001248
v -0.5997496 7.43866E-05 0.6001248
v -0.5997496 0.2500763 0.6001248
v 0.6001143 0.2500763 0.5998292
v 0.6001143 7.43866E-05 0.5998292
v 0.5000628 0.3930106 0.4998806
v 0.4997408 0.3929243 -0.4999424
v 0.6001282 0.2499428 -0.600112
v 0.6001143 0.2500763 0.5998292
v -0.5997496 0.2500763 0.6001248
v -0.5995703 0.2500992 -0.5996828
v -0.4994951 0.392972 -0.4997275
v -0.4995365 0.3930345 0.4999976
v -0.4995365 0.3930345 0.4999976
v 0.5000628 0.3930106 0.4998806
v 0.6001143 0.2500763 0.5998292
v -0.5997496 0.2500763 0.6001248
v 0.5997496 -7.247925E-05 -0.6001253
v 0.6001282 0.2499428 -0.600112
v -0.5995703 0.2500992 -0.5996828
v -0.5995326 2.288818E-05 -0.5996733
v 0.6001282 0.2499428 -0.600112
v 0.4997408 0.3929243 -0.4999424
v -0.4994951 0.392972 -0.4997275
v -0.5995703 0.2500992 -0.5996828
v -0.4995387 0.893055 0.5000052
v 0.50006 0.8930159 0.4999595
v 0.5000628 0.3930106 0.4998806
v -0.4995365 0.3930345 0.4999976
v -0.9022131 0.6628361 0.42981
v -0.6764884 0.8781128 -0.4307127
v -0.6763387 0.8773689 0.42981
v -0.9023619 0.6627693 -0.4307127
v -0.4990001 0.4580879 0.42981
v -0.5861912 0.8182182 0.42981
v -0.4990001 0.8179474 0.42981
v -0.7000384 0.4580879 0.42981
v -0.4991488 0.4580212 -0.4307127
v -0.7000384 0.4580879 0.42981
v -0.4990001 0.4580879 0.42981
v -0.7001872 0.4580212 -0.4307127
v -0.4991488 0.8183937 -0.4307127
v -0.7001872 0.4580212 -0.4307127
v -0.4991488 0.4580212 -0.4307127
v -0.5863409 0.8189621 -0.4307127
v -0.4990001 0.8179474 0.42981
v -0.5863409 0.8189621 -0.4307127
v -0.4991488 0.8183937 -0.4307127
v -0.5861912 0.8182182 0.42981
v -0.4991488 0.8183937 -0.4307127
v -0.4995159 0.893033 -0.4998121
v -0.4990001 0.8179474 0.42981
v -0.4995387 0.893055 0.5000052
v -0.4994951 0.392972 -0.4997275
v -0.4991488 0.4580212 -0.4307127
v -0.4995365 0.3930345 0.4999976
v -0.4990001 0.4580879 0.42981
v -0.7000384 0.4580879 0.42981
v -0.6763387 0.8773689 0.42981
v -0.5861912 0.8182182 0.42981
v -0.9022131 0.6628361 0.42981
v -0.5861912 0.8182182 0.42981
v -0.6764884 0.8781128 -0.4307127
v -0.5863409 0.8189621 -0.4307127
v -0.6763387 0.8773689 0.42981
v -0.7001872 0.4580212 -0.4307127
v -0.9022131 0.6628361 0.42981
v -0.7000384 0.4580879 0.42981
v -0.9023619 0.6627693 -0.4307127
v -0.5863409 0.8189621 -0.4307127
v -0.9023619 0.6627693 -0.4307127
v -0.7001872 0.4580212 -0.4307127
v -0.6764884 0.8781128 -0.4307127

vn 0.6893525 0.724426 -0.0004045445
vn 0.6893525 0.724426 -0.0004045445
vn 0.6886683 0.7250761 -0.0007466465
vn 0.6900347 0.7237763 -6.305373E-05
vn 0 0 -0.9999999
vn 0 0 -0.9999999
vn 0 0 -1
vn 0 0 -1
vn 0 -1 -7.750828E-05
vn 0 -1 -7.750828E-05
vn 0 -1 -7.750828E-05
vn 0 -1 -7.750828E-05
vn 0 0 1
vn 0 0 1
vn 0 0 1
vn 0 0 1
vn -0.004812184 0.9999882 -0.0006907401
vn -0.004812184 0.9999882 -0.0006907401
vn -0.006518685 0.9999787 -0.0005175232
vn -0.003105622 0.9999949 -0.0008639598
vn 0.9999935 -0.002471048 -0.002653944
vn 0.9999902 -0.004295892 -0.001155428
vn 0.999992 -0.003823883 0.001270339
vn 0.9999899 -0.004155197 0.001758942
vn 0.9999924 0.002795839 -0.00271701
vn 0.9999928 0.003613091 -0.00112335
vn 0.9999951 0.0028129 0.001321619
vn 0.9999973 0.002208617 0.0007509001
vn 0 0 -1
vn 0 0 -1
vn 0 0 -1
vn 0 0 -1
vn -0.5486007 0.8360842 -0.0006272778
vn -0.5486007 0.8360842 -0.0006272778
vn -0.5486006 0.8360844 -0.000627307
vn -0.5486009 0.8360841 -0.0006272487
vn 0.7115645 -0.7026208 -0.0001774543
vn 0.7115645 -0.7026208 -0.0001774543
vn 0.7115644 -0.7026208 -0.0001774792
vn 0.7115645 -0.7026207 -0.0001774293
vn 0 0 1
vn 0 0 1
vn 0 0 1
vn 0 0 1
vn -0.0001735457 1.405241E-06 -1
vn -0.0001735457 1.405241E-06 -1
vn -0.0001741363 2.813645E-06 -1
vn -0.0001729564 0 -1
vn -1 0 0
vn -1 0 0
vn -0.9999999 0 0
vn -1 0 0
vn -7.761217E-05 -1 0
vn -7.761217E-05 -1 0
vn -7.761217E-05 -1 0
vn -7.761217E-05 -1 0
vn 1 0 0
vn 1 0 0
vn 1 0 0
vn 1 0 0
vn -0.0006907179 0.9999911 0.004153322
vn -0.0006907179 0.9999911 0.004153322
vn -0.0005176116 0.999984 0.005625393
vn -0.0008638267 0.9999961 0.002681209
vn -0.1484632 0.9889179 -2.513597E-05
vn -0.1484632 0.9889179 -2.513597E-05
vn -0.1484632 0.9889179 -2.513597E-05
vn 4.547458E-05 0.9889231 0.1484279
vn 4.547458E-05 0.9889231 0.1484279
vn 4.547458E-05 0.9889231 0.1484279
vn 5.811041E-05 0.9889006 -0.1485783
vn 5.811041E-05 0.9889006 -0.1485783
vn 5.811041E-05 0.9889006 -0.1485783
vn 0.1486337 0.9888923 -7.240617E-05
vn 0.1486337 0.9888923 -7.240617E-05
vn 0.1486337 0.9888923 -7.240617E-05
vn 7.943909E-06 0.0001837953 -1
vn -7.878652E-05 5.158669E-05 -1
vn -0.000268959 1.516326E-05 -0.9999999
vn -0.0001249517 -0.0001786722 -0.9999999
vn -1.518103E-05 -0.0002288744 -0.9999999
vn -0.00012835 -0.0005959975 -0.9999998
vn -0.0003117473 -0.0005128591 -0.9999999
vn -0.0004739772 -0.0007200208 -0.9999996
vn 0.9999997 -0.000757068 -0.0001460734
vn 0.9999988 -0.001514103 1.174224E-05
vn 0.9999997 -0.000757068 -0.0001460734
vn 1 0 -0.0003038959
vn -1 -7.533164E-05 -0.0001651808
vn -1 0 -0.0001494826
vn -1 -7.533164E-05 -0.0001651808
vn -1 -0.0001506415 -0.0001808744
vn -3.972481E-05 -1 8.266274E-05
vn -7.947427E-05 -1 0.000122417
vn -3.972481E-05 -1 8.266274E-05
vn 1.057372E-08 -1 4.292257E-05
vn 0.0002463441 0 0.9999999
vn 0.0002463441 0 0.9999999
vn 0.0002463441 0 0.9999999
vn 0.0002463441 0 0.9999999
vn 0.818831 0.5740346 -0.0001720471
vn 0.8183203 0.5747623 -0.0003131553
vn 0.818831 0.5740346 -0.0001720471
vn 0.8192566 0.5734271 -5.431474E-05
vn -0.8189537 0.5738595 -9.252733E-05
vn -0.8190222 0.5737618 -0.0001114699
vn -0.8189537 0.5738595 -9.252733E-05
vn -0.8188716 0.5739767 -6.981207E-05
vn 0.0001599065 0.5733681 0.8192979
vn 0.0001096 0.5731082 0.8194798
vn 0.0001599065 0.5733681 0.8192979
vn 0.0002017919 0.5735844 0.8191463
vn -0.0003673446 7.759202E-06 -0.9999999
vn -0.0003577604 5.370577E-05 -0.9999999
vn -0.0003673446 7.759202E-06 -0.9999999
vn -0.0003769298 -3.819211E-05 -0.9999999
vn -0.0001867294 0.573514 -0.8191957
vn -0.0001487787 0.5737096 -0.8190587
vn -0.0001867294 0.573514 -0.8191957
vn -0.0002183686 0.573351 -0.8193099
vn 8.136043E-05 -8.64837E-05 1
vn 4.569913E-05 -0.0001577715 0.9999999
vn 8.136043E-05 -8.64837E-05 1
vn 0.0001170206 -1.519805E-05 1
vn -0.6893525 0.7244259 0.0004046021
vn -0.6893525 0.7244259 0.0004046021
vn -0.6886685 0.725076 0.0007466185
vn -0.6900345 0.7237764 6.319703E-05
vn 0 0 1
vn 0 0 1
vn 0 0 1
vn 0 0 1
vn 0 -1 7.750824E-05
vn 0 -1 7.750824E-05
vn 0 -1 7.750824E-05
vn 0 -1 7.750824E-05
vn 0 0 -1
vn 0 0 -1
vn 0 0 -1
vn 0 0 -1
vn 0.004812183 0.9999881 0.0006907401
vn 0.004812183 0.9999881 0.0006907401
vn 0.006518682 0.9999786 0.0005175236
vn 0.003105622 0.9999949 0.0008639595
vn -0.9999936 -0.002483749 0.002570465
vn -0.9999875 -0.004854595 0.001100181
vn -0.9999886 -0.00422074 -0.002268689
vn -0.9999851 -0.00487363 -0.002457899
vn -0.9999931 0.002793653 0.002443653
vn -0.9999838 0.005628386 0.0009028917
vn -0.9999866 0.00452637 -0.002510082
vn -0.9999805 0.005810044 -0.002257356
vn 0 0 1
vn 0 0 1
vn 0 0 1
vn 0 0 1
vn 0.5486008 0.8360842 0.0006273155
vn 0.5486008 0.8360842 0.0006273155
vn 0.5486006 0.8360842 0.0006273445
vn 0.548601 0.8360841 0.0006272865
vn -0.7115644 -0.7026209 0.0001775528
vn -0.7115644 -0.7026209 0.0001775528
vn -0.7115644 -0.7026209 0.0001775284
vn -0.7115644 -0.7026209 0.0001775771
vn 0 0 -1
vn 0 0 -1
vn 0 0 -1
vn 0 0 -0.9999999

vt 0.1781496 0.3152146
vt 0.1669628 0.3192696
vt 0.1781496 0.3192644
vt 0.1669628 0.3152126
vt 0.1411452 0.3123129
vt 0.1391348 0.3159142
vt 0.1411452 0.3159115
vt 0.1391348 0.3123129
vt 0.1438709 0.3143063
vt 0.1352656 0.3122973
vt 0.1352656 0.3143077
vt 0.1438709 0.3122959
vt 0.1391347 0.3160865
vt 0.1411451 0.3124827
vt 0.1391347 0.3124827
vt 0.1411451 0.3160922
vt 0.1443357 0.315121
vt 0.1357304 0.3131091
vt 0.1357304 0.3151195
vt 0.1443357 0.3131106
vt 0.1355803 0.3159597
vt 0.1348863 0.3167057
vt 0.1441856 0.3159552
vt 0.1448813 0.3167067
vt 0.1348959 0.3117052
vt 0.1355803 0.3123559
vt 0.1448813 0.3117045
vt 0.1441856 0.3123566
vt 0.1406467 0.3114519
vt 0.1408837 0.3156435
vt 0.1417849 0.3150522
vt 0.1386255 0.3134988
vt 0.13532 0.3131122
vt 0.1439233 0.3141919
vt 0.1439229 0.313114
vt 0.1353205 0.3141901
vt 0.1354235 0.3127369
vt 0.1440259 0.3156145
vt 0.1440264 0.3127379
vt 0.135423 0.3156136
vt 0.1386245 0.315461
vt 0.1417844 0.3139006
vt 0.1397639 0.311853
vt 0.1395255 0.3160526
vt 0.143926 0.3122879
vt 0.1353208 0.3158966
vt 0.143926 0.3158892
vt 0.1353208 0.3122872
vt 0.1411452 0.3123129
vt 0.1391348 0.3159142
vt 0.1411452 0.3159115
vt 0.1391348 0.3123129
vt 0.1438709 0.3143063
vt 0.1352656 0.3122973
vt 0.1352656 0.3143077
vt 0.1438709 0.3122959
vt 0.1391347 0.3160865
vt 0.1411451 0.3124827
vt 0.1391347 0.3124827
vt 0.1411451 0.3160922
vt 0.1443357 0.315121
vt 0.1357304 0.3131091
vt 0.1357304 0.3151195
vt 0.1443357 0.3131106
vt 0.1400317 0.3143401
vt 0.1455369 0.3198108
vt 0.1454715 0.3088117
vt 0.1399997 0.3143423
vt 0.1345327 0.3198441
vt 0.1455373 0.3197788
vt 0.1400321 0.314315
vt 0.1455015 0.3088146
vt 0.1345083 0.3088674
vt 0.1400009 0.3143127
vt 0.1345004 0.308842
vt 0.134561 0.3198432
vt 0.1355803 0.3159597
vt 0.1348863 0.3167057
vt 0.1441856 0.3159552
vt 0.1448813 0.3167067
vt 0.1348959 0.3117052
vt 0.1355803 0.3123559
vt 0.1448813 0.3117045
vt 0.1441856 0.3123566
vt 0.1356059 0.3184033
vt 0.1440055 0.3184023
vt 0.1440056 0.3149022
vt 0.1356059 0.3149033
vt 0.1356675 0.3184576
vt 0.1440662 0.3184575
vt 0.1440662 0.3149574
vt 0.1356676 0.3149571
vt 0.1448625 0.3194572
vt 0.1448625 0.3094568
vt 0.1348642 0.3094608
vt 0.1348636 0.3194596
vt 0.1353357 0.3126332
vt 0.1353357 0.3161331
vt 0.1437347 0.3161331
vt 0.1437347 0.3126332
vt 0.1356157 0.311652
vt 0.1424539 0.3189443
vt 0.1444112 0.3184794
vt 0.1362042 0.3097301
vt 0.144497 0.3183068
vt 0.1362935 0.3095558
vt 0.1357048 0.3114773
vt 0.1425406 0.31877
vt 0.1357254 0.3114972
vt 0.1425618 0.3187901
vt 0.1445175 0.3183264
vt 0.1363139 0.3095748
vt 0.1356142 0.3127174
vt 0.1356115 0.3162175
vt 0.1440094 0.3162186
vt 0.1440091 0.3127181
vt 0.1362188 0.3095514
vt 0.1356324 0.3114758
vt 0.1424646 0.318766
vt 0.1444201 0.3183028
vt 0.1348839 0.31656
vt 0.1448828 0.31656
vt 0.1448828 0.31156
vt 0.1348839 0.31156
vt 0.1781496 0.3152147
vt 0.1669628 0.3192697
vt 0.1781496 0.3192645
vt 0.1669628 0.3152127
vt 0.1411452 0.3123129
vt 0.1391348 0.3159142
vt 0.1411452 0.3159115
vt 0.1391348 0.3123129
vt 0.1438709 0.3143063
vt 0.1352656 0.3122973
vt 0.1352656 0.3143077
vt 0.1438709 0.3122959
vt 0.1391347 0.3160865
vt 0.1411451 0.3124827
vt 0.1391347 0.3124827
vt 0.1411451 0.3160922
vt 0.1443357 0.315121
vt 0.1357304 0.3131091
vt 0.1357304 0.3151195
vt 0.1443357 0.3131106
vt 0.1355803 0.3159597
vt 0.1348863 0.3167057
vt 0.1441856 0.3159552
vt 0.1448813 0.3167067
vt 0.1348959 0.3117052
vt 0.1355803 0.3123559
vt 0.1448813 0.3117045
vt 0.1441856 0.3123566
vt 0.1406467 0.3114519
vt 0.1408837 0.3156435
vt 0.1417849 0.3150522
vt 0.1386255 0.3134988
vt 0.13532 0.3131122
vt 0.1439233 0.3141919
vt 0.1439229 0.313114
vt 0.1353205 0.3141901
vt 0.1354235 0.3127369
vt 0.1440259 0.3156145
vt 0.1440264 0.3127379
vt 0.135423 0.3156136
vt 0.1386245 0.315461
vt 0.1417844 0.3139006
vt 0.1397639 0.311853
vt 0.1395255 0.3160526

g model
usemtl model
usemap model
f 2/2/2 1/1/1 3/3/3
f 2/2/2 4/4/4 1/1/1
f 6/6/6 5/5/5 7/7/7
f 6/6/6 8/8/8 5/5/5
f 10/10/10 9/9/9 11/11/11
f 10/10/10 12/12/12 9/9/9
f 14/14/14 13/13/13 15/15/15
f 14/14/14 16/16/16 13/13/13
f 18/18/18 17/17/17 19/19/19
f 18/18/18 20/20/20 17/17/17
f 22/22/22 21/21/21 23/23/23
f 22/22/22 23/23/23 24/24/24
f 22/22/22 25/25/25 21/21/21
f 25/25/25 26/26/26 21/21/21
f 25/25/25 27/27/27 26/26/26
f 27/27/27 24/24/24 23/23/23
f 27/27/27 28/28/28 26/26/26
f 27/27/27 23/23/23 28/28/28
f 30/30/30 29/29/29 31/31/31
f 30/30/30 32/32/32 29/29/29
f 34/34/34 33/33/33 35/35/35
f 34/34/34 36/36/36 33/33/33
f 38/38/38 37/37/37 39/39/39
f 38/38/38 40/40/40 37/37/37
f 42/42/42 41/41/41 43/43/43
f 42/42/42 44/44/44 41/41/41
f 46/46/46 45/45/45 47/47/47
f 46/46/46 48/48/48 45/45/45
f 50/50/50 49/49/49 51/51/51
f 50/50/50 52/52/52 49/49/49
f 54/54/54 53/53/53 55/55/55
f 54/54/54 56/56/56 53/53/53
f 58/58/58 57/57/57 59/59/59
f 58/58/58 60/60/60 57/57/57
f 62/62/62 61/61/61 63/63/63
f 62/62/62 64/64/64 61/61/61
f 66/66/66 65/65/65 67/67/67
f 69/69/69 68/68/68 70/70/70
f 72/72/72 71/71/71 73/73/73
f 75/75/75 74/74/74 76/76/76
f 78/78/78 77/77/77 79/79/79
f 78/78/78 79/79/79 80/80/80
f 78/78/78 81/81/81 77/77/77
f 81/81/81 82/82/82 77/77/77
f 81/81/81 83/83/83 82/82/82
f 83/83/83 80/80/80 79/79/79
f 83/83/83 84/84/84 82/82/82
f 83/83/83 79/79/79 84/84/84
f 86/86/86 85/85/85 87/87/87
f 85/85/85 88/88/88 87/87/87
f 90/90/90 89/89/89 91/91/91
f 89/89/89 92/92/92 91/91/91
f 94/94/94 93/93/93 95/95/95
f 93/93/93 96/96/96 95/95/95
f 98/98/98 97/97/97 99/99/99
f 97/97/97 100/100/100 99/99/99
f 102/102/102 101/101/101 103/103/103
f 101/101/101 104/104/104 103/103/103
f 106/106/106 105/105/105 107/107/107
f 105/105/105 108/108/108 107/107/107
f 110/110/110 109/109/109 111/111/111
f 109/109/109 112/112/112 111/111/111
f 114/114/114 113/113/113 115/115/115
f 113/113/113 116/116/116 115/115/115
f 118/118/118 117/117/117 119/119/119
f 117/117/117 120/120/120 119/119/119
f 122/122/122 121/121/121 123/123/123
f 121/121/121 124/124/124 123/123/123
f 126/126/126 125/125/125 127/127/127
f 126/126/126 128/128/128 125/125/125
f 130/130/130 129/129/129 131/131/131
f 130/130/130 132/132/132 129/129/129
f 134/134/134 133/133/133 135/135/135
f 134/134/134 136/136/136 133/133/133
f 138/138/138 137/137/137 139/139/139
f 138/138/138 140/140/140 137/137/137
f 142/142/142 141/141/141 143/143/143
f 142/142/142 144/144/144 141/141/141
f 146/146/146 145/145/145 147/147/147
f 146/146/146 147/147/147 148/148/148
f 146/146/146 149/149/149 145/145/145
f 149/149/149 150/150/150 145/145/145
f 149/149/149 151/151/151 150/150/150
f 151/151/151 148/148/148 147/147/147
f 151/151/151 152/152/152 150/150/150
f 151/151/151 147/147/147 152/152/152
f 154/154/154 153/153/153 155/155/155
f 154/154/154 156/156/156 153/153/153
f 158/158/158 157/157/157 159/159/159
f 158/158/158 160/160/160 157/157/157
f 162/162/162 161/161/161 163/163/163
f 162/162/162 164/164/164 161/161/161
f 166/166/166 165/165/165 167/167/167
f 166/166/166 168/168/168 165/165/165
