mtllib ./air_con_4_block.mtl
g air_con_4_block
v 0.5 5.912781E-05 1.999732
v 0.4506993 5.912781E-05 1.999732
v 0.5 0.3694153 1.999732
v 0.4506993 0.3694153 1.999732
v 0.4506993 5.912781E-05 1.999732
v 0.4506993 5.912781E-05 1.947442
v 0.4506993 0.3694153 1.999732
v 0.4506993 0.3694153 1.947442
v 0.4506993 5.912781E-05 1.947442
v 0.5 5.912781E-05 1.947442
v 0.4506993 0.3694153 1.947442
v 0.5 0.3694153 1.947442
v 0.5 5.912781E-05 1.947442
v 0.5 5.912781E-05 1.999732
v 0.5 0.3694153 1.947442
v 0.5 0.3694153 1.999732
v -0.4458623 5.912781E-05 1.999933
v -0.495163 5.912781E-05 1.999933
v -0.4458623 0.3694153 1.999933
v -0.495163 0.3694153 1.999933
v -0.495163 5.912781E-05 1.999933
v -0.495163 5.912781E-05 1.947643
v -0.495163 0.3694153 1.999933
v -0.495163 0.3694153 1.947643
v -0.495163 5.912781E-05 1.947643
v -0.4458623 5.912781E-05 1.947643
v -0.495163 0.3694153 1.947643
v -0.4458623 0.3694153 1.947643
v -0.4458623 5.912781E-05 1.947643
v -0.4458623 5.912781E-05 1.999933
v -0.4458623 0.3694153 1.947643
v -0.4458623 0.3694153 1.999933
v 0.4299326 0.79459 2.100833
v 0.4299326 0.4344597 2.100834
v -0.4305897 0.7953339 2.100982
v -0.4305897 0.4343929 2.100982
v 0.4299326 0.7943192 1.999795
v 0.4299326 0.4344597 1.999795
v 0.4299326 0.79459 2.100833
v 0.4299326 0.4344597 2.100834
v 0.4299326 0.4344597 1.999795
v -0.4305897 0.4343929 1.999944
v 0.4299326 0.4344597 2.100834
v -0.4305897 0.4343929 2.100982
v -0.4305897 0.4343929 1.999944
v -0.4305897 0.7947655 1.999944
v -0.4305897 0.4343929 2.100982
v -0.4305897 0.7953339 2.100982
v -0.4305897 0.7947655 1.999944
v 0.4299326 0.7943192 1.999795
v -0.4305897 0.7953339 2.100982
v 0.4299326 0.79459 2.100833
v 0.499794 0.8694954 1.999712
v -0.0001468658 0.9445305 1.500056
v 0.4999433 0.8693581 0.9998705
v 0.4999433 0.8693581 0.9998705
v -0.0001468658 0.9445305 1.500056
v -0.4999433 0.8693581 1.000117
v -0.4999547 0.869339 2.000069
v -0.0001468658 0.9445305 1.500056
v 0.499794 0.8694954 1.999712
v -0.4999433 0.8693581 1.000117
v -0.0001468658 0.9445305 1.500056
v -0.4999547 0.869339 2.000069
v -0.4996395 0.3693237 2.00008
v -0.4999433 0.8693581 1.000117
v -0.4999547 0.869339 2.000069
v -0.4999433 0.3693562 1.000117
v 0.4999433 0.3693562 0.9998705
v 0.499794 0.8694954 1.999712
v 0.4999433 0.8693581 0.9998705
v 0.4997625 0.3694191 1.999704
v 0.4997625 0.3694191 1.999704
v -0.4999433 0.3693562 1.000117
v -0.4996395 0.3693237 2.00008
v 0.4999433 0.3693562 0.9998705
v 0.4299326 0.7943192 1.999795
v -0.4305897 0.7947655 1.999944
v -0.4999547 0.869339 2.000069
v 0.499794 0.8694954 1.999712
v -0.4996395 0.3693237 2.00008
v -0.4305897 0.4343929 1.999944
v 0.4299326 0.4344597 1.999795
v 0.4997625 0.3694191 1.999704
v -0.4998744 0.8692436 0.0001790524
v 0.0001468658 0.944416 0.4999325
v -0.4999433 0.8693581 1.000117
v -0.4999433 0.8693581 1.000117
v 0.0001468658 0.944416 0.4999325
v 0.4999433 0.8693581 0.9998705
v 0.4998744 0.8692455 -0.0001790524
v 0.0001468658 0.944416 0.4999325
v -0.4998744 0.8692436 0.0001790524
v 0.4999433 0.8693581 0.9998705
v 0.0001468658 0.944416 0.4999325
v 0.4998744 0.8692455 -0.0001790524
v 0.499701 0.3691988 -0.0001885891
v 0.4999433 0.8693581 0.9998705
v 0.4998744 0.8692455 -0.0001790524
v 0.4999433 0.3693562 0.9998705
v -0.4999433 0.3693562 1.000117
v -0.4998744 0.8692436 0.0001790524
v -0.4999433 0.8693581 1.000117
v -0.499701 0.3691988 0.0001885891
v -0.499701 0.3691988 0.0001885891
v 0.4999433 0.3693562 0.9998705
v 0.499701 0.3691988 -0.0001885891
v -0.4999433 0.3693562 1.000117
v -0.5 -5.722046E-05 -1.999732
v -0.4506993 -5.722046E-05 -1.999732
v -0.5 0.3692989 -1.999732
v -0.4506993 0.3692989 -1.999732
v -0.4506993 -5.722046E-05 -1.999732
v -0.4506993 -5.722046E-05 -1.947442
v -0.4506993 0.3692989 -1.999732
v -0.4506993 0.3692989 -1.947442
v -0.4506993 -5.722046E-05 -1.947442
v -0.5 -5.722046E-05 -1.947442
v -0.4506993 0.3692989 -1.947442
v -0.5 0.3692989 -1.947442
v -0.5 -5.722046E-05 -1.947442
v -0.5 -5.722046E-05 -1.999732
v -0.5 0.3692989 -1.947442
v -0.5 0.3692989 -1.999732
v 0.4458623 -5.722046E-05 -1.999933
v 0.495163 -5.722046E-05 -1.999933
v 0.4458623 0.3692989 -1.999933
v 0.495163 0.3692989 -1.999933
v 0.495163 -5.722046E-05 -1.999933
v 0.495163 -5.722046E-05 -1.947643
v 0.495163 0.3692989 -1.999933
v 0.495163 0.3692989 -1.947643
v 0.495163 -5.722046E-05 -1.947643
v 0.4458623 -5.722046E-05 -1.947643
v 0.495163 0.3692989 -1.947643
v 0.4458623 0.3692989 -1.947643
v 0.4458623 -5.722046E-05 -1.947643
v 0.4458623 -5.722046E-05 -1.999933
v 0.4458623 0.3692989 -1.947643
v 0.4458623 0.3692989 -1.999933
v -0.4299326 0.7944756 -2.100833
v -0.4299326 0.4343433 -2.100834
v 0.4305897 0.7952156 -2.100982
v 0.4305897 0.4342766 -2.100982
v -0.4299326 0.7942009 -1.999795
v -0.4299326 0.4343433 -1.999795
v -0.4299326 0.7944756 -2.100833
v -0.4299326 0.4343433 -2.100834
v -0.4299326 0.4343433 -1.999795
v 0.4305897 0.4342766 -1.999944
v -0.4299326 0.4343433 -2.100834
v 0.4305897 0.4342766 -2.100982
v 0.4305897 0.4342766 -1.999944
v 0.4305897 0.794651 -1.999944
v 0.4305897 0.4342766 -2.100982
v 0.4305897 0.7952156 -2.100982
v 0.4305897 0.794651 -1.999944
v -0.4299326 0.7942009 -1.999795
v 0.4305897 0.7952156 -2.100982
v -0.4299326 0.7944756 -2.100833
v -0.499794 0.869381 -1.999712
v 0.0001468658 0.9444122 -1.500056
v -0.4999433 0.8692436 -0.999871
v -0.4999433 0.8692436 -0.999871
v 0.0001468658 0.9444122 -1.500056
v 0.4999433 0.8692436 -1.000117
v 0.4999547 0.8692207 -2.000069
v 0.0001468658 0.9444122 -1.500056
v -0.499794 0.869381 -1.999712
v 0.4999433 0.8692436 -1.000117
v 0.0001468658 0.9444122 -1.500056
v 0.4999547 0.8692207 -2.000069
v 0.4996395 0.3692074 -2.00008
v 0.4999433 0.8692436 -1.000117
v 0.4999547 0.8692207 -2.000069
v 0.4999433 0.3692398 -1.000117
v -0.4999433 0.3692398 -0.999871
v -0.499794 0.869381 -1.999712
v -0.4999433 0.8692436 -0.999871
v -0.4997625 0.3693027 -1.999704
v -0.4997625 0.3693027 -1.999704
v 0.4999433 0.3692398 -1.000117
v 0.4996395 0.3692074 -2.00008
v -0.4999433 0.3692398 -0.999871
v -0.4299326 0.7942009 -1.999795
v 0.4305897 0.794651 -1.999944
v 0.4999547 0.8692207 -2.000069
v -0.499794 0.869381 -1.999712
v 0.4996395 0.3692074 -2.00008
v 0.4305897 0.4342766 -1.999944
v -0.4299326 0.4343433 -1.999795
v -0.4997625 0.3693027 -1.999704
v 0.4998744 0.8692455 -0.0001790524
v -0.0001468658 0.9442978 -0.4999321
v 0.4999433 0.8692436 -1.000117
v 0.4999433 0.8692436 -1.000117
v -0.0001468658 0.9442978 -0.4999321
v -0.4999433 0.8692436 -0.999871
v -0.4998744 0.8692436 0.0001790524
v -0.0001468658 0.9442978 -0.4999321
v 0.4998744 0.8692455 -0.0001790524
v -0.4999433 0.8692436 -0.999871
v -0.0001468658 0.9442978 -0.4999321
v -0.4998744 0.8692436 0.0001790524
v -0.499701 0.3691988 0.0001885891
v -0.4999433 0.8692436 -0.999871
v -0.4998744 0.8692436 0.0001790524
v -0.4999433 0.3692398 -0.999871
v 0.4999433 0.3692398 -1.000117
v 0.4998744 0.8692455 -0.0001790524
v 0.4999433 0.8692436 -1.000117
v 0.499701 0.3691988 -0.0001885891
v 0.499701 0.3691988 -0.0001885891
v -0.4999433 0.3692398 -0.999871
v -0.499701 0.3691988 0.0001885891
v 0.4999433 0.3692398 -1.000117

vn 0 0 0.9999999
vn 0 0 0.9999999
vn 0 0 0.9999999
vn 0 0 0.9999999
vn -1 0 0
vn -1 0 0
vn -1 0 0
vn -1 0 0
vn 0 0 -0.9999999
vn 0 0 -0.9999999
vn 0 0 -0.9999999
vn 0 0 -0.9999999
vn 1 0 0
vn 1 0 0
vn 1 0 0
vn 1 0 0
vn 0 0 0.9999999
vn 0 0 0.9999999
vn 0 0 0.9999999
vn 0 0 0.9999999
vn -1 0 0
vn -1 0 0
vn -1 0 0
vn -1 0 0
vn 0 0 -0.9999999
vn 0 0 -0.9999999
vn 0 0 -0.9999999
vn 0 0 -0.9999999
vn 1 0 0
vn 1 0 0
vn 1 0 0
vn 1 0 0
vn 0.0001739976 2.648137E-06 1
vn 0.0001734417 1.32258E-06 1
vn 0.0001734417 1.32258E-06 1
vn 0.0001728871 0 1
vn 0.9999999 0 0
vn 1 0 0
vn 1 0 0
vn 1 0 0
vn 7.757755E-05 -1 0
vn 7.757755E-05 -1 0
vn 7.757755E-05 -1 0
vn 7.757755E-05 -1 0
vn -1 0 0
vn -1 0 0
vn -1 0 0
vn -1 0 0
vn 0.0005176804 0.999984 -0.005625391
vn 0.000690822 0.9999912 -0.004153023
vn 0.000690822 0.9999912 -0.004153023
vn 0.0008639657 0.9999961 -0.002680613
vn 0.1485366 0.9889069 -0.0001136546
vn 0.1485366 0.9889069 -0.0001136546
vn 0.1485366 0.9889069 -0.0001136546
vn -3.658064E-05 0.988889 -0.1486559
vn -3.658064E-05 0.988889 -0.1486559
vn -3.658064E-05 0.988889 -0.1486559
vn -0.000101687 0.9888963 0.1486076
vn -0.000101687 0.9888963 0.1486076
vn -0.000101687 0.9888963 0.1486076
vn -0.14875 0.9888749 1.71598E-05
vn -0.14875 0.9888749 1.71598E-05
vn -0.14875 0.9888749 1.71598E-05
vn -1 -0.0003151823 0.0001461486
vn -1 -0.0003151823 0.0001461486
vn -0.9999999 -0.0006303597 -1.145669E-05
vn -1 0 0.0003037563
vn 1 -3.147021E-05 0.0001650156
vn 1 -3.147021E-05 0.0001650156
vn 1 0 0.0001492737
vn 1 -6.293601E-05 0.0001807554
vn 4.770543E-05 -0.9999999 1.52574E-05
vn 4.770543E-05 -0.9999999 1.52574E-05
vn 9.541226E-05 -0.9999999 -3.245509E-05
vn 1.548758E-08 -1 6.295301E-05
vn 0.000566449 -0.0001994365 0.9999999
vn 0.0009985503 -0.0007790217 0.9999992
vn 0.0005815554 -0.0002203092 0.9999998
vn 0.0006262425 0.0005217001 0.9999997
vn 0.001099529 0.0008920131 0.9999989
vn 0.0005711988 0.0002871408 0.9999998
vn 0.0005256127 -0.0008433068 0.9999995
vn 0.0006034665 0.0002280247 0.9999998
vn -0.1485472 0.9889054 -0.0001234143
vn -0.1485472 0.9889054 -0.0001234143
vn -0.1485472 0.9889054 -0.0001234143
vn 3.652625E-05 0.9889222 0.1484349
vn 3.652625E-05 0.9889222 0.1484349
vn 3.652625E-05 0.9889222 0.1484349
vn -5.514721E-05 0.9888836 -0.1486917
vn -5.514721E-05 0.9888836 -0.1486917
vn -5.514721E-05 0.9888836 -0.1486917
vn 0.1486306 0.9888928 -0.0001215187
vn 0.1486306 0.9888928 -0.0001215187
vn 0.1486306 0.9888928 -0.0001215187
vn 1 -0.0001733204 -0.0001555363
vn 1 -0.0001733204 -0.0001555363
vn 1 -0.0003466269 -6.886055E-05
vn 1 0 -0.0002422189
vn -1 -0.0001733237 -0.000155555
vn -1 -0.0001733237 -0.000155555
vn -1 0 -6.890727E-05
vn -1 -0.0003466342 -0.0002421962
vn 4.904749E-08 -1 0.0001573573
vn 4.904749E-08 -1 0.0001573573
vn 5.938335E-08 -1 0.0001573469
vn 3.871528E-08 -1 0.0001573676
vn 0 0 -0.9999999
vn 0 0 -0.9999999
vn 0 0 -0.9999999
vn 0 0 -0.9999999
vn 1 0 0
vn 1 0 0
vn 1 0 0
vn 1 0 0
vn 0 0 0.9999999
vn 0 0 0.9999999
vn 0 0 0.9999999
vn 0 0 0.9999999
vn -1 0 0
vn -1 0 0
vn -1 0 0
vn -1 0 0
vn 0 0 -0.9999999
vn 0 0 -0.9999999
vn 0 0 -0.9999999
vn 0 0 -0.9999999
vn 1 0 0
vn 1 0 0
vn 1 0 0
vn 1 0 0
vn 0 0 0.9999999
vn 0 0 0.9999999
vn 0 0 0.9999999
vn 0 0 0.9999999
vn -1 0 0
vn -1 0 0
vn -1 0 0
vn -1 0 0
vn -0.0001739976 2.648123E-06 -1
vn -0.0001734417 1.32258E-06 -1
vn -0.0001734417 1.32258E-06 -1
vn -0.0001728871 0 -1
vn -1 0 0
vn -1 0 0
vn -1 0 0
vn -1 0 0
vn -7.757755E-05 -1 0
vn -7.757755E-05 -1 0
vn -7.757755E-05 -1 0
vn -7.757755E-05 -1 0
vn 1 0 0
vn 1 0 0
vn 1 0 0
vn 1 0 0
vn -0.00052212 0.9999842 0.005587638
vn -0.000690822 0.9999912 0.004153023
vn -0.000690822 0.9999912 0.004153023
vn -0.0008595261 0.999996 0.002718368
vn -0.1485292 0.9889081 0.0001136559
vn -0.1485292 0.9889081 0.0001136559
vn -0.1485292 0.9889081 0.0001136559
vn 3.657886E-05 0.9888901 0.1486487
vn 3.657886E-05 0.9888901 0.1486487
vn 3.657886E-05 0.9888901 0.1486487
vn 0.0001054617 0.9888967 -0.1486039
vn 0.0001054617 0.9888967 -0.1486039
vn 0.0001054617 0.9888967 -0.1486039
vn 0.1487463 0.9888754 -2.09323E-05
vn 0.1487463 0.9888754 -2.09323E-05
vn 0.1487463 0.9888754 -2.09323E-05
vn 1 -0.0003151823 -0.0001461481
vn 1 -0.0003151823 -0.0001461481
vn 0.9999999 -0.0006303621 1.145906E-05
vn 1 0 -0.0003037564
vn -1 -3.147009E-05 -0.0001650157
vn -1 -3.147009E-05 -0.0001650157
vn -1 0 -0.0001492737
vn -1 -6.293577E-05 -0.0001807555
vn -4.770543E-05 -0.9999999 -1.525741E-05
vn -4.770543E-05 -0.9999999 -1.525741E-05
vn -9.541226E-05 -0.9999999 3.24551E-05
vn -1.548759E-08 -1 -6.295304E-05
vn -0.000566449 -0.0001994365 -0.9999998
vn -0.0009985704 -0.0007790441 -0.9999992
vn -0.0005815541 -0.0002203094 -0.9999998
vn -0.0006262328 0.0005216827 -0.9999997
vn -0.001099528 0.0008920131 -0.9999989
vn -0.0005712001 0.0002871405 -0.9999998
vn -0.0005256115 -0.0008433083 -0.9999996
vn -0.0006034665 0.0002280247 -0.9999997
vn 0.1484272 0.9889234 8.341372E-06
vn 0.1484272 0.9889234 8.341372E-06
vn 0.1484272 0.9889234 8.341372E-06
vn -3.652436E-05 0.9889233 -0.1484272
vn -3.652436E-05 0.9889233 -0.1484272
vn -3.652436E-05 0.9889233 -0.1484272
vn 5.129202E-05 0.9889179 0.1484631
vn 5.129202E-05 0.9889179 0.1484631
vn 5.129202E-05 0.9889179 0.1484631
vn -0.1485144 0.9889102 1.023257E-05
vn -0.1485144 0.9889102 1.023257E-05
vn -0.1485144 0.9889102 1.023257E-05
vn -1 -0.0001733204 0.000155556
vn -1 -0.0001733204 0.000155556
vn -1 -0.0003466282 6.889951E-05
vn -1 0 0.0002422188
vn 1 -0.000173323 0.0001555751
vn 1 -0.000173323 0.0001555751
vn 1 0 6.890724E-05
vn 1 -0.0003466328 0.0002422364
vn -1.278416E-08 -1 -4.100824E-05
vn -1.278416E-08 -1 -4.100824E-05
vn -1.547565E-08 -1 -4.100555E-05
vn -1.009362E-08 -1 -4.101093E-05

vt 0.139547 0.3109667
vt 0.1390541 0.3109667
vt 0.139547 0.3171603
vt 0.1390541 0.3171603
vt 0.1410566 0.3109667
vt 0.1405337 0.3109667
vt 0.1410566 0.3171603
vt 0.1405337 0.3171603
vt 0.139547 0.3109667
vt 0.1390541 0.3109667
vt 0.139547 0.3171603
vt 0.1390541 0.3171603
vt 0.1410566 0.3109667
vt 0.1405337 0.3109667
vt 0.1410566 0.3171603
vt 0.1405337 0.3171603
vt 0.139547 0.3109667
vt 0.1390541 0.3109667
vt 0.139547 0.3171603
vt 0.1390541 0.3171603
vt 0.1410566 0.3109667
vt 0.1405337 0.3109667
vt 0.1410566 0.3171603
vt 0.1405337 0.3171603
vt 0.139547 0.3109667
vt 0.1390541 0.3109667
vt 0.139547 0.3171603
vt 0.1390541 0.3171603
vt 0.1410566 0.3109667
vt 0.1405337 0.3109667
vt 0.1410566 0.3171603
vt 0.1405337 0.3171603
vt 0.143926 0.3158892
vt 0.143926 0.3122879
vt 0.1353208 0.3158966
vt 0.1353208 0.3122872
vt 0.1411452 0.3159115
vt 0.1411452 0.3123129
vt 0.1391348 0.3159142
vt 0.1391348 0.3123129
vt 0.1352656 0.3143077
vt 0.1438709 0.3143063
vt 0.1352656 0.3122973
vt 0.1438709 0.3122959
vt 0.1391347 0.3124827
vt 0.1391347 0.3160865
vt 0.1411451 0.3124827
vt 0.1411451 0.3160922
vt 0.1357304 0.3151195
vt 0.1443357 0.315121
vt 0.1357304 0.3131091
vt 0.1443357 0.3131106
vt 0.1454715 0.3088117
vt 0.1400317 0.3143401
vt 0.1455369 0.3198108
vt 0.1455373 0.3197788
vt 0.1399997 0.3143423
vt 0.1345327 0.3198441
vt 0.1345083 0.3088674
vt 0.1400321 0.314315
vt 0.1455015 0.3088146
vt 0.134561 0.3198432
vt 0.1400009 0.3143127
vt 0.1345004 0.308842
vt 0.1448059 0.3141562
vt 0.1348056 0.3191493
vt 0.1448042 0.3191528
vt 0.1348073 0.3141528
vt 0.1448662 0.3142073
vt 0.1348674 0.3192073
vt 0.1448662 0.3192073
vt 0.1348674 0.3142073
vt 0.1348642 0.3094608
vt 0.1448625 0.3194572
vt 0.1448625 0.3094568
vt 0.1348636 0.3194596
vt 0.1441856 0.3159552
vt 0.1355803 0.3159597
vt 0.1348863 0.3167057
vt 0.1448813 0.3167067
vt 0.1348959 0.3117052
vt 0.1355803 0.3123559
vt 0.1441856 0.3123566
vt 0.1448813 0.3117045
vt 0.1454715 0.3088117
vt 0.1400317 0.3143401
vt 0.1455369 0.3198108
vt 0.1455373 0.3197788
vt 0.1399997 0.3143423
vt 0.1345327 0.3198441
vt 0.1345083 0.3088674
vt 0.1400321 0.314315
vt 0.1455015 0.3088146
vt 0.134561 0.3198432
vt 0.1400009 0.3143127
vt 0.1345004 0.308842
vt 0.1448059 0.3141562
vt 0.1348056 0.3191493
vt 0.1448042 0.3191528
vt 0.1348073 0.3141528
vt 0.1448662 0.3142073
vt 0.1348674 0.3192073
vt 0.1448662 0.3192073
vt 0.1348674 0.3142073
vt 0.1348642 0.3094608
vt 0.1448625 0.3194572
vt 0.1448625 0.3094568
vt 0.1348636 0.3194596
vt 0.139547 0.3109667
vt 0.1390541 0.3109667
vt 0.139547 0.3171603
vt 0.1390541 0.3171603
vt 0.1410566 0.3109667
vt 0.1405337 0.3109667
vt 0.1410566 0.3171603
vt 0.1405337 0.3171603
vt 0.139547 0.3109667
vt 0.1390541 0.3109667
vt 0.139547 0.3171603
vt 0.1390541 0.3171603
vt 0.1410566 0.3109667
vt 0.1405337 0.3109667
vt 0.1410566 0.3171603
vt 0.1405337 0.3171603
vt 0.139547 0.3109667
vt 0.1390541 0.3109667
vt 0.139547 0.3171603
vt 0.1390541 0.3171603
vt 0.1410566 0.3109667
vt 0.1405337 0.3109667
vt 0.1410566 0.3171603
vt 0.1405337 0.3171603
vt 0.139547 0.3109667
vt 0.1390541 0.3109667
vt 0.139547 0.3171603
vt 0.1390541 0.3171603
vt 0.1410566 0.3109667
vt 0.1405337 0.3109667
vt 0.1410566 0.3171603
vt 0.1405337 0.3171603
vt 0.143926 0.3158892
vt 0.143926 0.3122879
vt 0.1353208 0.3158966
vt 0.1353208 0.3122872
vt 0.1411452 0.3159115
vt 0.1411452 0.3123129
vt 0.1391348 0.3159142
vt 0.1391348 0.3123129
vt 0.1352656 0.3143077
vt 0.1438709 0.3143063
vt 0.1352656 0.3122973
vt 0.1438709 0.3122959
vt 0.1391347 0.3124827
vt 0.1391347 0.3160865
vt 0.1411451 0.3124827
vt 0.1411451 0.3160922
vt 0.1357304 0.3151195
vt 0.1443357 0.315121
vt 0.1357304 0.3131091
vt 0.1443357 0.3131106
vt 0.1454715 0.3088117
vt 0.1400317 0.3143401
vt 0.1455369 0.3198108
vt 0.1455373 0.3197788
vt 0.1399997 0.3143423
vt 0.1345327 0.3198441
vt 0.1345083 0.3088674
vt 0.1400321 0.314315
vt 0.1455015 0.3088146
vt 0.134561 0.3198432
vt 0.1400009 0.3143127
vt 0.1345004 0.308842
vt 0.1448059 0.3141562
vt 0.1348056 0.3191493
vt 0.1448042 0.3191528
vt 0.1348073 0.3141528
vt 0.1448662 0.3142073
vt 0.1348674 0.3192073
vt 0.1448662 0.3192073
vt 0.1348674 0.3142073
vt 0.1348642 0.3094608
vt 0.1448625 0.3194572
vt 0.1448625 0.3094568
vt 0.1348636 0.3194596
vt 0.1441856 0.3159552
vt 0.1355803 0.3159597
vt 0.1348863 0.3167057
vt 0.1448813 0.3167067
vt 0.1348959 0.3117052
vt 0.1355803 0.3123559
vt 0.1441856 0.3123566
vt 0.1448813 0.3117045
vt 0.1454715 0.3088117
vt 0.1400317 0.3143401
vt 0.1455369 0.3198108
vt 0.1455373 0.3197788
vt 0.1399997 0.3143423
vt 0.1345327 0.3198441
vt 0.1345083 0.3088674
vt 0.1400321 0.314315
vt 0.1455015 0.3088146
vt 0.134561 0.3198432
vt 0.1400009 0.3143127
vt 0.1345004 0.308842
vt 0.1448059 0.3141562
vt 0.1348056 0.3191493
vt 0.1448042 0.3191528
vt 0.1348073 0.3141528
vt 0.1448662 0.3142073
vt 0.1348674 0.3192073
vt 0.1448662 0.3192073
vt 0.1348674 0.3142073
vt 0.1348642 0.3094608
vt 0.1448625 0.3194572
vt 0.1448625 0.3094568
vt 0.1348636 0.3194596

g model
usemtl model
usemap model
f 2/2/2 1/1/1 3/3/3
f 4/4/4 2/2/2 3/3/3
f 6/6/6 5/5/5 7/7/7
f 8/8/8 6/6/6 7/7/7
f 10/10/10 9/9/9 11/11/11
f 12/12/12 10/10/10 11/11/11
f 14/14/14 13/13/13 15/15/15
f 16/16/16 14/14/14 15/15/15
f 18/18/18 17/17/17 19/19/19
f 20/20/20 18/18/18 19/19/19
f 22/22/22 21/21/21 23/23/23
f 24/24/24 22/22/22 23/23/23
f 26/26/26 25/25/25 27/27/27
f 28/28/28 26/26/26 27/27/27
f 30/30/30 29/29/29 31/31/31
f 32/32/32 30/30/30 31/31/31
f 34/34/34 33/33/33 35/35/35
f 36/36/36 34/34/34 35/35/35
f 38/38/38 37/37/37 39/39/39
f 40/40/40 38/38/38 39/39/39
f 42/42/42 41/41/41 43/43/43
f 44/44/44 42/42/42 43/43/43
f 46/46/46 45/45/45 47/47/47
f 48/48/48 46/46/46 47/47/47
f 50/50/50 49/49/49 51/51/51
f 52/52/52 50/50/50 51/51/51
f 54/54/54 53/53/53 55/55/55
f 57/57/57 56/56/56 58/58/58
f 60/60/60 59/59/59 61/61/61
f 63/63/63 62/62/62 64/64/64
f 66/66/66 65/65/65 67/67/67
f 68/68/68 65/65/65 66/66/66
f 70/70/70 69/69/69 71/71/71
f 72/72/72 69/69/69 70/70/70
f 74/74/74 73/73/73 75/75/75
f 76/76/76 73/73/73 74/74/74
f 78/78/78 77/77/77 79/79/79
f 77/77/77 80/80/80 79/79/79
f 81/81/81 78/78/78 79/79/79
f 82/82/82 78/78/78 81/81/81
f 83/83/83 82/82/82 84/84/84
f 84/84/84 82/82/82 81/81/81
f 80/80/80 77/77/77 84/84/84
f 77/77/77 83/83/83 84/84/84
f 86/86/86 85/85/85 87/87/87
f 89/89/89 88/88/88 90/90/90
f 92/92/92 91/91/91 93/93/93
f 95/95/95 94/94/94 96/96/96
f 98/98/98 97/97/97 99/99/99
f 100/100/100 97/97/97 98/98/98
f 102/102/102 101/101/101 103/103/103
f 104/104/104 101/101/101 102/102/102
f 106/106/106 105/105/105 107/107/107
f 108/108/108 105/105/105 106/106/106
f 110/110/110 109/109/109 111/111/111
f 112/112/112 110/110/110 111/111/111
f 114/114/114 113/113/113 115/115/115
f 116/116/116 114/114/114 115/115/115
f 118/118/118 117/117/117 119/119/119
f 120/120/120 118/118/118 119/119/119
f 122/122/122 121/121/121 123/123/123
f 124/124/124 122/122/122 123/123/123
f 126/126/126 125/125/125 127/127/127
f 128/128/128 126/126/126 127/127/127
f 130/130/130 129/129/129 131/131/131
f 132/132/132 130/130/130 131/131/131
f 134/134/134 133/133/133 135/135/135
f 136/136/136 134/134/134 135/135/135
f 138/138/138 137/137/137 139/139/139
f 140/140/140 138/138/138 139/139/139
f 142/142/142 141/141/141 143/143/143
f 144/144/144 142/142/142 143/143/143
f 146/146/146 145/145/145 147/147/147
f 148/148/148 146/146/146 147/147/147
f 150/150/150 149/149/149 151/151/151
f 152/152/152 150/150/150 151/151/151
f 154/154/154 153/153/153 155/155/155
f 156/156/156 154/154/154 155/155/155
f 158/158/158 157/157/157 159/159/159
f 160/160/160 158/158/158 159/159/159
f 162/162/162 161/161/161 163/163/163
f 165/165/165 164/164/164 166/166/166
f 168/168/168 167/167/167 169/169/169
f 171/171/171 170/170/170 172/172/172
f 174/174/174 173/173/173 175/175/175
f 176/176/176 173/173/173 174/174/174
f 178/178/178 177/177/177 179/179/179
f 180/180/180 177/177/177 178/178/178
f 182/182/182 181/181/181 183/183/183
f 184/184/184 181/181/181 182/182/182
f 186/186/186 185/185/185 187/187/187
f 185/185/185 188/188/188 187/187/187
f 189/189/189 186/186/186 187/187/187
f 190/190/190 186/186/186 189/189/189
f 191/191/191 190/190/190 192/192/192
f 192/192/192 190/190/190 189/189/189
f 188/188/188 185/185/185 192/192/192
f 185/185/185 191/191/191 192/192/192
f 194/194/194 193/193/193 195/195/195
f 197/197/197 196/196/196 198/198/198
f 200/200/200 199/199/199 201/201/201
f 203/203/203 202/202/202 204/204/204
f 206/206/206 205/205/205 207/207/207
f 208/208/208 205/205/205 206/206/206
f 210/210/210 209/209/209 211/211/211
f 212/212/212 209/209/209 210/210/210
f 214/214/214 213/213/213 215/215/215
f 216/216/216 213/213/213 214/214/214
