mtllib ./antenna02.mtl
g antenna02
v -0.1057129 49.99951 0
v -0.1767767 -0.0004882813 0.1767767
v -0.25 -0.0004882813 0
v -0.08156185 49.99951 0.08119564
v -0.08156185 49.99951 0.08119564
v 1.092785E-08 -0.0004882813 0.25
v -0.1767767 -0.0004882813 0.1767767
v 1.092785E-08 49.99951 0.1121826
v 1.092785E-08 49.99951 0.1121826
v 0.1767767 -0.0004882813 0.1767767
v 1.092785E-08 -0.0004882813 0.25
v 0.08644466 49.99951 0.08214168
v 0.08644466 49.99951 0.08214168
v 0.25 -0.0004882813 -2.185569E-08
v 0.1767767 -0.0004882813 0.1767767
v 0.1162109 49.99951 -2.185569E-08
v 0.1162109 49.99951 -2.185569E-08
v 0.1767767 -0.0004882813 -0.1767767
v 0.25 -0.0004882813 -2.185569E-08
v 0.0805853 49.99951 -0.07286432
v 0.0805853 49.99951 -0.07286432
v -2.98122E-09 -0.0004882813 -0.25
v 0.1767767 -0.0004882813 -0.1767767
v -2.98122E-09 49.99951 -0.1065674
v -2.98122E-09 49.99951 -0.1065674
v -0.1767767 -0.0004882813 -0.1767767
v -2.98122E-09 -0.0004882813 -0.25
v -0.07985283 49.99951 -0.06908019
v -0.07985283 49.99951 -0.06908019
v -0.25 -0.0004882813 0
v -0.1767767 -0.0004882813 -0.1767767
v -0.1057129 49.99951 0
v 0 49.99951 0
v -0.08156185 49.99951 0.08119564
v -0.1057129 49.99951 0
v 0 49.99951 0
v 1.092785E-08 49.99951 0.1121826
v -0.08156185 49.99951 0.08119564
v 0 49.99951 0
v 0.08644466 49.99951 0.08214168
v 1.092785E-08 49.99951 0.1121826
v 0 49.99951 0
v 0.1162109 49.99951 -2.185569E-08
v 0.08644466 49.99951 0.08214168
v 0.0805853 49.99951 -0.07286432
v 0 49.99951 0
v -2.98122E-09 49.99951 -0.1065674
v 0.0805853 49.99951 -0.07286432
v 0 49.99951 0
v -0.07985283 49.99951 -0.06908019
v -2.98122E-09 49.99951 -0.1065674
v 0 49.99951 0
v -0.1057129 49.99951 0
v -0.07985283 49.99951 -0.06908019

vn -0.9355671 0.002578236 0.3531395
vn -0.9355671 0.002578236 0.3531395
vn -0.9238763 0.002666069 0.382682
vn -0.9584956 0.002370259 0.2850975
vn -0.3740952 0.002520701 0.9273869
vn -0.3740952 0.002520701 0.9273869
vn -0.3826821 0.002494843 0.9238768
vn -0.3551511 0.002576649 0.9348054
vn 0.3652095 0.002493852 0.930922
vn 0.3652095 0.002493852 0.930922
vn 0.3826821 0.002546525 0.9238766
vn 0.3282586 0.002380862 0.9445848
vn 0.9291874 0.002432277 0.3696012
vn 0.9291874 0.002432277 0.3696012
vn 0.9238769 0.002393416 0.3826822
vn 0.9401702 0.00251569 0.3406958
vn 0.9166514 0.002523436 -0.3996798
vn 0.9166514 0.002523436 -0.3996798
vn 0.9238767 0.002472092 -0.3826822
vn 0.8983664 0.00264115 -0.439239
vn 0.3836728 0.002653206 -0.9234653
vn 0.3836728 0.002653206 -0.9234653
vn 0.382682 0.002656258 -0.9238762
vn 0.3858415 0.002646507 -0.9225612
vn -0.3961125 0.00268979 -0.918198
vn -0.3961125 0.00268979 -0.918198
vn -0.382682 0.00265028 -0.9238763
vn -0.4249544 0.002773525 -0.9052104
vn -0.9275069 0.002639815 -0.3737967
vn -0.9275069 0.002639815 -0.3737967
vn -0.9238763 0.002615185 -0.3826821
vn -0.9365262 0.002702573 -0.3505873
vn 0 1 0
vn 0 1 0
vn 0 1 0
vn 0 1 0
vn 0 1 0
vn 0 1 0
vn 0 1 0
vn 0 1 0
vn 0 1 0
vn 0 1 0
vn 0 1 0
vn 0 1 0
vn 0 1 0
vn 0 1 0
vn 0 1 0
vn 0 1 0
vn 0 1 0
vn 0 1 0
vn 0 1 0
vn 0 1 0
vn 0 1 0
vn 0 1 0

vt 0.2915526 0.2388153
vt 0.04155263 0.2381344
vt 0.04155263 0.2390919
vt 0.2915526 0.2383938
vt 0.2915526 0.2388287
vt 0.04155263 0.2381287
vt 0.04155263 0.2390862
vt 0.2915526 0.2383919
vt 0.2915526 0.2388229
vt 0.04155263 0.2381287
vt 0.04155263 0.2390862
vt 0.2915526 0.2383652
vt 0.2915526 0.2388172
vt 0.04155263 0.2381248
vt 0.04155263 0.2390823
vt 0.2915526 0.2383804
vt 0.2915526 0.2388325
vt 0.04155259 0.2381306
vt 0.04155259 0.2390881
vt 0.2915526 0.2384262
vt 0.2915527 0.2388477
vt 0.04155264 0.2381363
vt 0.04155264 0.2390938
vt 0.2915527 0.2384109
vt 0.2915526 0.2388229
vt 0.0415526 0.2381401
vt 0.0415526 0.2390976
vt 0.2915526 0.2383823
vt 0.2915527 0.238781
vt 0.04155266 0.2381363
vt 0.04155266 0.2390938
vt 0.2915527 0.2384129
vt 0.03236669 -22.84278
vt 0.03746431 -22.8377
vt 0.03897375 -22.84278
vt 0.0210459 -22.82825
vt 0.02104589 -22.82124
vt 0.02614351 -22.82318
vt 0.02873749 -22.82825
vt 0.0233347 -22.82312
vt 0.02873749 -22.82124
vt 0.04455084 -22.84233
vt 0.03728765 -22.84233
vt 0.03914804 -22.8372
vt 0.03951425 -22.84668
vt 0.02562471 -22.82422
vt 0.02562471 -22.83088
vt 0.02058814 -22.82878
vt 0.02024478 -22.82422
vt 0.02523559 -22.82854
vt 0.02024478 -22.83088
vt 0.03236669 -22.84414
vt 0.03897375 -22.84414
vt 0.03735749 -22.84846

g model
usemtl model
usemap model
f 2/2/2 1/1/1 3/3/3
f 2/2/2 4/4/4 1/1/1
f 6/6/6 5/5/5 7/7/7
f 6/6/6 8/8/8 5/5/5
f 10/10/10 9/9/9 11/11/11
f 10/10/10 12/12/12 9/9/9
f 14/14/14 13/13/13 15/15/15
f 14/14/14 16/16/16 13/13/13
f 18/18/18 17/17/17 19/19/19
f 18/18/18 20/20/20 17/17/17
f 22/22/22 21/21/21 23/23/23
f 22/22/22 24/24/24 21/21/21
f 26/26/26 25/25/25 27/27/27
f 26/26/26 28/28/28 25/25/25
f 30/30/30 29/29/29 31/31/31
f 30/30/30 32/32/32 29/29/29
f 34/34/34 33/33/33 35/35/35
f 37/37/37 36/36/36 38/38/38
f 40/40/40 39/39/39 41/41/41
f 43/43/43 42/42/42 44/44/44
f 45/45/45 42/42/42 43/43/43
f 47/47/47 46/46/46 48/48/48
f 50/50/50 49/49/49 51/51/51
f 53/53/53 52/52/52 54/54/54
