mtllib ./antenna01.mtl
g antenna01
v -0.1997071 46.99951 -0.4000244
v 0.0002441406 21.99951 -0.2000122
v -0.1997071 21.99951 -0.4000244
v 0.0002441406 46.99951 -0.2000122
v 0.0002441406 46.99951 -0.2000122
v 0.2001953 21.99951 -0.4000244
v 0.0002441406 21.99951 -0.2000122
v 0.2001953 46.99951 -0.4000244
v 0.2001953 46.99951 -0.4000244
v 0.0002441406 21.99951 -0.6000366
v 0.2001953 21.99951 -0.4000244
v 0.0002441406 46.99951 -0.6000366
v 0.0002441406 46.99951 -0.6000366
v -0.1997071 21.99951 -0.4000244
v 0.0002441406 21.99951 -0.6000366
v -0.1997071 46.99951 -0.4000244
v 0.0002441406 46.99951 -0.4000244
v 0.0002441406 46.99951 -0.2000122
v -0.1997071 46.99951 -0.4000244
v 0.0002441406 46.99951 -0.4000244
v 0.2001953 46.99951 -0.4000244
v 0.0002441406 46.99951 -0.2000122
v 0.0002441406 46.99951 -0.4000244
v 0.0002441406 46.99951 -0.6000366
v 0.2001953 46.99951 -0.4000244
v 0.0002441406 46.99951 -0.4000244
v -0.1997071 46.99951 -0.4000244
v 0.0002441406 46.99951 -0.6000366
v -0.2497559 34.99951 0.3899841
v 0.0002441406 24.99951 0.6399846
v -0.2497559 24.99951 0.3899841
v 0.0002441406 34.99951 0.6399846
v 0.0002441406 34.99951 0.6399846
v 0.2502441 24.99951 0.3899841
v 0.0002441406 24.99951 0.6399846
v 0.2502441 34.99951 0.3899841
v 0.2502441 34.99951 0.3899841
v 0.0002441406 24.99951 0.1399841
v 0.2502441 24.99951 0.3899841
v 0.0002441406 34.99951 0.1399841
v 0.0002441406 34.99951 0.1399841
v -0.2497559 24.99951 0.3899841
v 0.0002441406 24.99951 0.1399841
v -0.2497559 34.99951 0.3899841
v 0.0002441406 34.99951 0.3899841
v 0.0002441406 34.99951 0.6399846
v -0.2497559 34.99951 0.3899841
v 0.0002441406 34.99951 0.3899841
v 0.2502441 34.99951 0.3899841
v 0.0002441406 34.99951 0.6399846
v 0.0002441406 34.99951 0.3899841
v 0.0002441406 34.99951 0.1399841
v 0.2502441 34.99951 0.3899841
v 0.0002441406 34.99951 0.3899841
v -0.2497559 34.99951 0.3899841
v 0.0002441406 34.99951 0.1399841
v -0.4997559 24.99951 -3.051758E-05
v -0.4042968 -0.0004882813 0.4701843
v -0.4997559 -0.0004882813 -3.051758E-05
v -0.4042968 24.99951 0.4701843
v -0.4042968 24.99951 0.4701843
v -0.1542969 -0.0004882813 0.7608036
v -0.4042968 -0.0004882813 0.4701843
v -0.1542969 24.99951 0.7608036
v -0.1542969 24.99951 0.7608036
v 0.1547851 -0.0004882813 0.7608036
v -0.1542969 -0.0004882813 0.7608036
v 0.1547851 24.99951 0.7608036
v 0.1547851 24.99951 0.7608036
v 0.4047851 -0.0004882813 0.4701843
v 0.1547851 -0.0004882813 0.7608036
v 0.4047851 24.99951 0.4701843
v 0.4047851 24.99951 0.4701843
v 0.5002441 -0.0004882813 -3.051758E-05
v 0.4047851 -0.0004882813 0.4701843
v 0.5002441 24.99951 -3.051758E-05
v 0.5002441 24.99951 -3.051758E-05
v 0.4047851 -0.0004882813 -0.4702454
v 0.5002441 -0.0004882813 -3.051758E-05
v 0.4047851 24.99951 -0.4702454
v 0.4047851 24.99951 -0.4702454
v 0.1547851 -0.0004882813 -0.7608643
v 0.4047851 -0.0004882813 -0.4702454
v 0.1547851 24.99951 -0.7608643
v 0.1547851 24.99951 -0.7608643
v -0.1542969 -0.0004882813 -0.7608643
v 0.1547851 -0.0004882813 -0.7608643
v -0.1542969 24.99951 -0.7608643
v -0.1542969 24.99951 -0.7608643
v -0.4042968 -0.0004882813 -0.4702454
v -0.1542969 -0.0004882813 -0.7608643
v -0.4042968 24.99951 -0.4702454
v -0.4042968 24.99951 -0.4702454
v -0.4997559 -0.0004882813 -3.051758E-05
v -0.4042968 -0.0004882813 -0.4702454
v -0.4997559 24.99951 -3.051758E-05
v 0.0002441406 24.99951 -3.051758E-05
v -0.4042968 24.99951 0.4701843
v -0.4997559 24.99951 -3.051758E-05
v -0.1542969 24.99951 0.7608036
v 0.1547851 24.99951 0.7608036
v 0.4047851 24.99951 0.4701843
v 0.5002441 24.99951 -3.051758E-05
v 0.4047851 24.99951 -0.4702454
v 0.1547851 24.99951 -0.7608643
v -0.1542969 24.99951 -0.7608643
v -0.4042968 24.99951 -0.4702454

vn -0.7072146 0 0.7069989
vn -0.7072146 0 0.7069989
vn -0.7072146 0 0.7069989
vn -0.7072146 0 0.7069989
vn 0.7072146 0 0.7069989
vn 0.7072146 0 0.7069989
vn 0.7072146 0 0.7069989
vn 0.7072146 0 0.7069989
vn 0.7072146 0 -0.7069989
vn 0.7072146 0 -0.7069989
vn 0.7072146 0 -0.7069989
vn 0.7072146 0 -0.7069989
vn -0.7072146 0 -0.7069989
vn -0.7072146 0 -0.7069989
vn -0.7072146 0 -0.7069989
vn -0.7072146 0 -0.7069989
vn 0 1 0
vn 0 1 0
vn 0 1 0
vn 0 1 0
vn 0 1 0
vn 0 1 0
vn 0 1 0
vn 0 1 0
vn 0 1 0
vn 0 1 0
vn 0 1 0
vn 0 1 0
vn -0.7071075 0 0.707106
vn -0.7071075 0 0.707106
vn -0.7071075 0 0.707106
vn -0.7071075 0 0.707106
vn 0.7071075 0 0.707106
vn 0.7071075 0 0.707106
vn 0.7071075 0 0.707106
vn 0.7071075 0 0.707106
vn 0.7071068 0 -0.7071068
vn 0.7071068 0 -0.7071068
vn 0.7071068 0 -0.7071068
vn 0.7071068 0 -0.7071068
vn -0.7071068 0 -0.7071068
vn -0.7071068 0 -0.7071068
vn -0.7071068 0 -0.7071068
vn -0.7071068 0 -0.7071068
vn 0 1 0
vn 0 1 0
vn 0 1 0
vn 0 1 0
vn 0 1 0
vn 0 1 0
vn 0 1 0
vn 0 1 0
vn 0 1 0
vn 0 1 0
vn 0 1 0
vn 0 1 0
vn -0.980009 0 0.1989531
vn -0.980009 0 0.1989531
vn -0.980009 0 0.1989531
vn -0.980009 0 0.1989531
vn -0.7580983 0 0.6521403
vn -0.7580983 0 0.6521403
vn -0.7580983 0 0.6521403
vn -0.7580983 0 0.6521403
vn 0 0 1
vn 0 0 1
vn 0 0 1
vn 0 0 1
vn 0.7580983 0 0.6521403
vn 0.7580983 0 0.6521403
vn 0.7580983 0 0.6521403
vn 0.7580983 0 0.6521403
vn 0.980009 0 0.1989531
vn 0.980009 0 0.1989531
vn 0.980009 0 0.1989531
vn 0.980009 0 0.1989531
vn 0.980009 0 -0.1989531
vn 0.980009 0 -0.1989531
vn 0.980009 0 -0.1989531
vn 0.980009 0 -0.1989531
vn 0.7580979 0 -0.6521409
vn 0.7580979 0 -0.6521409
vn 0.7580979 0 -0.6521409
vn 0.7580979 0 -0.6521409
vn 0 0 -1
vn 0 0 -1
vn 0 0 -1
vn 0 0 -1
vn -0.7580979 0 -0.6521409
vn -0.7580979 0 -0.6521409
vn -0.7580979 0 -0.6521409
vn -0.7580979 0 -0.6521409
vn -0.980009 0 -0.1989531
vn -0.980009 0 -0.1989531
vn -0.980009 0 -0.1989531
vn -0.980009 0 -0.1989531
vn 0 1 0
vn 0 1 0
vn 0 1 0
vn 0 1 0
vn 0 1 0
vn 0 1 0
vn 0 1 0
vn 0 1 0
vn 0 1 0
vn 0 1 0
vn 0 1 0

vt 0.3082809 0.2405586
vt 0.05828089 0.23773
vt 0.05828089 0.2405586
vt 0.3082809 0.23773
vt 0.3082809 0.2405586
vt 0.05828089 0.23773
vt 0.05828089 0.2405586
vt 0.3082809 0.23773
vt 0.3082809 0.2405586
vt 0.05828087 0.23773
vt 0.05828087 0.2405586
vt 0.3082809 0.23773
vt 0.3082809 0.2405586
vt 0.05828087 0.23773
vt 0.05828087 0.2405586
vt 0.3082809 0.23773
vt 0.09799565 0.2414739
vt 0.1019956 0.2414739
vt 0.09799565 0.2374739
vt 0.09799564 0.237474
vt 0.09799564 0.2414739
vt 0.1019956 0.237474
vt 0.1019956 0.2374739
vt 0.09799564 0.2374739
vt 0.1019956 0.2414739
vt 0.1019956 0.2414739
vt 0.1019956 0.2374739
vt 0.09799564 0.2414739
vt 0.3267781 0.2437377
vt 0.02677795 0.2331309
vt 0.02677795 0.2437377
vt 0.3267781 0.2331309
vt 0.3267781 0.2437377
vt 0.02677795 0.2331309
vt 0.02677795 0.2437377
vt 0.3267781 0.2331309
vt 0.3267781 0.2437377
vt 0.02677794 0.2331309
vt 0.02677794 0.2437377
vt 0.3267781 0.2331309
vt 0.3267781 0.2437377
vt 0.02677795 0.2331309
vt 0.02677795 0.2437377
vt 0.3267781 0.2331309
vt 0.08300778 0.2354007
vt 0.08300778 0.2432132
vt 0.1669922 0.2354007
vt 0.1669922 0.2354007
vt 0.08300778 0.2354007
vt 0.1669922 0.2432132
vt 0.1669922 0.2432132
vt 0.1669922 0.2354007
vt 0.08300778 0.2432132
vt 0.08300778 0.2432132
vt 0.1669922 0.2432132
vt 0.08300778 0.2354007
vt 0.01569849 0.2306099
vt 0.4336672 0.2447205
vt 0.4336672 0.2306099
vt 0.01569849 0.2447205
vt 0.01569849 0.2306099
vt 0.4336672 0.2447205
vt 0.4336672 0.2306099
vt 0.01569849 0.2447205
vt 0.01569849 0.2306099
vt 0.4336672 0.2447205
vt 0.4336672 0.2306099
vt 0.01569849 0.2447205
vt 0.01569849 0.2306099
vt 0.4336672 0.2447205
vt 0.4336672 0.2306099
vt 0.01569849 0.2447205
vt 0.01569849 0.2306099
vt 0.4336672 0.2447205
vt 0.4336672 0.2306099
vt 0.01569849 0.2447205
vt 0.01569843 0.2306099
vt 0.4336672 0.2447205
vt 0.4336672 0.2306099
vt 0.01569843 0.2447205
vt 0.01569849 0.2306099
vt 0.4336672 0.2447205
vt 0.4336672 0.2306099
vt 0.01569849 0.2447205
vt 0.01569855 0.2306099
vt 0.4336673 0.2447205
vt 0.4336673 0.2306099
vt 0.01569855 0.2447205
vt 0.01569843 0.2306099
vt 0.4336672 0.2447205
vt 0.4336672 0.2306099
vt 0.01569843 0.2447205
vt 0.01569849 0.2306099
vt 0.4336672 0.2447205
vt 0.4336672 0.2306099
vt 0.01569849 0.2447205
vt 0.2032092 0.2387557
vt 0.2072546 0.2434579
vt 0.2082092 0.2387557
vt 0.2047546 0.2463641
vt 0.2016638 0.2463641
vt 0.1991638 0.2434579
vt 0.1982092 0.2387557
vt 0.1991638 0.2340536
vt 0.2016638 0.2311473
vt 0.2047546 0.2311473
vt 0.2072546 0.2340536

g model
usemtl model
usemap model
f 2/2/2 1/1/1 3/3/3
f 2/2/2 4/4/4 1/1/1
f 6/6/6 5/5/5 7/7/7
f 6/6/6 8/8/8 5/5/5
f 10/10/10 9/9/9 11/11/11
f 10/10/10 12/12/12 9/9/9
f 14/14/14 13/13/13 15/15/15
f 14/14/14 16/16/16 13/13/13
f 18/18/18 17/17/17 19/19/19
f 21/21/21 20/20/20 22/22/22
f 24/24/24 23/23/23 25/25/25
f 27/27/27 26/26/26 28/28/28
f 30/30/30 29/29/29 31/31/31
f 30/30/30 32/32/32 29/29/29
f 34/34/34 33/33/33 35/35/35
f 34/34/34 36/36/36 33/33/33
f 38/38/38 37/37/37 39/39/39
f 38/38/38 40/40/40 37/37/37
f 42/42/42 41/41/41 43/43/43
f 42/42/42 44/44/44 41/41/41
f 46/46/46 45/45/45 47/47/47
f 49/49/49 48/48/48 50/50/50
f 52/52/52 51/51/51 53/53/53
f 55/55/55 54/54/54 56/56/56
f 58/58/58 57/57/57 59/59/59
f 58/58/58 60/60/60 57/57/57
f 62/62/62 61/61/61 63/63/63
f 62/62/62 64/64/64 61/61/61
f 66/66/66 65/65/65 67/67/67
f 66/66/66 68/68/68 65/65/65
f 70/70/70 69/69/69 71/71/71
f 70/70/70 72/72/72 69/69/69
f 74/74/74 73/73/73 75/75/75
f 74/74/74 76/76/76 73/73/73
f 78/78/78 77/77/77 79/79/79
f 78/78/78 80/80/80 77/77/77
f 82/82/82 81/81/81 83/83/83
f 82/82/82 84/84/84 81/81/81
f 86/86/86 85/85/85 87/87/87
f 86/86/86 88/88/88 85/85/85
f 90/90/90 89/89/89 91/91/91
f 90/90/90 92/92/92 89/89/89
f 94/94/94 93/93/93 95/95/95
f 94/94/94 96/96/96 93/93/93
f 98/98/98 97/97/97 99/99/99
f 100/100/100 97/97/97 98/98/98
f 101/101/101 97/97/97 100/100/100
f 102/102/102 97/97/97 101/101/101
f 103/103/103 97/97/97 102/102/102
f 104/104/104 97/97/97 103/103/103
f 105/105/105 97/97/97 104/104/104
f 106/106/106 97/97/97 105/105/105
f 107/107/107 97/97/97 106/106/106
f 99/99/99 97/97/97 107/107/107
