mtllib ./building02.mtl
g building02
v 37.50366 0 37.48572
v -37.48511 0 37.49158
v -37.48462 49.9165 37.49084
v 37.50342 49.9165 37.48462
v -37.48511 0 37.49158
v -37.48804 0 -37.48352
v -37.48779 49.9165 -37.4826
v -37.48462 49.9165 37.49084
v -37.48804 0 -37.48352
v 37.46973 0 -37.49384
v 37.46729 49.9165 -37.49359
v -37.48779 49.9165 -37.4826
v 37.46973 0 -37.49384
v 37.50366 0 37.48572
v 37.50342 49.9165 37.48462
v 37.46729 49.9165 -37.49359
v 0.007080078 48.4165 36.00281
v -35.99292 48.4165 36.00281
v 0.007080078 48.4165 0.002807617
v -35.99292 48.4165 0.002807617
v 36.00708 48.4165 36.00281
v 0.007080078 48.4165 36.00281
v 0.007080078 48.4165 0.002807617
v 36.00708 48.4165 0.002807617
v -35.99292 48.4165 0.002807617
v -35.99292 48.4165 -35.99719
v 0.007080078 48.4165 0.002807617
v 0.007080078 48.4165 -35.99719
v 36.00708 48.4165 -35.99719
v 36.00708 48.4165 0.002807617
v 0.007080078 48.4165 0.002807617
v 0.007080078 48.4165 -35.99719
v 0.007080078 49.9165 36.00281
v -35.99292 49.9165 36.00281
v 0.007080078 48.4165 36.00281
v -35.99292 48.4165 36.00281
v -35.99292 49.9165 36.00281
v -35.99292 49.9165 0.002807617
v -35.99292 48.4165 36.00281
v -35.99292 48.4165 0.002807617
v -35.99292 49.9165 0.002807617
v -35.99292 49.9165 -35.99719
v -35.99292 48.4165 0.002807617
v -35.99292 48.4165 -35.99719
v -35.99292 49.9165 -35.99719
v 0.007080078 49.9165 -35.99719
v -35.99292 48.4165 -35.99719
v 0.007080078 48.4165 -35.99719
v 36.00708 49.9165 -35.99719
v 36.00708 49.9165 0.002807617
v 36.00708 48.4165 -35.99719
v 36.00708 48.4165 0.002807617
v 0.007080078 49.9165 -35.99719
v 36.00708 49.9165 -35.99719
v 0.007080078 48.4165 -35.99719
v 36.00708 48.4165 -35.99719
v 36.00708 49.9165 36.00281
v 0.007080078 49.9165 36.00281
v 36.00708 48.4165 36.00281
v 0.007080078 48.4165 36.00281
v 36.00708 49.9165 0.002807617
v 36.00708 49.9165 36.00281
v 36.00708 48.4165 0.002807617
v 36.00708 48.4165 36.00281
v 36.00708 49.9165 -35.99719
v 0.007080078 49.9165 -35.99719
v 37.46729 49.9165 -37.49359
v -35.99292 49.9165 -35.99719
v -37.48779 49.9165 -37.4826
v 36.00708 49.9165 0.002807617
v 36.00708 49.9165 -35.99719
v 37.50342 49.9165 37.48462
v 37.46729 49.9165 -37.49359
v 36.00708 49.9165 36.00281
v 0.007080078 49.9165 36.00281
v 36.00708 49.9165 36.00281
v -37.48462 49.9165 37.49084
v 37.50342 49.9165 37.48462
v -35.99292 49.9165 36.00281
v -35.99292 49.9165 0.002807617
v -35.99292 49.9165 36.00281
v -37.48779 49.9165 -37.4826
v -37.48462 49.9165 37.49084
v -35.99292 49.9165 -35.99719

vn 8.057887E-05 1.834098E-05 1
vn 7.813671E-05 1.467218E-05 1
vn 8.057887E-05 1.834098E-05 1
vn 8.302106E-05 2.200982E-05 1
vn -1 7.336396E-06 4.070407E-05
vn -0.9999999 4.890263E-06 3.907547E-05
vn -1 7.336396E-06 4.070407E-05
vn -1 9.78258E-06 4.233269E-05
vn -0.000142091 1.161295E-05 -1
vn -0.00013761 4.884242E-06 -1
vn -0.000142091 1.161295E-05 -1
vn -0.0001465722 1.834189E-05 -1
vn 0.9999999 2.689637E-05 -0.000467254
vn 0.9999998 4.880974E-06 -0.0004525973
vn 0.9999999 2.689637E-05 -0.000467254
vn 0.9999998 4.891215E-05 -0.0004819108
vn 0 1 0
vn 0 1 0
vn 0 1 0
vn 0 1 0
vn 0 1 0
vn 0 1 0
vn 0 1 0
vn 0 1 0
vn 0 1 0
vn 0 1 0
vn 0 1 0
vn 0 1 0
vn 0 1 0
vn 0 1 0
vn 0 1 0
vn 0 1 0
vn 0 0 -1
vn 0 0 -1
vn 0 0 -1
vn 0 0 -1
vn 1 0 0
vn 1 0 0
vn 1 0 0
vn 1 0 0
vn 1 0 0
vn 1 0 0
vn 1 0 0
vn 1 0 0
vn 0 0 1
vn 0 0 1
vn 0 0 1
vn 0 0 1
vn -1 0 0
vn -1 0 0
vn -1 0 0
vn -1 0 0
vn 0 0 1
vn 0 0 1
vn 0 0 1
vn 0 0 1
vn 0 0 -1
vn 0 0 -1
vn 0 0 -1
vn 0 0 -1
vn -1 0 0
vn -1 0 0
vn -1 0 0
vn -1 0 0
vn 0 0.9999999 0
vn 0 0.9999999 0
vn 0 1 0
vn 0 1 0
vn 0 1 0
vn 0 1 0
vn 0 1 0
vn 0 1 0
vn 0 1 0
vn 0 1 0
vn 0 1 0
vn 0 1 0
vn 0 0.9999999 0
vn 0 1 0
vn 0 1 0
vn 0 1 0
vn 0 1 0
vn 0 0.9999999 0
vn 0 1 0
vn 0 1 0

vt 0.2512665 0.8319101
vt 0.001304626 0.8319101
vt 0.001306534 0.9982996
vt 0.2512665 0.9982996
vt 0.2514496 0.8316612
vt 0.001533508 0.8316612
vt 0.001535416 0.9980507
vt 0.2514477 0.9980507
vt 0.2516708 0.8317881
vt 0.001811981 0.8317881
vt 0.001819611 0.9981775
vt 0.2516708 0.9981775
vt 0.2513008 0.8319702
vt 0.001369476 0.8319702
vt 0.001373291 0.9983597
vt 0.2513008 0.9983597
vt 0.002296448 0.2227974
vt 0.2230968 0.2227974
vt 0.002296448 0.001996994
vt 0.2230968 0.001996994
vt 0.002296448 0.2227974
vt 0.2230968 0.2227974
vt 0.2230968 0.001996994
vt 0.002296448 0.001996994
vt 0.2230968 0.2227974
vt 0.2230968 0.001996994
vt 0.002296448 0.2227974
vt 0.002296448 0.001996994
vt 0.002296448 0.001996994
vt 0.002296448 0.2227974
vt 0.2230968 0.2227974
vt 0.2230968 0.001996994
vt 0.002244949 0.0245102
vt 0.2230453 0.0245102
vt 0.002244949 0.01531023
vt 0.2230453 0.01531023
vt 0.002379417 0.02445346
vt 0.2231798 0.02445346
vt 0.002379417 0.01525348
vt 0.2231798 0.01525348
vt 0.002043724 0.02453148
vt 0.2228441 0.02453148
vt 0.002043724 0.01533151
vt 0.2228441 0.01533151
vt 0.001376152 0.02430794
vt 0.2221766 0.02430794
vt 0.001376152 0.01510796
vt 0.2221766 0.01510796
vt 0.001880646 0.02430511
vt 0.222681 0.02430511
vt 0.001880646 0.01510513
vt 0.222681 0.01510513
vt 0.001965523 0.02431458
vt 0.2227659 0.02431458
vt 0.001965523 0.01511461
vt 0.2227659 0.01511461
vt 0.002116203 0.02423513
vt 0.2229166 0.02423513
vt 0.002116203 0.01503515
vt 0.2229166 0.01503515
vt 0.002388954 0.02406746
vt 0.2231894 0.02406746
vt 0.002388954 0.01486748
vt 0.2231894 0.01486748
vt 0.0409832 0.4548539
vt 0.1129837 0.4548539
vt 0.03806305 0.4518611
vt 0.1849842 0.4548539
vt 0.187973 0.4518831
vt 0.1222862 0.4522915
vt 0.0502857 0.4522915
vt 0.1972488 0.455286
vt 0.04729307 0.4552135
vt 0.1942848 0.4522915
vt 0.1222572 0.4527487
vt 0.05025673 0.4527487
vt 0.1972389 0.4557248
vt 0.0472641 0.4557123
vt 0.1942558 0.4527487
vt 0.104793 0.4554291
vt 0.1767915 0.4554291
vt 0.0298208 0.4524384
vt 0.1797689 0.452446
vt 0.03279245 0.4554291

g model
usemtl model
usemap model
f 2/2/2 1/1/1 3/3/3
f 1/1/1 4/4/4 3/3/3
f 6/6/6 5/5/5 7/7/7
f 5/5/5 8/8/8 7/7/7
f 10/10/10 9/9/9 11/11/11
f 9/9/9 12/12/12 11/11/11
f 14/14/14 13/13/13 15/15/15
f 13/13/13 16/16/16 15/15/15
f 18/18/18 17/17/17 19/19/19
f 20/20/20 18/18/18 19/19/19
f 22/22/22 21/21/21 23/23/23
f 21/21/21 24/24/24 23/23/23
f 26/26/26 25/25/25 27/27/27
f 28/28/28 26/26/26 27/27/27
f 30/30/30 29/29/29 31/31/31
f 29/29/29 32/32/32 31/31/31
f 34/34/34 33/33/33 35/35/35
f 36/36/36 34/34/34 35/35/35
f 38/38/38 37/37/37 39/39/39
f 40/40/40 38/38/38 39/39/39
f 42/42/42 41/41/41 43/43/43
f 44/44/44 42/42/42 43/43/43
f 46/46/46 45/45/45 47/47/47
f 48/48/48 46/46/46 47/47/47
f 50/50/50 49/49/49 51/51/51
f 52/52/52 50/50/50 51/51/51
f 54/54/54 53/53/53 55/55/55
f 56/56/56 54/54/54 55/55/55
f 58/58/58 57/57/57 59/59/59
f 60/60/60 58/58/58 59/59/59
f 62/62/62 61/61/61 63/63/63
f 64/64/64 62/62/62 63/63/63
f 66/66/66 65/65/65 67/67/67
f 68/68/68 66/66/66 67/67/67
f 69/69/69 68/68/68 67/67/67
f 71/71/71 70/70/70 72/72/72
f 73/73/73 71/71/71 72/72/72
f 70/70/70 74/74/74 72/72/72
f 76/76/76 75/75/75 77/77/77
f 78/78/78 76/76/76 77/77/77
f 75/75/75 79/79/79 77/77/77
f 81/81/81 80/80/80 82/82/82
f 83/83/83 81/81/81 82/82/82
f 80/80/80 84/84/84 82/82/82
