mtllib ./building22.mtl
g building22
v -17.83801 0.0009765625 10.6842
v -18.21863 0.0009765625 8.770752
v -17.83801 52.2915 10.6842
v -18.21863 52.2915 8.770752
v -16.75427 0.0009765625 12.30634
v -17.83801 0.0009765625 10.6842
v -16.75427 52.2915 12.30634
v -17.83801 52.2915 10.6842
v -15.1322 0.0009765625 13.3902
v -16.75427 0.0009765625 12.30634
v -15.1322 52.2915 13.3902
v -16.75427 52.2915 12.30634
v -13.21863 0.0009765625 13.77075
v -15.1322 0.0009765625 13.3902
v -13.21863 52.2915 13.77075
v -15.1322 52.2915 13.3902
v 15.11145 0.0009765625 13.3902
v 13.19788 0.0009765625 13.77075
v 15.11145 52.2915 13.3902
v 13.19788 52.2915 13.77075
v 16.73352 0.0009765625 12.30634
v 15.11145 0.0009765625 13.3902
v 16.73352 52.2915 12.30634
v 15.11145 52.2915 13.3902
v 17.8175 0.0009765625 10.6842
v 16.73352 0.0009765625 12.30634
v 17.8175 52.2915 10.6842
v 16.73352 52.2915 12.30634
v 18.19788 0.0009765625 8.770752
v 17.8175 0.0009765625 10.6842
v 18.19788 52.2915 8.770752
v 17.8175 52.2915 10.6842
v 1.92981 0.0009765625 -23.93317
v 3.5448 0.0009765625 -22.83032
v 1.92981 52.2915 -23.93317
v 3.5448 52.2915 -22.83032
v 0.02380371 0.0009765625 -24.31372
v 1.92981 0.0009765625 -23.93317
v 0.02380371 52.2915 -24.31372
v 1.92981 52.2915 -23.93317
v -1.882202 0.0009765625 -23.93317
v 0.02380371 0.0009765625 -24.31372
v -1.882202 52.2915 -23.93317
v 0.02380371 52.2915 -24.31372
v -3.512817 0.0009765625 -22.8363
v -1.882202 0.0009765625 -23.93317
v -3.512817 52.2915 -22.8363
v -1.882202 52.2915 -23.93317
v -18.21863 0.0009765625 8.770752
v -3.512817 0.0009765625 -22.8363
v -18.21863 52.2915 8.770752
v -3.512817 52.2915 -22.8363
v 13.19788 0.0009765625 13.77075
v -13.21863 0.0009765625 13.77075
v 13.19788 52.2915 13.77075
v -13.21863 52.2915 13.77075
v 3.5448 0.0009765625 -22.83032
v 18.19788 0.0009765625 8.770752
v 3.5448 52.2915 -22.83032
v 18.19788 52.2915 8.770752
v -18.21863 52.2915 8.770752
v -13.21863 52.2915 8.770752
v -17.83801 52.2915 10.6842
v -16.75427 52.2915 12.30634
v -15.1322 52.2915 13.3902
v -13.21863 52.2915 13.77075
v 13.19788 52.2915 13.77075
v 13.19788 52.2915 8.770752
v 15.11145 52.2915 13.3902
v 16.73352 52.2915 12.30634
v 17.8175 52.2915 10.6842
v 18.19788 52.2915 8.770752
v 3.5448 52.2915 -22.83032
v 0.01623535 52.2915 -19.31372
v 1.92981 52.2915 -23.93317
v 0.02380371 52.2915 -24.31372
v 0.03137207 52.2915 -19.31372
v -1.882202 52.2915 -23.93317
v -3.512817 52.2915 -22.8363
v 0.02380371 52.2915 -24.31372
v 0.01623535 52.2915 -19.31372
v 0.03137207 52.2915 -19.31372
v 0.01623535 52.2915 -19.31372
v -13.21863 52.2915 8.770752
v 0.03137207 52.2915 -19.31372

vn -0.9807848 0 0.1950933
vn -0.9807848 0 0.1950933
vn -0.9807848 0 0.1950933
vn -0.9807848 0 0.1950933
vn -0.8315011 0 0.555523
vn -0.8315011 0 0.555523
vn -0.8315011 0 0.555523
vn -0.8315011 0 0.555523
vn -0.5555807 0 0.8314626
vn -0.5555807 0 0.8314626
vn -0.5555807 0 0.8314626
vn -0.5555807 0 0.8314626
vn -0.1950512 0 0.980793
vn -0.1950512 0 0.980793
vn -0.1950512 0 0.980793
vn -0.1950512 0 0.980793
vn 0.1950512 0 0.980793
vn 0.1950512 0 0.980793
vn 0.1950512 0 0.980793
vn 0.1950512 0 0.980793
vn 0.5555807 0 0.8314626
vn 0.5555807 0 0.8314626
vn 0.5555807 0 0.8314626
vn 0.5555807 0 0.8314626
vn 0.8314434 0 0.5556095
vn 0.8314434 0 0.5556095
vn 0.8314434 0 0.5556095
vn 0.8314434 0 0.5556095
vn 0.9808086 0 0.1949729
vn 0.9808086 0 0.1949729
vn 0.9808086 0 0.1949729
vn 0.9808086 0 0.1949729
vn 0.5639352 0 -0.8258191
vn 0.5639352 0 -0.8258191
vn 0.5639352 0 -0.8258191
vn 0.5639352 0 -0.8258191
vn 0.1957961 0 -0.9806447
vn 0.1957961 0 -0.9806447
vn 0.1957961 0 -0.9806447
vn 0.1957961 0 -0.9806447
vn -0.1957961 0 -0.9806447
vn -0.1957961 0 -0.9806447
vn -0.1957961 0 -0.9806447
vn -0.1957961 0 -0.9806447
vn -0.5581429 0 -0.8297449
vn -0.5581429 0 -0.8297449
vn -0.5581429 0 -0.8297449
vn -0.5581429 0 -0.8297449
vn -0.9066679 0 -0.4218453
vn -0.9066679 0 -0.4218453
vn -0.9066679 0 -0.4218453
vn -0.9066679 0 -0.4218453
vn 0 0 1
vn 0 0 1
vn 0 0 1
vn 0 0 1
vn 0.9072155 0 -0.420666
vn 0.9072155 0 -0.420666
vn 0.9072155 0 -0.420666
vn 0.9072155 0 -0.420666
vn 0 1 0
vn 0 1 0
vn 0 1 0
vn 0 1 0
vn 0 1 0
vn 0 1 0
vn 0 1 0
vn 0 1 0
vn 0 1 0
vn 0 0.9999999 0
vn 0 1 0
vn 0 1 0
vn 0 1 0
vn 0 1 0
vn 0 1 0
vn 0 1 0
vn 0 1 0
vn 0 1 0
vn 0 1 0
vn 0 1 0
vn 0 1 0
vn 0 1 0
vn 0 1 0
vn 0 1 0
vn 0 1 0

vt 0.9276544 0.703064
vt 0.9237527 0.703064
vt 0.9276544 0.8076477
vt 0.9237527 0.8076477
vt 0.8600488 0.7030792
vt 0.8561471 0.7030792
vt 0.8600488 0.807663
vt 0.8561471 0.807663
vt 0.8663728 0.7030792
vt 0.8624711 0.7030792
vt 0.8663728 0.807663
vt 0.8624711 0.807663
vt 0.8746544 0.7030792
vt 0.8707525 0.7030792
vt 0.8746544 0.807663
vt 0.8707525 0.807663
vt 0.9498714 0.7030792
vt 0.9459695 0.7030792
vt 0.9498714 0.807663
vt 0.9459695 0.807663
vt 0.9581788 0.7030792
vt 0.954277 0.7030792
vt 0.9581788 0.807663
vt 0.954277 0.807663
vt 0.9645511 0.7030792
vt 0.9606494 0.7030792
vt 0.9645511 0.807663
vt 0.9606494 0.807663
vt 0.9680182 0.7030792
vt 0.9641165 0.7030792
vt 0.9680182 0.807663
vt 0.9641165 0.807663
vt 0.8930525 0.808403
vt 0.896964 0.808403
vt 0.8930525 0.7038193
vt 0.896964 0.7038193
vt 0.8848176 0.808403
vt 0.8887045 0.808403
vt 0.8848176 0.7038193
vt 0.8887045 0.7038193
vt 0.8758752 0.808403
vt 0.8797622 0.808403
vt 0.8758752 0.7038193
vt 0.8797622 0.7038193
vt 0.8675433 0.808403
vt 0.8714739 0.808403
vt 0.8675433 0.7038193
vt 0.8714739 0.7038193
vt 0.8537369 0.808403
vt 0.9234619 0.808403
vt 0.8537369 0.7038193
vt 0.9234619 0.7038193
vt 0.9078712 0.7030792
vt 0.8550377 0.7030792
vt 0.9078712 0.807663
vt 0.8550377 0.807663
vt 0.8980522 0.808403
vt 0.9677162 0.808403
vt 0.8980522 0.7038193
vt 0.9677162 0.7038193
vt 0.2035675 0.1720695
vt 0.178566 0.1720695
vt 0.201664 0.1816368
vt 0.1962433 0.1897507
vt 0.1881332 0.1951675
vt 0.178566 0.1970711
vt 0.0464859 0.1970711
vt 0.0464859 0.1720695
vt 0.03691864 0.1951675
vt 0.02880859 0.1897507
vt 0.02338791 0.1816368
vt 0.02148438 0.1720695
vt 0.09474945 0.01406479
vt 0.1123924 0.03165054
vt 0.1028252 0.008552551
vt 0.1123543 0.006649017
vt 0.1123161 0.03165054
vt 0.1218834 0.008552551
vt 0.1300392 0.01403427
vt 0.1123543 0.006649017
vt 0.1123924 0.03165054
vt 0.1123161 0.03165054
vt 0.1123924 0.03165054
vt 0.178566 0.1720695
vt 0.1123161 0.03165054

g model
usemtl model
usemap model
f 2/2/2 1/1/1 3/3/3
f 4/4/4 2/2/2 3/3/3
f 6/6/6 5/5/5 7/7/7
f 8/8/8 6/6/6 7/7/7
f 10/10/10 9/9/9 11/11/11
f 12/12/12 10/10/10 11/11/11
f 14/14/14 13/13/13 15/15/15
f 16/16/16 14/14/14 15/15/15
f 18/18/18 17/17/17 19/19/19
f 20/20/20 18/18/18 19/19/19
f 22/22/22 21/21/21 23/23/23
f 24/24/24 22/22/22 23/23/23
f 26/26/26 25/25/25 27/27/27
f 28/28/28 26/26/26 27/27/27
f 30/30/30 29/29/29 31/31/31
f 32/32/32 30/30/30 31/31/31
f 34/34/34 33/33/33 35/35/35
f 36/36/36 34/34/34 35/35/35
f 38/38/38 37/37/37 39/39/39
f 40/40/40 38/38/38 39/39/39
f 42/42/42 41/41/41 43/43/43
f 44/44/44 42/42/42 43/43/43
f 46/46/46 45/45/45 47/47/47
f 48/48/48 46/46/46 47/47/47
f 50/50/50 49/49/49 51/51/51
f 52/52/52 50/50/50 51/51/51
f 54/54/54 53/53/53 55/55/55
f 56/56/56 54/54/54 55/55/55
f 58/58/58 57/57/57 59/59/59
f 60/60/60 58/58/58 59/59/59
f 62/62/62 61/61/61 63/63/63
f 62/62/62 63/63/63 64/64/64
f 62/62/62 64/64/64 65/65/65
f 62/62/62 65/65/65 66/66/66
f 68/68/68 67/67/67 69/69/69
f 68/68/68 69/69/69 70/70/70
f 68/68/68 70/70/70 71/71/71
f 68/68/68 71/71/71 72/72/72
f 74/74/74 73/73/73 75/75/75
f 74/74/74 75/75/75 76/76/76
f 77/77/77 76/76/76 78/78/78
f 77/77/77 78/78/78 79/79/79
f 62/62/62 79/79/79 61/61/61
f 77/77/77 79/79/79 62/62/62
f 66/66/66 68/68/68 62/62/62
f 67/67/67 68/68/68 66/66/66
f 72/72/72 74/74/74 68/68/68
f 73/73/73 74/74/74 72/72/72
f 81/81/81 80/80/80 82/82/82
f 84/84/84 83/83/83 85/85/85
f 68/68/68 74/74/74 62/62/62
