mtllib ./building39.mtl
g building39
v -1.555664 215.5215 0
v -1.555664 215.5215 14
v -15.55566 215.5215 14
v -15.55566 215.5215 0
v -1.555664 215.5215 14
v -1.555664 215.5215 0
v 12.44434 215.5215 14
v 12.44434 215.5215 0
v -1.555664 215.5215 0
v -15.55566 215.5215 0
v -15.55566 215.5215 -14
v -1.555664 215.5215 -14
v 12.44434 215.5215 0
v -1.555664 215.5215 0
v 12.44434 215.5215 -14
v -1.555664 215.5215 -14
v -10.30566 213.9268 14
v -15.55566 213.9268 14
v -15.55566 215.5215 14
v -1.555664 215.5215 14
v -1.555664 213.9268 14
v -10.30566 108.9268 14
v -15.55566 108.9268 14
v -10.30566 3.926758 14
v -15.55566 3.926758 14
v -1.555664 0 14
v -15.55566 0 14
v -1.555664 3.926758 14
v -1.555664 0 14
v 7.194336 3.926758 14
v 12.44434 0 14
v 12.44434 3.926758 14
v -1.555664 3.926758 14
v 7.194336 108.9268 14
v 12.44434 108.9268 14
v 7.194336 213.9268 14
v 12.44434 213.9268 14
v 12.44434 215.5215 14
v -1.555664 215.5215 14
v -1.555664 213.9268 14
v 7.194336 3.926758 21
v -1.555664 3.926758 21
v -1.555664 108.9268 21
v 7.194336 108.9268 21
v 7.194336 213.9268 21
v -1.555664 213.9268 21
v -10.30566 108.9268 21
v -10.30566 213.9268 21
v -1.555664 108.9268 21
v -1.555664 213.9268 21
v -1.555664 3.926758 21
v -10.30566 3.926758 21
v 7.194336 213.9268 14
v 7.194336 108.9268 14
v 7.194336 213.9268 21
v 7.194336 108.9268 21
v 7.194336 3.926758 14
v 7.194336 3.926758 21
v 12.44434 213.9268 8.75
v 12.44434 108.9268 8.75
v 12.44434 108.9268 14
v 12.44434 213.9268 14
v 12.44434 215.5215 14
v 12.44434 215.5215 0
v 12.44434 213.9268 0
v 12.44434 3.926758 8.75
v 12.44434 3.926758 14
v 12.44434 0 0
v 12.44434 0 14
v 12.44434 3.926758 0
v 12.44434 3.926758 0
v 12.44434 3.926758 -8.75
v 12.44434 0 0
v 12.44434 0 -14
v 12.44434 3.926758 -14
v 12.44434 108.9268 -8.75
v 12.44434 108.9268 -14
v 12.44434 213.9268 -8.75
v 12.44434 213.9268 -14
v 12.44434 215.5215 -14
v 12.44434 215.5215 0
v 12.44434 213.9268 0
v 19.44434 108.9268 8.75
v 19.44434 213.9268 8.75
v 19.44434 108.9268 0
v 19.44434 213.9268 0
v 19.44434 3.926758 0
v 19.44434 3.926758 8.75
v 19.44434 213.9268 -8.75
v 19.44434 108.9268 -8.75
v 19.44434 108.9268 0
v 19.44434 213.9268 0
v 19.44434 3.926758 -8.75
v 19.44434 3.926758 0
v 12.44434 213.9268 -8.75
v 12.44434 108.9268 -8.75
v 19.44434 213.9268 -8.75
v 19.44434 108.9268 -8.75
v 12.44434 3.926758 -8.75
v 19.44434 3.926758 -8.75
v 7.194336 108.9268 -14
v 7.194336 213.9268 -14
v 7.194336 108.9268 -21
v 7.194336 213.9268 -21
v 7.194336 3.926758 -14
v 7.194336 3.926758 -21
v 7.194336 108.9268 -21
v 7.194336 213.9268 -21
v -1.555664 108.9268 -21
v -1.555664 213.9268 -21
v -1.555664 3.926758 -21
v 7.194336 3.926758 -21
v -10.30566 213.9268 -21
v -10.30566 108.9268 -21
v -1.555664 108.9268 -21
v -1.555664 213.9268 -21
v -10.30566 3.926758 -21
v -1.555664 3.926758 -21
v -22.55566 108.9268 -8.75
v -22.55566 213.9268 -8.75
v -22.55566 108.9268 0
v -22.55566 213.9268 0
v -22.55566 3.926758 0
v -22.55566 3.926758 -8.75
v -22.55566 213.9268 8.75
v -22.55566 108.9268 8.75
v -22.55566 108.9268 0
v -22.55566 213.9268 0
v -22.55566 3.926758 8.75
v -22.55566 3.926758 0
v -15.55566 213.9268 8.75
v -15.55566 108.9268 8.75
v -22.55566 213.9268 8.75
v -22.55566 108.9268 8.75
v -15.55566 3.926758 8.75
v -22.55566 3.926758 8.75
v -15.55566 108.9268 8.75
v -15.55566 213.9268 8.75
v -15.55566 108.9268 14
v -15.55566 213.9268 14
v -15.55566 3.926758 8.75
v -15.55566 3.926758 14
v -15.55566 215.5215 14
v -15.55566 215.5215 0
v -15.55566 213.9268 0
v -15.55566 0 0
v -15.55566 0 14
v -15.55566 3.926758 0
v -15.55566 108.9268 -8.75
v -15.55566 3.926758 -8.75
v -15.55566 108.9268 -14
v -15.55566 3.926758 -14
v -15.55566 0 0
v -15.55566 0 -14
v -15.55566 3.926758 0
v -15.55566 213.9268 -8.75
v -15.55566 213.9268 -14
v -15.55566 215.5215 -14
v -15.55566 215.5215 0
v -15.55566 213.9268 0
v -10.30566 108.9268 14
v -10.30566 213.9268 14
v -10.30566 108.9268 21
v -10.30566 213.9268 21
v -10.30566 3.926758 14
v -10.30566 3.926758 21
v 12.44434 108.9268 8.75
v 12.44434 213.9268 8.75
v 19.44434 108.9268 8.75
v 19.44434 213.9268 8.75
v 12.44434 3.926758 8.75
v 19.44434 3.926758 8.75
v 7.194336 213.9268 -14
v 7.194336 108.9268 -14
v 12.44434 108.9268 -14
v 12.44434 213.9268 -14
v 12.44434 215.5215 -14
v -1.555664 215.5215 -14
v -1.555664 213.9268 -14
v 7.194336 3.926758 -14
v 12.44434 3.926758 -14
v -1.555664 0 -14
v 12.44434 0 -14
v -1.555664 3.926758 -14
v -1.555664 3.926758 -14
v -10.30566 3.926758 -14
v -1.555664 0 -14
v -15.55566 0 -14
v -15.55566 3.926758 -14
v -10.30566 108.9268 -14
v -15.55566 108.9268 -14
v -10.30566 213.9268 -14
v -15.55566 213.9268 -14
v -15.55566 215.5215 -14
v -1.555664 215.5215 -14
v -1.555664 213.9268 -14
v -10.30566 213.9268 -14
v -10.30566 108.9268 -14
v -10.30566 213.9268 -21
v -10.30566 108.9268 -21
v -10.30566 3.926758 -14
v -10.30566 3.926758 -21
v -15.55566 108.9268 -8.75
v -15.55566 213.9268 -8.75
v -22.55566 108.9268 -8.75
v -22.55566 213.9268 -8.75
v -15.55566 3.926758 -8.75
v -22.55566 3.926758 -8.75
v 7.194336 213.9268 -14
v -1.555664 213.9268 -14
v 7.194336 213.9268 -21
v -1.555664 213.9268 -21
v -10.30566 213.9268 -14
v -10.30566 213.9268 -21
v 12.44434 213.9268 8.75
v 12.44434 213.9268 0
v 19.44434 213.9268 8.75
v 19.44434 213.9268 0
v 12.44434 213.9268 -8.75
v 19.44434 213.9268 -8.75
v -10.30566 213.9268 14
v -1.555664 213.9268 14
v -10.30566 213.9268 21
v -1.555664 213.9268 21
v 7.194336 213.9268 14
v 7.194336 213.9268 21
v -15.55566 213.9268 -8.75
v -15.55566 213.9268 0
v -22.55566 213.9268 -8.75
v -22.55566 213.9268 0
v -15.55566 213.9268 8.75
v -22.55566 213.9268 8.75
v 12.44434 3.926758 0
v 12.44434 3.926758 8.75
v 19.44434 3.926758 0
v 19.44434 3.926758 8.75
v 12.44434 3.926758 -8.75
v 19.44434 3.926758 -8.75
v -1.555664 3.926758 -14
v 7.194336 3.926758 -14
v -1.555664 3.926758 -21
v 7.194336 3.926758 -21
v -10.30566 3.926758 -14
v -10.30566 3.926758 -21
v 7.194336 3.926758 14
v -1.555664 3.926758 14
v 7.194336 3.926758 21
v -1.555664 3.926758 21
v -10.30566 3.926758 14
v -10.30566 3.926758 21
v -15.55566 3.926758 8.75
v -15.55566 3.926758 0
v -22.55566 3.926758 8.75
v -22.55566 3.926758 0
v -15.55566 3.926758 -8.75
v -22.55566 3.926758 -8.75

vn 0 1 0
vn 0 1 0
vn 0 1 0
vn 0 1 0
vn 0 1 0
vn 0 1 0
vn 0 1 0
vn 0 1 0
vn 0 1 0
vn 0 1 0
vn 0 1 0
vn 0 1 0
vn 0 1 0
vn 0 1 0
vn 0 1 0
vn 0 1 0
vn 0 0 1
vn 0 0 1
vn 0 0 1
vn 0 0 0.9999999
vn 0 0 1
vn 0 0 1
vn 0 0 1
vn 0 0 1
vn 0 0 1
vn 0 0 1
vn 0 0 1
vn 0 0 1
vn 0 0 1
vn 0 0 1
vn 0 0 1
vn 0 0 1
vn 0 0 1
vn 0 0 1
vn 0 0 1
vn 0 0 1
vn 0 0 1
vn 0 0 1
vn 0 0 0.9999999
vn 0 0 1
vn 0 0 1
vn 0 0 1
vn 0 0 1
vn 0 0 1
vn 0 0 1
vn 0 0 1
vn 0 0 1
vn 0 0 1
vn 0 0 1
vn 0 0 1
vn 0 0 1
vn 0 0 1
vn 1 0 0
vn 1 0 0
vn 1 0 0
vn 1 0 0
vn 1 0 0
vn 1 0 0
vn 1 0 0
vn 1 0 0
vn 1 0 0
vn 1 0 0
vn 1 0 0
vn 0.9999999 0 0
vn 1 0 0
vn 1 0 0
vn 1 0 0
vn 1 0 0
vn 1 0 0
vn 1 0 0
vn 1 0 0
vn 1 0 0
vn 1 0 0
vn 1 0 0
vn 1 0 0
vn 1 0 0
vn 1 0 0
vn 1 0 0
vn 1 0 0
vn 1 0 0
vn 0.9999999 0 0
vn 1 0 0
vn 1 0 0
vn 1 0 0
vn 1 0 0
vn 1 0 0
vn 1 0 0
vn 1 0 0
vn 1 0 0
vn 1 0 0
vn 1 0 0
vn 1 0 0
vn 1 0 0
vn 1 0 0
vn 0 0 -1
vn 0 0 -1
vn 0 0 -1
vn 0 0 -1
vn 0 0 -1
vn 0 0 -1
vn 1 0 0
vn 1 0 0
vn 1 0 0
vn 1 0 0
vn 1 0 0
vn 1 0 0
vn 0 0 -1
vn 0 0 -1
vn 0 0 -1
vn 0 0 -1
vn 0 0 -1
vn 0 0 -1
vn 0 0 -1
vn 0 0 -1
vn 0 0 -1
vn 0 0 -1
vn 0 0 -1
vn 0 0 -1
vn -1 0 0
vn -1 0 0
vn -1 0 0
vn -1 0 0
vn -1 0 0
vn -1 0 0
vn -1 0 0
vn -1 0 0
vn -1 0 0
vn -1 0 0
vn -1 0 0
vn -1 0 0
vn 0 0 1
vn 0 0 1
vn 0 0 1
vn 0 0 1
vn 0 0 1
vn 0 0 1
vn -1 0 0
vn -1 0 0
vn -1 0 0
vn -1 0 0
vn -1 0 0
vn -1 0 0
vn -1 0 0
vn -0.9999999 0 0
vn -1 0 0
vn -1 0 0
vn -1 0 0
vn -1 0 0
vn -1 0 0
vn -1 0 0
vn -1 0 0
vn -1 0 0
vn -1 0 0
vn -1 0 0
vn -1 0 0
vn -1 0 0
vn -1 0 0
vn -1 0 0
vn -0.9999999 0 0
vn -1 0 0
vn -1 0 0
vn -1 0 0
vn -1 0 0
vn -1 0 0
vn -1 0 0
vn -1 0 0
vn 0 0 1
vn 0 0 1
vn 0 0 1
vn 0 0 1
vn 0 0 1
vn 0 0 1
vn 0 0 -1
vn 0 0 -1
vn 0 0 -1
vn 0 0 -1
vn 0 0 -1
vn 0 0 -0.9999999
vn 0 0 -1
vn 0 0 -1
vn 0 0 -1
vn 0 0 -1
vn 0 0 -1
vn 0 0 -1
vn 0 0 -1
vn 0 0 -1
vn 0 0 -1
vn 0 0 -1
vn 0 0 -1
vn 0 0 -1
vn 0 0 -1
vn 0 0 -1
vn 0 0 -1
vn 0 0 -1
vn 0 0 -0.9999999
vn 0 0 -1
vn -1 0 0
vn -1 0 0
vn -1 0 0
vn -1 0 0
vn -1 0 0
vn -1 0 0
vn 0 0 -1
vn 0 0 -1
vn 0 0 -1
vn 0 0 -1
vn 0 0 -1
vn 0 0 -1
vn 0 0.9999999 0
vn 0 1 0
vn 0 0.9999999 0
vn 0 1 0
vn 0 0.9999999 0
vn 0 0.9999999 0
vn 0 0.9999999 0
vn 0 1 0
vn 0 0.9999999 0
vn 0 1 0
vn 0 0.9999999 0
vn 0 0.9999999 0
vn 0 0.9999999 0
vn 0 1 0
vn 0 0.9999999 0
vn 0 1 0
vn 0 0.9999999 0
vn 0 0.9999999 0
vn 0 0.9999999 0
vn 0 1 0
vn 0 0.9999999 0
vn 0 1 0
vn 0 0.9999999 0
vn 0 0.9999999 0
vn 0 -1 0
vn 0 -0.9999999 0
vn 0 -1 0
vn 0 -0.9999999 0
vn 0 -0.9999999 0
vn 0 -0.9999999 0
vn 0 -1 0
vn 0 -0.9999999 0
vn 0 -1 0
vn 0 -0.9999999 0
vn 0 -0.9999999 0
vn 0 -0.9999999 0
vn 0 -0.9999999 0
vn 0 -1 0
vn 0 -0.9999999 0
vn 0 -1 0
vn 0 -0.9999999 0
vn 0 -0.9999999 0
vn 0 -0.9999999 0
vn 0 -1 0
vn 0 -0.9999999 0
vn 0 -1 0
vn 0 -0.9999999 0
vn 0 -0.9999999 0

vt 0.3578825 0.1556826
vt 0.3578825 0.2006826
vt 0.4028826 0.2006826
vt 0.4028826 0.1556826
vt 0.4025455 0.2005763
vt 0.4025455 0.1555762
vt 0.3575454 0.2005763
vt 0.3575454 0.1555762
vt 0.357821 0.2004228
vt 0.4028211 0.2004228
vt 0.4028211 0.1554227
vt 0.357821 0.1554227
vt 0.3576884 0.2002821
vt 0.4026885 0.2002821
vt 0.3576884 0.155282
vt 0.4026885 0.155282
vt 0.9076324 0.9750061
vt 0.8963823 0.9750061
vt 0.8963823 0.9784241
vt 0.9263821 0.9784241
vt 0.9263821 0.9750061
vt 0.9076324 0.75
vt 0.8963823 0.75
vt 0.9076324 0.5250015
vt 0.8963823 0.5250015
vt 0.9263821 0.5165863
vt 0.8963823 0.5165863
vt 0.9263821 0.5250015
vt 0.9187021 0.5165253
vt 0.9374518 0.5249405
vt 0.9487019 0.5165253
vt 0.9487019 0.5249405
vt 0.9187021 0.5249405
vt 0.9374518 0.749939
vt 0.9487019 0.749939
vt 0.9374518 0.9749451
vt 0.9487019 0.9749451
vt 0.9487019 0.978363
vt 0.9187021 0.978363
vt 0.9187021 0.9749451
vt 0.9818492 0.5249023
vt 0.963099 0.5249023
vt 0.963099 0.7499008
vt 0.9818492 0.7499008
vt 0.9818492 0.9748993
vt 0.963099 0.9748993
vt 0.85812 0.7498779
vt 0.85812 0.9748764
vt 0.8768702 0.7498779
vt 0.8768702 0.9748764
vt 0.8768702 0.5248795
vt 0.85812 0.5248795
vt 0.9932029 0.9748306
vt 0.9932029 0.7498322
vt 0.9782031 0.9748306
vt 0.9782031 0.7498322
vt 0.9932029 0.5248337
vt 0.9782031 0.5248337
vt 0.9076324 0.9750061
vt 0.9076324 0.75
vt 0.8963823 0.75
vt 0.8963823 0.9750061
vt 0.8963823 0.9784241
vt 0.9263821 0.9784241
vt 0.9263821 0.9750061
vt 0.9076324 0.5250015
vt 0.8963823 0.5250015
vt 0.9263821 0.5165863
vt 0.8963823 0.5165863
vt 0.9263821 0.5250015
vt 0.9187016 0.5249405
vt 0.9374514 0.5249405
vt 0.9187016 0.5165253
vt 0.9487014 0.5165253
vt 0.9487014 0.5249405
vt 0.9374514 0.749939
vt 0.9487014 0.749939
vt 0.9374514 0.9749451
vt 0.9487014 0.9749451
vt 0.9487014 0.978363
vt 0.9187016 0.978363
vt 0.9187016 0.9749451
vt 0.85812 0.7498779
vt 0.85812 0.9748764
vt 0.8768702 0.7498779
vt 0.8768702 0.9748764
vt 0.8768702 0.5248795
vt 0.85812 0.5248795
vt 0.9818492 0.9748993
vt 0.9818492 0.7499008
vt 0.963099 0.7499008
vt 0.963099 0.9748993
vt 0.9818492 0.5249023
vt 0.963099 0.5249023
vt 0.9932029 0.9748306
vt 0.9932029 0.7498322
vt 0.9782031 0.9748306
vt 0.9782031 0.7498322
vt 0.9932029 0.5248337
vt 0.9782031 0.5248337
vt 0.8325415 0.7498245
vt 0.8325415 0.974823
vt 0.8475413 0.7498245
vt 0.8475413 0.974823
vt 0.8325415 0.524826
vt 0.8475413 0.524826
vt 0.85812 0.7498779
vt 0.85812 0.9748764
vt 0.8768702 0.7498779
vt 0.8768702 0.9748764
vt 0.8768702 0.5248795
vt 0.85812 0.5248795
vt 0.9818492 0.9748993
vt 0.9818492 0.7499008
vt 0.963099 0.7499008
vt 0.963099 0.9748993
vt 0.9818492 0.5249023
vt 0.963099 0.5249023
vt 0.85812 0.7498779
vt 0.85812 0.9748764
vt 0.8768702 0.7498779
vt 0.8768702 0.9748764
vt 0.8768702 0.5248795
vt 0.85812 0.5248795
vt 0.9818492 0.9748993
vt 0.9818492 0.7499008
vt 0.963099 0.7499008
vt 0.963099 0.9748993
vt 0.9818492 0.5249023
vt 0.963099 0.5249023
vt 0.9932029 0.9748306
vt 0.9932029 0.7498322
vt 0.9782031 0.9748306
vt 0.9782031 0.7498322
vt 0.9932029 0.5248337
vt 0.9782031 0.5248337
vt 0.9374518 0.749939
vt 0.9374518 0.9749451
vt 0.9487019 0.749939
vt 0.9487019 0.9749451
vt 0.9374518 0.5249405
vt 0.9487019 0.5249405
vt 0.9487019 0.978363
vt 0.9187021 0.978363
vt 0.9187021 0.9749451
vt 0.9187021 0.5165253
vt 0.9487019 0.5165253
vt 0.9187021 0.5249405
vt 0.9076324 0.75
vt 0.9076324 0.5250015
vt 0.8963823 0.75
vt 0.8963823 0.5250015
vt 0.9263821 0.5165863
vt 0.8963823 0.5165863
vt 0.9263821 0.5250015
vt 0.9076324 0.9750061
vt 0.8963823 0.9750061
vt 0.8963823 0.9784241
vt 0.9263821 0.9784241
vt 0.9263821 0.9750061
vt 0.8325411 0.7498169
vt 0.8325411 0.9748154
vt 0.847541 0.7498169
vt 0.847541 0.9748154
vt 0.8325411 0.5248184
vt 0.847541 0.5248184
vt 0.8325411 0.7498169
vt 0.8325411 0.9748154
vt 0.847541 0.7498169
vt 0.847541 0.9748154
vt 0.8325411 0.5248184
vt 0.847541 0.5248184
vt 0.9076319 0.9750061
vt 0.9076319 0.75
vt 0.8963819 0.75
vt 0.8963819 0.9750061
vt 0.8963819 0.9784241
vt 0.9263816 0.9784241
vt 0.9263816 0.9750061
vt 0.9076319 0.5250015
vt 0.8963819 0.5250015
vt 0.9263816 0.5165863
vt 0.8963819 0.5165863
vt 0.9263816 0.5250015
vt 0.9187021 0.5249405
vt 0.9374518 0.5249405
vt 0.9187021 0.5165253
vt 0.9487019 0.5165253
vt 0.9487019 0.5249405
vt 0.9374518 0.749939
vt 0.9487019 0.749939
vt 0.9374518 0.9749451
vt 0.9487019 0.9749451
vt 0.9487019 0.978363
vt 0.9187021 0.978363
vt 0.9187021 0.9749451
vt 0.9932034 0.9748306
vt 0.9932034 0.7498322
vt 0.9782035 0.9748306
vt 0.9782035 0.7498322
vt 0.9932034 0.5248337
vt 0.9782035 0.5248337
vt 0.8325411 0.7498169
vt 0.8325411 0.9748154
vt 0.847541 0.7498169
vt 0.847541 0.9748154
vt 0.8325411 0.5248184
vt 0.847541 0.5248184
vt 0.06821156 0.1120529
vt 0.1013365 0.1120529
vt 0.06821156 0.09005308
vt 0.1013365 0.09005308
vt 0.1344614 0.1120529
vt 0.1344614 0.09005308
vt 0.09020352 0.178452
vt 0.09020352 0.1453271
vt 0.06820369 0.178452
vt 0.06820369 0.1453271
vt 0.09020352 0.1122022
vt 0.06820369 0.1122022
vt 0.1565828 0.1560636
vt 0.1234579 0.1560636
vt 0.1565828 0.1780634
vt 0.1234579 0.1780634
vt 0.09033298 0.1560636
vt 0.09033298 0.1780634
vt 0.09066153 0.1124244
vt 0.09066153 0.1455493
vt 0.1126614 0.1124244
vt 0.1126614 0.1455493
vt 0.09066153 0.1786742
vt 0.1126614 0.1786742
vt 0.9200742 0.986125
vt 0.9388244 0.986125
vt 0.9200742 0.9711256
vt 0.9388244 0.9711246
vt 0.901324 0.9861259
vt 0.901324 0.9711256
vt 0.9148641 0.9823409
vt 0.9336143 0.9823409
vt 0.9148641 0.9673411
vt 0.9336143 0.9673411
vt 0.8961139 0.9823409
vt 0.8961139 0.9673411
vt 0.9256334 0.9688194
vt 0.9068832 0.9688194
vt 0.9256334 0.9838192
vt 0.9068832 0.9838192
vt 0.888133 0.9688194
vt 0.888133 0.9838192
vt 0.9328176 0.9682126
vt 0.9140674 0.9682131
vt 0.9328176 0.9832125
vt 0.9140674 0.9832125
vt 0.8953172 0.9682131
vt 0.8953172 0.9832129

g model
usemtl model
usemap model
f 2/2/2 1/1/1 3/3/3
f 1/1/1 4/4/4 3/3/3
f 6/6/6 5/5/5 7/7/7
f 8/8/8 6/6/6 7/7/7
f 10/10/10 9/9/9 11/11/11
f 9/9/9 12/12/12 11/11/11
f 14/14/14 13/13/13 15/15/15
f 16/16/16 14/14/14 15/15/15
f 18/18/18 17/17/17 19/19/19
f 17/17/17 20/20/20 19/19/19
f 17/17/17 21/21/21 20/20/20
f 22/22/22 17/17/17 23/23/23
f 17/17/17 18/18/18 23/23/23
f 24/24/24 22/22/22 23/23/23
f 25/25/25 24/24/24 23/23/23
f 26/26/26 24/24/24 27/27/27
f 24/24/24 25/25/25 27/27/27
f 28/28/28 24/24/24 26/26/26
f 30/30/30 29/29/29 31/31/31
f 32/32/32 30/30/30 31/31/31
f 30/30/30 33/33/33 29/29/29
f 34/34/34 30/30/30 35/35/35
f 30/30/30 32/32/32 35/35/35
f 36/36/36 34/34/34 35/35/35
f 37/37/37 36/36/36 35/35/35
f 36/36/36 37/37/37 38/38/38
f 39/39/39 36/36/36 38/38/38
f 40/40/40 36/36/36 39/39/39
f 42/42/42 41/41/41 43/43/43
f 41/41/41 44/44/44 43/43/43
f 44/44/44 45/45/45 43/43/43
f 45/45/45 46/46/46 43/43/43
f 48/48/48 47/47/47 49/49/49
f 50/50/50 48/48/48 49/49/49
f 52/52/52 51/51/51 49/49/49
f 47/47/47 52/52/52 49/49/49
f 54/54/54 53/53/53 55/55/55
f 56/56/56 54/54/54 55/55/55
f 57/57/57 54/54/54 56/56/56
f 58/58/58 57/57/57 56/56/56
f 60/60/60 59/59/59 61/61/61
f 59/59/59 62/62/62 61/61/61
f 62/62/62 59/59/59 63/63/63
f 59/59/59 64/64/64 63/63/63
f 59/59/59 65/65/65 64/64/64
f 66/66/66 60/60/60 61/61/61
f 67/67/67 66/66/66 61/61/61
f 68/68/68 66/66/66 69/69/69
f 66/66/66 67/67/67 69/69/69
f 70/70/70 66/66/66 68/68/68
f 72/72/72 71/71/71 73/73/73
f 72/72/72 73/73/73 74/74/74
f 75/75/75 72/72/72 74/74/74
f 76/76/76 72/72/72 77/77/77
f 72/72/72 75/75/75 77/77/77
f 78/78/78 76/76/76 77/77/77
f 79/79/79 78/78/78 77/77/77
f 78/78/78 79/79/79 80/80/80
f 81/81/81 78/78/78 80/80/80
f 82/82/82 78/78/78 81/81/81
f 84/84/84 83/83/83 85/85/85
f 86/86/86 84/84/84 85/85/85
f 88/88/88 87/87/87 85/85/85
f 83/83/83 88/88/88 85/85/85
f 90/90/90 89/89/89 91/91/91
f 89/89/89 92/92/92 91/91/91
f 94/94/94 93/93/93 91/91/91
f 93/93/93 90/90/90 91/91/91
f 96/96/96 95/95/95 97/97/97
f 98/98/98 96/96/96 97/97/97
f 99/99/99 96/96/96 98/98/98
f 100/100/100 99/99/99 98/98/98
f 102/102/102 101/101/101 103/103/103
f 104/104/104 102/102/102 103/103/103
f 101/101/101 105/105/105 106/106/106
f 103/103/103 101/101/101 106/106/106
f 108/108/108 107/107/107 109/109/109
f 110/110/110 108/108/108 109/109/109
f 112/112/112 111/111/111 109/109/109
f 107/107/107 112/112/112 109/109/109
f 114/114/114 113/113/113 115/115/115
f 113/113/113 116/116/116 115/115/115
f 118/118/118 117/117/117 115/115/115
f 117/117/117 114/114/114 115/115/115
f 120/120/120 119/119/119 121/121/121
f 122/122/122 120/120/120 121/121/121
f 124/124/124 123/123/123 121/121/121
f 119/119/119 124/124/124 121/121/121
f 126/126/126 125/125/125 127/127/127
f 125/125/125 128/128/128 127/127/127
f 130/130/130 129/129/129 127/127/127
f 129/129/129 126/126/126 127/127/127
f 132/132/132 131/131/131 133/133/133
f 134/134/134 132/132/132 133/133/133
f 135/135/135 132/132/132 134/134/134
f 136/136/136 135/135/135 134/134/134
f 138/138/138 137/137/137 139/139/139
f 140/140/140 138/138/138 139/139/139
f 137/137/137 141/141/141 139/139/139
f 141/141/141 142/142/142 139/139/139
f 138/138/138 140/140/140 143/143/143
f 144/144/144 138/138/138 143/143/143
f 145/145/145 138/138/138 144/144/144
f 141/141/141 146/146/146 147/147/147
f 142/142/142 141/141/141 147/147/147
f 141/141/141 148/148/148 146/146/146
f 150/150/150 149/149/149 151/151/151
f 152/152/152 150/150/150 151/151/151
f 153/153/153 150/150/150 154/154/154
f 150/150/150 152/152/152 154/154/154
f 155/155/155 150/150/150 153/153/153
f 149/149/149 156/156/156 151/151/151
f 156/156/156 157/157/157 151/151/151
f 157/157/157 156/156/156 158/158/158
f 156/156/156 159/159/159 158/158/158
f 156/156/156 160/160/160 159/159/159
f 162/162/162 161/161/161 163/163/163
f 164/164/164 162/162/162 163/163/163
f 161/161/161 165/165/165 166/166/166
f 163/163/163 161/161/161 166/166/166
f 168/168/168 167/167/167 169/169/169
f 170/170/170 168/168/168 169/169/169
f 167/167/167 171/171/171 172/172/172
f 169/169/169 167/167/167 172/172/172
f 174/174/174 173/173/173 175/175/175
f 173/173/173 176/176/176 175/175/175
f 176/176/176 173/173/173 177/177/177
f 173/173/173 178/178/178 177/177/177
f 173/173/173 179/179/179 178/178/178
f 180/180/180 174/174/174 175/175/175
f 181/181/181 180/180/180 175/175/175
f 182/182/182 180/180/180 183/183/183
f 180/180/180 181/181/181 183/183/183
f 184/184/184 180/180/180 182/182/182
f 186/186/186 185/185/185 187/187/187
f 186/186/186 187/187/187 188/188/188
f 189/189/189 186/186/186 188/188/188
f 190/190/190 186/186/186 191/191/191
f 186/186/186 189/189/189 191/191/191
f 192/192/192 190/190/190 191/191/191
f 193/193/193 192/192/192 191/191/191
f 192/192/192 193/193/193 194/194/194
f 195/195/195 192/192/192 194/194/194
f 196/196/196 192/192/192 195/195/195
f 198/198/198 197/197/197 199/199/199
f 200/200/200 198/198/198 199/199/199
f 201/201/201 198/198/198 200/200/200
f 202/202/202 201/201/201 200/200/200
f 204/204/204 203/203/203 205/205/205
f 206/206/206 204/204/204 205/205/205
f 203/203/203 207/207/207 208/208/208
f 205/205/205 203/203/203 208/208/208
f 210/210/210 209/209/209 211/211/211
f 212/212/212 210/210/210 211/211/211
f 213/213/213 210/210/210 212/212/212
f 214/214/214 213/213/213 212/212/212
f 216/216/216 215/215/215 217/217/217
f 218/218/218 216/216/216 217/217/217
f 219/219/219 216/216/216 218/218/218
f 220/220/220 219/219/219 218/218/218
f 222/222/222 221/221/221 223/223/223
f 224/224/224 222/222/222 223/223/223
f 225/225/225 222/222/222 224/224/224
f 226/226/226 225/225/225 224/224/224
f 228/228/228 227/227/227 229/229/229
f 230/230/230 228/228/228 229/229/229
f 231/231/231 228/228/228 230/230/230
f 232/232/232 231/231/231 230/230/230
f 234/234/234 233/233/233 235/235/235
f 236/236/236 234/234/234 235/235/235
f 233/233/233 237/237/237 238/238/238
f 235/235/235 233/233/233 238/238/238
f 240/240/240 239/239/239 241/241/241
f 242/242/242 240/240/240 241/241/241
f 239/239/239 243/243/243 244/244/244
f 241/241/241 239/239/239 244/244/244
f 246/246/246 245/245/245 247/247/247
f 248/248/248 246/246/246 247/247/247
f 249/249/249 246/246/246 248/248/248
f 250/250/250 249/249/249 248/248/248
f 252/252/252 251/251/251 253/253/253
f 254/254/254 252/252/252 253/253/253
f 255/255/255 252/252/252 254/254/254
f 256/256/256 255/255/255 254/254/254
