mtllib ./building23.mtl
g building23
v -23.71069 0 41.97491
v -23.71069 187.5 41.97491
v -3.974854 187.5 29.15826
v -3.974854 0 29.15826
v -3.974854 0 29.15826
v -3.974854 187.5 29.15826
v 18.69067 187.5 23.08496
v 18.69067 0 23.08496
v 18.69067 0 23.08496
v 18.69067 187.5 23.08496
v 42.11401 187.5 24.31256
v 42.11401 0 24.31256
v 42.11401 0 24.31256
v 42.11401 187.5 24.31256
v 65.53687 93.75 25.5401
v 65.53687 0 25.5401
v 65.53687 187.5 25.5401
v -23.71069 0 41.97491
v -43.44629 0 54.79156
v -43.44629 93.75 54.79156
v -43.44629 187.5 54.79156
v -23.71069 187.5 41.97491
v 68.73389 0 11.0575
v 68.73389 187.5 11.0575
v 47.76636 187.5 0.3741455
v 47.76636 0 0.3741455
v 47.76636 0 0.3741455
v 47.76636 187.5 0.3741455
v 26.79907 187.5 -10.30914
v 26.79907 0 -10.30914
v 26.79907 0 -10.30914
v 26.79907 187.5 -10.30914
v 10.20679 187.5 -26.90149
v 10.20679 0 -26.90149
v 10.20679 0 -26.90149
v 10.20679 187.5 -26.90149
v -0.4421387 187.5 -47.80035
v -0.4421387 0 -47.80035
v -0.4421387 0 -47.80035
v -0.4421387 187.5 -47.80035
v -11.09033 187.5 -70.74371
v -11.09033 93.75 -70.74371
v -11.09033 0 -70.74371
v -18.27271 93.75 -67.91278
v -18.27271 187.5 -67.91278
v -25.45483 187.5 -65.08173
v -25.45483 93.75 -65.08173
v -25.45483 0 -65.08173
v -18.27271 0 -67.91278
v -18.27271 93.75 -67.91278
v -11.09033 93.75 -70.74371
v -11.09033 187.5 -70.74371
v -18.27271 187.5 -67.91278
v -11.09033 0 -70.74371
v -18.27271 0 -67.91278
v -25.45483 0 -65.08173
v -25.45483 187.5 -65.08173
v -24.22339 187.5 -41.58185
v -24.22339 0 -41.58185
v -24.22339 0 -41.58185
v -24.22339 187.5 -41.58185
v -22.99146 187.5 -18.08185
v -22.99146 0 -18.08185
v -22.99146 0 -18.08185
v -22.99146 187.5 -18.08185
v -29.0647 187.5 4.583801
v -29.0647 0 4.583801
v -29.0647 0 4.583801
v -29.0647 187.5 4.583801
v -41.83911 187.5 24.25507
v -41.83911 0 24.25507
v -41.83911 0 24.25507
v -41.83911 187.5 24.25507
v -53.8313 187.5 42.39203
v -53.8313 93.75 42.39203
v -53.8313 0 42.39203
v -48.63892 93.75 48.5918
v -53.8313 93.75 42.39203
v -53.8313 187.5 42.39203
v -48.63892 187.5 48.5918
v -53.8313 0 42.39203
v -48.63892 0 48.5918
v -48.63892 93.75 48.5918
v -48.63892 187.5 48.5918
v -43.44629 187.5 54.79156
v -43.44629 93.75 54.79156
v -43.44629 0 54.79156
v -48.63892 0 48.5918
v 67.1355 93.75 18.29877
v 65.53687 93.75 25.5401
v 67.1355 187.5 18.29877
v 65.53687 187.5 25.5401
v 65.53687 0 25.5401
v 67.1355 0 18.29877
v 67.1355 93.75 18.29877
v 67.1355 187.5 18.29877
v 68.73389 187.5 11.0575
v 68.73389 93.75 11.0575
v 68.73389 0 11.0575
v 67.1355 0 18.29877
v -53.8313 187.5 42.39203
v -23.71069 187.5 41.97491
v -48.63892 187.5 48.5918
v -43.44629 187.5 54.79156
v -41.83911 187.5 24.25507
v -24.22339 187.5 -41.58185
v -11.09033 187.5 -70.74371
v -0.4421387 187.5 -47.80035
v -25.45483 187.5 -65.08173
v -18.27271 187.5 -67.91278
v 65.53687 187.5 25.5401
v 47.76636 187.5 0.3741455
v 67.1355 187.5 18.29877
v 68.73389 187.5 11.0575
v 42.11401 187.5 24.31256
v 18.69067 187.5 23.08496
v -29.0647 187.5 4.583801
v -22.99146 187.5 -18.08185
v 26.79907 187.5 -10.30914
v 10.20679 187.5 -26.90149
v -3.974854 187.5 29.15826
v -23.71069 187.5 41.97491
v -41.83911 187.5 24.25507
v 47.76636 187.5 0.3741455
v 42.11401 187.5 24.31256
v -0.4421387 187.5 -47.80035
v -24.22339 187.5 -41.58185

vn 0.5446404 0 0.8386696
vn 0.5446404 0 0.8386696
vn 0.5446404 0 0.8386696
vn 0.5446404 0 0.8386696
vn 0.2588228 0 0.9659248
vn 0.2588228 0 0.9659248
vn 0.2588228 0 0.9659248
vn 0.2588228 0 0.9659248
vn -0.05233745 0 0.9986295
vn -0.05233745 0 0.9986295
vn -0.05233745 0 0.9986295
vn -0.05233745 0 0.9986295
vn -0.05233593 0 0.9986295
vn -0.05233593 0 0.9986295
vn -0.05233593 0 0.9986296
vn -0.05233593 0 0.9986296
vn -0.05233593 0 0.9986296
vn 0.5446452 0 0.8386666
vn 0.5446451 0 0.8386666
vn 0.5446451 0 0.8386666
vn 0.5446451 0 0.8386666
vn 0.5446452 0 0.8386666
vn 0.4539858 0 -0.8910089
vn 0.4539858 0 -0.8910089
vn 0.4539858 0 -0.8910089
vn 0.4539858 0 -0.8910089
vn 0.4539879 0 -0.8910078
vn 0.4539879 0 -0.8910078
vn 0.4539879 0 -0.8910078
vn 0.4539879 0 -0.8910078
vn 0.7071081 0 -0.7071055
vn 0.7071081 0 -0.7071055
vn 0.7071081 0 -0.7071055
vn 0.7071081 0 -0.7071055
vn 0.8909992 0 -0.4540048
vn 0.8909992 0 -0.4540048
vn 0.8909992 0 -0.4540048
vn 0.8909992 0 -0.4540048
vn 0.9070706 0 -0.4209786
vn 0.9070706 0 -0.4209786
vn 0.9070706 0 -0.4209786
vn 0.9070706 0 -0.4209786
vn 0.9070706 0 -0.4209786
vn -0.3667186 0 -0.9303319
vn -0.3667186 0 -0.9303319
vn -0.3667186 0 -0.9303319
vn -0.3667186 0 -0.9303319
vn -0.3667186 0 -0.9303319
vn -0.3667186 0 -0.9303319
vn -0.3666942 0 -0.9303416
vn -0.3666942 0 -0.9303416
vn -0.3666942 0 -0.9303416
vn -0.3666942 0 -0.9303416
vn -0.3666942 0 -0.9303416
vn -0.3666942 0 -0.9303416
vn -0.9986299 0 0.0523304
vn -0.9986299 0 0.0523304
vn -0.9986299 0 0.0523304
vn -0.9986299 0 0.0523304
vn -0.9986288 0 0.05235082
vn -0.9986288 0 0.05235082
vn -0.9986288 0 0.05235082
vn -0.9986288 0 0.05235082
vn -0.9659258 0 -0.258819
vn -0.9659258 0 -0.258819
vn -0.9659258 0 -0.258819
vn -0.9659258 0 -0.258819
vn -0.8386756 0 -0.5446314
vn -0.8386756 0 -0.5446314
vn -0.8386756 0 -0.5446314
vn -0.8386756 0 -0.5446314
vn -0.8341484 0 -0.5515401
vn -0.8341484 0 -0.5515401
vn -0.8341483 0 -0.5515401
vn -0.8341484 0 -0.5515401
vn -0.8341484 0 -0.5515401
vn -0.7666433 0 0.6420733
vn -0.7666433 0 0.6420733
vn -0.7666433 0 0.6420733
vn -0.7666433 0 0.6420733
vn -0.7666433 0 0.6420733
vn -0.7666433 0 0.6420733
vn -0.7666284 0 0.642091
vn -0.7666284 0 0.642091
vn -0.7666284 0 0.642091
vn -0.7666284 0 0.642091
vn -0.7666284 0 0.642091
vn -0.7666284 0 0.642091
vn 0.9764875 0 0.2155742
vn 0.9764875 0 0.2155742
vn 0.9764874 0 0.2155742
vn 0.9764874 0 0.2155742
vn 0.9764874 0 0.2155742
vn 0.9764874 0 0.2155742
vn 0.976494 0 0.2155446
vn 0.976494 0 0.2155446
vn 0.976494 0 0.2155446
vn 0.976494 0 0.2155446
vn 0.976494 0 0.2155446
vn 0.976494 0 0.2155446
vn 0 1 0
vn 0 0.9999999 0
vn 0 1 0
vn 0 1 0
vn 0 1 0
vn 0 1 0
vn 0 1 0
vn 0 1 0
vn 0 0.9999999 0
vn 0 1 0
vn 0 1 0
vn 0 1 0
vn 0 0.9999999 0
vn 0 0.9999999 0
vn 0 1 0
vn 0 1 0
vn 0 1 0
vn 0 1 0
vn 0 1 0
vn 0 0.9999999 0
vn 0 1 0
vn 0 1 0
vn 0 1 0
vn 0 1 0
vn 0 1 0
vn 0 0.9999999 0
vn 0 1 0

vt 0.8531966 0.5263939
vt 0.8531966 0.9763908
vt 0.9096742 0.9763908
vt 0.9096742 0.5263939
vt 0.891824 0.5265923
vt 0.891824 0.9765892
vt 0.9481404 0.9765892
vt 0.9481404 0.5265923
vt 0.8652301 0.5265732
vt 0.8652301 0.9765701
vt 0.9215236 0.9765701
vt 0.9215236 0.5265732
vt 0.9394224 0.5266991
vt 0.9394224 0.976696
vt 0.9957139 0.7516975
vt 0.9957139 0.5266991
vt 0.9957139 0.976696
vt 0.8865108 0.526535
vt 0.8300333 0.526535
vt 0.8300333 0.7515335
vt 0.8300333 0.976532
vt 0.8865108 0.976532
vt 0.8310463 0.5269585
vt 0.8310463 0.9769554
vt 0.8875239 0.9769554
vt 0.8875239 0.5269585
vt 0.8677311 0.5269279
vt 0.8677311 0.9769249
vt 0.9242086 0.9769249
vt 0.9242086 0.5269279
vt 0.8677344 0.5269279
vt 0.8677344 0.9769249
vt 0.9240508 0.9769249
vt 0.9240508 0.5269279
vt 0.865448 0.5269279
vt 0.865448 0.9769249
vt 0.9217415 0.9769249
vt 0.9217415 0.5269279
vt 0.9351039 0.5269279
vt 0.9351039 0.9769249
vt 0.9958091 0.9769249
vt 0.9958091 0.7519264
vt 0.9958091 0.5269279
vt 0.9763815 0.751667
vt 0.9763815 0.9766655
vt 0.9949097 0.9766655
vt 0.9949097 0.751667
vt 0.9949097 0.5266685
vt 0.9763815 0.5266685
vt 0.8499247 0.7516797
vt 0.8313965 0.7516797
vt 0.8313965 0.9766781
vt 0.8499247 0.9766781
vt 0.8313965 0.5266812
vt 0.8499247 0.5266812
vt 0.8313103 0.5266266
vt 0.8313103 0.9766235
vt 0.8877878 0.9766235
vt 0.8877878 0.5266266
vt 0.891223 0.5266151
vt 0.891223 0.9766121
vt 0.9477005 0.9766121
vt 0.9477005 0.5266151
vt 0.8809278 0.5265808
vt 0.8809278 0.9765778
vt 0.9372442 0.9765778
vt 0.9372442 0.5265808
vt 0.8671708 0.5265808
vt 0.8671708 0.9765778
vt 0.9234633 0.9765778
vt 0.9234633 0.5265808
vt 0.9415207 0.5266266
vt 0.9415207 0.9766235
vt 0.9937038 0.9766235
vt 0.9937038 0.7516251
vt 0.9937038 0.5266266
vt 0.851401 0.751623
vt 0.8319921 0.751623
vt 0.8319921 0.9766214
vt 0.851401 0.9766214
vt 0.8319921 0.5266245
vt 0.851401 0.5266245
vt 0.9747944 0.7516465
vt 0.9747944 0.9766449
vt 0.9942034 0.9766449
vt 0.9942034 0.7516465
vt 0.9942034 0.526648
vt 0.9747944 0.526648
vt 0.8497084 0.7518883
vt 0.8319109 0.7518883
vt 0.8497084 0.9768867
vt 0.8319109 0.9768867
vt 0.8319109 0.5268898
vt 0.8497084 0.5268898
vt 0.9765276 0.7518883
vt 0.9765276 0.9768867
vt 0.9943251 0.9768867
vt 0.9943251 0.7518883
vt 0.9943251 0.5268898
vt 0.9765276 0.5268898
vt 0.1953011 0.1524053
vt 0.1487021 0.1400833
vt 0.1848373 0.160017
vt 0.1743731 0.1676278
vt 0.1837134 0.1196036
vt 0.137805 0.1864839
vt 0.1287212 0.136126
vt 0.1033001 0.167614
vt 0.1488252 0.1504817
vt 0.138773 0.1433039
vt 0.1039519 0.1898665
vt 0.1412916 0.1576867
vt 0.1042776 0.1780057
vt 0.1046023 0.1661448
vt 0.1407886 0.1970391
vt 0.06814957 0.1602402
vt 0.149456 0.1500282
vt 0.1488113 0.1124897
vt 0.06850433 0.1052589
vt 0.1006927 0.08593178
vt 0.1009808 0.1784534
vt 0.1266518 0.2059975
vt 0.1616611 0.1855164
vt 0.03181458 0.1137161
vt 0.03131294 0.1530666
vt 0.1253242 0.05761719
vt 0.1598301 0.07648659

g model
usemtl model
usemap model
f 2/2/2 1/1/1 3/3/3
f 3/3/3 1/1/1 4/4/4
f 6/6/6 5/5/5 7/7/7
f 7/7/7 5/5/5 8/8/8
f 10/10/10 9/9/9 11/11/11
f 11/11/11 9/9/9 12/12/12
f 14/14/14 13/13/13 15/15/15
f 13/13/13 16/16/16 15/15/15
f 17/17/17 14/14/14 15/15/15
f 19/19/19 18/18/18 20/20/20
f 22/22/22 21/21/21 20/20/20
f 18/18/18 22/22/22 20/20/20
f 24/24/24 23/23/23 25/25/25
f 25/25/25 23/23/23 26/26/26
f 28/28/28 27/27/27 29/29/29
f 29/29/29 27/27/27 30/30/30
f 32/32/32 31/31/31 33/33/33
f 33/33/33 31/31/31 34/34/34
f 36/36/36 35/35/35 37/37/37
f 37/37/37 35/35/35 38/38/38
f 40/40/40 39/39/39 41/41/41
f 42/42/42 41/41/41 39/39/39
f 43/43/43 42/42/42 39/39/39
f 45/45/45 44/44/44 46/46/46
f 44/44/44 47/47/47 46/46/46
f 47/47/47 44/44/44 48/48/48
f 44/44/44 49/49/49 48/48/48
f 51/51/51 50/50/50 52/52/52
f 50/50/50 53/53/53 52/52/52
f 50/50/50 51/51/51 54/54/54
f 55/55/55 50/50/50 54/54/54
f 57/57/57 56/56/56 58/58/58
f 58/58/58 56/56/56 59/59/59
f 61/61/61 60/60/60 62/62/62
f 62/62/62 60/60/60 63/63/63
f 65/65/65 64/64/64 66/66/66
f 66/66/66 64/64/64 67/67/67
f 69/69/69 68/68/68 70/70/70
f 70/70/70 68/68/68 71/71/71
f 73/73/73 72/72/72 74/74/74
f 72/72/72 75/75/75 74/74/74
f 72/72/72 76/76/76 75/75/75
f 78/78/78 77/77/77 79/79/79
f 77/77/77 80/80/80 79/79/79
f 77/77/77 78/78/78 81/81/81
f 82/82/82 77/77/77 81/81/81
f 84/84/84 83/83/83 85/85/85
f 83/83/83 86/86/86 85/85/85
f 86/86/86 83/83/83 87/87/87
f 83/83/83 88/88/88 87/87/87
f 90/90/90 89/89/89 91/91/91
f 90/90/90 91/91/91 92/92/92
f 89/89/89 90/90/90 93/93/93
f 94/94/94 89/89/89 93/93/93
f 96/96/96 95/95/95 97/97/97
f 95/95/95 98/98/98 97/97/97
f 98/98/98 95/95/95 99/99/99
f 95/95/95 100/100/100 99/99/99
f 102/102/102 101/101/101 103/103/103
f 104/104/104 102/102/102 103/103/103
f 105/105/105 101/101/101 102/102/102
f 107/107/107 106/106/106 108/108/108
f 109/109/109 106/106/106 110/110/110
f 106/106/106 107/107/107 110/110/110
f 112/112/112 111/111/111 113/113/113
f 114/114/114 112/112/112 113/113/113
f 115/115/115 111/111/111 112/112/112
f 117/117/117 116/116/116 118/118/118
f 116/116/116 119/119/119 118/118/118
f 118/118/118 119/119/119 120/120/120
f 121/121/121 116/116/116 117/117/117
f 122/122/122 121/121/121 123/123/123
f 123/123/123 121/121/121 117/117/117
f 124/124/124 119/119/119 125/125/125
f 125/125/125 119/119/119 116/116/116
f 120/120/120 126/126/126 118/118/118
f 118/118/118 126/126/126 127/127/127
