mtllib ./building09.mtl
g building09
v 0.01379395 125.3208 19.19357
v -19.18616 125.3208 19.19357
v 0.01379395 125.3208 -0.006439209
v -19.18616 125.3208 -0.006439209
v 19.21375 125.3208 19.19357
v 0.01379395 125.3208 19.19357
v 0.01379395 125.3208 -0.006439209
v 19.21375 125.3208 -0.006439209
v -19.18616 125.3208 -0.006439209
v -19.18616 125.3208 -19.20645
v 0.01379395 125.3208 -0.006439209
v 0.01379395 125.3208 -19.20645
v 19.21375 125.3208 -19.20645
v 19.21375 125.3208 -0.006439209
v 0.01379395 125.3208 -0.006439209
v 0.01379395 125.3208 -19.20645
v 0.01379395 126.1206 19.19357
v -19.18616 126.1206 19.19357
v 0.01379395 125.3208 19.19357
v -19.18616 125.3208 19.19357
v -19.18616 126.1206 19.19357
v -19.18616 126.1206 -0.006439209
v -19.18616 125.3208 19.19357
v -19.18616 125.3208 -0.006439209
v -19.18616 126.1206 -0.006439209
v -19.18616 126.1206 -19.20645
v -19.18616 125.3208 -0.006439209
v -19.18616 125.3208 -19.20645
v -19.18616 126.1206 -19.20645
v 0.01379395 126.1206 -19.20645
v -19.18616 125.3208 -19.20645
v 0.01379395 125.3208 -19.20645
v 19.21375 126.1206 -19.20645
v 19.21375 126.1206 -0.006439209
v 19.21375 125.3208 -19.20645
v 19.21375 125.3208 -0.006439209
v 0.01379395 126.1206 -19.20645
v 19.21375 126.1206 -19.20645
v 0.01379395 125.3208 -19.20645
v 19.21375 125.3208 -19.20645
v 19.21375 126.1206 19.19357
v 0.01379395 126.1206 19.19357
v 19.21375 125.3208 19.19357
v 0.01379395 125.3208 19.19357
v 19.21375 126.1206 -0.006439209
v 19.21375 126.1206 19.19357
v 19.21375 125.3208 -0.006439209
v 19.21375 125.3208 19.19357
v 0.01379395 126.1206 19.19357
v 20.00061 126.1206 19.98251
v -19.98303 126.1206 19.9957
v -19.18616 126.1206 19.19357
v 19.21375 126.1206 19.19357
v -19.18616 126.1206 -19.20645
v -19.18616 126.1206 -0.006439209
v -19.98596 126.1206 -19.97748
v -19.18616 126.1206 19.19357
v -19.98303 126.1206 19.9957
v 19.21375 126.1206 -19.20645
v 0.01379395 126.1206 -19.20645
v 19.97058 126.1206 -20.00363
v -19.98596 126.1206 -19.97748
v -19.18616 126.1206 -19.20645
v 19.21375 126.1206 19.19357
v 19.21375 126.1206 -0.006439209
v 20.00061 126.1206 19.98251
v 19.21375 126.1206 -19.20645
v 19.97058 126.1206 -20.00363
v -19.98328 92.84814 19.9968
v -19.98328 123.4141 19.9967
v 20.00012 92.93018 19.98267
v 20.00012 123.3662 19.98254
v 20.00037 63.06396 19.98267
v -19.98352 63.05664 19.99692
v -19.98303 126.1206 19.9957
v 20.00061 126.1206 19.98251
v -19.98328 123.4141 19.9967
v -19.98645 123.4141 -19.9758
v -19.98596 126.1206 -19.97748
v -19.98303 126.1206 19.9957
v -19.98328 92.84814 19.9968
v -19.98645 92.84814 -19.97586
v -19.98352 63.05664 19.99692
v -19.98621 63.05664 -19.97672
v -19.98645 123.4141 -19.9758
v 19.96912 123.3662 -20.00357
v 19.97058 126.1206 -20.00363
v -19.98596 126.1206 -19.97748
v -19.98645 92.84814 -19.97586
v 19.96936 92.93018 -20.00363
v -19.98621 63.05664 -19.97672
v 19.97009 63.06396 -20.00366
v 19.96912 123.3662 -20.00357
v 19.96936 92.93018 -20.00363
v 20.00012 123.3662 19.98254
v 20.00012 92.93018 19.98267
v 19.97009 63.06396 -20.00366
v 20.00037 63.06396 19.98267
v 19.97058 126.1206 -20.00363
v 20.00061 126.1206 19.98251
v -19.98328 29.78418 19.9968
v -19.98328 60.3501 19.9967
v 20.00012 29.86572 19.98267
v 20.00012 60.30225 19.98254
v 20.00012 0.007324219 19.98282
v -19.98352 -0.007324219 19.99692
v -19.98303 63.05664 19.9957
v 20.00037 63.06396 19.98267
v -19.98328 60.3501 19.9967
v -19.98645 60.3501 -19.9758
v -19.98621 63.05664 -19.97672
v -19.98303 63.05664 19.9957
v -19.98328 29.78418 19.9968
v -19.98645 29.78418 -19.97586
v -19.98352 -0.007324219 19.99692
v -19.98645 -0.007324219 -19.97598
v -19.98645 60.3501 -19.9758
v 19.96912 60.30225 -20.00357
v 19.97009 63.06396 -20.00366
v -19.98621 63.05664 -19.97672
v -19.98645 29.78418 -19.97586
v 19.96936 29.86572 -20.00363
v -19.98645 -0.007324219 -19.97598
v 19.9696 0.007324219 -20.00366
v 19.96912 60.30225 -20.00357
v 19.96936 29.86572 -20.00363
v 20.00012 60.30225 19.98254
v 20.00012 29.86572 19.98267
v 19.9696 0.007324219 -20.00366
v 20.00012 0.007324219 19.98282
v 19.97009 63.06396 -20.00366
v 20.00037 63.06396 19.98267

vn 0 1 0
vn 0 1 0
vn 0 1 0
vn 0 1 0
vn 0 1 0
vn 0 1 0
vn 0 1 0
vn 0 1 0
vn 0 1 0
vn 0 1 0
vn 0 1 0
vn 0 1 0
vn 0 1 0
vn 0 1 0
vn 0 1 0
vn 0 1 0
vn 0 0 -1
vn 0 0 -1
vn 0 0 -1
vn 0 0 -1
vn 1 0 0
vn 1 0 0
vn 1 0 0
vn 1 0 0
vn 1 0 0
vn 1 0 0
vn 1 0 0
vn 1 0 0
vn 0 0 1
vn 0 0 1
vn 0 0 1
vn 0 0 1
vn -1 0 0
vn -1 0 0
vn -1 0 0
vn -1 0 0
vn 0 0 1
vn 0 0 1
vn 0 0 1
vn 0 0 1
vn 0 0 -1
vn 0 0 -1
vn 0 0 -1
vn 0 0 -1
vn -1 0 0
vn -1 0 0
vn -1 0 0
vn -1 0 0
vn 0 1 0
vn 0 1 0
vn 0 0.9999999 0
vn 0 1 0
vn 0 0.9999999 0
vn 0 1 0
vn 0 0.9999999 0
vn 0 1 0
vn 0 1 0
vn 0 1 0
vn 0 1 0
vn 0 1 0
vn 0 1 0
vn 0 1 0
vn 0 1 0
vn 0 1 0
vn 0 1 0
vn 0 1 0
vn 0 1 0
vn 0 0.9999999 0
vn 0.000354392 2.367711E-06 0.9999999
vn 0.0003538029 1.915941E-05 0.9999999
vn 0.0003536428 2.351861E-06 0.9999999
vn 0.0003523142 3.229857E-05 0.9999999
vn 0.0003549097 2.046188E-06 1
vn 0.0003564356 4.094586E-06 1
vn 0.0003420514 0.0001899578 0.9999999
vn 0.0003297247 1.102114E-05 0.9999999
vn -1 1.100961E-05 7.915167E-05
vn -1 1.46791E-05 7.940028E-05
vn -1 0.0001353437 7.634578E-05
vn -1 9.023113E-05 7.329134E-05
vn -1 4.045196E-06 7.939998E-05
vn -1 -4.246166E-10 7.638493E-05
vn -1 -9.009317E-10 7.32914E-05
vn -1 -8.196902E-06 6.718296E-05
vn -0.0006920043 -4.655323E-05 -0.9999998
vn -0.0006950467 9.706292E-07 -0.9999997
vn -0.0006749887 -0.0003182939 -0.9999997
vn -0.0006545499 -0.0006200332 -0.9999996
vn -0.0006899521 8.339529E-06 -0.9999998
vn -0.0006950457 1.506972E-06 -0.9999998
vn -0.0006744175 2.867688E-05 -0.9999998
vn -0.0006847439 1.482358E-05 -0.9999998
vn 0.9999997 -3.677875E-05 -0.0007754154
vn 0.9999997 1.012135E-05 -0.0007678238
vn 0.9999997 -2.574685E-05 -0.000771601
vn 0.9999997 4.04706E-06 -0.0007693063
vn 0.9999997 2.452419E-05 -0.0007570945
vn 0.9999997 1.634934E-05 -0.0007632003
vn 0.9999996 -0.0003545597 -0.0007632038
vn 0.9999998 -0.0001772819 -0.0007509924
vn 0.0003531288 4.058325E-06 0.9999999
vn 0.000353803 1.915926E-05 0.9999999
vn 0.0003536394 4.030459E-06 0.9999999
vn 0.0003520169 2.804402E-05 0.9999999
vn 0.0003529994 4.603065E-06 0.9999999
vn 0.0003526207 4.09461E-06 1
vn 0.0003401126 0.0001618146 0.9999999
vn 0.0003259185 -4.422966E-05 1
vn -0.9999999 7.339925E-06 7.940015E-05
vn -1 7.339652E-06 7.940028E-05
vn -1 9.023202E-05 7.940037E-05
vn -1 9.023341E-05 7.940047E-05
vn -1 4.045196E-06 7.939998E-05
vn -1 2.022483E-06 7.789261E-05
vn -1 4.097488E-06 7.634591E-05
vn -0.9999999 -3.003124E-10 7.329184E-05
vn -0.0006934932 -2.623117E-05 -0.9999998
vn -0.0006950472 4.865594E-07 -0.9999997
vn -0.0006848228 -0.0001840157 -0.9999998
vn -0.0006743501 -0.0003382035 -0.9999997
vn -0.0006944782 2.273638E-06 -0.9999998
vn -0.0006950456 1.512796E-06 -0.9999998
vn -0.0006927485 4.097486E-06 -0.9999998
vn -0.0006938978 2.555226E-06 -0.9999998
vn 0.9999997 -2.206277E-05 -0.0007754154
vn 0.9999997 4.047925E-06 -0.0007693356
vn 0.9999998 -1.470841E-05 -0.000771853
vn 0.9999997 -3.535282E-09 -0.0007693063
vn 0.9999997 8.177392E-06 -0.0007631972
vn 0.9999997 4.086709E-06 -0.0007662518
vn 0.9999997 -0.000221 -0.000766255
vn 0.9999997 -8.836821E-05 -0.0007570945

vt 0.002318382 0.223155
vt 0.2231188 0.223155
vt 0.002318382 0.002354622
vt 0.2231188 0.002354622
vt 0.001416206 0.223155
vt 0.2222166 0.223155
vt 0.2222166 0.002354622
vt 0.001416206 0.002354622
vt 0.2231188 0.2222528
vt 0.2231188 0.001452446
vt 0.002318382 0.2222528
vt 0.002318382 0.001452446
vt 0.001416206 0.001452446
vt 0.001416206 0.2222528
vt 0.2222166 0.2222528
vt 0.2222166 0.001452446
vt 0.002079964 0.09076613
vt 0.2228804 0.09076613
vt 0.002079964 0.08156615
vt 0.2228804 0.08156615
vt 0.00137043 0.09080571
vt 0.2221708 0.09080571
vt 0.00137043 0.08160573
vt 0.2221708 0.08160573
vt 0.002243996 0.09078741
vt 0.2230444 0.09078741
vt 0.002243996 0.08158743
vt 0.2230444 0.08158743
vt 0.00131321 0.09056383
vt 0.2221136 0.09056383
vt 0.00131321 0.08136386
vt 0.2221136 0.08136386
vt 0.001605034 0.09056103
vt 0.2224054 0.09056103
vt 0.001605034 0.08136106
vt 0.2224054 0.08136106
vt 0.0022192 0.09057051
vt 0.2230196 0.09057051
vt 0.0022192 0.08137053
vt 0.2230196 0.08137053
vt 0.001534462 0.09049106
vt 0.2223349 0.09049106
vt 0.001534462 0.08129108
vt 0.2223349 0.08129108
vt 0.002530098 0.09032339
vt 0.2233305 0.09032339
vt 0.002530098 0.08112341
vt 0.2233305 0.08112341
vt 0.3652057 0.4606059
vt 0.2902546 0.4635645
vt 0.4401951 0.4636139
vt 0.4372062 0.4606059
vt 0.2932071 0.4606059
vt 0.2852962 0.4618794
vt 0.3572948 0.4618794
vt 0.2824047 0.4588811
vt 0.4292953 0.4618794
vt 0.4323032 0.4588925
vt 0.288065 0.4618247
vt 0.3600655 0.4618247
vt 0.2852269 0.4588352
vt 0.4350643 0.4589332
vt 0.4320641 0.4618247
vt 0.419799 0.457515
vt 0.3477985 0.457515
vt 0.4227573 0.4604676
vt 0.275798 0.457515
vt 0.2728092 0.4603531
vt 0.4540577 0.156044
vt 0.4540577 0.3069611
vt 0.6514759 0.1564445
vt 0.6514759 0.3067245
vt 0.6514759 0.009017944
vt 0.4540577 0.008945465
vt 0.4540596 0.3203239
vt 0.6514797 0.3203239
vt 0.6514549 0.3071404
vt 0.4540901 0.3071404
vt 0.4540825 0.3205032
vt 0.6514492 0.3205032
vt 0.6514549 0.1562233
vt 0.4540901 0.1562233
vt 0.6514549 0.009124756
vt 0.4540901 0.009124756
vt 0.651062 0.3068771
vt 0.4537811 0.3066406
vt 0.4537735 0.32024
vt 0.6510601 0.32024
vt 0.651062 0.1559601
vt 0.4537811 0.1563606
vt 0.651062 0.008861542
vt 0.4537792 0.008934021
vt 0.651453 0.3068733
vt 0.651453 0.1565971
vt 0.4540215 0.3068733
vt 0.4540195 0.1565971
vt 0.651453 0.009170532
vt 0.4540195 0.009170532
vt 0.651453 0.3204727
vt 0.4540215 0.3204727
vt 0.4540577 0.156044
vt 0.4540577 0.3069611
vt 0.6514759 0.1564445
vt 0.6514759 0.3067245
vt 0.6514759 0.009017944
vt 0.4540577 0.008945465
vt 0.4540596 0.3203239
vt 0.6514797 0.3203239
vt 0.6514549 0.3071404
vt 0.4540901 0.3071404
vt 0.4540825 0.3205032
vt 0.6514492 0.3205032
vt 0.6514549 0.1562233
vt 0.4540901 0.1562233
vt 0.6514549 0.009124756
vt 0.4540901 0.009124756
vt 0.651062 0.3068771
vt 0.4537811 0.3066406
vt 0.4537735 0.32024
vt 0.6510601 0.32024
vt 0.651062 0.1559601
vt 0.4537811 0.1563606
vt 0.651062 0.008861542
vt 0.4537792 0.008934021
vt 0.651453 0.3068733
vt 0.651453 0.1565971
vt 0.4540215 0.3068733
vt 0.4540195 0.1565971
vt 0.651453 0.009170532
vt 0.4540195 0.009170532
vt 0.651453 0.3204727
vt 0.4540215 0.3204727

g model
usemtl model
usemap model
f 2/2/2 1/1/1 3/3/3
f 4/4/4 2/2/2 3/3/3
f 6/6/6 5/5/5 7/7/7
f 5/5/5 8/8/8 7/7/7
f 10/10/10 9/9/9 11/11/11
f 12/12/12 10/10/10 11/11/11
f 14/14/14 13/13/13 15/15/15
f 13/13/13 16/16/16 15/15/15
f 18/18/18 17/17/17 19/19/19
f 20/20/20 18/18/18 19/19/19
f 22/22/22 21/21/21 23/23/23
f 24/24/24 22/22/22 23/23/23
f 26/26/26 25/25/25 27/27/27
f 28/28/28 26/26/26 27/27/27
f 30/30/30 29/29/29 31/31/31
f 32/32/32 30/30/30 31/31/31
f 34/34/34 33/33/33 35/35/35
f 36/36/36 34/34/34 35/35/35
f 38/38/38 37/37/37 39/39/39
f 40/40/40 38/38/38 39/39/39
f 42/42/42 41/41/41 43/43/43
f 44/44/44 42/42/42 43/43/43
f 46/46/46 45/45/45 47/47/47
f 48/48/48 46/46/46 47/47/47
f 50/50/50 49/49/49 51/51/51
f 49/49/49 52/52/52 51/51/51
f 53/53/53 49/49/49 50/50/50
f 55/55/55 54/54/54 56/56/56
f 57/57/57 55/55/55 58/58/58
f 55/55/55 56/56/56 58/58/58
f 60/60/60 59/59/59 61/61/61
f 60/60/60 61/61/61 62/62/62
f 63/63/63 60/60/60 62/62/62
f 65/65/65 64/64/64 66/66/66
f 67/67/67 65/65/65 68/68/68
f 65/65/65 66/66/66 68/68/68
f 70/70/70 69/69/69 71/71/71
f 72/72/72 70/70/70 71/71/71
f 74/74/74 73/73/73 69/69/69
f 69/69/69 73/73/73 71/71/71
f 70/70/70 72/72/72 75/75/75
f 75/75/75 72/72/72 76/76/76
f 78/78/78 77/77/77 79/79/79
f 77/77/77 80/80/80 79/79/79
f 81/81/81 77/77/77 82/82/82
f 77/77/77 78/78/78 82/82/82
f 84/84/84 83/83/83 82/82/82
f 83/83/83 81/81/81 82/82/82
f 86/86/86 85/85/85 87/87/87
f 85/85/85 88/88/88 87/87/87
f 89/89/89 85/85/85 86/86/86
f 89/89/89 86/86/86 90/90/90
f 92/92/92 91/91/91 89/89/89
f 92/92/92 89/89/89 90/90/90
f 94/94/94 93/93/93 95/95/95
f 94/94/94 95/95/95 96/96/96
f 98/98/98 97/97/97 94/94/94
f 98/98/98 94/94/94 96/96/96
f 95/95/95 93/93/93 99/99/99
f 95/95/95 99/99/99 100/100/100
f 102/102/102 101/101/101 103/103/103
f 104/104/104 102/102/102 103/103/103
f 106/106/106 105/105/105 101/101/101
f 101/101/101 105/105/105 103/103/103
f 102/102/102 104/104/104 107/107/107
f 107/107/107 104/104/104 108/108/108
f 110/110/110 109/109/109 111/111/111
f 109/109/109 112/112/112 111/111/111
f 113/113/113 109/109/109 114/114/114
f 109/109/109 110/110/110 114/114/114
f 116/116/116 115/115/115 114/114/114
f 115/115/115 113/113/113 114/114/114
f 118/118/118 117/117/117 119/119/119
f 117/117/117 120/120/120 119/119/119
f 121/121/121 117/117/117 118/118/118
f 121/121/121 118/118/118 122/122/122
f 124/124/124 123/123/123 121/121/121
f 124/124/124 121/121/121 122/122/122
f 126/126/126 125/125/125 127/127/127
f 126/126/126 127/127/127 128/128/128
f 130/130/130 129/129/129 126/126/126
f 130/130/130 126/126/126 128/128/128
f 127/127/127 125/125/125 131/131/131
f 127/127/127 131/131/131 132/132/132
