mtllib ./building38.mtl
g building38
v -19.99994 0 0.0002441406
v -19.99994 275 0.0002441406
v -19.02107 0 6.180584
v -19.02107 275 6.180584
v -19.02107 0 6.180584
v -19.02107 275 6.180584
v -16.18028 0 11.75595
v -16.18028 275 11.75595
v -16.18028 0 11.75595
v -16.18028 275 11.75595
v -11.75564 0 16.18058
v -11.75564 275 16.18058
v -11.75564 0 16.18058
v -11.75564 275 16.18058
v -6.180278 0 19.02138
v -6.180278 275 19.02138
v -6.180278 0 19.02138
v -6.180278 275 19.02138
v 6.190938E-05 0 20.00024
v 6.190938E-05 275 20.00024
v 6.190938E-05 0 20.00024
v 6.190938E-05 275 20.00024
v 6.1804 0 19.02138
v 6.1804 275 19.02138
v 6.1804 0 19.02138
v 6.1804 275 19.02138
v 11.75576 0 16.18058
v 11.75576 275 16.18058
v 11.75576 0 16.18058
v 11.75576 275 16.18058
v 16.1804 0 11.75595
v 16.1804 275 11.75595
v 16.1804 0 11.75595
v 16.1804 275 11.75595
v 19.02119 0 6.180585
v 19.02119 275 6.180585
v 19.02119 0 6.180585
v 19.02119 275 6.180585
v 20.00006 0 0.0002423922
v 20.00006 275 0.0002423922
v 20.00006 0 0.0002423922
v 20.00006 275 0.0002423922
v 19.02119 0 -6.180095
v 19.02119 275 -6.180095
v 19.02119 0 -6.180095
v 19.02119 275 -6.180095
v 16.1804 0 -11.75546
v 16.1804 275 -11.75546
v 16.1804 0 -11.75546
v 16.1804 275 -11.75546
v 11.75577 0 -16.18009
v 11.75577 275 -16.18009
v 11.75577 0 -16.18009
v 11.75577 275 -16.18009
v 6.180403 0 -19.02089
v 6.180403 275 -19.02089
v 6.180403 0 -19.02089
v 6.180403 275 -19.02089
v 6.079666E-05 0 -19.99976
v 6.079666E-05 275 -19.99976
v 6.079666E-05 0 -19.99976
v 6.079666E-05 275 -19.99976
v -6.180282 0 -19.02089
v -6.180282 275 -19.02089
v -6.180282 0 -19.02089
v -6.180282 275 -19.02089
v -11.75564 0 -16.1801
v -11.75564 275 -16.1801
v -11.75564 0 -16.1801
v -11.75564 275 -16.1801
v -16.18028 0 -11.75546
v -16.18028 275 -11.75546
v -16.18028 0 -11.75546
v -16.18028 275 -11.75546
v -19.02107 0 -6.180095
v -19.02107 275 -6.180095
v -19.02107 0 -6.180095
v -19.02107 275 -6.180095
v -19.99994 0 0.0002441406
v -19.99994 275 0.0002441406
v -19.99994 275 0.0002441406
v 6.103516E-05 275 0.0002441406
v -19.02107 275 6.180584
v -16.18028 275 11.75595
v -11.75564 275 16.18058
v -6.180278 275 19.02138
v 6.190938E-05 275 20.00024
v 6.1804 275 19.02138
v 11.75576 275 16.18058
v 16.1804 275 11.75595
v 19.02119 275 6.180585
v 20.00006 275 0.0002423922
v 19.02119 275 -6.180095
v 16.1804 275 -11.75546
v 11.75577 275 -16.18009
v 6.180403 275 -19.02089
v 6.079666E-05 275 -19.99976
v -6.180282 275 -19.02089
v -11.75564 275 -16.1801
v -16.18028 275 -11.75546
v -19.02107 275 -6.180095

vn -0.9876884 0 0.1564343
vn -0.9876884 0 0.1564343
vn -0.9876884 0 0.1564343
vn -0.9876884 0 0.1564343
vn -0.8910064 0 0.4539907
vn -0.8910064 0 0.4539907
vn -0.8910064 0 0.4539907
vn -0.8910064 0 0.4539907
vn -0.7071069 0 0.7071067
vn -0.7071069 0 0.7071067
vn -0.7071069 0 0.7071067
vn -0.7071069 0 0.7071067
vn -0.4539905 0 0.8910064
vn -0.4539905 0 0.8910064
vn -0.4539905 0 0.8910064
vn -0.4539905 0 0.8910064
vn -0.1564343 0 0.9876884
vn -0.1564343 0 0.9876884
vn -0.1564343 0 0.9876884
vn -0.1564343 0 0.9876884
vn 0.1564343 0 0.9876884
vn 0.1564343 0 0.9876884
vn 0.1564343 0 0.9876884
vn 0.1564343 0 0.9876884
vn 0.4539907 0 0.8910064
vn 0.4539907 0 0.8910064
vn 0.4539907 0 0.8910064
vn 0.4539907 0 0.8910064
vn 0.7071066 0 0.7071069
vn 0.7071066 0 0.7071069
vn 0.7071066 0 0.7071069
vn 0.7071066 0 0.7071069
vn 0.8910066 0 0.4539903
vn 0.8910066 0 0.4539903
vn 0.8910066 0 0.4539903
vn 0.8910066 0 0.4539903
vn 0.9876883 0 0.1564345
vn 0.9876883 0 0.1564345
vn 0.9876883 0 0.1564345
vn 0.9876883 0 0.1564345
vn 0.9876884 0 -0.1564343
vn 0.9876884 0 -0.1564343
vn 0.9876884 0 -0.1564343
vn 0.9876884 0 -0.1564343
vn 0.8910066 0 -0.4539905
vn 0.8910066 0 -0.4539905
vn 0.8910066 0 -0.4539905
vn 0.8910066 0 -0.4539905
vn 0.7071068 0 -0.7071068
vn 0.7071068 0 -0.7071068
vn 0.7071068 0 -0.7071068
vn 0.7071068 0 -0.7071068
vn 0.4539908 0 -0.8910064
vn 0.4539908 0 -0.8910064
vn 0.4539908 0 -0.8910064
vn 0.4539908 0 -0.8910064
vn 0.1564345 0 -0.9876884
vn 0.1564345 0 -0.9876884
vn 0.1564345 0 -0.9876884
vn 0.1564345 0 -0.9876884
vn -0.1564345 0 -0.9876884
vn -0.1564345 0 -0.9876884
vn -0.1564345 0 -0.9876884
vn -0.1564345 0 -0.9876884
vn -0.4539906 0 -0.8910064
vn -0.4539906 0 -0.8910064
vn -0.4539906 0 -0.8910064
vn -0.4539906 0 -0.8910064
vn -0.7071066 0 -0.707107
vn -0.7071066 0 -0.707107
vn -0.7071066 0 -0.707107
vn -0.7071066 0 -0.707107
vn -0.8910065 0 -0.4539905
vn -0.8910065 0 -0.4539905
vn -0.8910065 0 -0.4539905
vn -0.8910065 0 -0.4539905
vn -0.9876883 0 -0.1564343
vn -0.9876883 0 -0.1564343
vn -0.9876883 0 -0.1564343
vn -0.9876883 0 -0.1564343
vn 0 1 0
vn 0 1 0
vn 0 0.9999999 0
vn 0 1 0
vn 0 1 0
vn 0 1 0
vn 0 1 0
vn 0 1 0
vn 0 1 0
vn 0 1 0
vn 0 1 0
vn 0 1 0
vn 0 1 0
vn 0 1 0
vn 0 1 0
vn 0 1 0
vn 0 1 0
vn 0 1 0
vn 0 1 0
vn 0 1 0
vn 0 1 0

vt 0.962167 0.5305328
vt 0.962167 0.969162
vt 0.9721477 0.5305328
vt 0.9721477 0.969162
vt 0.9767382 0.5305328
vt 0.9767382 0.969162
vt 0.9867189 0.5305328
vt 0.9867189 0.969162
vt 0.846293 0.5305328
vt 0.846293 0.969162
vt 0.8562737 0.5305328
vt 0.8562737 0.969162
vt 0.8563018 0.5305328
vt 0.8563018 0.969162
vt 0.8662825 0.5305328
vt 0.8662825 0.969162
vt 0.8663104 0.5305328
vt 0.8663104 0.969162
vt 0.876291 0.5305328
vt 0.876291 0.969162
vt 0.8763192 0.5305328
vt 0.8763192 0.969162
vt 0.8862998 0.5305328
vt 0.8862998 0.969162
vt 0.8863277 0.5305328
vt 0.8863277 0.969162
vt 0.8963084 0.5305328
vt 0.8963084 0.969162
vt 0.8963835 0.5305328
vt 0.8963835 0.969162
vt 0.9063642 0.5305328
vt 0.9063642 0.969162
vt 0.8764946 0.5305328
vt 0.8764946 0.969162
vt 0.8864753 0.5305328
vt 0.8864753 0.969162
vt 0.8462932 0.5305328
vt 0.8462932 0.969162
vt 0.8562739 0.5305328
vt 0.8562739 0.969162
vt 0.846293 0.5305328
vt 0.846293 0.969162
vt 0.8562737 0.5305328
vt 0.8562737 0.969162
vt 0.8563013 0.5305328
vt 0.8563013 0.969162
vt 0.866282 0.5305328
vt 0.866282 0.969162
vt 0.8663104 0.5305328
vt 0.8663104 0.969162
vt 0.876291 0.5305328
vt 0.876291 0.969162
vt 0.8764653 0.5305328
vt 0.8764653 0.969162
vt 0.886446 0.5305328
vt 0.886446 0.969162
vt 0.8863142 0.5305328
vt 0.8863142 0.969162
vt 0.8962948 0.5305328
vt 0.8962948 0.969162
vt 0.8961821 0.5305328
vt 0.8961821 0.969162
vt 0.9061627 0.5305328
vt 0.9061627 0.969162
vt 0.9040003 0.5305328
vt 0.9040003 0.969162
vt 0.913981 0.5305328
vt 0.913981 0.969162
vt 0.918622 0.5305328
vt 0.918622 0.969162
vt 0.9286027 0.5305328
vt 0.9286027 0.969162
vt 0.9332848 0.5305328
vt 0.9332848 0.969162
vt 0.9432654 0.5305328
vt 0.9432654 0.969162
vt 0.9477177 0.5305328
vt 0.9477177 0.969162
vt 0.9576983 0.5305328
vt 0.9576983 0.969162
vt 0.1936665 0.1125603
vt 0.1136665 0.1125603
vt 0.1897507 0.1372814
vt 0.1783886 0.159584
vt 0.1606903 0.1772823
vt 0.1383877 0.1886444
vt 0.1136665 0.1925602
vt 0.08894539 0.1886444
vt 0.06664276 0.1772823
vt 0.04894447 0.1595821
vt 0.0375824 0.1372814
vt 0.03366661 0.1125603
vt 0.0375824 0.08783913
vt 0.04894447 0.06553841
vt 0.06664276 0.04783821
vt 0.08894539 0.03647614
vt 0.1136665 0.03256035
vt 0.1383877 0.03647614
vt 0.1606884 0.04783821
vt 0.1783886 0.0655365
vt 0.1897507 0.08783913

g model
usemtl model
usemap model
f 2/2/2 1/1/1 3/3/3
f 4/4/4 2/2/2 3/3/3
f 6/6/6 5/5/5 7/7/7
f 8/8/8 6/6/6 7/7/7
f 10/10/10 9/9/9 11/11/11
f 12/12/12 10/10/10 11/11/11
f 14/14/14 13/13/13 15/15/15
f 16/16/16 14/14/14 15/15/15
f 18/18/18 17/17/17 19/19/19
f 20/20/20 18/18/18 19/19/19
f 22/22/22 21/21/21 23/23/23
f 24/24/24 22/22/22 23/23/23
f 26/26/26 25/25/25 27/27/27
f 28/28/28 26/26/26 27/27/27
f 30/30/30 29/29/29 31/31/31
f 32/32/32 30/30/30 31/31/31
f 34/34/34 33/33/33 35/35/35
f 36/36/36 34/34/34 35/35/35
f 38/38/38 37/37/37 39/39/39
f 40/40/40 38/38/38 39/39/39
f 42/42/42 41/41/41 43/43/43
f 44/44/44 42/42/42 43/43/43
f 46/46/46 45/45/45 47/47/47
f 48/48/48 46/46/46 47/47/47
f 50/50/50 49/49/49 51/51/51
f 52/52/52 50/50/50 51/51/51
f 54/54/54 53/53/53 55/55/55
f 56/56/56 54/54/54 55/55/55
f 58/58/58 57/57/57 59/59/59
f 60/60/60 58/58/58 59/59/59
f 62/62/62 61/61/61 63/63/63
f 64/64/64 62/62/62 63/63/63
f 66/66/66 65/65/65 67/67/67
f 68/68/68 66/66/66 67/67/67
f 70/70/70 69/69/69 71/71/71
f 72/72/72 70/70/70 71/71/71
f 74/74/74 73/73/73 75/75/75
f 76/76/76 74/74/74 75/75/75
f 78/78/78 77/77/77 79/79/79
f 80/80/80 78/78/78 79/79/79
f 82/82/82 81/81/81 83/83/83
f 82/82/82 83/83/83 84/84/84
f 82/82/82 84/84/84 85/85/85
f 82/82/82 85/85/85 86/86/86
f 82/82/82 86/86/86 87/87/87
f 82/82/82 87/87/87 88/88/88
f 82/82/82 88/88/88 89/89/89
f 82/82/82 89/89/89 90/90/90
f 82/82/82 90/90/90 91/91/91
f 82/82/82 91/91/91 92/92/92
f 82/82/82 92/92/92 93/93/93
f 82/82/82 93/93/93 94/94/94
f 82/82/82 94/94/94 95/95/95
f 82/82/82 95/95/95 96/96/96
f 82/82/82 96/96/96 97/97/97
f 82/82/82 97/97/97 98/98/98
f 82/82/82 98/98/98 99/99/99
f 82/82/82 99/99/99 100/100/100
f 82/82/82 100/100/100 101/101/101
f 82/82/82 101/101/101 81/81/81
