mtllib ./building12.mtl
g building12
v 24.9989 0 24.98453
v -24.98987 0 24.9985
v -24.98157 78.31201 25.00198
v 25.00903 78.31201 24.99292
v -24.98987 0 24.9985
v -24.99304 0 -24.98923
v -24.98413 78.31201 -24.983
v -24.98157 78.31201 25.00198
v -24.99304 0 -24.98923
v 24.98401 0 -24.99374
v 24.98938 78.31201 -24.98895
v -24.98413 78.31201 -24.983
v 24.98401 0 -24.99374
v 24.9989 0 24.98453
v 25.00903 78.31201 24.99292
v 24.98938 78.31201 -24.98895
v 25.00903 78.31201 24.99292
v -24.98157 78.31201 25.00198
v -24.97302 157.9902 25.00546
v 25.01892 157.9902 25.00131
v -24.98157 78.31201 25.00198
v -24.98413 78.31201 -24.983
v -24.97522 157.9902 -24.97678
v -24.97302 157.9902 25.00546
v -24.98413 78.31201 -24.983
v 24.98938 78.31201 -24.98895
v 24.99475 157.9902 -24.98416
v -24.97522 157.9902 -24.97678
v 24.98938 78.31201 -24.98895
v 25.00903 78.31201 24.99292
v 25.01892 157.9902 25.00131
v 24.99475 157.9902 -24.98416
v 0.0213623 156.9902 24.01346
v -23.97864 156.9902 24.01346
v 0.0213623 156.9902 0.01345825
v -23.97864 156.9902 0.01345825
v 24.02136 156.9902 24.01346
v 0.0213623 156.9902 24.01346
v 0.0213623 156.9902 0.01345825
v 24.02136 156.9902 0.01345825
v -23.97864 156.9902 0.01345825
v -23.97864 156.9902 -23.98654
v 0.0213623 156.9902 0.01345825
v 0.0213623 156.9902 -23.98654
v 24.02136 156.9902 -23.98654
v 24.02136 156.9902 0.01345825
v 0.0213623 156.9902 0.01345825
v 0.0213623 156.9902 -23.98654
v 0.0213623 157.9902 24.01346
v -23.97864 157.9902 24.01346
v 0.0213623 156.9902 24.01346
v -23.97864 156.9902 24.01346
v -23.97864 157.9902 24.01346
v -23.97864 157.9902 0.01345825
v -23.97864 156.9902 24.01346
v -23.97864 156.9902 0.01345825
v -23.97864 157.9902 0.01345825
v -23.97864 157.9902 -23.98654
v -23.97864 156.9902 0.01345825
v -23.97864 156.9902 -23.98654
v -23.97864 157.9902 -23.98654
v 0.0213623 157.9902 -23.98654
v -23.97864 156.9902 -23.98654
v 0.0213623 156.9902 -23.98654
v 24.02136 157.9902 -23.98654
v 24.02136 157.9902 0.01345825
v 24.02136 156.9902 -23.98654
v 24.02136 156.9902 0.01345825
v 0.0213623 157.9902 -23.98654
v 24.02136 157.9902 -23.98654
v 0.0213623 156.9902 -23.98654
v 24.02136 156.9902 -23.98654
v 24.02136 157.9902 24.01346
v 0.0213623 157.9902 24.01346
v 24.02136 156.9902 24.01346
v 0.0213623 156.9902 24.01346
v 24.02136 157.9902 0.01345825
v 24.02136 157.9902 24.01346
v 24.02136 156.9902 0.01345825
v 24.02136 156.9902 24.01346
v 24.02136 157.9902 -23.98654
v 0.0213623 157.9902 -23.98654
v 24.99475 157.9902 -24.98416
v -23.97864 157.9902 -23.98654
v -24.97522 157.9902 -24.97678
v 24.02136 157.9902 0.01345825
v 24.02136 157.9902 -23.98654
v 25.01892 157.9902 25.00131
v 24.99475 157.9902 -24.98416
v 24.02136 157.9902 24.01346
v 0.0213623 157.9902 24.01346
v 24.02136 157.9902 24.01346
v -24.97302 157.9902 25.00546
v 25.01892 157.9902 25.00131
v -23.97864 157.9902 24.01346
v -23.97864 157.9902 0.01345825
v -23.97864 157.9902 24.01346
v -24.97522 157.9902 -24.97678
v -24.97302 157.9902 25.00546
v -23.97864 157.9902 -23.98654

vn 0.0002304552 -7.582224E-05 0.9999999
vn 0.0002796038 -4.445454E-05 0.9999999
vn 0.0002304552 -7.582224E-05 0.9999999
vn 0.0001813085 -0.0001071888 1
vn -1 0.0001098896 5.738871E-05
vn -1 0.0001137851 6.349214E-05
vn -1 0.0001098896 5.738871E-05
vn -0.9999999 0.000105994 5.128493E-05
vn -0.0001047271 7.034899E-05 -1
vn -9.037351E-05 6.118787E-05 -1
vn -0.0001047271 7.034899E-05 -1
vn -0.0001190816 7.951075E-05 -1
vn 0.9999999 -9.895272E-05 -0.0003455967
vn 0.9999999 -0.0001293459 -0.000297981
vn 0.9999999 -9.895272E-05 -0.0003455967
vn 0.9999999 -6.856176E-05 -0.000393209
vn 0.0001321642 -7.451078E-05 1
vn 0.0001813085 -4.368262E-05 1
vn 0.0001321642 -7.451078E-05 1
vn 8.302119E-05 -0.0001053381 0.9999999
vn -1 0.000109538 4.762303E-05
vn -0.9999999 0.000111835 5.128493E-05
vn -1 0.000109538 4.762303E-05
vn -1 0.000107241 4.396093E-05
vn -0.0001334372 6.914531E-05 -1
vn -0.0001190816 6.014064E-05 -0.9999999
vn -0.0001334372 6.914531E-05 -1
vn -0.0001477938 7.815062E-05 -0.9999999
vn 0.9999999 -9.571629E-05 -0.0004383755
vn 0.9999999 -0.0001240539 -0.0003932089
vn 0.9999999 -9.571629E-05 -0.0004383755
vn 0.9999999 -6.738072E-05 -0.0004835389
vn 0 1 0
vn 0 1 0
vn 0 1 0
vn 0 1 0
vn 0 1 0
vn 0 1 0
vn 0 1 0
vn 0 1 0
vn 0 1 0
vn 0 1 0
vn 0 1 0
vn 0 1 0
vn 0 1 0
vn 0 1 0
vn 0 1 0
vn 0 1 0
vn 0 0 -1
vn 0 0 -1
vn 0 0 -1
vn 0 0 -1
vn 1 0 0
vn 1 0 0
vn 1 0 0
vn 1 0 0
vn 1 0 0
vn 1 0 0
vn 1 0 0
vn 1 0 0
vn 0 0 1
vn 0 0 1
vn 0 0 1
vn 0 0 1
vn -1 0 0
vn -1 0 0
vn -1 0 0
vn -1 0 0
vn 0 0 1
vn 0 0 1
vn 0 0 1
vn 0 0 1
vn 0 0 -1
vn 0 0 -1
vn 0 0 -1
vn 0 0 -1
vn -1 0 0
vn -1 0 0
vn -1 0 0
vn -1 0 0
vn 0 1 0
vn 0 1 0
vn 0 1 0
vn 0 1 0
vn 0 1 0
vn 0 1 0
vn 0 1 0
vn 0 1 0
vn 0 0.9999999 0
vn 0 1 0
vn 0 1 0
vn 0 1 0
vn 0 1 0
vn 0 1 0
vn 0 1 0
vn 0 1 0
vn 0 1 0
vn 0 1 0
vn 0 1 0
vn 0 1 0

vt 0.4479847 0.2569466
vt 0.3270149 0.2569466
vt 0.327034 0.4464607
vt 0.4480095 0.4464607
vt 0.4479809 0.2568932
vt 0.327013 0.2568932
vt 0.3270283 0.4464073
vt 0.4479885 0.4464073
vt 0.4480858 0.2569046
vt 0.3271427 0.2569046
vt 0.3271294 0.4464188
vt 0.4480629 0.4464188
vt 0.4478283 0.2570114
vt 0.3268833 0.2570114
vt 0.3268642 0.4465256
vt 0.4478168 0.4465256
vt 0.4479885 0.260231
vt 0.3270149 0.260231
vt 0.3270321 0.4530487
vt 0.4480133 0.4530487
vt 0.4479866 0.2601776
vt 0.3270149 0.2601776
vt 0.3270206 0.4529953
vt 0.447979 0.4529953
vt 0.4480801 0.2601051
vt 0.3271484 0.2601051
vt 0.3271351 0.4529228
vt 0.4480591 0.4529228
vt 0.4478283 0.2601738
vt 0.3268795 0.2601738
vt 0.3268642 0.4529915
vt 0.4478283 0.4529915
vt 0.002199173 0.221734
vt 0.2229996 0.221734
vt 0.002199173 0.0009336472
vt 0.2229996 0.0009336472
vt 0.001533508 0.221734
vt 0.2223339 0.221734
vt 0.2223339 0.0009336472
vt 0.001533508 0.0009336472
vt 0.2229996 0.221734
vt 0.2229996 0.0009336472
vt 0.002199173 0.221734
vt 0.002199173 0.0009336472
vt 0.001533508 0.0009336472
vt 0.001533508 0.221734
vt 0.2223339 0.221734
vt 0.2223339 0.0009336472
vt 0.002009392 0.06883255
vt 0.2228098 0.06883255
vt 0.002009392 0.05963257
vt 0.2228098 0.05963257
vt 0.00306797 0.06887218
vt 0.2238684 0.06887218
vt 0.00306797 0.05967221
vt 0.2238684 0.05967221
vt 0.003035545 0.06885386
vt 0.2238359 0.06885386
vt 0.003035545 0.05965388
vt 0.2238359 0.05965388
vt 0.002064705 0.06863031
vt 0.2228651 0.06863031
vt 0.002064705 0.05943033
vt 0.2228651 0.05943033
vt 0.001725197 0.06862751
vt 0.2225256 0.06862751
vt 0.001725197 0.05942753
vt 0.2225256 0.05942753
vt 0.002654076 0.06863698
vt 0.2234545 0.06863698
vt 0.002654076 0.05943701
vt 0.2234545 0.05943701
vt 0.001545906 0.06855744
vt 0.2223463 0.06855744
vt 0.001545906 0.05935746
vt 0.2223463 0.05935746
vt 0.001389503 0.06838986
vt 0.2221899 0.06838986
vt 0.001389503 0.05918989
vt 0.2221899 0.05918989
vt 0.5046825 0.4795697
vt 0.6342659 0.4795697
vt 0.4994278 0.4741833
vt 0.7638493 0.4795697
vt 0.7692299 0.474223
vt 0.6339381 0.4746151
vt 0.5043548 0.4746151
vt 0.7688544 0.4800014
vt 0.4989684 0.4798717
vt 0.7635215 0.4746151
vt 0.6540432 0.4750777
vt 0.5244617 0.4750777
vt 0.7889957 0.4804338
vt 0.5190754 0.4804114
vt 0.7836266 0.4750777
vt 0.6341581 0.4801445
vt 0.7637396 0.4801445
vt 0.4992285 0.474762
vt 0.7690954 0.4747753
vt 0.5045748 0.4801445

g model
usemtl model
usemap model
f 2/2/2 1/1/1 3/3/3
f 1/1/1 4/4/4 3/3/3
f 6/6/6 5/5/5 7/7/7
f 5/5/5 8/8/8 7/7/7
f 10/10/10 9/9/9 11/11/11
f 9/9/9 12/12/12 11/11/11
f 14/14/14 13/13/13 15/15/15
f 13/13/13 16/16/16 15/15/15
f 18/18/18 17/17/17 19/19/19
f 17/17/17 20/20/20 19/19/19
f 22/22/22 21/21/21 23/23/23
f 21/21/21 24/24/24 23/23/23
f 26/26/26 25/25/25 27/27/27
f 25/25/25 28/28/28 27/27/27
f 30/30/30 29/29/29 31/31/31
f 29/29/29 32/32/32 31/31/31
f 34/34/34 33/33/33 35/35/35
f 36/36/36 34/34/34 35/35/35
f 38/38/38 37/37/37 39/39/39
f 37/37/37 40/40/40 39/39/39
f 42/42/42 41/41/41 43/43/43
f 44/44/44 42/42/42 43/43/43
f 46/46/46 45/45/45 47/47/47
f 45/45/45 48/48/48 47/47/47
f 50/50/50 49/49/49 51/51/51
f 52/52/52 50/50/50 51/51/51
f 54/54/54 53/53/53 55/55/55
f 56/56/56 54/54/54 55/55/55
f 58/58/58 57/57/57 59/59/59
f 60/60/60 58/58/58 59/59/59
f 62/62/62 61/61/61 63/63/63
f 64/64/64 62/62/62 63/63/63
f 66/66/66 65/65/65 67/67/67
f 68/68/68 66/66/66 67/67/67
f 70/70/70 69/69/69 71/71/71
f 72/72/72 70/70/70 71/71/71
f 74/74/74 73/73/73 75/75/75
f 76/76/76 74/74/74 75/75/75
f 78/78/78 77/77/77 79/79/79
f 80/80/80 78/78/78 79/79/79
f 82/82/82 81/81/81 83/83/83
f 84/84/84 82/82/82 83/83/83
f 85/85/85 84/84/84 83/83/83
f 87/87/87 86/86/86 88/88/88
f 89/89/89 87/87/87 88/88/88
f 86/86/86 90/90/90 88/88/88
f 92/92/92 91/91/91 93/93/93
f 94/94/94 92/92/92 93/93/93
f 91/91/91 95/95/95 93/93/93
f 97/97/97 96/96/96 98/98/98
f 99/99/99 97/97/97 98/98/98
f 96/96/96 100/100/100 98/98/98
