mtllib ./building14.mtl
g building14
v -32.4834 108.0127 32.49084
v -32.4834 216.043 32.49084
v 32.50049 108.0127 32.48509
v 32.50049 216.043 32.48509
v -32.48486 108.0127 -32.48964
v -32.48486 216.043 -32.48964
v -32.4834 108.0127 32.49084
v -32.4834 216.043 32.49084
v 32.48486 108.0127 -32.49133
v 32.48486 216.043 -32.49133
v -32.48486 108.0127 -32.48964
v -32.48486 216.043 -32.48964
v 32.50049 108.0127 32.48509
v 32.50049 216.043 32.48509
v 32.48486 108.0127 -32.49133
v 32.48486 216.043 -32.49133
v -32.48901 -0.0004882813 32.49203
v -32.4834 108.0127 32.49084
v 32.48926 -0.0004882813 32.48592
v 32.50049 108.0127 32.48509
v -32.48901 -0.0004882813 -32.49202
v -32.48486 108.0127 -32.48964
v -32.48901 -0.0004882813 32.49203
v -32.4834 108.0127 32.49084
v 32.48926 -0.0004882813 -32.48582
v 32.48486 108.0127 -32.49133
v -32.48901 -0.0004882813 -32.49202
v -32.48486 108.0127 -32.48964
v 32.48926 -0.0004882813 32.48592
v 32.50049 108.0127 32.48509
v 32.48926 -0.0004882813 -32.48582
v 32.48486 108.0127 -32.49133
v -32.4834 216.043 32.49084
v -32.47778 343.5112 32.48965
v 32.50049 216.043 32.48509
v 32.51172 343.5112 32.48425
v -32.48486 216.043 -32.48964
v -32.48071 343.5112 -32.48726
v -32.4834 216.043 32.49084
v -32.47778 343.5112 32.48965
v 32.48486 216.043 -32.49133
v 32.48022 343.5112 -32.49686
v -32.48486 216.043 -32.48964
v -32.48071 343.5112 -32.48726
v 32.50049 216.043 32.48509
v 32.51172 343.5112 32.48425
v 32.48486 216.043 -32.49133
v 32.48022 343.5112 -32.49686
v -31.18506 343.5112 31.20004
v 0.01489258 342.2109 31.20004
v 0.01489258 343.5112 31.20004
v -31.18506 342.2109 31.20004
v -31.18506 343.5112 4.577637E-05
v -31.18506 342.2109 31.20004
v -31.18506 343.5112 31.20004
v -31.18506 342.2109 4.577637E-05
v -31.18506 343.5112 -31.19995
v -31.18506 342.2109 4.577637E-05
v -31.18506 343.5112 4.577637E-05
v -31.18506 342.2109 -31.19995
v 0.01489258 343.5112 -31.19995
v -31.18506 342.2109 -31.19995
v -31.18506 343.5112 -31.19995
v 0.01489258 342.2109 -31.19995
v 31.21484 343.5112 4.577637E-05
v 31.21484 342.2109 -31.19995
v 31.21484 343.5112 -31.19995
v 31.21484 342.2109 4.577637E-05
v 31.21484 343.5112 -31.19995
v 0.01489258 342.2109 -31.19995
v 0.01489258 343.5112 -31.19995
v 31.21484 342.2109 -31.19995
v 0.01489258 343.5112 31.20004
v 31.21484 342.2109 31.20004
v 31.21484 343.5112 31.20004
v 0.01489258 342.2109 31.20004
v 31.21484 343.5112 31.20004
v 31.21484 342.2109 4.577637E-05
v 31.21484 343.5112 4.577637E-05
v 31.21484 342.2109 31.20004
v 0.01489258 343.5112 -31.19995
v 32.48022 343.5112 -32.49686
v 31.21484 343.5112 -31.19995
v -31.18506 343.5112 -31.19995
v -32.48071 343.5112 -32.48726
v 31.21484 343.5112 -31.19995
v 32.51172 343.5112 32.48425
v 31.21484 343.5112 4.577637E-05
v 32.48022 343.5112 -32.49686
v 31.21484 343.5112 31.20004
v 31.21484 343.5112 31.20004
v -32.47778 343.5112 32.48965
v 0.01489258 343.5112 31.20004
v 32.51172 343.5112 32.48425
v -31.18506 343.5112 31.20004
v -31.18506 343.5112 31.20004
v -32.48071 343.5112 -32.48726
v -31.18506 343.5112 4.577637E-05
v -32.47778 343.5112 32.48965
v -31.18506 343.5112 -31.19995
v -31.18506 342.2109 31.20004
v 0.01489258 342.2109 4.577637E-05
v 0.01489258 342.2109 31.20004
v -31.18506 342.2109 4.577637E-05
v -31.18506 342.2109 -31.19995
v 0.01489258 342.2109 -31.19995
v 31.21484 342.2109 4.577637E-05
v 31.21484 342.2109 -31.19995
v 31.21484 342.2109 31.20004

vn 8.852292E-05 0 1
vn 8.852292E-05 0 1
vn 8.852292E-05 0 1
vn 8.852292E-05 0 1
vn -0.9999999 0 2.248412E-05
vn -0.9999999 0 2.248412E-05
vn -0.9999999 0 2.248412E-05
vn -0.9999999 0 2.248412E-05
vn -2.601075E-05 0 -1
vn -2.601075E-05 0 -1
vn -2.601075E-05 0 -1
vn -2.601075E-05 0 -1
vn 0.9999999 0 -0.0002405306
vn 0.9999999 0 -0.0002405306
vn 0.9999999 0 -0.0002405306
vn 0.9999999 0 -0.0002405306
vn 9.404905E-05 1.1014E-05 1
vn 9.128587E-05 9.351878E-06 1
vn 9.128587E-05 9.351878E-06 1
vn 8.852293E-05 7.689896E-06 1
vn -1 3.842485E-05 0
vn -1 4.518798E-05 1.124175E-05
vn -1 4.518798E-05 1.124175E-05
vn -0.9999999 5.195149E-05 2.248412E-05
vn 9.539932E-05 -5.09938E-05 -1
vn 3.469828E-05 -1.447991E-05 -1
vn 3.469828E-05 -1.447991E-05 -1
vn -2.601075E-05 2.203878E-05 -0.9999999
vn 1 -0.0001039378 0
vn 1 -3.159455E-05 -0.0001202696
vn 1 -3.159455E-05 -0.0001202696
vn 0.9999999 4.07435E-05 -0.0002405305
vn 8.852292E-05 9.333216E-06 0.9999999
vn 8.581892E-05 7.95482E-06 1
vn 8.581892E-05 7.95482E-06 1
vn 8.311514E-05 6.576542E-06 1
vn -1 3.255978E-05 2.248412E-05
vn -1 3.832093E-05 3.378582E-05
vn -1 3.832093E-05 3.378582E-05
vn -1 4.408239E-05 4.508813E-05
vn -2.601075E-05 -4.33946E-05 -1
vn -8.690408E-05 -1.235988E-05 -1
vn -8.690408E-05 -1.235988E-05 -1
vn -0.0001478057 1.867905E-05 -1
vn 1 -8.810567E-05 -0.0002405306
vn 0.9999999 -2.586569E-05 -0.000362632
vn 0.9999999 -2.586569E-05 -0.000362632
vn 0.9999999 3.636978E-05 -0.0004847248
vn 0 0 -1
vn 0 0 -1
vn 0 0 -1
vn 0 0 -1
vn 1 0 0
vn 1 0 0
vn 1 0 0
vn 1 0 0
vn 1 0 0
vn 1 0 0
vn 1 0 0
vn 1 0 0
vn 0 0 1
vn 0 0 1
vn 0 0 1
vn 0 0 1
vn -1 0 0
vn -1 0 0
vn -1 0 0
vn -1 0 0
vn 0 0 1
vn 0 0 1
vn 0 0 1
vn 0 0 1
vn 0 0 -1
vn 0 0 -1
vn 0 0 -1
vn 0 0 -1
vn -1 0 0
vn -1 0 0
vn -1 0 0
vn -1 0 0
vn 0 1 0
vn 0 1 0
vn 0 1 0
vn 0 1 0
vn 0 0.9999999 0
vn 0 0.9999999 0
vn 0 1 0
vn 0 1 0
vn 0 1 0
vn 0 1 0
vn 0 1 0
vn 0 1 0
vn 0 1 0
vn 0 1 0
vn 0 1 0
vn 0 1 0
vn 0 1 0
vn 0 1 0
vn 0 1 0
vn 0 1 0
vn 0 1 0
vn 0 1 0
vn 0 1 0
vn 0 1 0
vn 0 1 0
vn 0 1 0
vn 0 1 0
vn 0 1 0
vn 0 1 0

vt 0.2172356 0.2527743
vt 0.2172508 0.408948
vt 0.3112049 0.2527743
vt 0.3112373 0.408948
vt 0.2176342 0.2526446
vt 0.2176418 0.4088183
vt 0.3116093 0.2526446
vt 0.3116055 0.4088183
vt 0.217329 0.252637
vt 0.2173424 0.4088107
vt 0.3112965 0.252637
vt 0.311285 0.4088107
vt 0.2173367 0.2528354
vt 0.2173386 0.4090091
vt 0.3112965 0.2528354
vt 0.3113117 0.4090091
vt 0.2172356 0.2527743
vt 0.2172508 0.408948
vt 0.3112049 0.2527743
vt 0.3112373 0.408948
vt 0.2176342 0.2526446
vt 0.2176418 0.4088183
vt 0.3116093 0.2526446
vt 0.3116055 0.4088183
vt 0.217329 0.252637
vt 0.2173424 0.4088107
vt 0.3112965 0.252637
vt 0.311285 0.4088107
vt 0.2173367 0.2528354
vt 0.2173386 0.4090091
vt 0.3112965 0.2528354
vt 0.3113117 0.4090091
vt 0.2171822 0.2532196
vt 0.2171974 0.4375305
vt 0.3111515 0.2532196
vt 0.3111839 0.4375305
vt 0.2175808 0.2530899
vt 0.2175884 0.4374008
vt 0.3115559 0.2530899
vt 0.311552 0.4374008
vt 0.2172756 0.2530823
vt 0.217289 0.4373932
vt 0.3112431 0.2530823
vt 0.3112316 0.4373932
vt 0.2172832 0.2532806
vt 0.2172852 0.4375916
vt 0.3112431 0.2532806
vt 0.3112583 0.4375916
vt 0.2228775 0.1041334
vt 0.002077103 0.09493345
vt 0.002077103 0.1041334
vt 0.2228775 0.09493345
vt 0.222168 0.104173
vt 0.001367569 0.09497303
vt 0.001367569 0.104173
vt 0.222168 0.09497303
vt 0.2231855 0.1041547
vt 0.002385139 0.09495473
vt 0.002385139 0.1041547
vt 0.2231855 0.09495473
vt 0.2225466 0.1039311
vt 0.001746178 0.09473115
vt 0.001746178 0.1039311
vt 0.2225466 0.09473115
vt 0.2222071 0.1039283
vt 0.00140667 0.09472835
vt 0.00140667 0.1039283
vt 0.2222071 0.09472835
vt 0.2231359 0.1039378
vt 0.002335548 0.09473783
vt 0.002335548 0.1039378
vt 0.2231359 0.09473783
vt 0.2226715 0.1038584
vt 0.001871109 0.09465837
vt 0.001871109 0.1038584
vt 0.2226715 0.09465837
vt 0.2232533 0.1036907
vt 0.00245285 0.09449071
vt 0.00245285 0.1036907
vt 0.2232533 0.09449071
vt 0.3186798 0.3508624
vt 0.316782 0.3978108
vt 0.3186569 0.3959826
vt 0.3187008 0.3057441
vt 0.3168392 0.3038702
vt 0.3169953 0.4036293
vt 0.3189144 0.311533
vt 0.3170167 0.3585091
vt 0.3188243 0.4055042
vt 0.3170381 0.3133907
vt 0.3181286 0.3944603
vt 0.3200378 0.3023534
vt 0.3181496 0.3493401
vt 0.3199844 0.3963361
vt 0.3181705 0.3042217
vt 0.3192248 0.3053131
vt 0.3173076 0.3974133
vt 0.3192034 0.3504333
vt 0.3173563 0.3034496
vt 0.319182 0.3955517
vt 0.4174232 0.2104187
vt 0.3505516 0.1435013
vt 0.3505287 0.2103958
vt 0.4174461 0.1435242
vt 0.417469 0.07662964
vt 0.3505745 0.07660675
vt 0.2836571 0.1434784
vt 0.28368 0.07658386
vt 0.2836342 0.2103729

g model
usemtl model
usemap model
f 2/2/2 1/1/1 3/3/3
f 2/2/2 3/3/3 4/4/4
f 6/6/6 5/5/5 7/7/7
f 6/6/6 7/7/7 8/8/8
f 10/10/10 9/9/9 11/11/11
f 10/10/10 11/11/11 12/12/12
f 14/14/14 13/13/13 15/15/15
f 14/14/14 15/15/15 16/16/16
f 18/18/18 17/17/17 19/19/19
f 18/18/18 19/19/19 20/20/20
f 22/22/22 21/21/21 23/23/23
f 22/22/22 23/23/23 24/24/24
f 26/26/26 25/25/25 27/27/27
f 26/26/26 27/27/27 28/28/28
f 30/30/30 29/29/29 31/31/31
f 30/30/30 31/31/31 32/32/32
f 34/34/34 33/33/33 35/35/35
f 34/34/34 35/35/35 36/36/36
f 38/38/38 37/37/37 39/39/39
f 38/38/38 39/39/39 40/40/40
f 42/42/42 41/41/41 43/43/43
f 42/42/42 43/43/43 44/44/44
f 46/46/46 45/45/45 47/47/47
f 46/46/46 47/47/47 48/48/48
f 50/50/50 49/49/49 51/51/51
f 50/50/50 52/52/52 49/49/49
f 54/54/54 53/53/53 55/55/55
f 54/54/54 56/56/56 53/53/53
f 58/58/58 57/57/57 59/59/59
f 58/58/58 60/60/60 57/57/57
f 62/62/62 61/61/61 63/63/63
f 62/62/62 64/64/64 61/61/61
f 66/66/66 65/65/65 67/67/67
f 66/66/66 68/68/68 65/65/65
f 70/70/70 69/69/69 71/71/71
f 70/70/70 72/72/72 69/69/69
f 74/74/74 73/73/73 75/75/75
f 74/74/74 76/76/76 73/73/73
f 78/78/78 77/77/77 79/79/79
f 78/78/78 80/80/80 77/77/77
f 82/82/82 81/81/81 83/83/83
f 82/82/82 84/84/84 81/81/81
f 82/82/82 85/85/85 84/84/84
f 87/87/87 86/86/86 88/88/88
f 87/87/87 89/89/89 86/86/86
f 87/87/87 88/88/88 90/90/90
f 92/92/92 91/91/91 93/93/93
f 92/92/92 94/94/94 91/91/91
f 92/92/92 93/93/93 95/95/95
f 97/97/97 96/96/96 98/98/98
f 97/97/97 99/99/99 96/96/96
f 97/97/97 98/98/98 100/100/100
f 102/102/102 101/101/101 103/103/103
f 102/102/102 104/104/104 101/101/101
f 102/102/102 105/105/105 104/104/104
f 102/102/102 106/106/106 105/105/105
f 102/102/102 107/107/107 108/108/108
f 102/102/102 108/108/108 106/106/106
f 102/102/102 103/103/103 109/109/109
f 102/102/102 109/109/109 107/107/107
