mtllib ./building18.mtl
g building18
v 16.10004 0 10
v 16.10004 25 10
v 21.10004 0 8.660248
v 21.10004 25 8.660248
v 21.10004 0 8.660248
v 21.10004 25 8.660248
v 24.76019 0 5
v 24.76019 25 5
v 24.76019 0 5
v 24.76019 25 5
v 26.10004 0 0
v 26.10004 25 0
v 26.10004 0 0
v 26.10004 25 0
v 24.76019 0 -5
v 24.76019 25 -5
v 24.76019 0 -5
v 24.76019 25 -5
v 21.10004 0 -8.660278
v 21.10004 25 -8.660278
v 21.10004 0 -8.660278
v 21.10004 25 -8.660278
v 16.10004 0 -10
v 16.10004 25 -10
v -26.09991 0 0
v -26.09991 25 0
v -24.76031 0 5
v -24.76031 25 5
v -24.76031 0 5
v -24.76031 25 5
v -21.09991 0 8.660248
v -21.09991 25 8.660248
v -21.09991 0 8.660248
v -21.09991 25 8.660248
v -16.09991 0 10
v -16.09991 25 10
v -16.09991 0 -10
v -16.09991 25 -10
v -21.09991 0 -8.660278
v -21.09991 25 -8.660278
v -21.09991 0 -8.660278
v -21.09991 25 -8.660278
v -24.76031 0 -5
v -24.76031 25 -5
v -24.76031 0 -5
v -24.76031 25 -5
v -26.09991 0 0
v -26.09991 25 0
v -16.09991 25 -10
v 16.10004 0 -10
v 16.10004 25 -10
v -16.09991 0 -10
v 16.10004 25 10
v -16.09991 0 10
v -16.09991 25 10
v 16.10004 0 10
v 16.10004 25 -10
v -16.09991 25 0
v -16.09991 25 -10
v 16.10004 25 0
v -16.09991 25 10
v 16.10004 25 10
v -21.09991 25 8.660248
v -24.76031 25 5
v -26.09991 25 0
v -24.76031 25 -5
v -21.09991 25 -8.660278
v 21.10004 25 -8.660278
v 26.10004 25 0
v 24.76019 25 -5
v 24.76019 25 5
v 21.10004 25 8.660248

vn 0.2588202 0 0.9659255
vn 0.2588202 0 0.9659255
vn 0.2588202 0 0.9659255
vn 0.2588202 0 0.9659255
vn 0.7071156 0 0.7070979
vn 0.7071156 0 0.7070979
vn 0.7071156 0 0.7070979
vn 0.7071156 0 0.7070979
vn 0.9659211 0 0.2588367
vn 0.9659211 0 0.2588367
vn 0.9659211 0 0.2588367
vn 0.9659211 0 0.2588367
vn 0.9659211 0 -0.2588367
vn 0.9659211 0 -0.2588367
vn 0.9659211 0 -0.2588367
vn 0.9659211 0 -0.2588367
vn 0.7071186 0 -0.707095
vn 0.7071186 0 -0.707095
vn 0.7071186 0 -0.707095
vn 0.7071186 0 -0.707095
vn 0.2588147 0 -0.965927
vn 0.2588147 0 -0.965927
vn 0.2588147 0 -0.965927
vn 0.2588147 0 -0.965927
vn -0.9659328 0 0.2587926
vn -0.9659328 0 0.2587926
vn -0.9659328 0 0.2587926
vn -0.9659328 0 0.2587926
vn -0.707092 0 0.7071215
vn -0.707092 0 0.7071215
vn -0.707092 0 0.7071215
vn -0.707092 0 0.7071215
vn -0.2588202 0 0.9659255
vn -0.2588202 0 0.9659255
vn -0.2588202 0 0.9659255
vn -0.2588202 0 0.9659255
vn -0.2588147 0 -0.965927
vn -0.2588147 0 -0.965927
vn -0.2588147 0 -0.965927
vn -0.2588147 0 -0.965927
vn -0.707095 0 -0.7071186
vn -0.707095 0 -0.7071186
vn -0.707095 0 -0.7071186
vn -0.707095 0 -0.7071186
vn -0.9659328 0 -0.2587926
vn -0.9659328 0 -0.2587926
vn -0.9659328 0 -0.2587926
vn -0.9659328 0 -0.2587926
vn 0 0 -0.9999999
vn 0 0 -0.9999999
vn 0 0 -0.9999999
vn 0 0 -0.9999999
vn 0 0 0.9999999
vn 0 0 0.9999999
vn 0 0 0.9999999
vn 0 0 0.9999999
vn 0 1 0
vn 0 1 0
vn 0 1 0
vn 0 1 0
vn 0 1 0
vn 0 1 0
vn 0 1 0
vn 0 1 0
vn 0 1 0
vn 0 1 0
vn 0 1 0
vn 0 1 0
vn 0 1 0
vn 0 1 0
vn 0 1 0
vn 0 1 0

vt 0.1067209 0.8705635
vt 0.1067209 0.9595642
vt 0.1251488 0.8705635
vt 0.1251488 0.9595642
vt 0.1155229 0.8877296
vt 0.1155229 0.9767303
vt 0.1339507 0.8877296
vt 0.1339507 0.9767303
vt 0.09158802 0.8703995
vt 0.09158802 0.9594002
vt 0.1100159 0.8703995
vt 0.1100159 0.9594002
vt 0.09965277 0.8703327
vt 0.09965277 0.9593334
vt 0.1180806 0.8703327
vt 0.1180806 0.9593334
vt 0.0776701 0.8876343
vt 0.0776701 0.976635
vt 0.09609795 0.8876343
vt 0.09609795 0.976635
vt 0.0870347 0.8877487
vt 0.0870347 0.9767494
vt 0.1054626 0.8877487
vt 0.1054626 0.9767494
vt 0.1212249 0.8707695
vt 0.1212249 0.9597702
vt 0.1396527 0.8707695
vt 0.1396527 0.9597702
vt 0.004668236 0.8704281
vt 0.004668236 0.9604282
vt 0.02330303 0.8704281
vt 0.02330303 0.9604282
vt 0.02379322 0.8704281
vt 0.02379322 0.9604282
vt 0.04242802 0.8704281
vt 0.04242802 0.9604282
vt 0.2103057 0.8707695
vt 0.2103057 0.9597702
vt 0.2287335 0.8707695
vt 0.2287335 0.9597702
vt 0.2281337 0.8707695
vt 0.2281337 0.9597702
vt 0.2465615 0.8707695
vt 0.2465615 0.9597702
vt 0.1009855 0.8707676
vt 0.1009855 0.9597683
vt 0.1194134 0.8707676
vt 0.1194134 0.9597683
vt 0.2305222 0.9595852
vt 0.1158905 0.8705845
vt 0.1158905 0.9595852
vt 0.2305222 0.8705845
vt 0.1370087 0.9423256
vt 0.02237701 0.8533249
vt 0.02237701 0.9423256
vt 0.1370087 0.8533249
vt 0.2919121 0.1013622
vt 0.4013176 0.1353378
vt 0.4013176 0.1013622
vt 0.2919121 0.1353378
vt 0.4013176 0.1693134
vt 0.2919121 0.1693134
vt 0.4183044 0.1647625
vt 0.4307404 0.1523266
vt 0.4352951 0.1353378
vt 0.4307404 0.1183491
vt 0.4183044 0.1059132
vt 0.2749252 0.1059132
vt 0.2579346 0.1353378
vt 0.2624893 0.1183491
vt 0.2624893 0.1523266
vt 0.2749252 0.1647625

g model
usemtl model
usemap model
f 2/2/2 1/1/1 3/3/3
f 4/4/4 2/2/2 3/3/3
f 6/6/6 5/5/5 7/7/7
f 8/8/8 6/6/6 7/7/7
f 10/10/10 9/9/9 11/11/11
f 12/12/12 10/10/10 11/11/11
f 14/14/14 13/13/13 15/15/15
f 16/16/16 14/14/14 15/15/15
f 18/18/18 17/17/17 19/19/19
f 20/20/20 18/18/18 19/19/19
f 22/22/22 21/21/21 23/23/23
f 24/24/24 22/22/22 23/23/23
f 26/26/26 25/25/25 27/27/27
f 28/28/28 26/26/26 27/27/27
f 30/30/30 29/29/29 31/31/31
f 32/32/32 30/30/30 31/31/31
f 34/34/34 33/33/33 35/35/35
f 36/36/36 34/34/34 35/35/35
f 38/38/38 37/37/37 39/39/39
f 40/40/40 38/38/38 39/39/39
f 42/42/42 41/41/41 43/43/43
f 44/44/44 42/42/42 43/43/43
f 46/46/46 45/45/45 47/47/47
f 48/48/48 46/46/46 47/47/47
f 50/50/50 49/49/49 51/51/51
f 52/52/52 49/49/49 50/50/50
f 54/54/54 53/53/53 55/55/55
f 56/56/56 53/53/53 54/54/54
f 58/58/58 57/57/57 59/59/59
f 60/60/60 57/57/57 58/58/58
f 61/61/61 60/60/60 58/58/58
f 62/62/62 60/60/60 61/61/61
f 58/58/58 63/63/63 61/61/61
f 58/58/58 64/64/64 63/63/63
f 58/58/58 65/65/65 64/64/64
f 58/58/58 66/66/66 65/65/65
f 58/58/58 67/67/67 66/66/66
f 58/58/58 59/59/59 67/67/67
f 60/60/60 68/68/68 57/57/57
f 60/60/60 69/69/69 70/70/70
f 60/60/60 71/71/71 69/69/69
f 60/60/60 72/72/72 71/71/71
f 60/60/60 62/62/62 72/72/72
f 60/60/60 70/70/70 68/68/68
