mtllib ./building05.mtl
g building05
v 0.01721191 73.02002 23.99194
v -23.98279 73.02002 23.99194
v 0.01721191 73.02002 -0.008056641
v -23.98279 73.02002 -0.008056641
v 24.01721 73.02002 23.99194
v 0.01721191 73.02002 23.99194
v 0.01721191 73.02002 -0.008056641
v 24.01721 73.02002 -0.008056641
v -23.98279 73.02002 -0.008056641
v -23.98279 73.02002 -24.00806
v 0.01721191 73.02002 -0.008056641
v 0.01721191 73.02002 -24.00806
v 24.01721 73.02002 -24.00806
v 24.01721 73.02002 -0.008056641
v 0.01721191 73.02002 -0.008056641
v 0.01721191 73.02002 -24.00806
v 0.01721191 74.02002 23.99194
v -23.98279 74.02002 23.99194
v 0.01721191 73.02002 23.99194
v -23.98279 73.02002 23.99194
v -23.98279 74.02002 23.99194
v -23.98279 74.02002 -0.008056641
v -23.98279 73.02002 23.99194
v -23.98279 73.02002 -0.008056641
v -23.98279 74.02002 -0.008056641
v -23.98279 74.02002 -24.00806
v -23.98279 73.02002 -0.008056641
v -23.98279 73.02002 -24.00806
v -23.98279 74.02002 -24.00806
v 0.01721191 74.02002 -24.00806
v -23.98279 73.02002 -24.00806
v 0.01721191 73.02002 -24.00806
v 24.01721 74.02002 -24.00806
v 24.01721 74.02002 -0.008056641
v 24.01721 73.02002 -24.00806
v 24.01721 73.02002 -0.008056641
v 0.01721191 74.02002 -24.00806
v 24.01721 74.02002 -24.00806
v 0.01721191 73.02002 -24.00806
v 24.01721 73.02002 -24.00806
v 24.01721 74.02002 23.99194
v 0.01721191 74.02002 23.99194
v 24.01721 73.02002 23.99194
v 0.01721191 73.02002 23.99194
v 24.01721 74.02002 -0.008056641
v 24.01721 74.02002 23.99194
v 24.01721 73.02002 -0.008056641
v 24.01721 73.02002 23.99194
v 25.00019 0.009277344 24.97853
v -24.97927 -0.009277344 24.99614
v -24.97916 34.33643 24.996
v 25.00009 34.43848 24.97833
v -24.97909 70.63672 24.99589
v 25.00002 70.57715 24.97819
v -24.97883 74.02002 24.9946
v 25.00087 74.02002 24.97815
v -24.97927 -0.009277344 24.99614
v -24.98304 -0.009277344 -24.96997
v -24.98299 34.33643 -24.96985
v -24.97916 34.33643 24.996
v -24.97909 70.63672 24.99589
v -24.97916 34.33643 24.996
v -24.98299 34.33643 -24.96985
v -24.98296 70.63672 -24.96975
v -24.97909 70.63672 24.99589
v -24.98296 70.63672 -24.96975
v -24.98266 74.02002 -24.97186
v -24.97883 74.02002 24.9946
v -24.98304 -0.009277344 -24.96997
v 24.96197 0.009277344 -25.0046
v -24.98299 34.33643 -24.96985
v 24.96156 34.43848 -25.00453
v -24.98296 70.63672 -24.96975
v 24.96126 70.57715 -25.00449
v 24.96325 74.02002 -25.00454
v -24.98266 74.02002 -24.97186
v 24.96197 0.009277344 -25.0046
v 25.00019 0.009277344 24.97853
v 24.96156 34.43848 -25.00453
v 25.00009 34.43848 24.97833
v 24.96126 70.57715 -25.00449
v 24.96156 34.43848 -25.00453
v 25.00002 70.57715 24.97819
v 25.00009 34.43848 24.97833
v 24.96126 70.57715 -25.00449
v 25.00002 70.57715 24.97819
v 24.96325 74.02002 -25.00454
v 25.00087 74.02002 24.97815
v 0.01721191 74.02002 23.99194
v 25.00087 74.02002 24.97815
v -24.97883 74.02002 24.9946
v -23.98279 74.02002 23.99194
v 24.01721 74.02002 23.99194
v -23.98279 74.02002 -24.00806
v -23.98279 74.02002 -0.008056641
v -24.98266 74.02002 -24.97186
v -23.98279 74.02002 23.99194
v -24.97883 74.02002 24.9946
v 24.01721 74.02002 -24.00806
v 0.01721191 74.02002 -24.00806
v 24.96325 74.02002 -25.00454
v -24.98266 74.02002 -24.97186
v -23.98279 74.02002 -24.00806
v 24.01721 74.02002 23.99194
v 24.01721 74.02002 -0.008056641
v 25.00087 74.02002 24.97815
v 24.01721 74.02002 -24.00806
v 24.96325 74.02002 -25.00454

vn 0 1 0
vn 0 1 0
vn 0 1 0
vn 0 1 0
vn 0 1 0
vn 0 1 0
vn 0 1 0
vn 0 1 0
vn 0 1 0
vn 0 1 0
vn 0 1 0
vn 0 1 0
vn 0 1 0
vn 0 1 0
vn 0 1 0
vn 0 1 0
vn 0 0 -1
vn 0 0 -1
vn 0 0 -1
vn 0 0 -1
vn 1 0 0
vn 1 0 0
vn 1 0 0
vn 1 0 0
vn 1 0 0
vn 1 0 0
vn 1 0 0
vn 1 0 0
vn 0 0 1
vn 0 0 1
vn 0 0 1
vn 0 0 1
vn -1 0 0
vn -1 0 0
vn -1 0 0
vn -1 0 0
vn 0 0 1
vn 0 0 1
vn 0 0 1
vn 0 0 1
vn 0 0 -1
vn 0 0 -1
vn 0 0 -1
vn 0 0 -1
vn -1 0 0
vn -1 0 0
vn -1 0 0
vn -1 0 0
vn 0.0003529039 4.908747E-06 1
vn 0.0003523924 4.163937E-06 0.9999999
vn 0.0003529039 4.908747E-06 1
vn 0.0003534142 5.651751E-06 0.9999999
vn 0.0003546441 0.0003810699 0.9999998
vn 0.0003541948 4.01186E-06 0.9999999
vn 0.0003417672 0.0001941389 0.9999999
vn 0.0003291131 1.044431E-05 0.9999999
vn -1 2.276913E-06 7.600235E-05
vn -0.9999999 1.443617E-06 7.542955E-05
vn -1 2.276913E-06 7.600235E-05
vn -1 3.110214E-06 7.657514E-05
vn -0.9999999 1.366142E-06 7.695703E-05
vn -1 1.891795E-06 7.657513E-05
vn -0.9999999 1.366142E-06 7.695703E-05
vn -1 8.404866E-07 7.733892E-05
vn -1 8.234681E-05 7.70329E-05
vn -1 8.686642E-05 7.733892E-05
vn -1 8.234681E-05 7.70329E-05
vn -1 7.782726E-05 7.672688E-05
vn -0.0006933602 3.444098E-06 -0.9999998
vn -0.0006938999 2.658801E-06 -0.9999998
vn -0.0006938999 2.658801E-06 -0.9999998
vn -0.0006944384 1.875402E-06 -0.9999998
vn -0.0006955815 2.732852E-06 -0.9999997
vn -0.0006956029 -1.510987E-05 -0.9999998
vn -0.0006751402 -0.0003171918 -0.9999998
vn -0.0006543178 -0.0006245822 -0.9999996
vn 0.9999997 1.174606E-05 -0.0007647232
vn 0.9999997 7.338954E-06 -0.0007677589
vn 0.9999997 7.338954E-06 -0.0007677589
vn 0.9999998 2.931827E-06 -0.0007707946
vn 0.9999997 8.392695E-06 -0.0007753767
vn 0.9999997 5.223978E-06 -0.0007730857
vn 0.9999997 5.223978E-06 -0.0007730857
vn 0.9999996 2.055273E-06 -0.0007707946
vn 0.9999996 -0.0005772793 -0.0007753766
vn 0.9999996 -0.0004127392 -0.0007640429
vn 0.9999996 -0.0004127392 -0.0007640429
vn 0.9999996 -0.0002481993 -0.0007527092
vn 0 0.9999999 0
vn 0 1 0
vn 0 1 0
vn 0 1 0
vn 0 1 0
vn 0 1 0
vn 0 1 0
vn 0 1 0
vn 0 1 0
vn 0 1 0
vn 0 1 0
vn 0 1 0
vn 0 1 0
vn 0 1 0
vn 0 1 0
vn 0 0.9999999 0
vn 0 1 0
vn 0 0.9999999 0
vn 0 1 0
vn 0 1 0

vt 0.002197266 0.2227173
vt 0.2229977 0.2227173
vt 0.002197266 0.001916885
vt 0.2229977 0.001916885
vt 0.002197266 0.2227173
vt 0.2229977 0.2227173
vt 0.2229977 0.001916885
vt 0.002197266 0.001916885
vt 0.2229977 0.2227173
vt 0.2229977 0.001916885
vt 0.002197266 0.2227173
vt 0.002197266 0.001916885
vt 0.002197266 0.001916885
vt 0.002197266 0.2227173
vt 0.2229977 0.2227173
vt 0.2229977 0.001916885
vt 0.002152443 0.1127282
vt 0.2229528 0.1127282
vt 0.002152443 0.1035283
vt 0.2229528 0.1035283
vt 0.001713753 0.1127678
vt 0.2225142 0.1127678
vt 0.001713753 0.1035678
vt 0.2225142 0.1035678
vt 0.002148628 0.1127495
vt 0.222949 0.1127495
vt 0.002148628 0.1035496
vt 0.222949 0.1035496
vt 0.001793861 0.112526
vt 0.2225943 0.112526
vt 0.001793861 0.1033261
vt 0.2225943 0.1033261
vt 0.002118111 0.1125232
vt 0.2229185 0.1125232
vt 0.002118111 0.1033232
vt 0.2229185 0.1033232
vt 0.001720428 0.1125327
vt 0.2225208 0.1125327
vt 0.001720428 0.1033327
vt 0.2225208 0.1033327
vt 0.002326012 0.1124531
vt 0.2231264 0.1124531
vt 0.002326012 0.1032531
vt 0.2231264 0.1032531
vt 0.002053261 0.1122856
vt 0.2228537 0.1122856
vt 0.002053261 0.1030856
vt 0.2228537 0.1030856
vt 0.4735641 0.4695473
vt 0.2611523 0.469471
vt 0.2611523 0.6154366
vt 0.4735641 0.6158714
vt 0.2611523 0.7697144
vt 0.4735641 0.7694626
vt 0.2611542 0.7840919
vt 0.4735661 0.7840919
vt 0.4734344 0.6159
vt 0.2610779 0.6159
vt 0.2610779 0.7618656
vt 0.4734344 0.7618656
vt 0.4734325 0.6232338
vt 0.4734325 0.468956
vt 0.2610798 0.468956
vt 0.2610798 0.6232338
vt 0.4733124 0.7698367
vt 0.2609577 0.7698367
vt 0.2609482 0.7842157
vt 0.4733067 0.7842157
vt 0.4733505 0.4697075
vt 0.2610836 0.4697838
vt 0.4733505 0.6156731
vt 0.2610855 0.6161079
vt 0.4733524 0.7699509
vt 0.2610874 0.7696991
vt 0.2610779 0.7843285
vt 0.4733486 0.7843285
vt 0.4736652 0.6162605
vt 0.2612362 0.6162605
vt 0.4736652 0.7625847
vt 0.2612362 0.7625847
vt 0.4736633 0.6229401
vt 0.4736633 0.4693527
vt 0.2612381 0.6229401
vt 0.2612381 0.4693527
vt 0.4734688 0.7695739
vt 0.2610435 0.7695739
vt 0.4734688 0.7842062
vt 0.2610435 0.7842062
vt 0.3652058 0.4577799
vt 0.2902546 0.4607385
vt 0.4401951 0.4607878
vt 0.4372063 0.4577799
vt 0.2932072 0.4577799
vt 0.2852962 0.4618549
vt 0.3572948 0.4618549
vt 0.2824047 0.4588566
vt 0.4292953 0.4618549
vt 0.4323032 0.458868
vt 0.288065 0.4626893
vt 0.3600655 0.4626893
vt 0.2852268 0.4596999
vt 0.4350643 0.4597979
vt 0.4320641 0.4626893
vt 0.4197994 0.4593258
vt 0.3477989 0.4593258
vt 0.4227577 0.4622784
vt 0.2757984 0.4593258
vt 0.2728096 0.4621639

g model
usemtl model
usemap model
f 2/2/2 1/1/1 3/3/3
f 4/4/4 2/2/2 3/3/3
f 6/6/6 5/5/5 7/7/7
f 5/5/5 8/8/8 7/7/7
f 10/10/10 9/9/9 11/11/11
f 12/12/12 10/10/10 11/11/11
f 14/14/14 13/13/13 15/15/15
f 13/13/13 16/16/16 15/15/15
f 18/18/18 17/17/17 19/19/19
f 20/20/20 18/18/18 19/19/19
f 22/22/22 21/21/21 23/23/23
f 24/24/24 22/22/22 23/23/23
f 26/26/26 25/25/25 27/27/27
f 28/28/28 26/26/26 27/27/27
f 30/30/30 29/29/29 31/31/31
f 32/32/32 30/30/30 31/31/31
f 34/34/34 33/33/33 35/35/35
f 36/36/36 34/34/34 35/35/35
f 38/38/38 37/37/37 39/39/39
f 40/40/40 38/38/38 39/39/39
f 42/42/42 41/41/41 43/43/43
f 44/44/44 42/42/42 43/43/43
f 46/46/46 45/45/45 47/47/47
f 48/48/48 46/46/46 47/47/47
f 50/50/50 49/49/49 51/51/51
f 51/51/51 49/49/49 52/52/52
f 53/53/53 51/51/51 52/52/52
f 54/54/54 53/53/53 52/52/52
f 53/53/53 54/54/54 55/55/55
f 55/55/55 54/54/54 56/56/56
f 58/58/58 57/57/57 59/59/59
f 57/57/57 60/60/60 59/59/59
f 62/62/62 61/61/61 63/63/63
f 61/61/61 64/64/64 63/63/63
f 66/66/66 65/65/65 67/67/67
f 65/65/65 68/68/68 67/67/67
f 70/70/70 69/69/69 71/71/71
f 70/70/70 71/71/71 72/72/72
f 71/71/71 73/73/73 74/74/74
f 71/71/71 74/74/74 72/72/72
f 74/74/74 73/73/73 75/75/75
f 73/73/73 76/76/76 75/75/75
f 78/78/78 77/77/77 79/79/79
f 78/78/78 79/79/79 80/80/80
f 82/82/82 81/81/81 83/83/83
f 82/82/82 83/83/83 84/84/84
f 86/86/86 85/85/85 87/87/87
f 86/86/86 87/87/87 88/88/88
f 90/90/90 89/89/89 91/91/91
f 89/89/89 92/92/92 91/91/91
f 93/93/93 89/89/89 90/90/90
f 95/95/95 94/94/94 96/96/96
f 97/97/97 95/95/95 98/98/98
f 95/95/95 96/96/96 98/98/98
f 100/100/100 99/99/99 101/101/101
f 100/100/100 101/101/101 102/102/102
f 103/103/103 100/100/100 102/102/102
f 105/105/105 104/104/104 106/106/106
f 107/107/107 105/105/105 108/108/108
f 105/105/105 106/106/106 108/108/108
