mtllib ./building01.mtl
g building01
v 25.00256 30.55908 24.99057
v -24.99011 30.55908 24.99448
v 25.00232 31.92188 24.98981
v -24.98962 31.92188 24.99396
v -24.99011 30.55908 24.99448
v -24.99207 30.55908 -24.98892
v -24.98962 31.92188 24.99396
v -24.99182 31.92188 -24.98831
v -24.99207 30.55908 -24.98892
v 24.97986 30.55908 -24.99582
v -24.99182 31.92188 -24.98831
v 24.97815 31.92188 -24.99567
v 24.97986 30.55908 -24.99582
v 25.00256 30.55908 24.99057
v 24.97815 31.92188 -24.99567
v 25.00232 31.92188 24.98981
v -23.99524 31.92188 24.00195
v -23.99524 30.84912 24.00195
v 0.004760742 30.84912 24.00195
v -23.99524 30.84912 0.001953125
v 0.004760742 30.84912 0.001953125
v -23.99524 31.92188 24.00195
v -23.99524 31.92188 0.001953125
v -24.98962 31.92188 24.99396
v -24.99182 31.92188 -24.98831
v 24.00476 30.84912 24.00195
v 0.004760742 30.84912 24.00195
v 24.00476 30.84912 0.001953125
v 0.004760742 30.84912 0.001953125
v 24.00476 31.92188 24.00195
v 0.004760742 31.92188 24.00195
v 25.00232 31.92188 24.98981
v -24.98962 31.92188 24.99396
v 24.00476 31.92188 24.00195
v -23.99524 31.92188 -23.99805
v -23.99524 30.84912 -23.99805
v -23.99524 30.84912 0.001953125
v 0.004760742 30.84912 -23.99805
v 0.004760742 30.84912 0.001953125
v -23.99524 31.92188 -23.99805
v -24.99182 31.92188 -24.98831
v 24.00476 30.84912 -23.99805
v 24.00476 30.84912 0.001953125
v 0.004760742 30.84912 -23.99805
v 0.004760742 30.84912 0.001953125
v 24.00476 31.92188 -23.99805
v 24.00476 31.92188 0.001953125
v 24.97815 31.92188 -24.99567
v 25.00232 31.92188 24.98981
v 24.00476 31.92188 -23.99805
v 0.004760742 31.92188 -23.99805
v 24.97815 31.92188 -24.99567
v 0.004760742 31.92188 24.00195
v -23.99524 31.92188 24.00195
v 0.004760742 30.84912 24.00195
v -23.99524 30.84912 24.00195
v -23.99524 31.92188 24.00195
v -23.99524 31.92188 0.001953125
v -23.99524 30.84912 24.00195
v -23.99524 30.84912 0.001953125
v -23.99524 31.92188 0.001953125
v -23.99524 31.92188 -23.99805
v -23.99524 30.84912 0.001953125
v -23.99524 30.84912 -23.99805
v -23.99524 31.92188 -23.99805
v 0.004760742 31.92188 -23.99805
v -23.99524 30.84912 -23.99805
v 0.004760742 30.84912 -23.99805
v 24.00476 31.92188 -23.99805
v 24.00476 31.92188 0.001953125
v 24.00476 30.84912 -23.99805
v 24.00476 30.84912 0.001953125
v 0.004760742 31.92188 -23.99805
v 24.00476 31.92188 -23.99805
v 0.004760742 30.84912 -23.99805
v 24.00476 30.84912 -23.99805
v 24.00476 31.92188 24.00195
v 0.004760742 31.92188 24.00195
v 24.00476 30.84912 24.00195
v 0.004760742 30.84912 24.00195
v 24.00476 31.92188 0.001953125
v 24.00476 31.92188 24.00195
v 24.00476 30.84912 0.001953125
v 24.00476 30.84912 24.00195
v 24.00256 -0.0497036 23.99057
v -23.99011 -0.0497036 23.99448
v 24.00232 30.53711 23.98981
v -23.98962 30.53711 23.99396
v -23.99011 -0.0497036 23.99448
v -23.99207 0.05029678 -23.98892
v -23.98962 30.53711 23.99396
v -23.99182 30.63711 -23.98831
v -23.99207 0.05029678 -23.98892
v 23.97986 0.05029678 -23.99582
v -23.99182 30.63711 -23.98831
v 23.97815 30.63711 -23.99567
v 23.97986 0.05029678 -23.99582
v 24.00256 -0.0497036 23.99057
v 23.97815 30.63711 -23.99567
v 24.00232 30.53711 23.98981
v 24.97986 30.55908 -24.99582
v 25.00256 30.55908 24.99057
v 23.97815 30.63711 -23.99567
v 24.00232 30.53711 23.98981
v 25.00256 30.55908 24.99057
v -24.99011 30.55908 24.99448
v 24.00232 30.53711 23.98981
v -23.98962 30.53711 23.99396
v -24.99011 30.55908 24.99448
v -24.99207 30.55908 -24.98892
v -23.98962 30.53711 23.99396
v -23.99182 30.63711 -23.98831
v -24.99207 30.55908 -24.98892
v 24.97986 30.55908 -24.99582
v -23.99182 30.63711 -23.98831
v 23.97815 30.63711 -23.99567

vn 8.057879E-05 0.0004702543 0.9999999
vn 7.813644E-05 0.0003806599 0.9999999
vn 8.302118E-05 0.00055985 0.9999999
vn 8.057879E-05 0.0004702543 0.9999999
vn -1 0.0002687195 4.151816E-05
vn -1 0.0001791298 3.907547E-05
vn -1 0.0003583113 4.39609E-05
vn -1 0.0002687195 4.151816E-05
vn -0.0001425999 0.000279841 -0.9999999
vn -0.000138017 0.0001117941 -1
vn -0.0001471831 0.0004478945 -0.9999999
vn -0.0001425999 0.000279841 -0.9999999
vn 0.9999996 0.000716483 -0.0004688818
vn 0.9999999 0.0001788915 -0.0004542251
vn 0.9999991 0.001254084 -0.0004835385
vn 0.9999996 0.000716483 -0.0004688818
vn 0 1 0
vn 0 1 0
vn 0 1 0
vn 0 1 0
vn 0 1 0
vn 0 1 0
vn 0 1 0
vn 0 1 0
vn 0 1 0
vn 0 1 0
vn 0 1 0
vn 0 1 0
vn 0 1 0
vn 0 1 0
vn 0 1 0
vn 0 1 0
vn 0 1 0
vn 0 1 0
vn 0 1 0
vn 0 1 0
vn 0 1 0
vn 0 1 0
vn 0 1 0
vn 0 1 0
vn 0 1 0
vn 0 1 0
vn 0 1 0
vn 0 1 0
vn 0 1 0
vn 0 1 0
vn 0 1 0
vn 0 0.9999999 0
vn 0 1 0
vn 0 1 0
vn 0 1 0
vn 0 1 0
vn 0 0 -1
vn 0 0 -1
vn 0 0 -1
vn 0 0 -1
vn 1 0 0
vn 1 0 0
vn 1 0 0
vn 1 0 0
vn 1 0 0
vn 1 0 0
vn 1 0 0
vn 1 0 0
vn 0 0 1
vn 0 0 1
vn 0 0 1
vn 0 0 1
vn -1 0 0
vn -1 0 0
vn -1 0 0
vn -1 0 0
vn 0 0 1
vn 0 0 1
vn 0 0 1
vn 0 0 1
vn 0 0 -1
vn 0 0 -1
vn 0 0 -1
vn 0 0 -1
vn -1 0 0
vn -1 0 0
vn -1 0 0
vn -1 0 0
vn 8.393679E-05 2.095213E-05 1
vn 8.139263E-05 1.696022E-05 1
vn 8.648098E-05 2.49441E-05 1
vn 8.393679E-05 2.095213E-05 1
vn -1 1.197277E-05 4.327366E-05
vn -1 7.98108E-06 4.072082E-05
vn -0.9999999 1.596456E-05 4.582655E-05
vn -1 1.197277E-05 4.327366E-05
vn -0.0001485452 1.246815E-05 -1
vn -0.000143771 4.980654E-06 -1
vn -0.0001533196 1.995595E-05 -1
vn -0.0001485452 1.246815E-05 -1
vn 0.9999999 3.192266E-05 -0.0004883579
vn 0.9999999 7.970024E-06 -0.00047314
vn 0.9999999 5.587575E-05 -0.000503576
vn 0.9999999 3.192266E-05 -0.0004883579
vn -0.07762248 -0.9969828 3.525812E-05
vn -0.02798795 -0.9996077 -0.001006894
vn -0.02798795 -0.9996077 -0.001006894
vn 0.02405742 -0.9997085 -0.002095442
vn 1.715009E-06 -0.9997592 0.02194891
vn 1.805077E-06 -0.999759 0.02195329
vn 1.805077E-06 -0.999759 0.02195329
vn 1.898938E-06 -0.9997588 0.02195786
vn -0.02195578 -0.9997589 8.579325E-07
vn 0.02800537 -0.9996073 -0.001021536
vn 0.02800537 -0.9996073 -0.001021536
vn 0.07983942 -0.9968056 -0.00208107
vn 1.072825E-05 -0.9969743 0.07773156
vn 1.131498E-05 -0.9969721 0.07775991
vn 1.131498E-05 -0.9969721 0.07775991
vn 1.192665E-05 -0.9969698 0.07778945

vt 0.2208786 0.4503029
vt 0.008911133 0.4503029
vt 0.2208786 0.4577983
vt 0.00891304 0.4577983
vt 0.2209129 0.450388
vt 0.008483887 0.450388
vt 0.220911 0.4578834
vt 0.008485794 0.4578834
vt 0.2209511 0.4502988
vt 0.008571625 0.4502988
vt 0.2209511 0.4577942
vt 0.008577347 0.4577942
vt 0.220583 0.4503649
vt 0.008642197 0.4503649
vt 0.220583 0.4578603
vt 0.008644104 0.4578603
vt 0.1942558 0.4527487
vt 0.2232752 0.2229204
vt 0.002474785 0.2229204
vt 0.2232752 0.002120018
vt 0.002474785 0.002120018
vt 0.1768163 0.4554291
vt 0.104793 0.4554291
vt 0.1797918 0.452446
vt 0.02979791 0.4524384
vt 0.001652718 0.2229376
vt 0.2224531 0.2229376
vt 0.001652718 0.002137184
vt 0.2224531 0.002137184
vt 0.05025673 0.4527487
vt 0.1222553 0.4527487
vt 0.0472641 0.4557123
vt 0.1972389 0.4557248
vt 0.1943306 0.4522915
vt 0.03276956 0.4554291
vt 0.2232752 0.00146389
vt 0.2232752 0.2222643
vt 0.002474785 0.00146389
vt 0.002474785 0.2222643
vt 0.1849842 0.4548539
vt 0.187973 0.4518831
vt 0.001431465 0.00160408
vt 0.001431465 0.2224045
vt 0.2222319 0.00160408
vt 0.2222319 0.2224045
vt 0.05023992 0.4522934
vt 0.1222862 0.4522934
vt 0.04724538 0.4552135
vt 0.1972965 0.455286
vt 0.0409832 0.4548539
vt 0.1129837 0.4548539
vt 0.03806305 0.4518611
vt 0.002455711 0.0246585
vt 0.2232561 0.0246585
vt 0.002455711 0.01478916
vt 0.2232561 0.01478916
vt 0.001776695 0.02469808
vt 0.2225771 0.02469808
vt 0.001776695 0.01482874
vt 0.2225771 0.01482874
vt 0.002303123 0.02467972
vt 0.2231035 0.02467972
vt 0.002303123 0.01481038
vt 0.2231035 0.01481038
vt 0.001547813 0.0244562
vt 0.2223482 0.0244562
vt 0.001547813 0.01458687
vt 0.2223482 0.01458687
vt 0.001972198 0.02483422
vt 0.2227726 0.02483422
vt 0.001972198 0.01496488
vt 0.2227726 0.01496488
vt 0.002485275 0.02484357
vt 0.2232857 0.02484357
vt 0.002485275 0.01497424
vt 0.2232857 0.01497424
vt 0.00165844 0.02476424
vt 0.2224588 0.02476424
vt 0.00165844 0.0148949
vt 0.2224588 0.0148949
vt 0.002383232 0.02459657
vt 0.2231836 0.02459657
vt 0.002383232 0.01472723
vt 0.2231836 0.01472723
vt 0.2278996 0.6620216
vt 0.001375198 0.6620216
vt 0.2278996 0.8063908
vt 0.001377106 0.8063908
vt 0.2280903 0.4774189
vt 0.001605988 0.4774218
vt 0.2277889 0.621789
vt 0.001310349 0.6217918
vt 0.2276993 0.6619301
vt 0.001270294 0.6619301
vt 0.2276974 0.8062992
vt 0.001279831 0.8062992
vt 0.2275963 0.4773197
vt 0.001096725 0.4773235
vt 0.2278976 0.6216888
vt 0.001403809 0.6216927
vt 0.05498213 0.4531822
vt 0.1799478 0.4531269
vt 0.05748266 0.4556942
vt 0.1774454 0.455616
vt 0.1735363 0.4555966
vt 0.04855537 0.4556063
vt 0.1710358 0.453094
vt 0.05105591 0.4531044
vt 0.1692561 0.4549656
vt 0.04429808 0.4549694
vt 0.1667556 0.4524632
vt 0.04679862 0.4524746
vt 0.04891205 0.4546976
vt 0.1738434 0.4546803
vt 0.05141258 0.4572067
vt 0.171339 0.4571883

g model
usemtl model
usemap model
f 2/2/2 1/1/1 4/4/4
f 1/1/1 3/3/3 4/4/4
f 6/6/6 5/5/5 8/8/8
f 5/5/5 7/7/7 8/8/8
f 10/10/10 9/9/9 12/12/12
f 9/9/9 11/11/11 12/12/12
f 14/14/14 13/13/13 16/16/16
f 13/13/13 15/15/15 16/16/16
f 18/18/18 19/19/19 21/21/21
f 20/20/20 18/18/18 21/21/21
f 27/27/27 26/26/26 29/29/29
f 26/26/26 28/28/28 29/29/29
f 36/36/36 37/37/37 39/39/39
f 38/38/38 36/36/36 39/39/39
f 43/43/43 42/42/42 45/45/45
f 42/42/42 44/44/44 45/45/45
f 54/54/54 53/53/53 55/55/55
f 56/56/56 54/54/54 55/55/55
f 58/58/58 57/57/57 59/59/59
f 60/60/60 58/58/58 59/59/59
f 62/62/62 61/61/61 63/63/63
f 64/64/64 62/62/62 63/63/63
f 66/66/66 65/65/65 67/67/67
f 68/68/68 66/66/66 67/67/67
f 70/70/70 69/69/69 71/71/71
f 72/72/72 70/70/70 71/71/71
f 74/74/74 73/73/73 75/75/75
f 76/76/76 74/74/74 75/75/75
f 78/78/78 77/77/77 79/79/79
f 80/80/80 78/78/78 79/79/79
f 82/82/82 81/81/81 83/83/83
f 84/84/84 82/82/82 83/83/83
f 51/51/51 50/50/50 52/52/52
f 40/40/40 51/51/51 52/52/52
f 41/41/41 40/40/40 52/52/52
f 46/46/46 47/47/47 49/49/49
f 48/48/48 46/46/46 49/49/49
f 47/47/47 34/34/34 49/49/49
f 30/30/30 31/31/31 33/33/33
f 32/32/32 30/30/30 33/33/33
f 31/31/31 17/17/17 33/33/33
f 22/22/22 23/23/23 25/25/25
f 24/24/24 22/22/22 25/25/25
f 23/23/23 35/35/35 25/25/25
f 86/86/86 85/85/85 88/88/88
f 85/85/85 87/87/87 88/88/88
f 90/90/90 89/89/89 92/92/92
f 89/89/89 91/91/91 92/92/92
f 94/94/94 93/93/93 96/96/96
f 93/93/93 95/95/95 96/96/96
f 98/98/98 97/97/97 100/100/100
f 97/97/97 99/99/99 100/100/100
f 102/102/102 103/103/103 101/101/101
f 104/104/104 103/103/103 102/102/102
f 106/106/106 107/107/107 105/105/105
f 108/108/108 107/107/107 106/106/106
f 110/110/110 111/111/111 109/109/109
f 112/112/112 111/111/111 110/110/110
f 114/114/114 115/115/115 113/113/113
f 116/116/116 115/115/115 114/114/114
