mtllib ./building35.mtl
g building35
v -50.35773 82.25146 -9.672607
v 0.2914429 82.25146 7.827393
v -45.48273 82.25146 7.827393
v 0.2914429 82.25146 -9.672607
v -45.48273 82.25146 7.827393
v 0.2914429 82.25146 7.827393
v -20.35773 82.25146 25.32739
v 0.2914429 82.25146 25.32739
v 50.11859 82.25146 -9.672607
v 0.2914429 82.25146 7.827393
v 0.2914429 82.25146 -9.672607
v 45.11859 82.25146 7.827393
v 0.2914429 82.25146 25.32739
v 0.2914429 82.25146 7.827393
v 20.11859 82.25146 25.32739
v 45.11859 82.25146 7.827393
v -50.35773 83.50146 -9.672607
v -45.48273 82.25146 7.827393
v -45.48273 83.50146 7.827393
v -50.35773 82.25146 -9.672607
v 0.2914429 83.50146 -9.672607
v -50.35773 82.25146 -9.672607
v -50.35773 83.50146 -9.672607
v 0.2914429 82.25146 -9.672607
v 50.11859 83.50146 -9.672607
v 0.2914429 82.25146 -9.672607
v 0.2914429 83.50146 -9.672607
v 50.11859 82.25146 -9.672607
v 45.24359 83.50146 7.827393
v 50.11859 82.25146 -9.672607
v 50.11859 83.50146 -9.672607
v 45.11859 82.25146 7.827393
v 0.2914429 83.50146 25.32739
v 20.11859 82.25146 25.32739
v 20.11859 83.50146 25.32739
v 0.2914429 82.25146 25.32739
v 20.11859 83.50146 25.32739
v 45.11859 82.25146 7.827393
v 45.24359 83.50146 7.827393
v 20.11859 82.25146 25.32739
v -45.48273 83.50146 7.827393
v -20.35773 82.25146 25.32739
v -20.35773 83.50146 25.32739
v -45.48273 82.25146 7.827393
v -20.35773 83.50146 25.32739
v 0.2914429 82.25146 25.32739
v 0.2914429 83.50146 25.32739
v -20.35773 82.25146 25.32739
v -52.97107 83.50146 -10.48434
v 0.2904663 83.50146 -10.30908
v 0.2914429 83.50146 -9.672607
v -50.35773 83.50146 -9.672607
v 0.2904663 83.50146 -10.30908
v 52.73312 83.50146 -10.48703
v 50.11859 83.50146 -9.672607
v 0.2914429 83.50146 -9.672607
v 33.98663 41.75024 17.17963
v 33.98492 -0.0009765625 17.18066
v 20.61298 41.75024 26.54626
v 20.61029 -0.0009765625 26.54834
v 33.98492 -0.0009765625 17.18066
v 33.98663 41.75024 17.17963
v 47.35956 -0.0009765625 7.812988
v 47.36029 41.75024 7.812988
v 33.98834 83.50146 17.17859
v 20.61566 83.50146 26.54419
v 33.98834 83.50146 17.17859
v 47.36102 83.50146 7.812988
v 50.0474 41.75024 -1.354178
v 50.04773 -0.0009765625 -1.371336
v 47.35956 -0.0009765625 7.812988
v 47.36029 41.75024 7.812988
v 50.04707 83.50146 -1.337021
v 47.36102 83.50146 7.812988
v 50.0474 41.75024 -1.354178
v 50.04707 83.50146 -1.337021
v 52.73312 83.50146 -10.48703
v 52.73451 41.75024 -10.52135
v 50.04773 -0.0009765625 -1.371336
v 52.7359 -0.0009765625 -10.55566
v 10.45453 41.75024 26.55194
v 10.45245 -0.0009765625 26.55212
v 0.2960815 41.75024 26.55762
v 0.2946167 -0.0009765625 26.55591
v 0.2975464 83.50146 26.55933
v 10.4566 83.50146 26.55176
v 10.45245 -0.0009765625 26.55212
v 10.45453 41.75024 26.55194
v 20.61029 -0.0009765625 26.54834
v 20.61298 41.75024 26.54626
v 20.61566 83.50146 26.54419
v 10.4566 83.50146 26.55176
v -10.27344 41.75024 26.5633
v -10.27435 -0.0009765625 26.5597
v -20.84296 41.75024 26.56897
v -20.84332 -0.0009765625 26.56348
v -10.27435 -0.0009765625 26.5597
v -10.27344 41.75024 26.5633
v 0.2946167 -0.0009765625 26.55591
v 0.2960815 41.75024 26.55762
v -10.27252 83.50146 26.56689
v -20.84259 83.50146 26.57446
v -10.27252 83.50146 26.56689
v 0.2975464 83.50146 26.55933
v -34.21936 41.75024 17.19714
v -34.21978 -0.0009765625 17.19238
v -47.59576 41.75024 7.825317
v -47.59625 -0.0009765625 7.821289
v -47.59528 83.50146 7.829346
v -34.21893 83.50146 17.2019
v -34.21936 41.75024 17.19714
v -34.21893 83.50146 17.2019
v -20.84296 41.75024 26.56897
v -20.84296 41.75024 26.56897
v -34.21893 83.50146 17.2019
v -20.84259 83.50146 26.57446
v -34.21978 -0.0009765625 17.19238
v -20.84332 -0.0009765625 26.56348
v -50.28358 41.75024 -1.346977
v -50.284 -0.0009765625 -1.366456
v -52.97141 41.75024 -10.51927
v -52.97174 -0.0009765625 -10.5542
v -50.284 -0.0009765625 -1.366456
v -50.28358 41.75024 -1.346977
v -47.59625 -0.0009765625 7.821289
v -47.59576 41.75024 7.825317
v -52.97107 83.50146 -10.48434
v -50.28317 83.50146 -1.327499
v -47.59528 83.50146 7.829346
v -50.28317 83.50146 -1.327499
v -26.33809 41.75024 -10.67364
v -26.33807 -0.0009765625 -10.69226
v 0.2952271 41.75024 -10.828
v 0.2955933 -0.0009765625 -10.83032
v 0.2948608 83.50146 -10.82568
v -26.3381 83.50146 -10.65501
v -52.97141 41.75024 -10.51927
v -52.97174 -0.0009765625 -10.5542
v -52.97107 83.50146 -10.48434
v 26.51487 41.75024 -10.67467
v 26.51575 -0.0009765625 -10.69299
v 52.73451 41.75024 -10.52135
v 52.7359 -0.0009765625 -10.55566
v 0.2955933 -0.0009765625 -10.83032
v 0.2952271 41.75024 -10.828
v 26.51399 83.50146 -10.65635
v 52.73312 83.50146 -10.48703
v 0.2948608 83.50146 -10.82568
v 20.11859 83.50146 25.32739
v 45.24359 83.50146 7.827393
v 33.98834 83.50146 17.17859
v 20.61566 83.50146 26.54419
v 47.36102 83.50146 7.812988
v 45.24359 83.50146 7.827393
v 50.11859 83.50146 -9.672607
v 50.04707 83.50146 -1.337021
v 47.36102 83.50146 7.812988
v 52.73312 83.50146 -10.48703
v 0.2975464 83.50146 26.55933
v 0.2914429 83.50146 25.32739
v 10.4566 83.50146 26.55176
v 20.11859 83.50146 25.32739
v 20.61566 83.50146 26.54419
v 20.61566 83.50146 26.54419
v 0.2975464 83.50146 26.55933
v 10.4566 83.50146 26.55176
v -10.27252 83.50146 26.56689
v -20.35773 83.50146 25.32739
v -20.84259 83.50146 26.57446
v -45.48273 83.50146 7.827393
v -20.35773 83.50146 25.32739
v -34.21893 83.50146 17.2019
v -20.84259 83.50146 26.57446
v -47.59528 83.50146 7.829346
v -50.35773 83.50146 -9.672607
v -45.48273 83.50146 7.827393
v -50.28317 83.50146 -1.327499
v -47.59528 83.50146 7.829346
v -52.97107 83.50146 -10.48434
v 0.2909546 -0.0009765625 -10.31372
v 0.2955933 -0.0009765625 -10.83032
v -26.33807 -0.0009765625 -10.69226
v -52.97107 83.50146 -10.48434
v 0.2948608 83.50146 -10.82568
v 0.2904663 83.50146 -10.30908
v 52.7359 -0.0009765625 -10.55566
v 0.2955933 -0.0009765625 -10.83032
v 0.2909546 -0.0009765625 -10.31372
v 0.2904663 83.50146 -10.30908
v 0.2948608 83.50146 -10.82568
v 26.51399 83.50146 -10.65635

vn 0 1 0
vn 0 1 0
vn 0 1 0
vn 0 1 0
vn 0 1 0
vn 0 1 0
vn 0 1 0
vn 0 1 0
vn 0 1 0
vn 0 1 0
vn 0 1 0
vn 0 1 0
vn 0 1 0
vn 0 1 0
vn 0 1 0
vn 0 1 0
vn 0.9633206 0 -0.2683534
vn 0.9633206 0 -0.2683534
vn 0.9633206 0 -0.2683534
vn 0.9633206 0 -0.2683534
vn 0 0 0.9999999
vn 0 0 0.9999999
vn 0 0 0.9999999
vn 0 0 0.9999999
vn 0 0 0.9999999
vn 0 0 0.9999999
vn 0 0 0.9999999
vn 0 0 0.9999999
vn -0.9613142 0.04806571 -0.271228
vn -0.9613142 0.04806571 -0.271228
vn -0.9633206 0 -0.2683536
vn -0.9571097 0.09571097 -0.2734599
vn 0 0 -1
vn 0 0 -1
vn 0 0 -1
vn 0 0 -1
vn -0.5722669 0.02861335 -0.8195681
vn -0.5722669 0.02861335 -0.8195681
vn -0.5706115 0.05706116 -0.8192353
vn -0.5734623 0 -0.819232
vn 0.5715428 0 -0.8205723
vn 0.5715428 0 -0.8205723
vn 0.5715428 0 -0.8205723
vn 0.5715428 0 -0.8205723
vn 0 0 -1
vn 0 0 -1
vn 0 0 -1
vn 0 0 -1
vn 0 1 0
vn 0 1 0
vn 0 1 0
vn 0 1 0
vn 0 0.9999999 0
vn 0 1 0
vn 0 0.9999999 0
vn 0 1 0
vn 0.5736711 -3.125979E-06 0.8190858
vn 0.5736783 3.422808E-07 0.8190807
vn 0.5736783 3.422808E-07 0.8190807
vn 0.5736855 3.810243E-06 0.8190755
vn 0.5736856 -3.126826E-06 0.8190755
vn 0.5736711 -3.077747E-06 0.8190858
vn 0.5736783 -6.593981E-06 0.8190807
vn 0.5736711 -1.006143E-05 0.8190858
vn 0.5736638 3.826294E-07 0.8190909
vn 0.5736566 3.839118E-06 0.8190959
vn 0.5736638 -6.544211E-06 0.8190909
vn 0.5736565 -1.001097E-05 0.819096
vn 0.9596793 -6.240605E-05 0.2810969
vn 0.9597353 -0.000107898 0.2809061
vn 0.9596793 -6.240605E-05 0.2810969
vn 0.9595672 -6.239612E-05 0.2814795
vn 0.9595672 -6.239612E-05 0.2814795
vn 0.9595109 -1.674313E-05 0.2816713
vn 0.9596235 -0.0001080559 0.2812881
vn 0.9595109 -0.0001081274 0.2816713
vn 0.9595672 -0.0001537002 0.2814795
vn 0.9596234 -0.0001991931 0.2812881
vn 0.9596794 -0.0001535468 0.2810969
vn 0.9597352 -0.0001989581 0.2809061
vn 0.000558961 4.312165E-06 0.9999998
vn 0.0004658461 -1.833889E-05 0.9999998
vn 0.0004658461 -1.833889E-05 0.9999998
vn 0.0003727257 -4.099132E-05 0.9999999
vn 0.0006520703 -1.830111E-05 0.9999998
vn 0.000745174 4.34861E-06 0.9999998
vn 0.0003725379 4.321431E-06 0.9999999
vn 0.0006520703 2.700757E-05 0.9999998
vn 0.0004657522 2.699533E-05 0.9999998
vn 0.000558961 4.966789E-05 0.9999998
vn 0.0006520703 2.700757E-05 0.9999998
vn 0.0007451741 4.34861E-06 0.9999998
vn 0.0005366804 -8.626251E-05 0.9999999
vn 0.0004473656 -0.000108871 0.9999998
vn 0.0004473656 -0.000108871 0.9999998
vn 0.0003580463 -0.0001314807 1
vn 0.0003582267 -8.62586E-05 1
vn 0.0005370413 -8.617115E-05 0.9999999
vn 0.0004476363 -6.362725E-05 0.9999998
vn 0.0006263514 -6.356381E-05 0.9999998
vn 0.0006262612 -0.0001088509 0.9999998
vn 0.0007158374 -0.0001315295 0.9999997
vn 0.0006263514 -6.356381E-05 0.9999998
vn 0.000715657 -4.095766E-05 0.9999997
vn -0.5738052 -8.75299E-05 0.8189918
vn -0.5737893 -7.994695E-05 0.819003
vn -0.5737893 -7.994695E-05 0.819003
vn -0.5737734 -7.236381E-05 0.8190141
vn -0.5738209 -7.991451E-05 0.8189808
vn -0.5738368 -8.747462E-05 0.8189697
vn -0.5737893 -9.510363E-05 0.8190029
vn -0.5738211 -9.507897E-05 0.8189808
vn -0.5738052 -0.0001026743 0.8189918
vn -0.5738052 -0.0001026743 0.8189918
vn -0.5738211 -9.507897E-05 0.8189808
vn -0.573837 -0.0001026803 0.8189696
vn -0.5737734 -8.753275E-05 0.8190141
vn -0.5737893 -9.510363E-05 0.8190029
vn -0.9596458 -0.0001217242 0.2812116
vn -0.9597106 -0.0001744875 0.2809899
vn -0.9597106 -0.0001744875 0.2809899
vn -0.9597754 -0.0002271691 0.2807687
vn -0.9597754 -0.0001215165 0.2807691
vn -0.9595808 -6.892534E-05 0.2814333
vn -0.9597107 -6.879539E-05 0.2809902
vn -0.9596458 -1.600021E-05 0.2812116
vn -0.9595807 -0.0001747743 0.2814335
vn -0.9595155 -0.0001219327 0.2816558
vn -0.9595808 -6.892534E-05 0.2814333
vn -0.9595156 -0.0001219326 0.2816554
vn -0.005795822 0.0004460913 -0.9999831
vn -0.005489718 0.0002508201 -0.9999849
vn -0.005489718 0.0002508201 -0.9999849
vn -0.005183617 5.55508E-05 -0.9999866
vn -0.006101912 0.0002507821 -0.9999813
vn -0.006408003 0.0004460437 -0.9999794
vn -0.005795786 0.0008365915 -0.9999829
vn -0.005183614 0.0008366121 -0.9999862
vn -0.006101893 0.0006413187 -0.9999812
vn 0.005847726 0.0004388384 -0.9999828
vn 0.005542613 0.0006304496 -0.9999845
vn 0.006152844 0.0006304871 -0.9999808
vn 0.005237503 0.0008220574 -0.9999859
vn 0.005542613 0.0002472388 -0.9999846
vn 0.005847691 5.562452E-05 -0.999983
vn 0.006152844 0.0006304871 -0.9999808
vn 0.006457966 0.0008221157 -0.9999788
vn 0.006152809 0.0002472471 -0.999981
vn 0 1 0
vn 0 1 0
vn 0 1 0
vn 0 1 0
vn 0 1 0
vn 0 1 0
vn 0 1 0
vn 0 1 0
vn 0 1 0
vn 0 0.9999999 0
vn 0 1 0
vn 0 1 0
vn 0 1 0
vn 0 1 0
vn 0 1 0
vn 0 1 0
vn 0 1 0
vn 0 1 0
vn 0 1 0
vn 0 1 0
vn 0 0.9999999 0
vn 0 1 0
vn 0 1 0
vn 0 1 0
vn 0 1 0
vn 0 1 0
vn 0 0.9999999 0
vn 0 1 0
vn 0 1 0
vn 0 1 0
vn 0 1 0
vn 0 -1 0
vn 0 -1 0
vn 0 -1 0
vn 0 0.9999999 0
vn 0 0.9999999 0
vn 0 0.9999999 0
vn 0 -1 0
vn 0 -1 0
vn 0 -1 0
vn 0 0.9999999 0
vn 0 0.9999999 0
vn 0 0.9999999 0

vt 0.1940327 0.08982468
vt 0.02447319 0.1318245
vt 0.1343327 0.1318245
vt 0.02447319 0.08982468
vt 0.1145668 0.2000713
vt 0.1145668 0.09021187
vt 0.07256699 0.1397705
vt 0.07256699 0.09021187
vt 0.03263474 0.08994675
vt 0.2002182 0.1319466
vt 0.2002182 0.08994675
vt 0.0926342 0.1319466
vt 0.09444618 0.1559811
vt 0.136446 0.1559811
vt 0.09444618 0.1083965
vt 0.136446 0.04839516
vt 0.9163647 0.9798377
vt 0.8433704 0.9768376
vt 0.8433704 0.9798377
vt 0.9163647 0.9768376
vt 0.9747753 0.972647
vt 0.8617382 0.970647
vt 0.8617382 0.972647
vt 0.9747753 0.970647
vt 0.9668064 0.9775481
vt 0.8550816 0.9755481
vt 0.8550816 0.9775481
vt 0.9668064 0.9755481
vt 0.9535713 0.977267
vt 0.880578 0.9742669
vt 0.880578 0.977267
vt 0.9538164 0.9742669
vt 0.9527202 0.9762293
vt 0.9051356 0.9732293
vt 0.9051356 0.9762293
vt 0.9527202 0.9732293
vt 0.9830341 0.9751571
vt 0.9097958 0.9721522
vt 0.9095497 0.9751571
vt 0.9830341 0.9721619
vt 0.9647303 0.9766571
vt 0.8912458 0.9736571
vt 0.8912458 0.9766571
vt 0.9647303 0.9736571
vt 0.898735 0.9759374
vt 0.8491764 0.9729373
vt 0.8491764 0.9759374
vt 0.898735 0.9729373
vt 0.9909327 0.9833183
vt 0.8444083 0.9832802
vt 0.8444064 0.9845543
vt 0.9857028 0.9845543
vt 0.9943936 0.9821339
vt 0.8495152 0.9821663
vt 0.8547394 0.983408
vt 0.9943917 0.983408
vt 0.866907 0.8891602
vt 0.8669055 0.8056602
vt 0.8342551 0.8891602
vt 0.8342484 0.8056602
vt 0.959433 0.8056602
vt 0.9594345 0.8891602
vt 0.9920902 0.8056602
vt 0.9920917 0.8891602
vt 0.8669137 0.9726601
vt 0.8342618 0.9726601
vt 0.9594412 0.9726601
vt 0.9920931 0.9726601
vt 0.8630802 0.8891602
vt 0.8630802 0.8056602
vt 0.8319066 0.8056602
vt 0.8319079 0.8891602
vt 0.8630773 0.9726601
vt 0.8319094 0.9726601
vt 0.9642916 0.8891602
vt 0.9642887 0.9726601
vt 0.9954567 0.9726601
vt 0.995461 0.8891602
vt 0.9642916 0.8056602
vt 0.9954653 0.8056602
vt 0.9748263 0.8894272
vt 0.974821 0.8059273
vt 0.9545083 0.8894272
vt 0.9545054 0.8059273
vt 0.9545112 0.9729271
vt 0.9748292 0.9729271
vt 0.9715272 0.8059273
vt 0.9715325 0.8894272
vt 0.9918428 0.8059273
vt 0.9918481 0.8894272
vt 0.9918534 0.9729272
vt 0.9715353 0.9729272
vt 0.8557938 0.8894577
vt 0.855791 0.8059578
vt 0.8346537 0.8894577
vt 0.8346528 0.8059578
vt 0.8518982 0.8059578
vt 0.8519011 0.8894577
vt 0.8730364 0.8059578
vt 0.8730392 0.8894577
vt 0.8557948 0.9729576
vt 0.8346547 0.9729576
vt 0.851902 0.9729576
vt 0.8730421 0.9729576
vt 0.8668891 0.8894424
vt 0.8668824 0.8059425
vt 0.8342233 0.8894424
vt 0.8342181 0.8059425
vt 0.8342286 0.9729424
vt 0.8668943 0.9729424
vt 0.958624 0.8894424
vt 0.9586293 0.9729424
vt 0.9912883 0.8894424
vt 0.9912883 0.8894424
vt 0.9586293 0.9729424
vt 0.991295 0.9729424
vt 0.9586173 0.8059425
vt 0.9912816 0.8059425
vt 0.861887 0.8894958
vt 0.8618813 0.8059959
vt 0.8307037 0.8894958
vt 0.8306999 0.8059959
vt 0.9622684 0.8059959
vt 0.9622741 0.8894958
vt 0.9934497 0.8059959
vt 0.9934554 0.8894958
vt 0.8307076 0.9729958
vt 0.8618908 0.9729958
vt 0.9934611 0.9729958
vt 0.9622779 0.9729958
vt 0.9224434 0.8895874
vt 0.9224434 0.8060837
vt 0.8491793 0.8895874
vt 0.8491783 0.8060837
vt 0.8491802 0.9730911
vt 0.9224434 0.9730911
vt 0.9957076 0.8895874
vt 0.9957085 0.8060837
vt 0.9957066 0.9730911
vt 0.9022923 0.8895416
vt 0.9022913 0.8060417
vt 0.8298512 0.8895416
vt 0.8298492 0.8060417
vt 0.9747334 0.8060417
vt 0.9747344 0.8895416
vt 0.9022942 0.9730415
vt 0.8298531 0.9730415
vt 0.9747353 0.9730415
vt 0.9434071 0.9680262
vt 0.8821793 0.9684725
vt 0.9113531 0.9707403
vt 0.9440002 0.9705858
vt 0.878705 0.9708939
vt 0.9336958 0.9759722
vt 0.8728709 0.9753971
vt 0.8990281 0.9778471
vt 0.9301925 0.9783525
vt 0.8678637 0.9773417
vt 20.7283 0.6247519
vt 20.72832 0.6222881
vt 20.70799 0.6247368
vt 20.68866 0.6222881
vt 20.68767 0.6247216
vt 20.68767 0.6247216
vt 20.7283 0.6247519
vt 20.70799 0.6247368
vt 20.74944 0.6247671
vt 20.76961 0.6222881
vt 20.77058 0.6247822
vt 0.9447675 0.9737978
vt 0.8835311 0.973526
vt 0.9155557 0.9761772
vt 0.8828902 0.9761238
vt 0.9482212 0.9762306
vt 0.9349489 0.9743433
vt 0.8741217 0.9743509
vt 0.9087565 0.976563
vt 0.8775749 0.9767847
vt 0.9399381 0.9763412
vt 0.203918 0.1611195
vt 0.2028847 0.1611118
vt 0.2034014 0.1611156
vt 0.9894717 0.9858189
vt 0.8429377 0.9847469
vt 0.8429472 0.9857807
vt 0.845654 0.9870434
vt 0.9905286 0.9881077
vt 0.9905381 0.9870758
vt 0.9879296 0.9772606
vt 0.98792 0.9762268
vt 0.9879248 0.9767437

g model
usemtl model
usemap model
f 2/2/2 1/1/1 3/3/3
f 2/2/2 4/4/4 1/1/1
f 6/6/6 5/5/5 7/7/7
f 6/6/6 7/7/7 8/8/8
f 10/10/10 9/9/9 11/11/11
f 10/10/10 12/12/12 9/9/9
f 14/14/14 13/13/13 15/15/15
f 14/14/14 15/15/15 16/16/16
f 18/18/18 17/17/17 19/19/19
f 18/18/18 20/20/20 17/17/17
f 22/22/22 21/21/21 23/23/23
f 22/22/22 24/24/24 21/21/21
f 26/26/26 25/25/25 27/27/27
f 26/26/26 28/28/28 25/25/25
f 30/30/30 29/29/29 31/31/31
f 30/30/30 32/32/32 29/29/29
f 34/34/34 33/33/33 35/35/35
f 34/34/34 36/36/36 33/33/33
f 38/38/38 37/37/37 39/39/39
f 38/38/38 40/40/40 37/37/37
f 42/42/42 41/41/41 43/43/43
f 42/42/42 44/44/44 41/41/41
f 46/46/46 45/45/45 47/47/47
f 46/46/46 48/48/48 45/45/45
f 50/50/50 49/49/49 51/51/51
f 49/49/49 52/52/52 51/51/51
f 54/54/54 53/53/53 55/55/55
f 53/53/53 56/56/56 55/55/55
f 58/58/58 57/57/57 59/59/59
f 58/58/58 59/59/59 60/60/60
f 62/62/62 61/61/61 63/63/63
f 64/64/64 62/62/62 63/63/63
f 59/59/59 57/57/57 65/65/65
f 59/59/59 65/65/65 66/66/66
f 62/62/62 64/64/64 67/67/67
f 67/67/67 64/64/64 68/68/68
f 70/70/70 69/69/69 71/71/71
f 69/69/69 72/72/72 71/71/71
f 72/72/72 69/69/69 73/73/73
f 72/72/72 73/73/73 74/74/74
f 76/76/76 75/75/75 77/77/77
f 75/75/75 78/78/78 77/77/77
f 75/75/75 79/79/79 78/78/78
f 78/78/78 79/79/79 80/80/80
f 82/82/82 81/81/81 83/83/83
f 82/82/82 83/83/83 84/84/84
f 83/83/83 81/81/81 85/85/85
f 81/81/81 86/86/86 85/85/85
f 88/88/88 87/87/87 89/89/89
f 90/90/90 88/88/88 89/89/89
f 88/88/88 90/90/90 91/91/91
f 92/92/92 88/88/88 91/91/91
f 94/94/94 93/93/93 95/95/95
f 94/94/94 95/95/95 96/96/96
f 98/98/98 97/97/97 99/99/99
f 100/100/100 98/98/98 99/99/99
f 95/95/95 93/93/93 101/101/101
f 95/95/95 101/101/101 102/102/102
f 98/98/98 100/100/100 103/103/103
f 103/103/103 100/100/100 104/104/104
f 106/106/106 105/105/105 107/107/107
f 106/106/106 107/107/107 108/108/108
f 107/107/107 105/105/105 109/109/109
f 105/105/105 110/110/110 109/109/109
f 112/112/112 111/111/111 113/113/113
f 115/115/115 114/114/114 116/116/116
f 111/111/111 117/117/117 118/118/118
f 113/113/113 111/111/111 118/118/118
f 120/120/120 119/119/119 121/121/121
f 120/120/120 121/121/121 122/122/122
f 124/124/124 123/123/123 125/125/125
f 126/126/126 124/124/124 125/125/125
f 121/121/121 119/119/119 127/127/127
f 119/119/119 128/128/128 127/127/127
f 124/124/124 126/126/126 129/129/129
f 130/130/130 124/124/124 129/129/129
f 132/132/132 131/131/131 133/133/133
f 132/132/132 133/133/133 134/134/134
f 133/133/133 131/131/131 135/135/135
f 131/131/131 136/136/136 135/135/135
f 131/131/131 132/132/132 137/137/137
f 137/137/137 132/132/132 138/138/138
f 131/131/131 137/137/137 139/139/139
f 136/136/136 131/131/131 139/139/139
f 141/141/141 140/140/140 142/142/142
f 141/141/141 142/142/142 143/143/143
f 140/140/140 141/141/141 144/144/144
f 145/145/145 140/140/140 144/144/144
f 142/142/142 140/140/140 146/146/146
f 142/142/142 146/146/146 147/147/147
f 140/140/140 145/145/145 148/148/148
f 146/146/146 140/140/140 148/148/148
f 150/150/150 149/149/149 151/151/151
f 149/149/149 152/152/152 151/151/151
f 153/153/153 150/150/150 151/151/151
f 155/155/155 154/154/154 156/156/156
f 154/154/154 157/157/157 156/156/156
f 158/158/158 155/155/155 156/156/156
f 160/160/160 159/159/159 161/161/161
f 162/162/162 160/160/160 161/161/161
f 163/163/163 162/162/162 161/161/161
f 165/165/165 164/164/164 166/166/166
f 159/159/159 160/160/160 167/167/167
f 160/160/160 168/168/168 167/167/167
f 168/168/168 169/169/169 167/167/167
f 171/171/171 170/170/170 172/172/172
f 173/173/173 171/171/171 172/172/172
f 170/170/170 174/174/174 172/172/172
f 176/176/176 175/175/175 177/177/177
f 178/178/178 176/176/176 177/177/177
f 175/175/175 179/179/179 177/177/177
f 181/181/181 180/180/180 182/182/182
f 184/184/184 183/183/183 185/185/185
f 187/187/187 186/186/186 188/188/188
f 190/190/190 189/189/189 191/191/191
