mtllib ./building06.mtl
g building06
v 25.01245 64.20874 24.98289
v -24.97656 64.20874 24.99689
v -24.9696 96.31738 24.99384
v 25.02234 96.31738 24.98969
v -24.97656 64.20874 24.99689
v -24.97961 64.20874 -24.99081
v -24.9718 96.31738 -24.98843
v -24.9696 96.31738 24.99384
v -24.97961 64.20874 -24.99081
v 24.99744 64.20874 -24.99536
v 24.99817 96.31738 -24.99579
v -24.9718 96.31738 -24.98843
v 24.99744 64.20874 -24.99536
v 25.01245 64.20874 24.98289
v 25.02234 96.31738 24.98969
v 24.99817 96.31738 -24.99579
v 0.02478027 95.31738 24.00183
v -23.97522 95.31738 24.00183
v 0.02478027 95.31738 0.001831055
v -23.97522 95.31738 0.001831055
v 24.02478 95.31738 24.00183
v 0.02478027 95.31738 24.00183
v 0.02478027 95.31738 0.001831055
v 24.02478 95.31738 0.001831055
v -23.97522 95.31738 0.001831055
v -23.97522 95.31738 -23.99817
v 0.02478027 95.31738 0.001831055
v 0.02478027 95.31738 -23.99817
v 24.02478 95.31738 -23.99817
v 24.02478 95.31738 0.001831055
v 0.02478027 95.31738 0.001831055
v 0.02478027 95.31738 -23.99817
v 0.02478027 96.31738 24.00183
v -23.97522 96.31738 24.00183
v 0.02478027 95.31738 24.00183
v -23.97522 95.31738 24.00183
v -23.97522 96.31738 24.00183
v -23.97522 96.31738 0.001831055
v -23.97522 95.31738 24.00183
v -23.97522 95.31738 0.001831055
v -23.97522 96.31738 0.001831055
v -23.97522 96.31738 -23.99817
v -23.97522 95.31738 0.001831055
v -23.97522 95.31738 -23.99817
v -23.97522 96.31738 -23.99817
v 0.02478027 96.31738 -23.99817
v -23.97522 95.31738 -23.99817
v 0.02478027 95.31738 -23.99817
v 24.02478 96.31738 -23.99817
v 24.02478 96.31738 0.001831055
v 24.02478 95.31738 -23.99817
v 24.02478 95.31738 0.001831055
v 0.02478027 96.31738 -23.99817
v 24.02478 96.31738 -23.99817
v 0.02478027 95.31738 -23.99817
v 24.02478 95.31738 -23.99817
v 24.02478 96.31738 24.00183
v 0.02478027 96.31738 24.00183
v 24.02478 95.31738 24.00183
v 0.02478027 95.31738 24.00183
v 24.02478 96.31738 0.001831055
v 24.02478 96.31738 24.00183
v 24.02478 95.31738 0.001831055
v 24.02478 95.31738 24.00183
v 24.02478 96.31738 -23.99817
v 0.02478027 96.31738 -23.99817
v 24.99817 96.31738 -24.99579
v -23.97522 96.31738 -23.99817
v -24.9718 96.31738 -24.98843
v 24.02478 96.31738 0.001831055
v 24.02478 96.31738 -23.99817
v 25.02234 96.31738 24.98969
v 24.99817 96.31738 -24.99579
v 24.02478 96.31738 24.00183
v 0.02478027 96.31738 24.00183
v 24.02478 96.31738 24.00183
v -24.9696 96.31738 24.99384
v 25.02234 96.31738 24.98969
v -23.97522 96.31738 24.00183
v -23.97522 96.31738 0.001831055
v -23.97522 96.31738 24.00183
v -24.9718 96.31738 -24.98843
v -24.9696 96.31738 24.99384
v -23.97522 96.31738 -23.99817
v 25.00256 0 24.99045
v -24.99011 0 24.99435
v -24.98669 32.10376 24.9967
v 25.00244 32.10376 24.98334
v -24.99011 0 24.99435
v -24.99207 0 -24.98904
v -24.98975 32.10376 -24.99068
v -24.98669 32.10376 24.9967
v -24.99207 0 -24.98904
v 24.97986 0 -24.99594
v 24.98694 32.10376 -24.99539
v -24.98975 32.10376 -24.99068
v 24.97986 0 -24.99594
v 25.00256 0 24.99045
v 25.00244 32.10376 24.98334
v 24.98694 32.10376 -24.99539
v -24.97961 64.20874 -24.99081
v -24.97656 64.20874 24.99689
v -24.98975 32.10376 -24.99068
v 24.98694 32.10376 -24.99539
v 25.01245 64.20874 24.98289
v 24.99744 64.20874 -24.99536
v 25.00244 32.10376 24.98334
v -24.98669 32.10376 24.9967

vn 0.0001814616 -5.826249E-05 1
vn 0.0002799077 9.498411E-05 0.9999999
vn 0.0001814616 -5.826249E-05 1
vn 8.302119E-05 -0.0002115001 1
vn -1 0.0002300088 5.2506E-05
vn -0.9999999 0.00024331 6.105017E-05
vn -1 0.0002300088 5.2506E-05
vn -0.9999999 0.0002167062 4.39609E-05
vn -0.0001190816 3.043016E-05 -1
vn -9.098414E-05 -1.330419E-05 -1
vn -0.0001190816 3.043016E-05 -1
vn -0.0001471831 7.417071E-05 -1
vn 0.9999999 -0.000165339 -0.0003919878
vn 0.9999999 -0.0003078814 -0.0003004236
vn 0.9999999 -0.000165339 -0.0003919878
vn 0.9999998 -2.281717E-05 -0.0004835388
vn 0 1 0
vn 0 1 0
vn 0 1 0
vn 0 1 0
vn 0 1 0
vn 0 1 0
vn 0 1 0
vn 0 1 0
vn 0 1 0
vn 0 1 0
vn 0 1 0
vn 0 1 0
vn 0 1 0
vn 0 1 0
vn 0 1 0
vn 0 1 0
vn 0 0 -1
vn 0 0 -1
vn 0 0 -1
vn 0 0 -1
vn 1 0 0
vn 1 0 0
vn 1 0 0
vn 1 0 0
vn 1 0 0
vn 1 0 0
vn 1 0 0
vn 1 0 0
vn 0 0 1
vn 0 0 1
vn 0 0 1
vn 0 0 1
vn -1 0 0
vn -1 0 0
vn -1 0 0
vn -1 0 0
vn 0 0 1
vn 0 0 1
vn 0 0 1
vn 0 0 1
vn 0 0 -1
vn 0 0 -1
vn 0 0 -1
vn 0 0 -1
vn -1 0 0
vn -1 0 0
vn -1 0 0
vn -1 0 0
vn 0 1 0
vn 0 1 0
vn 0 1 0
vn 0 1 0
vn 0 1 0
vn 0 1 0
vn 0 1 0
vn 0 1 0
vn 0 0.9999999 0
vn 0 1 0
vn 0 1 0
vn 0 1 0
vn 0 1 0
vn 0 1 0
vn 0 1 0
vn 0 1 0
vn 0 1 0
vn 0 1 0
vn 0 1 0
vn 0 1 0
vn 0.0001727609 7.413732E-05 1
vn 7.813645E-05 -7.32039E-05 1
vn 0.0001727609 7.413732E-05 1
vn 0.0002673921 0.000221489 0.9999999
vn -1 8.93551E-05 5.006346E-05
vn -0.9999999 7.224698E-05 3.907547E-05
vn -1 8.93551E-05 5.006346E-05
vn -1 0.0001064618 6.105057E-05
vn -0.0001161791 -1.6856E-05 -1
vn -0.000138017 1.714109E-05 -1
vn -0.0001161791 -1.6856E-05 -1
vn -9.434331E-05 -5.084986E-05 -1
vn 0.9999999 -0.0001084066 -0.0003822134
vn 0.9999999 3.701707E-06 -0.0004542252
vn 0.9999999 -0.0001084066 -0.0003822134
vn 0.9999999 -0.000220532 -0.0003101905
vn -0.9999999 0.0003155845 6.105037E-05
vn -0.9999999 0.0003155842 6.105017E-05
vn -9.266372E-05 -1.633701E-06 -1
vn -9.434332E-05 9.814054E-07 -1
vn 0.9999999 -0.0003193887 -0.0003053071
vn 0.9999999 -0.0003269909 -0.0003004236
vn 0.0002736499 3.954037E-06 1
vn 0.0002673921 -5.787692E-06 1

vt 0.7479801 0.6253757
vt 0.478075 0.6253757
vt 0.4781132 0.7987576
vt 0.7480335 0.7987576
vt 0.7483768 0.4519787
vt 0.4784679 0.4519787
vt 0.4784813 0.6253605
vt 0.7483597 0.6253605
vt 0.7482033 0.6255865
vt 0.4783554 0.6255865
vt 0.478363 0.7989674
vt 0.7482033 0.7989674
vt 0.7477207 0.4520102
vt 0.4777927 0.4520102
vt 0.4777985 0.625391
vt 0.7477188 0.625391
vt 0.002199173 0.221734
vt 0.2229996 0.221734
vt 0.002199173 0.0009336472
vt 0.2229996 0.0009336472
vt 0.001533508 0.221734
vt 0.2223339 0.221734
vt 0.2223339 0.0009336472
vt 0.001533508 0.0009336472
vt 0.2229996 0.221734
vt 0.2229996 0.0009336472
vt 0.002199173 0.221734
vt 0.002199173 0.0009336472
vt 0.001533508 0.0009336472
vt 0.001533508 0.221734
vt 0.2223339 0.221734
vt 0.2223339 0.0009336472
vt 0.002009392 0.06883255
vt 0.2228098 0.06883255
vt 0.002009392 0.05963257
vt 0.2228098 0.05963257
vt 0.00306797 0.06887218
vt 0.2238684 0.06887218
vt 0.00306797 0.05967221
vt 0.2238684 0.05967221
vt 0.003035545 0.06885386
vt 0.2238359 0.06885386
vt 0.003035545 0.05965388
vt 0.2238359 0.05965388
vt 0.002064705 0.06863031
vt 0.2228651 0.06863031
vt 0.002064705 0.05943033
vt 0.2228651 0.05943033
vt 0.001725197 0.06862751
vt 0.2225256 0.06862751
vt 0.001725197 0.05942753
vt 0.2225256 0.05942753
vt 0.002654076 0.06863698
vt 0.2234545 0.06863698
vt 0.002654076 0.05943701
vt 0.2234545 0.05943701
vt 0.001545906 0.06855744
vt 0.2223463 0.06855744
vt 0.001545906 0.05935746
vt 0.2223463 0.05935746
vt 0.001389503 0.06838986
vt 0.2221899 0.06838986
vt 0.001389503 0.05918989
vt 0.2221899 0.05918989
vt 0.5046825 0.4795697
vt 0.6342659 0.4795697
vt 0.4994278 0.4741833
vt 0.7638493 0.4795697
vt 0.7692299 0.474223
vt 0.6339381 0.4746151
vt 0.5043548 0.4746151
vt 0.7688544 0.4800014
vt 0.4989684 0.4798717
vt 0.7635215 0.4746151
vt 0.6540432 0.4750777
vt 0.5244617 0.4750777
vt 0.7889957 0.4804338
vt 0.5190754 0.4804114
vt 0.7836266 0.4750777
vt 0.6341581 0.4801445
vt 0.7637396 0.4801445
vt 0.4992285 0.474762
vt 0.7690954 0.4747753
vt 0.5045748 0.4801445
vt 0.7487278 0.6253767
vt 0.4787693 0.6253767
vt 0.4787712 0.7987576
vt 0.7487278 0.7987576
vt 0.7483768 0.4524927
vt 0.4784679 0.4524927
vt 0.4784698 0.6258736
vt 0.7483749 0.6258736
vt 0.7482033 0.6255865
vt 0.4783554 0.6255865
vt 0.478363 0.7989674
vt 0.7482033 0.7989674
vt 0.74823 0.4517841
vt 0.478302 0.4517841
vt 0.4783077 0.625165
vt 0.7482281 0.625165
vt 0.4787712 0.7987576
vt 0.7487278 0.7987576
vt 0.7483768 0.4524927
vt 0.4784679 0.4524927
vt 0.478363 0.7989674
vt 0.7482033 0.7989674
vt 0.74823 0.4517841
vt 0.478302 0.4517841

g model
usemtl model
usemap model
f 2/2/2 1/1/1 3/3/3
f 1/1/1 4/4/4 3/3/3
f 6/6/6 5/5/5 7/7/7
f 5/5/5 8/8/8 7/7/7
f 10/10/10 9/9/9 11/11/11
f 9/9/9 12/12/12 11/11/11
f 14/14/14 13/13/13 15/15/15
f 13/13/13 16/16/16 15/15/15
f 18/18/18 17/17/17 19/19/19
f 20/20/20 18/18/18 19/19/19
f 22/22/22 21/21/21 23/23/23
f 21/21/21 24/24/24 23/23/23
f 26/26/26 25/25/25 27/27/27
f 28/28/28 26/26/26 27/27/27
f 30/30/30 29/29/29 31/31/31
f 29/29/29 32/32/32 31/31/31
f 34/34/34 33/33/33 35/35/35
f 36/36/36 34/34/34 35/35/35
f 38/38/38 37/37/37 39/39/39
f 40/40/40 38/38/38 39/39/39
f 42/42/42 41/41/41 43/43/43
f 44/44/44 42/42/42 43/43/43
f 46/46/46 45/45/45 47/47/47
f 48/48/48 46/46/46 47/47/47
f 50/50/50 49/49/49 51/51/51
f 52/52/52 50/50/50 51/51/51
f 54/54/54 53/53/53 55/55/55
f 56/56/56 54/54/54 55/55/55
f 58/58/58 57/57/57 59/59/59
f 60/60/60 58/58/58 59/59/59
f 62/62/62 61/61/61 63/63/63
f 64/64/64 62/62/62 63/63/63
f 66/66/66 65/65/65 67/67/67
f 68/68/68 66/66/66 67/67/67
f 69/69/69 68/68/68 67/67/67
f 71/71/71 70/70/70 72/72/72
f 73/73/73 71/71/71 72/72/72
f 70/70/70 74/74/74 72/72/72
f 76/76/76 75/75/75 77/77/77
f 78/78/78 76/76/76 77/77/77
f 75/75/75 79/79/79 77/77/77
f 81/81/81 80/80/80 82/82/82
f 83/83/83 81/81/81 82/82/82
f 80/80/80 84/84/84 82/82/82
f 86/86/86 85/85/85 87/87/87
f 85/85/85 88/88/88 87/87/87
f 90/90/90 89/89/89 91/91/91
f 89/89/89 92/92/92 91/91/91
f 94/94/94 93/93/93 95/95/95
f 93/93/93 96/96/96 95/95/95
f 98/98/98 97/97/97 99/99/99
f 97/97/97 100/100/100 99/99/99
f 91/91/91 92/92/92 101/101/101
f 92/92/92 102/102/102 101/101/101
f 104/104/104 103/103/103 10/10/10
f 103/103/103 9/9/9 10/10/10
f 99/99/99 100/100/100 105/105/105
f 100/100/100 106/106/106 105/105/105
f 108/108/108 107/107/107 2/2/2
f 107/107/107 1/1/1 2/2/2
