mtllib ./floor.mtl
g floor
v -5000 -8.881784E-14 4000
v -4000 -8.881784E-14 4000
v -5000 -1.110223E-13 5000
v -4000 -1.110223E-13 5000
v -3000 -8.881784E-14 4000
v -3000 -1.110223E-13 5000
v -2000 -8.881784E-14 4000
v -2000 -1.110223E-13 5000
v -999.9999 -8.881784E-14 4000
v -999.9999 -1.110223E-13 5000
v -7.820129E-05 -8.881784E-14 4000
v -7.820129E-05 -1.110223E-13 5000
v 999.9999 -8.881784E-14 4000
v 999.9999 -1.110223E-13 5000
v 2000 -8.881784E-14 4000
v 2000 -1.110223E-13 5000
v 3000 -8.881784E-14 4000
v 3000 -1.110223E-13 5000
v 4000 -8.881784E-14 4000
v 4000 -1.110223E-13 5000
v 5000 -8.881784E-14 4000
v 5000 -1.110223E-13 5000
v -999.9999 -6.661337E-14 3000
v -7.820129E-05 -6.661337E-14 3000
v 999.9999 -6.661337E-14 3000
v 2000 -6.661337E-14 3000
v 3000 -6.661337E-14 3000
v 4000 -6.661337E-14 3000
v 5000 -6.661337E-14 3000
v -7.820129E-05 -4.440892E-14 2000
v -999.9999 -4.440892E-14 2000
v -2000 -6.661337E-14 3000
v -3000 -6.661337E-14 3000
v -4000 -6.661337E-14 3000
v -5000 -6.661337E-14 3000
v -4000 -4.440892E-14 2000
v -5000 -4.440892E-14 2000
v -3000 -4.440892E-14 2000
v -2000 -4.440892E-14 2000
v -4000 -2.220446E-14 999.9999
v -5000 -2.220446E-14 999.9999
v -3000 -2.220446E-14 999.9999
v -2000 -2.220446E-14 999.9999
v -999.9999 -2.220446E-14 999.9999
v -7.820129E-05 -2.220446E-14 999.9999
v 999.9999 -2.220446E-14 999.9999
v 999.9999 -4.440892E-14 2000
v 2000 -4.440892E-14 2000
v 3000 -4.440892E-14 2000
v 4000 -4.440892E-14 2000
v 5000 -4.440892E-14 2000
v 2000 -2.220446E-14 999.9999
v 3000 -2.220446E-14 999.9999
v 4000 -2.220446E-14 999.9999
v 5000 -2.220446E-14 999.9999
v 2000 0 0
v 999.9999 0 0
v 3000 0 0
v 4000 0 0
v 5000 0 0
v 2000 2.220447E-14 -1000
v 999.9999 2.220447E-14 -1000
v -7.820129E-05 0 0
v -999.9999 0 0
v -2000 0 0
v -3000 0 0
v -4000 0 0
v -5000 0 0
v -4000 2.220447E-14 -1000
v -5000 2.220447E-14 -1000
v -3000 2.220447E-14 -1000
v -2000 2.220447E-14 -1000
v -999.9999 2.220447E-14 -1000
v -7.820129E-05 2.220447E-14 -1000
v -4000 4.440892E-14 -2000
v -5000 4.440892E-14 -2000
v -3000 4.440892E-14 -2000
v -2000 4.440892E-14 -2000
v -999.9999 4.440892E-14 -2000
v -7.820129E-05 4.440892E-14 -2000
v 999.9999 4.440892E-14 -2000
v 2000 4.440892E-14 -2000
v 3000 4.440892E-14 -2000
v 3000 2.220447E-14 -1000
v 4000 2.220447E-14 -1000
v 5000 2.220447E-14 -1000
v 4000 4.440892E-14 -2000
v 5000 4.440892E-14 -2000
v -999.9999 6.661337E-14 -3000
v 999.9999 6.661337E-14 -3000
v -7.820129E-05 6.661337E-14 -3000
v 4000 6.661337E-14 -3000
v 3000 6.661337E-14 -3000
v 2000 6.661337E-14 -3000
v 5000 6.661337E-14 -3000
v -7.820129E-05 8.881785E-14 -4000
v -999.9999 8.881785E-14 -4000
v -2000 6.661337E-14 -3000
v -3000 6.661337E-14 -3000
v -4000 6.661337E-14 -3000
v -5000 6.661337E-14 -3000
v -4000 8.881785E-14 -4000
v -5000 8.881785E-14 -4000
v -3000 8.881785E-14 -4000
v -2000 8.881785E-14 -4000
v -4000 1.110223E-13 -5000
v -5000 1.110223E-13 -5000
v -3000 1.110223E-13 -5000
v -2000 1.110223E-13 -5000
v -999.9999 1.110223E-13 -5000
v -7.820129E-05 1.110223E-13 -5000
v 999.9999 1.110223E-13 -5000
v 999.9999 8.881785E-14 -4000
v 2000 8.881785E-14 -4000
v 3000 8.881785E-14 -4000
v 4000 8.881785E-14 -4000
v 5000 8.881785E-14 -4000
v 2000 1.110223E-13 -5000
v 3000 1.110223E-13 -5000
v 4000 1.110223E-13 -5000
v 5000 1.110223E-13 -5000

vn 0 1 2.220447E-17
vn 0 1 2.220447E-17
vn 0 1 2.220446E-17
vn 0 1 2.220446E-17
vn 0 1 2.220446E-17
vn 0 1 2.220446E-17
vn 0 1 2.220446E-17
vn 0 1 2.220446E-17
vn 0 1 2.220446E-17
vn 0 1 2.220446E-17
vn 0 1 2.220446E-17
vn 0 1 2.220446E-17
vn 0 1 2.220446E-17
vn 0 1 2.220446E-17
vn 0 1 2.220447E-17
vn 0 1 2.220446E-17
vn 0 1 2.220446E-17
vn 0 1 2.220446E-17
vn 0 1 2.220447E-17
vn 0 1 2.220446E-17
vn 0 1 2.220446E-17
vn 0 1 2.220446E-17
vn 0 1 2.220446E-17
vn 0 1 2.220446E-17
vn 0 1 2.220446E-17
vn 0 1 2.220446E-17
vn 0 1 2.220446E-17
vn 0 1 2.220446E-17
vn 0 1 2.220446E-17
vn 0 1 2.220446E-17
vn 0 1 2.220446E-17
vn 0 1 2.220446E-17
vn 0 1 2.220446E-17
vn 0 1 2.220446E-17
vn 0 1 2.220446E-17
vn 0 1 2.220446E-17
vn 0 1 2.220446E-17
vn 0 1 2.220446E-17
vn 0 1 2.220445E-17
vn 0 1 2.220446E-17
vn 0 1 2.220446E-17
vn 0 1 2.220446E-17
vn 0 1 2.220446E-17
vn 0 1 2.220446E-17
vn 0 1 2.220446E-17
vn 0 1 2.220446E-17
vn 0 1 2.220446E-17
vn 0 1 2.220446E-17
vn 0 1 2.220446E-17
vn 0 1 2.220446E-17
vn 0 1 2.220446E-17
vn 0 1 2.220446E-17
vn 0 1 2.220446E-17
vn 0 1 2.220446E-17
vn 0 1 2.220446E-17
vn 0 1 2.220447E-17
vn 0 1 2.220447E-17
vn 0 1 2.220447E-17
vn 0 1 2.220447E-17
vn 0 1 2.220447E-17
vn 0 1 2.220446E-17
vn 0 1 2.220446E-17
vn 0 1 2.220447E-17
vn 0 1 2.220447E-17
vn 0 1 2.220447E-17
vn 0 1 2.220447E-17
vn 0 1 2.220447E-17
vn 0 1 2.220447E-17
vn 0 1 2.220446E-17
vn 0 1 2.220446E-17
vn 0 1 2.220446E-17
vn 0 1 2.220446E-17
vn 0 1 2.220446E-17
vn 0 1 2.220446E-17
vn 0 1 2.220445E-17
vn 0 1 2.220445E-17
vn 0 1 2.220445E-17
vn 0 1 2.220445E-17
vn 0 1 2.220445E-17
vn 0 1 2.220445E-17
vn 0 1 2.220445E-17
vn 0 1 2.220445E-17
vn 0 1 2.220445E-17
vn 0 1 2.220446E-17
vn 0 1 2.220446E-17
vn 0 1 2.220447E-17
vn 0 1 2.220445E-17
vn 0 1 2.220445E-17
vn 0 1 2.220447E-17
vn 0 1 2.220446E-17
vn 0 1 2.220446E-17
vn 0 1 2.220447E-17
vn 0 1 2.220446E-17
vn 0 1 2.220447E-17
vn 0 1 2.220446E-17
vn 0 1 2.220446E-17
vn 0 1 2.220446E-17
vn 0 1 2.220447E-17
vn 0 1 2.220446E-17
vn 0 1 2.220447E-17
vn 0 1 2.220447E-17
vn 0 1 2.220447E-17
vn 0 1 2.220446E-17
vn 0 1 2.220446E-17
vn 0 1 2.220447E-17
vn 0 1 2.220445E-17
vn 0 1 2.220445E-17
vn 0 1 2.220445E-17
vn 0 1 2.220445E-17
vn 0 1 2.220445E-17
vn 0 1 2.220445E-17
vn 0 1 2.220445E-17
vn 0 1 2.220446E-17
vn 0 1 2.220447E-17
vn 0 1 2.220446E-17
vn 0 1 2.220447E-17
vn 0 1 2.220447E-17
vn 0 1 2.220445E-17
vn 0 1 2.220445E-17
vn 0 1 2.220445E-17
vn 0 1 2.220445E-17

vt 0 0.1
vt 0.1 0.1
vt 0 0
vt 0.1 0
vt 0.2 0.1
vt 0.2 0
vt 0.3 0.1
vt 0.3 0
vt 0.4 0.1
vt 0.4 0
vt 0.5 0.1
vt 0.5 0
vt 0.6 0.1
vt 0.6 0
vt 0.7 0.1
vt 0.7 0
vt 0.8 0.1
vt 0.8 0
vt 0.9 0.1
vt 0.9 0
vt 1 0.1
vt 1 0
vt 0.4 0.2
vt 0.5 0.2
vt 0.6 0.2
vt 0.7 0.2
vt 0.8 0.2
vt 0.9 0.2
vt 1 0.2
vt 0.5 0.3
vt 0.4 0.3
vt 0.3 0.2
vt 0.2 0.2
vt 0.1 0.2
vt 0 0.2
vt 0.1 0.3
vt 0 0.3
vt 0.2 0.3
vt 0.3 0.3
vt 0.1 0.4
vt 0 0.4
vt 0.2 0.4
vt 0.3 0.4
vt 0.4 0.4
vt 0.5 0.4
vt 0.6 0.4
vt 0.6 0.3
vt 0.7 0.3
vt 0.8 0.3
vt 0.9 0.3
vt 1 0.3
vt 0.7 0.4
vt 0.8 0.4
vt 0.9 0.4
vt 1 0.4
vt 0.7 0.5
vt 0.6 0.5
vt 0.8 0.5
vt 0.9 0.5
vt 1 0.5
vt 0.7 0.6
vt 0.6 0.6
vt 0.5 0.5
vt 0.4 0.5
vt 0.3 0.5
vt 0.2 0.5
vt 0.1 0.5
vt 0 0.5
vt 0.1 0.6
vt 0 0.6
vt 0.2 0.6
vt 0.3 0.6
vt 0.4 0.6
vt 0.5 0.6
vt 0.1 0.7
vt 0 0.7
vt 0.2 0.7
vt 0.3 0.7
vt 0.4 0.7
vt 0.5 0.7
vt 0.6 0.7
vt 0.7 0.7
vt 0.8 0.7
vt 0.8 0.6
vt 0.9 0.6
vt 1 0.6
vt 0.9 0.7
vt 1 0.7
vt 0.4 0.8
vt 0.6 0.8
vt 0.5 0.8
vt 0.9 0.8
vt 0.8 0.8
vt 0.7 0.8
vt 1 0.8
vt 0.5 0.9
vt 0.4 0.9
vt 0.3 0.8
vt 0.2 0.8
vt 0.1 0.8
vt 0 0.8
vt 0.1 0.9
vt 0 0.9
vt 0.2 0.9
vt 0.3 0.9
vt 0.1 1
vt 0 1
vt 0.2 1
vt 0.3 1
vt 0.4 1
vt 0.5 1
vt 0.6 1
vt 0.6 0.9
vt 0.7 0.9
vt 0.8 0.9
vt 0.9 0.9
vt 1 0.9
vt 0.7 1
vt 0.8 1
vt 0.9 1
vt 1 1

g floor
usemtl floor
usemap floor
f 2/2/2 1/1/1 3/3/3
f 4/4/4 2/2/2 3/3/3
f 5/5/5 2/2/2 4/4/4
f 6/6/6 5/5/5 4/4/4
f 7/7/7 5/5/5 6/6/6
f 8/8/8 7/7/7 6/6/6
f 9/9/9 7/7/7 8/8/8
f 10/10/10 9/9/9 8/8/8
f 11/11/11 9/9/9 10/10/10
f 12/12/12 11/11/11 10/10/10
f 13/13/13 11/11/11 12/12/12
f 14/14/14 13/13/13 12/12/12
f 15/15/15 13/13/13 14/14/14
f 16/16/16 15/15/15 14/14/14
f 17/17/17 15/15/15 16/16/16
f 18/18/18 17/17/17 16/16/16
f 19/19/19 17/17/17 18/18/18
f 20/20/20 19/19/19 18/18/18
f 21/21/21 19/19/19 20/20/20
f 22/22/22 21/21/21 20/20/20
f 9/9/9 23/23/23 7/7/7
f 24/24/24 23/23/23 9/9/9
f 11/11/11 24/24/24 9/9/9
f 25/25/25 24/24/24 11/11/11
f 13/13/13 25/25/25 11/11/11
f 26/26/26 25/25/25 13/13/13
f 15/15/15 26/26/26 13/13/13
f 27/27/27 26/26/26 15/15/15
f 17/17/17 27/27/27 15/15/15
f 28/28/28 27/27/27 17/17/17
f 19/19/19 28/28/28 17/17/17
f 29/29/29 28/28/28 19/19/19
f 21/21/21 29/29/29 19/19/19
f 24/24/24 30/30/30 23/23/23
f 30/30/30 31/31/31 23/23/23
f 23/23/23 31/31/31 32/32/32
f 23/23/23 32/32/32 7/7/7
f 7/7/7 32/32/32 5/5/5
f 32/32/32 33/33/33 5/5/5
f 5/5/5 33/33/33 2/2/2
f 33/33/33 34/34/34 2/2/2
f 2/2/2 34/34/34 1/1/1
f 34/34/34 35/35/35 1/1/1
f 34/34/34 36/36/36 35/35/35
f 36/36/36 37/37/37 35/35/35
f 38/38/38 36/36/36 34/34/34
f 33/33/33 38/38/38 34/34/34
f 39/39/39 38/38/38 33/33/33
f 32/32/32 39/39/39 33/33/33
f 31/31/31 39/39/39 32/32/32
f 36/36/36 40/40/40 37/37/37
f 40/40/40 41/41/41 37/37/37
f 42/42/42 40/40/40 36/36/36
f 38/38/38 42/42/42 36/36/36
f 43/43/43 42/42/42 38/38/38
f 39/39/39 43/43/43 38/38/38
f 44/44/44 43/43/43 39/39/39
f 31/31/31 44/44/44 39/39/39
f 45/45/45 44/44/44 31/31/31
f 30/30/30 45/45/45 31/31/31
f 46/46/46 45/45/45 30/30/30
f 47/47/47 46/46/46 30/30/30
f 47/47/47 30/30/30 24/24/24
f 25/25/25 47/47/47 24/24/24
f 48/48/48 47/47/47 25/25/25
f 26/26/26 48/48/48 25/25/25
f 49/49/49 48/48/48 26/26/26
f 27/27/27 49/49/49 26/26/26
f 50/50/50 49/49/49 27/27/27
f 28/28/28 50/50/50 27/27/27
f 51/51/51 50/50/50 28/28/28
f 29/29/29 51/51/51 28/28/28
f 52/52/52 46/46/46 47/47/47
f 48/48/48 52/52/52 47/47/47
f 53/53/53 52/52/52 48/48/48
f 49/49/49 53/53/53 48/48/48
f 54/54/54 53/53/53 49/49/49
f 50/50/50 54/54/54 49/49/49
f 55/55/55 54/54/54 50/50/50
f 51/51/51 55/55/55 50/50/50
f 52/52/52 56/56/56 46/46/46
f 56/56/56 57/57/57 46/46/46
f 58/58/58 56/56/56 52/52/52
f 53/53/53 58/58/58 52/52/52
f 59/59/59 58/58/58 53/53/53
f 54/54/54 59/59/59 53/53/53
f 60/60/60 59/59/59 54/54/54
f 55/55/55 60/60/60 54/54/54
f 56/56/56 61/61/61 57/57/57
f 61/61/61 62/62/62 57/57/57
f 57/57/57 62/62/62 63/63/63
f 57/57/57 63/63/63 45/45/45
f 46/46/46 57/57/57 45/45/45
f 45/45/45 63/63/63 44/44/44
f 63/63/63 64/64/64 44/44/44
f 44/44/44 64/64/64 43/43/43
f 64/64/64 65/65/65 43/43/43
f 43/43/43 65/65/65 42/42/42
f 65/65/65 66/66/66 42/42/42
f 42/42/42 66/66/66 40/40/40
f 66/66/66 67/67/67 40/40/40
f 40/40/40 67/67/67 41/41/41
f 67/67/67 68/68/68 41/41/41
f 67/67/67 69/69/69 68/68/68
f 69/69/69 70/70/70 68/68/68
f 71/71/71 69/69/69 67/67/67
f 66/66/66 71/71/71 67/67/67
f 72/72/72 71/71/71 66/66/66
f 65/65/65 72/72/72 66/66/66
f 73/73/73 72/72/72 65/65/65
f 64/64/64 73/73/73 65/65/65
f 74/74/74 73/73/73 64/64/64
f 63/63/63 74/74/74 64/64/64
f 62/62/62 74/74/74 63/63/63
f 69/69/69 75/75/75 70/70/70
f 75/75/75 76/76/76 70/70/70
f 77/77/77 75/75/75 69/69/69
f 71/71/71 77/77/77 69/69/69
f 78/78/78 77/77/77 71/71/71
f 72/72/72 78/78/78 71/71/71
f 79/79/79 78/78/78 72/72/72
f 73/73/73 79/79/79 72/72/72
f 80/80/80 79/79/79 73/73/73
f 74/74/74 80/80/80 73/73/73
f 81/81/81 80/80/80 74/74/74
f 62/62/62 81/81/81 74/74/74
f 82/82/82 81/81/81 62/62/62
f 61/61/61 82/82/82 62/62/62
f 83/83/83 82/82/82 61/61/61
f 84/84/84 83/83/83 61/61/61
f 84/84/84 61/61/61 56/56/56
f 58/58/58 84/84/84 56/56/56
f 85/85/85 84/84/84 58/58/58
f 59/59/59 85/85/85 58/58/58
f 86/86/86 85/85/85 59/59/59
f 60/60/60 86/86/86 59/59/59
f 87/87/87 83/83/83 84/84/84
f 85/85/85 87/87/87 84/84/84
f 88/88/88 87/87/87 85/85/85
f 86/86/86 88/88/88 85/85/85
f 79/79/79 89/89/89 78/78/78
f 81/81/81 90/90/90 80/80/80
f 90/90/90 91/91/91 80/80/80
f 91/91/91 89/89/89 79/79/79
f 80/80/80 91/91/91 79/79/79
f 87/87/87 92/92/92 83/83/83
f 92/92/92 93/93/93 83/83/83
f 83/83/83 93/93/93 82/82/82
f 93/93/93 94/94/94 82/82/82
f 94/94/94 90/90/90 81/81/81
f 82/82/82 94/94/94 81/81/81
f 95/95/95 92/92/92 87/87/87
f 88/88/88 95/95/95 87/87/87
f 91/91/91 96/96/96 89/89/89
f 96/96/96 97/97/97 89/89/89
f 89/89/89 97/97/97 98/98/98
f 89/89/89 98/98/98 78/78/78
f 78/78/78 98/98/98 77/77/77
f 98/98/98 99/99/99 77/77/77
f 77/77/77 99/99/99 75/75/75
f 99/99/99 100/100/100 75/75/75
f 75/75/75 100/100/100 76/76/76
f 100/100/100 101/101/101 76/76/76
f 100/100/100 102/102/102 101/101/101
f 102/102/102 103/103/103 101/101/101
f 104/104/104 102/102/102 100/100/100
f 99/99/99 104/104/104 100/100/100
f 105/105/105 104/104/104 99/99/99
f 98/98/98 105/105/105 99/99/99
f 97/97/97 105/105/105 98/98/98
f 102/102/102 106/106/106 103/103/103
f 106/106/106 107/107/107 103/103/103
f 108/108/108 106/106/106 102/102/102
f 104/104/104 108/108/108 102/102/102
f 109/109/109 108/108/108 104/104/104
f 105/105/105 109/109/109 104/104/104
f 110/110/110 109/109/109 105/105/105
f 97/97/97 110/110/110 105/105/105
f 111/111/111 110/110/110 97/97/97
f 96/96/96 111/111/111 97/97/97
f 112/112/112 111/111/111 96/96/96
f 113/113/113 112/112/112 96/96/96
f 113/113/113 96/96/96 91/91/91
f 90/90/90 113/113/113 91/91/91
f 114/114/114 113/113/113 90/90/90
f 94/94/94 114/114/114 90/90/90
f 115/115/115 114/114/114 94/94/94
f 93/93/93 115/115/115 94/94/94
f 116/116/116 115/115/115 93/93/93
f 92/92/92 116/116/116 93/93/93
f 117/117/117 116/116/116 92/92/92
f 95/95/95 117/117/117 92/92/92
f 118/118/118 112/112/112 113/113/113
f 114/114/114 118/118/118 113/113/113
f 119/119/119 118/118/118 114/114/114
f 115/115/115 119/119/119 114/114/114
f 120/120/120 119/119/119 115/115/115
f 116/116/116 120/120/120 115/115/115
f 121/121/121 120/120/120 116/116/116
f 117/117/117 121/121/121 116/116/116
