mtllib ./ladder02.mtl
g ladder02
v -0.03845215 0 0.3527527
v 0.03839116 4.362332 0.3527527
v 0.03839116 0 0.3527527
v -0.03845215 4.362332 0.3527527
v -0.03845215 0 -0.3527298
v -0.03845215 4.362332 0.3527527
v -0.03845215 0 0.3527527
v -0.03845215 4.362332 -0.3527298
v 0.03839116 0 -0.3527298
v -0.03845215 4.362332 -0.3527298
v -0.03845215 0 -0.3527298
v 0.03839116 4.362332 -0.3527298
v 0.03839116 0 0.3527527
v 0.03839116 4.362332 -0.3527298
v 0.03839116 0 -0.3527298
v 0.03839116 4.362332 0.3527527
v -0.03845215 4.362332 0.3527527
v 0.03839116 4.362332 -0.3527298
v 0.03839116 4.362332 0.3527527
v -0.03845215 4.362332 -0.3527298
v -0.03845215 0 -0.3527298
v 0.03839116 0 0.3527527
v 0.03839116 0 -0.3527298
v -0.03845215 0 0.3527527

vn 0 0 1
vn 0 0 1
vn 0 0 1
vn 0 0 1
vn -0.9999999 0 0
vn -0.9999999 0 0
vn -0.9999999 0 0
vn -0.9999999 0 0
vn 0 0 -1
vn 0 0 -1
vn 0 0 -1
vn 0 0 -1
vn 0.9999999 0 0
vn 0.9999999 0 0
vn 0.9999999 0 0
vn 0.9999999 0 0
vn 0 1 0
vn 0 1 0
vn 0 1 0
vn 0 1 0
vn 0 -1 0
vn 0 -1 0
vn 0 -1 0
vn 0 -1 0

vt 0.6290461 0.7081165
vt 0.8995106 0.7033525
vt 0.6290461 0.7033525
vt 0.8995106 0.7081165
vt 0.691045 0.7478318
vt 0.9615095 0.704092
vt 0.691045 0.704092
vt 0.9615095 0.7478318
vt 0.6273957 0.7481098
vt 0.8978602 0.7433457
vt 0.6273957 0.7433457
vt 0.8978602 0.7481098
vt 0.6909475 0.7478937
vt 0.9614119 0.7041539
vt 0.6909475 0.7041539
vt 0.9614119 0.7478937
vt 0.6183704 0.7480474
vt 0.6136061 0.7043075
vt 0.6136061 0.7480474
vt 0.6183704 0.7043075
vt 0.6334936 0.7039559
vt 0.6382579 0.7476959
vt 0.6382579 0.7039559
vt 0.6334936 0.7476959

g modelCutout
usemtl modelCutout
usemap modelCutout
f 2/2/2 1/1/1 3/3/3
f 2/2/2 4/4/4 1/1/1
f 6/6/6 5/5/5 7/7/7
f 6/6/6 8/8/8 5/5/5
f 10/10/10 9/9/9 11/11/11
f 10/10/10 12/12/12 9/9/9
f 14/14/14 13/13/13 15/15/15
f 14/14/14 16/16/16 13/13/13
f 18/18/18 17/17/17 19/19/19
f 18/18/18 20/20/20 17/17/17
f 22/22/22 21/21/21 23/23/23
f 22/22/22 24/24/24 21/21/21
