mtllib ./rooftop_combo11.mtl
g rooftop_combo11
v -0.1438293 5.0135 -5.85321
v -0.2170563 5.0135 -6.029999
v -0.07276917 55.0135 -6.029999
v -0.0486145 55.0135 -5.948792
v 0.03294373 5.0135 -5.779999
v -0.1438293 5.0135 -5.85321
v -0.0486145 55.0135 -5.948792
v 0.03294373 55.0135 -5.917816
v 0.2097168 5.0135 -5.85321
v 0.03294373 5.0135 -5.779999
v 0.03294373 55.0135 -5.917816
v 0.1193848 55.0135 -5.947845
v 0.2829437 5.0135 -6.029999
v 0.2097168 5.0135 -5.85321
v 0.1193848 55.0135 -5.947845
v 0.1491547 55.0135 -6.029999
v 0.2097168 5.0135 -6.206787
v 0.2829437 5.0135 -6.029999
v 0.1491547 55.0135 -6.029999
v 0.1135254 55.0135 -6.102875
v 0.03294373 5.0135 -6.279999
v 0.2097168 5.0135 -6.206787
v 0.1135254 55.0135 -6.102875
v 0.03294373 55.0135 -6.136566
v -0.1438293 5.0135 -6.206787
v 0.03294373 5.0135 -6.279999
v 0.03294373 55.0135 -6.136566
v -0.04690552 55.0135 -6.099091
v -0.2170563 5.0135 -6.029999
v -0.1438293 5.0135 -6.206787
v -0.04690552 55.0135 -6.099091
v -0.07276917 55.0135 -6.029999
v -0.0486145 55.0135 -5.948792
v -0.07276917 55.0135 -6.029999
v 0.03294373 55.0135 -6.029999
v 0.03294373 55.0135 -5.917816
v -0.0486145 55.0135 -5.948792
v 0.03294373 55.0135 -6.029999
v 0.1193848 55.0135 -5.947845
v 0.03294373 55.0135 -5.917816
v 0.03294373 55.0135 -6.029999
v 0.1491547 55.0135 -6.029999
v 0.1193848 55.0135 -5.947845
v 0.03294373 55.0135 -6.029999
v 0.1135254 55.0135 -6.102875
v 0.03294373 55.0135 -6.136566
v 0.1135254 55.0135 -6.102875
v 0.03294373 55.0135 -6.029999
v -0.04690552 55.0135 -6.099091
v 0.03294373 55.0135 -6.136566
v 0.03294373 55.0135 -6.029999
v -0.07276917 55.0135 -6.029999
v -0.04690552 55.0135 -6.099091
v 0.03294373 55.0135 -6.029999
v 0.9980774 5.014965 -4.054901
v 0.9980774 4.013988 -4.054901
v -0.9482117 4.013988 -4.054901
v -0.9482117 5.014965 -4.054901
v -0.9482117 5.014965 -4.054901
v -0.9482117 4.013988 -4.054901
v -0.9482117 4.013988 -6.985077
v -0.9482117 5.014965 -6.985077
v -0.9482117 5.014965 -6.985077
v -0.9482117 4.013988 -6.985077
v 0.9980774 4.013988 -6.985077
v 0.9980774 5.014965 -6.985077
v 0.9980774 5.014965 -6.985077
v 0.9980774 4.013988 -6.985077
v 0.9980774 4.013988 -4.054901
v 0.9980774 5.014965 -4.054901
v 0.9980774 5.014965 -6.985077
v 0.9980774 5.014965 -4.054901
v -0.9482117 5.014965 -4.054901
v -0.9482117 5.014965 -6.985077
v 0 4.013184 -8
v 0 0 -8
v 4 0 -8
v 4 4.013184 -8
v 4 4.013184 -8
v 4 0 -8
v 4 0 0
v 4 4.013184 0
v 4 4.013184 -8
v 4 4.013184 0
v 0 4.013184 0
v 0 4.013184 -8
v -4 4.013184 0
v -4 0 0
v -4 0 -8
v -4 4.013184 -8
v -4 4.013184 -8
v -4 0 -8
v 0 0 -8
v 0 4.013184 -8
v 0 4.013184 -8
v 0 4.013184 0
v -4 4.013184 0
v -4 4.013184 -8
v 4 4.013184 0
v 4 0 0
v 4 0 8
v 4 4.013184 8
v 4 4.013184 8
v 4 0 8
v 0 0 8
v 0 4.013184 8
v 0 4.013184 8
v 4 4.013184 0
v 4 4.013184 8
v 0 4.013184 8
v 0 0 8
v -4 0 8
v -4 4.013184 8
v -4 4.013184 8
v -4 0 8
v -4 0 0
v -4 4.013184 0
v 0 4.013184 0
v 0 4.013184 8
v -4 4.013184 8
v -4 4.013184 0

vn -0.935569 0.002578236 0.3531347
vn -0.9238785 0.002666075 0.3826768
vn -0.935569 0.002578236 0.3531347
vn -0.9584951 0.002370261 0.2850991
vn -0.3740325 0.0025207 0.9274122
vn -0.382637 0.002494792 0.9238954
vn -0.3740325 0.0025207 0.9274122
vn -0.3550484 0.002576756 0.9348444
vn 0.3651469 0.002493852 0.9309465
vn 0.382637 0.002546577 0.9238953
vn 0.3651469 0.002493852 0.9309465
vn 0.3281575 0.002380745 0.94462
vn 0.9291897 0.002432276 0.3695952
vn 0.923879 0.00239341 0.382677
vn 0.9291897 0.002432276 0.3695952
vn 0.9401723 0.002515695 0.3406902
vn 0.9166552 0.002523435 -0.3996711
vn 0.923879 0.002472098 -0.382677
vn 0.9166552 0.002523435 -0.3996711
vn 0.8983763 0.002641127 -0.4392188
vn 0.3836107 0.002653209 -0.9234911
vn 0.3826369 0.00265621 -0.9238949
vn 0.3836107 0.002653209 -0.9234911
vn 0.3857426 0.002646626 -0.9226026
vn -0.3960518 0.002689797 -0.9182242
vn -0.3826369 0.002650334 -0.9238949
vn -0.3960518 0.002689797 -0.9182242
vn -0.4248621 0.002773439 -0.9052538
vn -0.9275097 0.002639814 -0.3737898
vn -0.9238786 0.002615176 -0.3826768
vn -0.9275097 0.002639814 -0.3737898
vn -0.9365296 0.002702583 -0.3505781
vn 0 1 0
vn 0 1 0
vn 0 1 0
vn 0 1 0
vn 0 1 0
vn 0 1 0
vn 0 1 0
vn 0 1 0
vn 0 1 0
vn 0 1 0
vn 0 1 0
vn 0 1 0
vn 0 1 0
vn 0 1 0
vn 0 1 0
vn 0 1 0
vn 0 1 0
vn 0 1 0
vn 0 1 0
vn 0 0.9999999 0
vn 0 0.9999999 0
vn 0 0.9999999 0
vn 0 0 1
vn 0 0 1
vn 0 0 1
vn 0 0 1
vn -1 0 0
vn -1 0 0
vn -1 0 0
vn -1 0 0
vn 0 0 -1
vn 0 0 -1
vn 0 0 -1
vn 0 0 -1
vn 1 0 0
vn 1 0 0
vn 1 0 0
vn 1 0 0
vn 0 0.9999999 0
vn 0 0.9999999 0
vn 0 0.9999999 0
vn 0 0.9999999 0
vn 0 0 -1
vn 0 0 -1
vn 0 0 -1
vn 0 0 -1
vn 1 0 0
vn 1 0 0
vn 1 0 0
vn 1 0 0
vn 0 1 0
vn 0 1 0
vn 0 1 0
vn 0 1 0
vn -1 0 0
vn -1 0 0
vn -1 0 0
vn -1 0 0
vn 0 0 -1
vn 0 0 -1
vn 0 0 -1
vn 0 0 -1
vn 0 1 0
vn 0 1 0
vn 0 1 0
vn 0 1 0
vn 1 0 0
vn 1 0 0
vn 1 0 0
vn 1 0 0
vn 0 0 1
vn 0 0 1
vn 0 0 1
vn 0 0 1
vn 0 1 0
vn 0 1 0
vn 0 1 0
vn 0 0 1
vn 0 0 1
vn 0 0 1
vn 0 0 1
vn -1 0 0
vn -1 0 0
vn -1 0 0
vn -1 0 0
vn 0 1 0
vn 0 1 0
vn 0 1 0
vn 0 1 0

vt 0.04155263 0.2381344
vt 0.04155263 0.2390919
vt 0.2915526 0.2388153
vt 0.2915526 0.2383938
vt 0.04155263 0.2381287
vt 0.04155263 0.2390862
vt 0.2915526 0.2388287
vt 0.2915526 0.2383919
vt 0.04155263 0.2381287
vt 0.04155263 0.2390862
vt 0.2915526 0.2388229
vt 0.2915526 0.2383652
vt 0.04155263 0.2381248
vt 0.04155263 0.2390823
vt 0.2915526 0.2388172
vt 0.2915526 0.2383804
vt 0.04155259 0.2381306
vt 0.04155259 0.2390881
vt 0.2915526 0.2388325
vt 0.2915526 0.2384262
vt 0.04155264 0.2381363
vt 0.04155264 0.2390938
vt 0.2915527 0.2388477
vt 0.2915527 0.2384109
vt 0.0415526 0.2381401
vt 0.0415526 0.2390976
vt 0.2915526 0.2388229
vt 0.2915526 0.2383823
vt 0.04155266 0.2381363
vt 0.04155266 0.2390938
vt 0.2915527 0.238781
vt 0.2915527 0.2384129
vt 0.03746431 -22.8377
vt 0.03897375 -22.84278
vt 0.03236669 -22.84278
vt 0.02104589 -22.82124
vt 0.02614351 -22.82318
vt 0.0210459 -22.82825
vt 0.0233347 -22.82312
vt 0.02873749 -22.82124
vt 0.02873749 -22.82825
vt 0.03728765 -22.84233
vt 0.03914804 -22.8372
vt 0.04455084 -22.84233
vt 0.03951425 -22.84668
vt 0.02562471 -22.83088
vt 0.02058814 -22.82878
vt 0.02562471 -22.82422
vt 0.02523559 -22.82854
vt 0.02024478 -22.83088
vt 0.02024478 -22.82422
vt 0.03897375 -22.84414
vt 0.03735749 -22.84846
vt 0.03236669 -22.84414
vt 0.2003164 0.3417835
vt 0.2003164 0.3304725
vt 0.1783233 0.3304725
vt 0.1783233 0.3417835
vt 0.1894854 0.3197275
vt 0.1781744 0.3197275
vt 0.1781744 0.3528384
vt 0.1894854 0.3528384
vt 0.200363 0.3529824
vt 0.200363 0.3416713
vt 0.17837 0.3416713
vt 0.17837 0.3529824
vt 0.1893679 0.3195538
vt 0.1780568 0.3195538
vt 0.1780568 0.3526646
vt 0.1893679 0.3526646
vt 0.1782928 0.319611
vt 0.1782928 0.3527218
vt 0.2002859 0.3527218
vt 0.2002859 0.319611
vt 0.3144283 0.09048676
vt 0.3144283 0.00219667
vt 0.2264284 0.00219667
vt 0.2264284 0.09048676
vt 0.4022317 0.09099579
vt 0.4022317 0.002705693
vt 0.2262318 0.002705693
vt 0.2262318 0.09099579
vt 0.226608 0.001882076
vt 0.226608 0.177882
vt 0.314608 0.177882
vt 0.314608 0.001882076
vt 0.4022849 0.1566013
vt 0.4022849 0.06831121
vt 0.226285 0.06831121
vt 0.226285 0.1566013
vt 0.3144283 0.09048676
vt 0.3144283 0.00219667
vt 0.2264284 0.00219667
vt 0.2264284 0.09048676
vt 0.226608 0.001882076
vt 0.226608 0.177882
vt 0.314608 0.177882
vt 0.314608 0.001882076
vt 0.4022849 0.1566013
vt 0.4022849 0.06831121
vt 0.226285 0.06831121
vt 0.226285 0.1566013
vt 0.3144283 0.09048676
vt 0.3144283 0.00219667
vt 0.2264284 0.00219667
vt 0.2264284 0.09048676
vt 0.226608 0.001882076
vt 0.314608 0.177882
vt 0.314608 0.001882076
vt 0.3143706 0.09069538
vt 0.3143706 0.002405286
vt 0.2263707 0.002405286
vt 0.2263707 0.09069538
vt 0.4022849 0.1566013
vt 0.4022849 0.06831121
vt 0.226285 0.06831121
vt 0.226285 0.1566013
vt 0.226608 0.001882076
vt 0.226608 0.177882
vt 0.314608 0.177882
vt 0.314608 0.001882076

g model
usemtl model
usemap model
f 2/2/2 1/1/1 3/3/3
f 3/3/3 1/1/1 4/4/4
f 6/6/6 5/5/5 7/7/7
f 7/7/7 5/5/5 8/8/8
f 10/10/10 9/9/9 11/11/11
f 11/11/11 9/9/9 12/12/12
f 14/14/14 13/13/13 15/15/15
f 15/15/15 13/13/13 16/16/16
f 18/18/18 17/17/17 19/19/19
f 19/19/19 17/17/17 20/20/20
f 22/22/22 21/21/21 23/23/23
f 23/23/23 21/21/21 24/24/24
f 26/26/26 25/25/25 27/27/27
f 27/27/27 25/25/25 28/28/28
f 30/30/30 29/29/29 31/31/31
f 31/31/31 29/29/29 32/32/32
f 34/34/34 33/33/33 35/35/35
f 37/37/37 36/36/36 38/38/38
f 40/40/40 39/39/39 41/41/41
f 43/43/43 42/42/42 44/44/44
f 42/42/42 45/45/45 44/44/44
f 47/47/47 46/46/46 48/48/48
f 50/50/50 49/49/49 51/51/51
f 53/53/53 52/52/52 54/54/54
f 56/56/56 55/55/55 57/57/57
f 57/57/57 55/55/55 58/58/58
f 60/60/60 59/59/59 61/61/61
f 61/61/61 59/59/59 62/62/62
f 64/64/64 63/63/63 65/65/65
f 65/65/65 63/63/63 66/66/66
f 68/68/68 67/67/67 69/69/69
f 69/69/69 67/67/67 70/70/70
f 72/72/72 71/71/71 73/73/73
f 73/73/73 71/71/71 74/74/74
f 76/76/76 75/75/75 77/77/77
f 77/77/77 75/75/75 78/78/78
f 80/80/80 79/79/79 81/81/81
f 81/81/81 79/79/79 82/82/82
f 84/84/84 83/83/83 85/85/85
f 85/85/85 83/83/83 86/86/86
f 88/88/88 87/87/87 89/89/89
f 89/89/89 87/87/87 90/90/90
f 92/92/92 91/91/91 93/93/93
f 93/93/93 91/91/91 94/94/94
f 96/96/96 95/95/95 97/97/97
f 97/97/97 95/95/95 98/98/98
f 100/100/100 99/99/99 101/101/101
f 101/101/101 99/99/99 102/102/102
f 104/104/104 103/103/103 105/105/105
f 105/105/105 103/103/103 106/106/106
f 96/96/96 107/107/107 108/108/108
f 108/108/108 107/107/107 109/109/109
f 111/111/111 110/110/110 112/112/112
f 112/112/112 110/110/110 113/113/113
f 115/115/115 114/114/114 116/116/116
f 116/116/116 114/114/114 117/117/117
f 119/119/119 118/118/118 120/120/120
f 120/120/120 118/118/118 121/121/121
