mtllib ./box03.mtl
g box03
v 3.999512 -0.0004882813 -8
v -0.0004882813 4.012696 -8
v -0.0004882813 -0.0004882813 -8
v 3.999512 4.012696 -8
v 3.999512 -0.0004882813 0
v 3.999512 4.012696 -8
v 3.999512 -0.0004882813 -8
v 3.999512 4.012696 0
v -0.0004882813 4.012696 0
v 3.999512 4.012696 -8
v 3.999512 4.012696 0
v -0.0004882813 4.012696 -8
v -4.000488 -0.0004882813 -8
v -4.000488 4.012696 0
v -4.000488 -0.0004882813 0
v -4.000488 4.012696 -8
v -0.0004882813 -0.0004882813 -8
v -4.000488 4.012696 -8
v -4.000488 -0.0004882813 -8
v -0.0004882813 4.012696 -8
v -4.000488 4.012696 0
v -0.0004882813 4.012696 -8
v -0.0004882813 4.012696 0
v -4.000488 4.012696 -8
v 3.999512 -0.0004882813 8
v 3.999512 4.012696 0
v 3.999512 -0.0004882813 0
v 3.999512 4.012696 8
v -0.0004882813 -0.0004882813 8
v 3.999512 4.012696 8
v 3.999512 -0.0004882813 8
v -0.0004882813 4.012696 8
v 3.999512 4.012696 0
v -0.0004882813 4.012696 8
v 3.999512 4.012696 8
v -4.000488 -0.0004882813 8
v -0.0004882813 4.012696 8
v -0.0004882813 -0.0004882813 8
v -4.000488 4.012696 8
v -4.000488 -0.0004882813 0
v -4.000488 4.012696 8
v -4.000488 -0.0004882813 8
v -4.000488 4.012696 0
v -4.000488 4.012696 8
v -0.0004882813 4.012696 0
v -0.0004882813 4.012696 8
v -4.000488 4.012696 0

vn 0 0 -1
vn 0 0 -1
vn 0 0 -1
vn 0 0 -1
vn 1 0 0
vn 1 0 0
vn 1 0 0
vn 1 0 0
vn 0 1 0
vn 0 1 0
vn 0 1 0
vn 0 1 0
vn -1 0 0
vn -1 0 0
vn -1 0 0
vn -1 0 0
vn 0 0 -1
vn 0 0 -1
vn 0 0 -1
vn 0 0 -1
vn 0 1 0
vn 0 1 0
vn 0 1 0
vn 0 1 0
vn 1 0 0
vn 1 0 0
vn 1 0 0
vn 1 0 0
vn 0 0 1
vn 0 0 1
vn 0 0 1
vn 0 0 1
vn 0 1 0
vn 0 1 0
vn 0 1 0
vn 0 0 1
vn 0 0 1
vn 0 0 1
vn 0 0 1
vn -1 0 0
vn -1 0 0
vn -1 0 0
vn -1 0 0
vn 0 1 0
vn 0 1 0
vn 0 1 0
vn 0 1 0

vt 0.2264284 0.00219667
vt 0.3144283 0.09048676
vt 0.3144283 0.00219667
vt 0.2264284 0.09048676
vt 0.2262318 0.002705693
vt 0.4022317 0.09099579
vt 0.4022317 0.002705693
vt 0.2262318 0.09099579
vt 0.314608 0.177882
vt 0.226608 0.001882076
vt 0.226608 0.177882
vt 0.314608 0.001882076
vt 0.226285 0.06831121
vt 0.4022849 0.1566013
vt 0.4022849 0.06831121
vt 0.226285 0.1566013
vt 0.2264284 0.00219667
vt 0.3144283 0.09048676
vt 0.3144283 0.00219667
vt 0.2264284 0.09048676
vt 0.314608 0.177882
vt 0.226608 0.001882076
vt 0.226608 0.177882
vt 0.314608 0.001882076
vt 0.226285 0.06831121
vt 0.4022849 0.1566013
vt 0.4022849 0.06831121
vt 0.226285 0.1566013
vt 0.2264284 0.00219667
vt 0.3144283 0.09048676
vt 0.3144283 0.00219667
vt 0.2264284 0.09048676
vt 0.314608 0.177882
vt 0.226608 0.001882076
vt 0.314608 0.001882076
vt 0.2263707 0.002405286
vt 0.3143706 0.09069538
vt 0.3143706 0.002405286
vt 0.2263707 0.09069538
vt 0.226285 0.06831121
vt 0.4022849 0.1566013
vt 0.4022849 0.06831121
vt 0.226285 0.1566013
vt 0.314608 0.177882
vt 0.226608 0.001882076
vt 0.226608 0.177882
vt 0.314608 0.001882076

g model
usemtl model
usemap model
f 2/2/2 1/1/1 3/3/3
f 2/2/2 4/4/4 1/1/1
f 6/6/6 5/5/5 7/7/7
f 6/6/6 8/8/8 5/5/5
f 10/10/10 9/9/9 11/11/11
f 10/10/10 12/12/12 9/9/9
f 14/14/14 13/13/13 15/15/15
f 14/14/14 16/16/16 13/13/13
f 18/18/18 17/17/17 19/19/19
f 18/18/18 20/20/20 17/17/17
f 22/22/22 21/21/21 23/23/23
f 22/22/22 24/24/24 21/21/21
f 26/26/26 25/25/25 27/27/27
f 26/26/26 28/28/28 25/25/25
f 30/30/30 29/29/29 31/31/31
f 30/30/30 32/32/32 29/29/29
f 34/34/34 33/33/33 23/23/23
f 34/34/34 35/35/35 33/33/33
f 37/37/37 36/36/36 38/38/38
f 37/37/37 39/39/39 36/36/36
f 41/41/41 40/40/40 42/42/42
f 41/41/41 43/43/43 40/40/40
f 45/45/45 44/44/44 46/46/46
f 45/45/45 47/47/47 44/44/44
