mtllib ./box05.mtl
g box05
v 4 4.013184 3.999985
v 4 -2.328306E-10 3.999985
v 4 -2.328306E-10 11.99999
v 4 4.013184 11.99999
v 4 4.013184 11.99999
v 4 -2.328306E-10 11.99999
v -1.192093E-07 -2.328306E-10 11.99999
v -1.192093E-07 4.013184 11.99999
v -1.192093E-07 4.013184 11.99999
v -1.192093E-07 -2.328306E-10 11.99999
v -4 -2.328306E-10 11.99999
v -4 4.013184 11.99999
v -4 4.013184 11.99999
v -4 -2.328306E-10 11.99999
v -4 -2.328306E-10 3.999985
v -4 4.013184 3.999985
v -4 4.013184 -4.000015
v -4 -2.328306E-10 -4.000015
v -4 -2.328306E-10 -12.00001
v -4 4.013184 -12.00001
v -4 4.013184 -12.00001
v -4 -2.328306E-10 -12.00001
v -1.192093E-07 -2.328306E-10 -12.00001
v -1.192093E-07 4.013184 -12.00001
v -4 4.013184 3.999985
v -4 -2.328306E-10 3.999985
v -4 -2.328306E-10 -4.000015
v -4 4.013184 -4.000015
v -4 6.02832 -4.000015
v -3.490234 6.02832 -11.45656
v -3.490234 6.02832 -4.000015
v -4 6.02832 -11.45656
v -4 6.02832 -12.00001
v -3.490234 6.02832 -12.00001
v -1.192093E-07 6.02832 -12.00001
v -1.192093E-07 6.02832 -11.45656
v -1.192093E-07 5.87832 -11.45656
v -3.490234 5.87832 -4.000015
v -3.490234 5.87832 -11.45656
v -1.192093E-07 5.87832 -4.000015
v -1.192093E-07 5.87832 -4.000015
v 3.458985 5.87832 -11.45656
v 3.458985 5.87832 -4.000015
v -1.192093E-07 5.87832 -11.45656
v 4 6.02832 -11.45656
v 3.458985 6.02832 -4.000015
v 3.458985 6.02832 -11.45656
v 4 6.02832 -4.000015
v 4 6.02832 -12.00001
v 3.458985 6.02832 -12.00001
v -1.192093E-07 6.02832 -12.00001
v -1.192093E-07 6.02832 -11.45656
v -4 6.02832 3.999985
v -3.490234 6.02832 -1.478195E-05
v -3.490234 6.02832 3.999985
v -4 6.02832 -1.478195E-05
v -4 6.02832 -4.000015
v -3.490234 6.02832 -4.000015
v -1.192093E-07 5.87832 3.999985
v -3.490234 5.87832 3.999985
v -3.490234 5.87832 -1.478195E-05
v -1.192093E-07 5.87832 -1.478195E-05
v -1.192093E-07 5.87832 -4.000015
v -1.192093E-07 5.87832 -1.478195E-05
v -3.490234 5.87832 -1.478195E-05
v -3.490234 5.87832 -4.000015
v 4 6.02832 -4.000015
v 3.458985 6.02832 -1.478195E-05
v 3.458985 6.02832 -4.000015
v 4 6.02832 -1.478195E-05
v 4 6.02832 3.999985
v 3.458985 6.02832 3.999985
v -1.192093E-07 5.87832 -4.000015
v 3.458985 5.87832 -4.000015
v 3.458985 5.87832 -1.478195E-05
v -1.192093E-07 5.87832 3.999985
v 3.458985 5.87832 -1.478195E-05
v 3.458985 5.87832 3.999985
v 4 6.02832 3.999985
v 3.458985 6.02832 11.46568
v 3.458985 6.02832 3.999985
v 4 6.02832 11.46568
v 4 6.02832 11.99999
v 3.458985 6.02832 11.99999
v -1.192093E-07 6.02832 11.99999
v -1.192093E-07 6.02832 11.46568
v -1.192093E-07 5.87832 3.999985
v 3.458985 5.87832 3.999985
v 3.458985 5.87832 11.46568
v -1.192093E-07 5.87832 11.46568
v -4 6.02832 11.99999
v -3.490234 6.02832 11.46568
v -3.490234 6.02832 11.99999
v -4 6.02832 11.46568
v -1.192093E-07 6.02832 11.99999
v -1.192093E-07 6.02832 11.46568
v -4 6.02832 3.999985
v -3.490234 6.02832 3.999985
v -1.192093E-07 5.87832 3.999985
v -1.192093E-07 5.87832 11.46568
v -3.490234 5.87832 11.46568
v -3.490234 5.87832 3.999985
v -4 6.02832 -11.45656
v -4 4.009766 -4.000015
v -4 4.009766 -12.00001
v -4 6.02832 -12.00001
v -4 6.02832 -4.000015
v -3.490234 6.02832 -12.00001
v -4 4.009766 -12.00001
v -1.192093E-07 4.009766 -12.00001
v -1.192093E-07 6.02832 -12.00001
v -4 6.02832 -12.00001
v 4 6.02832 -11.45656
v 4 4.009766 -12.00001
v 4 4.009766 -4.000015
v 4 6.02832 -4.000015
v 4 6.02832 -12.00001
v 3.458985 6.02832 -12.00001
v -1.192093E-07 4.009766 -12.00001
v 4 4.009766 -12.00001
v 4 6.02832 -12.00001
v -1.192093E-07 6.02832 -12.00001
v -4 6.02832 -1.478195E-05
v -4 4.009766 3.999985
v -4 4.009766 -4.000015
v -4 6.02832 -4.000015
v -4 6.02832 3.999985
v 4 6.02832 -1.478195E-05
v 4 4.009766 -4.000015
v 4 4.009766 3.999985
v 4 6.02832 3.999985
v 4 6.02832 -4.000015
v 4 6.02832 11.46568
v 4 4.009766 3.999985
v 4 4.009766 11.99999
v 4 6.02832 11.99999
v 4 6.02832 3.999985
v 3.458985 6.02832 11.99999
v 4 4.009766 11.99999
v -1.192093E-07 4.009766 11.99999
v -1.192093E-07 6.02832 11.99999
v 4 6.02832 11.99999
v -3.490234 6.02832 11.99999
v -1.192093E-07 4.009766 11.99999
v -4 4.009766 11.99999
v -4 6.02832 11.99999
v -1.192093E-07 6.02832 11.99999
v -4 6.02832 11.46568
v -4 4.009766 11.99999
v -4 4.009766 3.999985
v -4 6.02832 3.999985
v -4 6.02832 11.99999
v -3.490234 5.87832 3.999985
v -3.490234 6.02832 3.999985
v -3.490234 6.02832 -1.478195E-05
v -3.490234 5.87832 -1.478195E-05
v 3.458985 5.87832 -1.478195E-05
v 3.458985 6.02832 -1.478195E-05
v 3.458985 6.02832 3.999985
v 3.458985 5.87832 3.999985
v 3.458985 5.87832 -4.000015
v 3.458985 6.02832 -4.000015
v 3.458985 6.02832 -1.478195E-05
v 3.458985 5.87832 -1.478195E-05
v -3.490234 5.87832 -1.478195E-05
v -3.490234 6.02832 -1.478195E-05
v -3.490234 6.02832 -4.000015
v -3.490234 5.87832 -4.000015
v -3.490234 5.87832 -4.000015
v -3.490234 6.02832 -4.000015
v -3.490234 6.02832 -11.45656
v -3.490234 5.87832 -11.45656
v -3.490234 5.87832 -11.45656
v -3.490234 6.02832 -11.45656
v -1.192093E-07 6.02832 -11.45656
v -1.192093E-07 5.87832 -11.45656
v 3.458985 5.87832 -11.45656
v 3.458985 6.02832 -11.45656
v 3.458985 6.02832 -4.000015
v 3.458985 5.87832 -4.000015
v -1.192093E-07 5.87832 -11.45656
v -1.192093E-07 6.02832 -11.45656
v 3.458985 6.02832 -11.45656
v 3.458985 5.87832 -11.45656
v 3.458985 5.87832 3.999985
v 3.458985 6.02832 3.999985
v 3.458985 6.02832 11.46568
v 3.458985 5.87832 11.46568
v 3.458985 5.87832 11.46568
v 3.458985 6.02832 11.46568
v -1.192093E-07 6.02832 11.46568
v -1.192093E-07 5.87832 11.46568
v -1.192093E-07 5.87832 11.46568
v -1.192093E-07 6.02832 11.46568
v -3.490234 6.02832 11.46568
v -3.490234 5.87832 11.46568
v -3.490234 5.87832 11.46568
v -3.490234 6.02832 11.46568
v -3.490234 6.02832 3.999985
v -3.490234 5.87832 3.999985
v 4 2.006592 -4.000015
v 4 -2.328306E-10 -4.000015
v 4 -2.328306E-10 3.999985
v 4 4.013184 3.999985
v 4 4.013184 -4.000015
v 4 -2.328306E-10 -12.00001
v 4 -2.328306E-10 -10.95257
v 4 2.923676 -10.95257
v 4 2.006592 -12.00001
v -1.192093E-07 4.013184 -12.00001
v -1.192093E-07 -2.328306E-10 -12.00001
v 4 2.006592 -12.00001
v 4 4.013184 -12.00001
v 4 -2.328306E-10 -12.00001
v 4 2.924927 -9.029585
v 4 1.576608 -9.029585
v 4 2.006592 -4.000015
v 4 4.013184 -4.000015
v 4 4.013184 -8.666685
v 4 -2.328306E-10 -4.000015
v 4 -2.328306E-10 -9.029585
v 4 4.013184 -8.666685
v 4 2.923676 -10.95257
v 4 2.924927 -9.029585
v 4 4.013184 -12.00001
v 4 2.006592 -12.00001
v 3.563477 -2.328306E-10 -9.029585
v 3.563477 2.922381 -9.029585
v 3.563477 2.922381 -10.95257
v 3.563477 -2.328306E-10 -10.95257
v 3.563477 2.922381 -9.029585
v 4 2.924927 -9.029585
v 4 2.923676 -10.95257
v 3.563477 2.922381 -10.95257
v 3.563477 2.922381 -10.95257
v 4 2.923676 -10.95257
v 4 -2.328306E-10 -10.95257
v 3.563477 -2.328306E-10 -10.95257
v 3.563477 2.922381 -9.029585
v 4 1.576608 -9.029585
v 4 2.924927 -9.029585
v 3.563477 -2.328306E-10 -9.029585
v 4 -2.328306E-10 -9.029585

vn 1 0 0
vn 1 0 0
vn 1 0 0
vn 1 0 0
vn 0 0 1
vn 0 0 1
vn 0 0 1
vn 0 0 1
vn 0 0 1
vn 0 0 1
vn 0 0 1
vn 0 0 1
vn -1 0 0
vn -1 0 0
vn -1 0 0
vn -1 0 0
vn -1 0 0
vn -1 0 0
vn -1 0 0
vn -1 0 0
vn 0 0 -1
vn 0 0 -1
vn 0 0 -1
vn 0 0 -1
vn -1 0 0
vn -1 0 0
vn -1 0 0
vn -1 0 0
vn 0 1 0
vn 0 1 0
vn 0 1 0
vn 0 1 0
vn 0 1 0
vn 0 1 0
vn 0 1 0
vn 0 1 0
vn 0 0.9999999 0
vn 0 0.9999999 0
vn 0 0.9999999 0
vn 0 0.9999999 0
vn 0 1 0
vn 0 1 0
vn 0 1 0
vn 0 1 0
vn 0 1 0
vn 0 1 0
vn 0 1 0
vn 0 1 0
vn 0 1 0
vn 0 1 0
vn 0 1 0
vn 0 1 0
vn 0 1 0
vn 0 1 0
vn 0 1 0
vn 0 1 0
vn 0 1 0
vn 0 1 0
vn 0 1 0
vn 0 1 0
vn 0 1 0
vn 0 1 0
vn 0 1 0
vn 0 1 0
vn 0 1 0
vn 0 1 0
vn 0 1 0
vn 0 1 0
vn 0 1 0
vn 0 1 0
vn 0 1 0
vn 0 1 0
vn 0 1 0
vn 0 1 0
vn 0 1 0
vn 0 1 0
vn 0 1 0
vn 0 1 0
vn 0 1 0
vn 0 0.9999999 0
vn 0 1 0
vn 0 1 0
vn 0 1 0
vn 0 1 0
vn 0 1 0
vn 0 1 0
vn 0 0.9999999 0
vn 0 0.9999999 0
vn 0 0.9999999 0
vn 0 0.9999999 0
vn 0 1 0
vn 0 1 0
vn 0 1 0
vn 0 1 0
vn 0 1 0
vn 0 1 0
vn 0 1 0
vn 0 1 0
vn 0 1 0
vn 0 1 0
vn 0 1 0
vn 0 1 0
vn -1 0 0
vn -1 0 0
vn -1 0 0
vn -1 0 0
vn -1 0 0
vn 0 0 -1
vn 0 0 -1
vn 0 0 -0.9999999
vn 0 0 -1
vn 0 0 -1
vn 1 0 0
vn 1 0 0
vn 1 0 0
vn 1 0 0
vn 1 0 0
vn 0 0 -1
vn 0 0 -1
vn 0 0 -1
vn 0 0 -1
vn 0 0 -1
vn -1 0 0
vn -1 0 0
vn -1 0 0
vn -1 0 0
vn -1 0 0
vn 1 0 0
vn 1 0 0
vn 1 0 0
vn 1 0 0
vn 1 0 0
vn 1 0 0
vn 1 0 0
vn 1 0 0
vn 1 0 0
vn 0.9999999 0 0
vn 0 0 1
vn 0 0 1
vn 0 0 1
vn 0 0 1
vn 0 0 1
vn 0 0 1
vn 0 0 0.9999999
vn 0 0 1
vn 0 0 1
vn 0 0 1
vn -1 0 0
vn -1 0 0
vn -1 0 0
vn -0.9999999 0 0
vn -1 0 0
vn 0.9999999 0 0
vn 0.9999999 0 0
vn 0.9999999 0 0
vn 0.9999999 0 0
vn -0.9999999 0 0
vn -0.9999999 0 0
vn -0.9999999 0 0
vn -0.9999999 0 0
vn -0.9999999 0 0
vn -0.9999999 0 0
vn -0.9999999 0 0
vn -0.9999999 0 0
vn 0.9999999 0 0
vn 0.9999999 0 0
vn 0.9999999 0 0
vn 0.9999999 0 0
vn 1 0 0
vn 1 0 0
vn 1 0 0
vn 1 0 0
vn 0 0 1
vn 0 0 1
vn 0 0 1
vn 0 0 1
vn -1 0 0
vn -1 0 0
vn -1 0 0
vn -1 0 0
vn 0 0 1
vn 0 0 1
vn 0 0 1
vn 0 0 1
vn -1 0 0
vn -1 0 0
vn -1 0 0
vn -1 0 0
vn 0 0 -1
vn 0 0 -1
vn 0 0 -1
vn 0 0 -1
vn 0 0 -1
vn 0 0 -1
vn 0 0 -1
vn 0 0 -1
vn 1 0 0
vn 1 0 0
vn 1 0 0
vn 1 0 0
vn 1 0 0
vn 1 0 0
vn 1 0 0
vn 1 0 0
vn 1 0 0
vn 1 0 0
vn 1 0 0
vn 1 0 0
vn 1 0 0
vn 0 0 -1
vn 0 0 -1
vn 0 0 -1
vn 0 0 -1
vn 0 0 -1
vn 1 0 0
vn 1 0 0
vn 1 0 0
vn 0.9999999 0 0
vn 0.9999999 0 0
vn 1 0 0
vn 1 0 0
vn 1 0 0
vn 0.9999999 0 0
vn 1 0 0
vn 1 0 0
vn 1 0 0
vn 1 0 0
vn 1 0 0
vn 1 0 0
vn 1 0 0
vn 0.004399135 -0.9999902 0.0003252686
vn 0.005831972 -0.9999827 0.0006505323
vn 0.004399135 -0.9999902 0.0003252686
vn 0.002966271 -0.9999956 0
vn 0 0 1
vn 0 0 1
vn 0 0 1
vn 0 0 1
vn 0 0 -1
vn 0 0 -1
vn 0 0 -1
vn 0 0 -1
vn 0 0 -1

vt 0.4022849 0.1566013
vt 0.4022849 0.06831121
vt 0.226285 0.06831121
vt 0.226285 0.1566013
vt 0.3144283 0.09048676
vt 0.3144283 0.00219667
vt 0.2264284 0.00219667
vt 0.2264284 0.09048676
vt 0.3143706 0.09069538
vt 0.3143706 0.002405286
vt 0.2263707 0.002405286
vt 0.2263707 0.09069538
vt 0.4022849 0.1566013
vt 0.4022849 0.06831121
vt 0.226285 0.06831121
vt 0.226285 0.1566013
vt 0.4022849 0.1566013
vt 0.4022849 0.06831121
vt 0.226285 0.06831121
vt 0.226285 0.1566013
vt 0.3144283 0.09048676
vt 0.3144283 0.00219655
vt 0.2264285 0.00219655
vt 0.2264285 0.09048676
vt 0.4022849 0.1566013
vt 0.4022849 0.06831121
vt 0.226285 0.06831121
vt 0.226285 0.1566013
vt -0.6633921 -1.778118
vt -0.6746068 -1.942162
vt -0.6746068 -1.778118
vt -0.6633921 -1.942162
vt -0.6633921 -1.954118
vt -0.6746068 -1.954118
vt -0.7513919 -1.954118
vt -0.7513919 -1.942162
vt 0.04590631 0.01437759
vt 0.1226914 0.1784215
vt 0.1226914 0.01437759
vt 0.04590631 0.1784215
vt 0.1343626 0.2002785
vt 0.05826509 0.03623462
vt 0.05826509 0.2002785
vt 0.1343626 0.03623462
vt 0.2257388 0.03580117
vt 0.2376411 0.1998448
vt 0.2376411 0.03580117
vt 0.2257388 0.1998448
vt 0.2257388 0.0238452
vt 0.2376411 0.0238452
vt 0.3137386 0.0238452
vt 0.3137386 0.03580117
vt 0.3143712 0.2002006
vt 0.3031564 0.1122007
vt 0.3031564 0.2002006
vt 0.3143712 0.1122007
vt 0.3143712 0.02420092
vt 0.3031564 0.02420092
vt 0.04603648 0.1341785
vt 0.1228216 0.1341785
vt 0.1228216 0.0461787
vt 0.04603648 0.0461787
vt 0.04621017 0.04563236
vt 0.04657638 0.1344565
vt 0.1229953 0.1336322
vt 0.1229953 0.04563236
vt 0.3151085 0.1787493
vt 0.3032062 0.0907495
vt 0.3032062 0.1787493
vt 0.3151085 0.0907495
vt 0.3151085 0.002749681
vt 0.3032062 0.002749681
vt 0.04651523 0.1347868
vt 0.1226127 0.1347868
vt 0.1226127 0.04678702
vt 0.04657638 0.04645669
vt 0.1226739 0.1344565
vt 0.1226739 0.04645669
vt 1.336608 2.221882
vt 1.324706 2.057637
vt 1.324706 2.221882
vt 1.336608 2.057637
vt 1.336608 2.045882
vt 1.324706 2.045882
vt 1.248608 2.045882
vt 1.248608 2.057637
vt 0.04657638 0.2002909
vt 0.1226739 0.2002909
vt 0.1226739 0.03604579
vt 0.04657638 0.03604579
vt -0.6633921 -1.778118
vt -0.6746068 -1.789873
vt -0.6746068 -1.778118
vt -0.6633921 -1.789873
vt -0.7513919 -1.778118
vt -0.7513919 -1.789873
vt -0.6633921 -1.954118
vt -0.6746068 -1.954118
vt 0.06855059 0.04577708
vt 0.06855059 0.2100222
vt 0.1453357 0.2100222
vt 0.1453357 0.04577708
vt 0.238241 0.1346605
vt 0.4022846 0.09025216
vt 0.226285 0.09025216
vt 0.226285 0.1346605
vt 0.4022846 0.1346605
vt 0.3032136 0.06854594
vt 0.3144283 0.02413762
vt 0.2264285 0.02413762
vt 0.2264285 0.06854594
vt 0.3144283 0.06854594
vt 0.390275 0.1346124
vt 0.4022312 0.09020412
vt 0.2262316 0.09020412
vt 0.2262316 0.1346124
vt 0.4022312 0.1346124
vt 0.2383308 0.06854594
vt 0.3144283 0.02413762
vt 0.2264285 0.02413762
vt 0.2264285 0.06854594
vt 0.3144283 0.06854594
vt 0.3142847 0.1346604
vt 0.4022846 0.09025216
vt 0.2262847 0.09025216
vt 0.2262847 0.1346604
vt 0.4022846 0.1346604
vt 0.3142847 0.1346604
vt 0.4022846 0.09025216
vt 0.2262847 0.09025216
vt 0.2262847 0.1346604
vt 0.4022846 0.1346604
vt 0.2380395 0.1346605
vt 0.4022846 0.09025216
vt 0.226285 0.09025216
vt 0.226285 0.1346605
vt 0.4022846 0.1346605
vt 0.302526 0.06854594
vt 0.3144283 0.02413762
vt 0.2264285 0.02413762
vt 0.2264285 0.06854594
vt 0.3144283 0.06854594
vt 0.2375855 0.06875455
vt 0.3143706 0.02434623
vt 0.2263708 0.02434623
vt 0.2263708 0.06875455
vt 0.3143706 0.06875455
vt 0.3905301 0.1346605
vt 0.4022846 0.09025216
vt 0.226285 0.09025216
vt 0.226285 0.1346605
vt 0.4022846 0.1346605
vt 1.204608 -5.792768
vt 1.204608 -5.789468
vt 1.292608 -5.789468
vt 1.292608 -5.792768
vt -0.707392 -5.877468
vt -0.707392 -5.880768
vt -0.7953918 -5.880768
vt -0.7953918 -5.877468
vt -0.707392 -1.789468
vt -0.707392 -1.792768
vt -0.7953918 -1.792768
vt -0.7953918 -1.789468
vt 1.204608 -1.880768
vt 1.204608 -1.877468
vt 1.292608 -1.877468
vt 1.292608 -1.880768
vt 0.2484896 0.08028867
vt 0.2484896 0.08358867
vt 0.4125335 0.08358867
vt 0.4125335 0.08028867
vt 0.2813541 0.07972381
vt 0.2813541 0.0830238
vt 0.3581392 0.0830238
vt 0.3581392 0.07972381
vt 0.2817447 0.0825622
vt 0.2817447 0.0858622
vt 0.4457886 0.0858622
vt 0.4457886 0.0825622
vt 0.3141884 0.07813287
vt 0.3141884 0.08143286
vt 0.3902858 0.08143286
vt 0.3902858 0.07813287
vt 0.4020343 0.08873297
vt 0.4020343 0.08543297
vt 0.2377892 0.08543298
vt 0.2377892 0.08873298
vt 0.3029609 0.133675
vt 0.3029609 0.1303751
vt 0.2268634 0.1303751
vt 0.2268634 0.133675
vt 0.3365021 0.07485773
vt 0.3365021 0.07815773
vt 0.4132872 0.07815773
vt 0.4132872 0.07485773
vt 0.2382524 0.0774648
vt 0.2382524 0.0807648
vt 0.4024975 0.0807648
vt 0.4024975 0.0774648
vt 0.4022849 0.1124563
vt 0.4022849 0.06831121
vt 0.226285 0.06831121
vt 0.226285 0.1566013
vt 0.4022849 0.1566013
vt 0.4022954 0.002112865
vt 0.3792513 0.002112865
vt 0.3792513 0.06643391
vt 0.4022954 0.04625797
vt 0.3144283 0.09048676
vt 0.3144283 0.00219655
vt 0.2264285 0.04634166
vt 0.2264285 0.09048676
vt 0.2264285 0.00219655
vt 0.3374343 0.06684077
vt 0.3374343 0.03717768
vt 0.2267833 0.04663742
vt 0.2267833 0.09078252
vt 0.3294504 0.09078252
vt 0.2267818 0.002705693
vt 0.3374329 0.002705693
vt 0.3512917 0.090765
vt 0.401581 0.06679583
vt 0.3592756 0.06682324
vt 0.4246252 0.090765
vt 0.4246252 0.04661989
vt 0.3371604 0.002275825
vt 0.3371604 0.06656849
vt 0.379466 0.06656849
vt 0.379466 0.002275825
vt 0.3911221 0.06737667
vt 0.4007258 0.06737667
vt 0.4007256 0.02507108
vt 0.3911221 0.02507114
vt 0.3897551 0.06649709
vt 0.3993586 0.06652558
vt 0.3993586 0.002204537
vt 0.3897551 0.002204537
vt 0.4172404 0.06664562
vt 0.4076369 0.03703845
vt 0.4076369 0.06670153
vt 0.4172404 0.002353072
vt 0.4076369 0.002353072

g model
usemtl model
usemap model
f 2/2/2 1/1/1 3/3/3
f 3/3/3 1/1/1 4/4/4
f 6/6/6 5/5/5 7/7/7
f 7/7/7 5/5/5 8/8/8
f 10/10/10 9/9/9 11/11/11
f 11/11/11 9/9/9 12/12/12
f 14/14/14 13/13/13 15/15/15
f 15/15/15 13/13/13 16/16/16
f 18/18/18 17/17/17 19/19/19
f 19/19/19 17/17/17 20/20/20
f 22/22/22 21/21/21 23/23/23
f 23/23/23 21/21/21 24/24/24
f 26/26/26 25/25/25 27/27/27
f 27/27/27 25/25/25 28/28/28
f 30/30/30 29/29/29 31/31/31
f 32/32/32 29/29/29 30/30/30
f 30/30/30 33/33/33 32/32/32
f 34/34/34 33/33/33 30/30/30
f 30/30/30 35/35/35 34/34/34
f 36/36/36 35/35/35 30/30/30
f 38/38/38 37/37/37 39/39/39
f 38/38/38 40/40/40 37/37/37
f 42/42/42 41/41/41 43/43/43
f 44/44/44 41/41/41 42/42/42
f 46/46/46 45/45/45 47/47/47
f 46/46/46 48/48/48 45/45/45
f 45/45/45 49/49/49 47/47/47
f 47/47/47 49/49/49 50/50/50
f 50/50/50 51/51/51 47/47/47
f 47/47/47 51/51/51 52/52/52
f 54/54/54 53/53/53 55/55/55
f 56/56/56 53/53/53 54/54/54
f 54/54/54 57/57/57 56/56/56
f 58/58/58 57/57/57 54/54/54
f 60/60/60 59/59/59 61/61/61
f 61/61/61 59/59/59 62/62/62
f 64/64/64 63/63/63 65/65/65
f 65/65/65 63/63/63 66/66/66
f 68/68/68 67/67/67 69/69/69
f 70/70/70 67/67/67 68/68/68
f 68/68/68 71/71/71 70/70/70
f 72/72/72 71/71/71 68/68/68
f 74/74/74 73/73/73 75/75/75
f 75/75/75 73/73/73 62/62/62
f 64/64/64 76/76/76 77/77/77
f 77/77/77 76/76/76 78/78/78
f 80/80/80 79/79/79 81/81/81
f 82/82/82 79/79/79 80/80/80
f 80/80/80 83/83/83 82/82/82
f 84/84/84 83/83/83 80/80/80
f 80/80/80 85/85/85 84/84/84
f 86/86/86 85/85/85 80/80/80
f 88/88/88 87/87/87 89/89/89
f 89/89/89 87/87/87 90/90/90
f 92/92/92 91/91/91 93/93/93
f 94/94/94 91/91/91 92/92/92
f 93/93/93 95/95/95 92/92/92
f 92/92/92 95/95/95 96/96/96
f 92/92/92 97/97/97 94/94/94
f 98/98/98 97/97/97 92/92/92
f 100/100/100 99/99/99 101/101/101
f 101/101/101 99/99/99 102/102/102
f 104/104/104 103/103/103 105/105/105
f 105/105/105 103/103/103 106/106/106
f 107/107/107 103/103/103 104/104/104
f 109/109/109 108/108/108 110/110/110
f 110/110/110 108/108/108 111/111/111
f 112/112/112 108/108/108 109/109/109
f 114/114/114 113/113/113 115/115/115
f 115/115/115 113/113/113 116/116/116
f 117/117/117 113/113/113 114/114/114
f 119/119/119 118/118/118 120/120/120
f 120/120/120 118/118/118 121/121/121
f 122/122/122 118/118/118 119/119/119
f 124/124/124 123/123/123 125/125/125
f 125/125/125 123/123/123 126/126/126
f 127/127/127 123/123/123 124/124/124
f 129/129/129 128/128/128 130/130/130
f 130/130/130 128/128/128 131/131/131
f 132/132/132 128/128/128 129/129/129
f 134/134/134 133/133/133 135/135/135
f 135/135/135 133/133/133 136/136/136
f 137/137/137 133/133/133 134/134/134
f 139/139/139 138/138/138 140/140/140
f 140/140/140 138/138/138 141/141/141
f 142/142/142 138/138/138 139/139/139
f 144/144/144 143/143/143 145/145/145
f 145/145/145 143/143/143 146/146/146
f 147/147/147 143/143/143 144/144/144
f 149/149/149 148/148/148 150/150/150
f 150/150/150 148/148/148 151/151/151
f 152/152/152 148/148/148 149/149/149
f 154/154/154 153/153/153 155/155/155
f 155/155/155 153/153/153 156/156/156
f 158/158/158 157/157/157 159/159/159
f 159/159/159 157/157/157 160/160/160
f 162/162/162 161/161/161 163/163/163
f 163/163/163 161/161/161 164/164/164
f 166/166/166 165/165/165 167/167/167
f 167/167/167 165/165/165 168/168/168
f 170/170/170 169/169/169 171/171/171
f 171/171/171 169/169/169 172/172/172
f 174/174/174 173/173/173 175/175/175
f 175/175/175 173/173/173 176/176/176
f 178/178/178 177/177/177 179/179/179
f 179/179/179 177/177/177 180/180/180
f 182/182/182 181/181/181 183/183/183
f 183/183/183 181/181/181 184/184/184
f 186/186/186 185/185/185 187/187/187
f 187/187/187 185/185/185 188/188/188
f 190/190/190 189/189/189 191/191/191
f 191/191/191 189/189/189 192/192/192
f 194/194/194 193/193/193 195/195/195
f 195/195/195 193/193/193 196/196/196
f 198/198/198 197/197/197 199/199/199
f 199/199/199 197/197/197 200/200/200
f 202/202/202 201/201/201 203/203/203
f 203/203/203 201/201/201 204/204/204
f 204/204/204 201/201/201 205/205/205
f 207/207/207 206/206/206 208/208/208
f 208/208/208 206/206/206 209/209/209
f 211/211/211 210/210/210 212/212/212
f 213/213/213 212/212/212 210/210/210
f 211/211/211 212/212/212 214/214/214
f 216/216/216 215/215/215 217/217/217
f 217/217/217 215/215/215 218/218/218
f 218/218/218 215/215/215 219/219/219
f 220/220/220 216/216/216 217/217/217
f 221/221/221 216/216/216 220/220/220
f 223/223/223 222/222/222 224/224/224
f 223/223/223 225/225/225 222/222/222
f 226/226/226 225/225/225 223/223/223
f 228/228/228 227/227/227 229/229/229
f 229/229/229 227/227/227 230/230/230
f 232/232/232 231/231/231 233/233/233
f 233/233/233 231/231/231 234/234/234
f 236/236/236 235/235/235 237/237/237
f 237/237/237 235/235/235 238/238/238
f 240/240/240 239/239/239 241/241/241
f 240/240/240 242/242/242 239/239/239
f 243/243/243 242/242/242 240/240/240
