mtllib ./rooftop_building02.mtl
g rooftop_building02
v 2 4.013184 4
v 2 0 4
v -2 0 4
v -2 4.013184 4
v 0 4.013184 -4
v 2 4.013184 4
v -2 4.013184 4
v -2 4.013184 -4
v 2 4.013184 -4
v -2 2.956787 -4
v -0.949219 1.003296 -4
v -0.949219 2.956787 -4
v -2 1.003296 -4
v -2 0 -4
v -0.949219 0 -4
v -2 4.013184 -4
v 0 4.013184 -4
v 0 2.956787 -4
v 0.94458 2.956787 -4
v 2 4.013184 -4
v 2 2.956787 -4
v 0.94458 1.003296 -4
v 2 1.003296 -4
v 2 0 -4
v 0.94458 0 -4
v -2 4.013184 4
v -2 0 4
v -2 2.956787 -4
v -2 4.013184 -4
v -2 1.003296 -4
v -2 0 -4
v 2 4.013184 4
v 2 2.956787 -4
v 2 0 4
v 2 4.013184 -4
v 2 1.003296 -4
v 2 0 -4
v -0.949219 2.956787 -3.53894
v -0.949219 2.956787 -4
v -0.949219 1.003296 -4
v -0.949219 1.003296 -3.53894
v -0.949219 0 -4
v -0.949219 0 -3.53894
v 0 2.956787 -3.53894
v 0 2.956787 -4
v -0.949219 2.956787 -4
v -0.949219 2.956787 -3.53894
v 0.94458 1.003296 -3.53894
v 0.94458 1.003296 -4
v 0.94458 2.956787 -4
v 0.94458 2.956787 -3.53894
v 0.94458 0 -3.53894
v 0.94458 0 -4
v 0.94458 2.956787 -3.53894
v 0.94458 2.956787 -4
v 0 2.956787 -4
v 0 2.956787 -3.53894
v 0 2.956787 -3.53894
v -0.949219 1.003296 -3.53894
v 0 1.003296 -3.53894
v -0.949219 2.956787 -3.53894
v 0.94458 1.003296 -3.53894
v 0.94458 2.956787 -3.53894
v 0 0 -3.53894
v 0.94458 0 -3.53894
v -0.949219 0 -3.53894

vn 0 0 1
vn 0 0 1
vn 0 0 1
vn 0 0 1
vn 0 1 0
vn 0 1 0
vn 0 1 0
vn 0 1 0
vn 0 1 0
vn 0 0 -1
vn 0 0 -1
vn 0 0 -1
vn 0 0 -1
vn 0 0 -1
vn 0 0 -1
vn 0 0 -1
vn 0 0 -1
vn 0 0 -1
vn 0 0 -1
vn 0 0 -1
vn 0 0 -1
vn 0 0 -1
vn 0 0 -1
vn 0 0 -1
vn 0 0 -1
vn -1 0 0
vn -1 0 0
vn -0.9999999 0 0
vn -1 0 0
vn -1 0 0
vn -1 0 0
vn 1 0 0
vn 0.9999999 0 0
vn 1 0 0
vn 1 0 0
vn 1 0 0
vn 1 0 0
vn 1 0 0
vn 1 0 0
vn 1 0 0
vn 0.9999999 0 0
vn 1 0 0
vn 1 0 0
vn 0 -0.9999999 0
vn 0 -0.9999999 0
vn 0 -0.9999999 0
vn 0 -0.9999999 0
vn -1 0 0
vn -0.9999999 0 0
vn -1 0 0
vn -1 0 0
vn -1 0 0
vn -1 0 0
vn 0 -1 0
vn 0 -1 0
vn 0 -1 0
vn 0 -1 0
vn 0 0 -1
vn 0 0 -1
vn 0 0 -1
vn 0 0 -1
vn 0 0 -1
vn 0 0 -1
vn 0 0 -1
vn 0 0 -1
vn 0 0 -0.9999999

vt 0.3143706 0.09069538
vt 0.3143706 0.002405286
vt 0.2263707 0.002405286
vt 0.2263707 0.09069538
vt 0.2706081 0.001882076
vt 0.226608 0.177882
vt 0.314608 0.177882
vt 0.314608 0.001882076
vt 0.226608 0.001882076
vt 0.4022583 0.06724596
vt 0.3791412 0.0242691
vt 0.3791412 0.06724596
vt 0.4022583 0.0242691
vt 0.4022583 0.00219667
vt 0.3791412 0.00219667
vt 0.4022583 0.09048676
vt 0.3582584 0.09048676
vt 0.3582584 0.06724596
vt 0.3374776 0.06724596
vt 0.3142583 0.09048676
vt 0.3142583 0.06724596
vt 0.3374776 0.0242691
vt 0.3142583 0.0242691
vt 0.3142583 0.00219667
vt 0.3374776 0.00219667
vt 0.4022849 0.1566013
vt 0.4022849 0.06831121
vt 0.226285 0.1333605
vt 0.226285 0.1566013
vt 0.226285 0.09038365
vt 0.226285 0.06831121
vt 0.2262318 0.1562488
vt 0.4022317 0.133008
vt 0.2262318 0.06795871
vt 0.4022317 0.1562488
vt 0.4022317 0.09003115
vt 0.4022317 0.06795871
vt 0.3911338 0.08900011
vt 0.4012771 0.08900011
vt 0.4012771 0.04602325
vt 0.3911338 0.04602325
vt 0.4012771 0.02379388
vt 0.3911337 0.02379388
vt 0.3142469 0.2060272
vt 0.3142469 0.1958839
vt 0.2933641 0.1958839
vt 0.2933641 0.2060272
vt 0.4012771 0.04619813
vt 0.3911338 0.04619813
vt 0.3911338 0.08917499
vt 0.4012771 0.08917499
vt 0.4012771 0.02446821
vt 0.3911337 0.02446821
vt 0.313126 0.2060272
vt 0.313126 0.1958839
vt 0.2923453 0.1958839
vt 0.2923453 0.2060272
vt 0.3582523 0.06721938
vt 0.3791351 0.02424252
vt 0.3582523 0.02424252
vt 0.3791351 0.06721938
vt 0.3374715 0.02424252
vt 0.3374715 0.06721938
vt 0.3582523 0.002169967
vt 0.3374715 0.002169967
vt 0.3791351 0.002169967

g model
usemtl model
usemap model
f 2/2/2 1/1/1 3/3/3
f 3/3/3 1/1/1 4/4/4
f 6/6/6 5/5/5 7/7/7
f 7/7/7 5/5/5 8/8/8
f 9/9/9 5/5/5 6/6/6
f 11/11/11 10/10/10 12/12/12
f 13/13/13 10/10/10 11/11/11
f 11/11/11 14/14/14 13/13/13
f 15/15/15 14/14/14 11/11/11
f 16/16/16 12/12/12 10/10/10
f 17/17/17 12/12/12 16/16/16
f 18/18/18 12/12/12 17/17/17
f 17/17/17 19/19/19 18/18/18
f 20/20/20 19/19/19 17/17/17
f 21/21/21 19/19/19 20/20/20
f 19/19/19 21/21/21 22/22/22
f 22/22/22 21/21/21 23/23/23
f 23/23/23 24/24/24 22/22/22
f 22/22/22 24/24/24 25/25/25
f 27/27/27 26/26/26 28/28/28
f 26/26/26 29/29/29 28/28/28
f 28/28/28 30/30/30 27/27/27
f 27/27/27 30/30/30 31/31/31
f 33/33/33 32/32/32 34/34/34
f 33/33/33 35/35/35 32/32/32
f 34/34/34 36/36/36 33/33/33
f 37/37/37 36/36/36 34/34/34
f 39/39/39 38/38/38 40/40/40
f 40/40/40 38/38/38 41/41/41
f 40/40/40 41/41/41 42/42/42
f 42/42/42 41/41/41 43/43/43
f 45/45/45 44/44/44 46/46/46
f 46/46/46 44/44/44 47/47/47
f 49/49/49 48/48/48 50/50/50
f 50/50/50 48/48/48 51/51/51
f 49/49/49 52/52/52 48/48/48
f 53/53/53 52/52/52 49/49/49
f 55/55/55 54/54/54 56/56/56
f 56/56/56 54/54/54 57/57/57
f 59/59/59 58/58/58 60/60/60
f 61/61/61 58/58/58 59/59/59
f 60/60/60 58/58/58 62/62/62
f 62/62/62 58/58/58 63/63/63
f 62/62/62 64/64/64 60/60/60
f 60/60/60 64/64/64 59/59/59
f 65/65/65 64/64/64 62/62/62
f 59/59/59 64/64/64 66/66/66
