mtllib ./solarPanel.mtl
g solarPanel
v -0.784668 -0.001953125 -1.98172
v -0.7346191 0.6982422 -1.98172
v -0.7346191 -0.001953125 -1.98172
v -0.784668 0.6982422 -1.98172
v -0.784668 -0.001953125 -2.031708
v -0.784668 0.6982422 -1.98172
v -0.784668 -0.001953125 -1.98172
v -0.784668 0.6982422 -2.031708
v -0.7346191 -0.001953125 -2.031708
v -0.784668 0.6982422 -2.031708
v -0.784668 -0.001953125 -2.031708
v -0.7346191 0.6982422 -2.031708
v -0.7346191 -0.001953125 -1.98172
v -0.7346191 0.6982422 -2.031708
v -0.7346191 -0.001953125 -2.031708
v -0.7346191 0.6982422 -1.98172
v -0.784668 -0.001953125 -3.937714
v -0.7346191 0.6982422 -3.937714
v -0.7346191 -0.001953125 -3.937714
v -0.784668 0.6982422 -3.937714
v -0.784668 -0.001953125 -3.987701
v -0.784668 0.6982422 -3.937714
v -0.784668 -0.001953125 -3.937714
v -0.784668 0.6982422 -3.987701
v -0.7346191 -0.001953125 -3.987701
v -0.784668 0.6982422 -3.987701
v -0.784668 -0.001953125 -3.987701
v -0.7346191 0.6982422 -3.987701
v -0.7346191 -0.001953125 -3.937714
v -0.7346191 0.6982422 -3.987701
v -0.7346191 -0.001953125 -3.987701
v -0.7346191 0.6982422 -3.937714
v -0.784668 -0.001953125 2.014282
v -0.7346191 0.6982422 2.014282
v -0.7346191 -0.001953125 2.014282
v -0.784668 0.6982422 2.014282
v -0.784668 -0.001953125 1.964294
v -0.784668 0.6982422 2.014282
v -0.784668 -0.001953125 2.014282
v -0.784668 0.6982422 1.964294
v -0.7346191 -0.001953125 1.964294
v -0.784668 0.6982422 1.964294
v -0.784668 -0.001953125 1.964294
v -0.7346191 0.6982422 1.964294
v -0.7346191 -0.001953125 2.014282
v -0.7346191 0.6982422 1.964294
v -0.7346191 -0.001953125 1.964294
v -0.7346191 0.6982422 2.014282
v -0.8310547 0.6635742 -0.0007020235
v -0.8088379 0.7597657 1.999298
v -0.8310547 0.6635742 1.999298
v -0.8088379 0.7597657 -0.0007020235
v 2.024414 0.004394531 1.999298
v 2.046875 0.100586 -0.0007020235
v 2.024414 0.004394531 -0.0007020235
v 2.046875 0.100586 1.999298
v -0.8088379 0.7597657 1.999298
v 2.046875 0.100586 -0.0007020235
v 2.046875 0.100586 1.999298
v -0.8088379 0.7597657 -0.0007020235
v -0.8310547 0.6635742 -0.0007020235
v 2.024414 0.004394531 1.999298
v 2.024414 0.004394531 -0.0007020235
v -0.8310547 0.6635742 1.999298
v -0.8310547 0.6635742 -4.000702
v -0.8088379 0.7597657 -2.000702
v -0.8310547 0.6635742 -2.000702
v -0.8088379 0.7597657 -4.000702
v 2.024414 0.004394531 -4.000702
v -0.8088379 0.7597657 -4.000702
v -0.8310547 0.6635742 -4.000702
v 2.046875 0.100586 -4.000702
v 2.024414 0.004394531 -2.000702
v 2.046875 0.100586 -4.000702
v 2.024414 0.004394531 -4.000702
v 2.046875 0.100586 -2.000702
v -0.8088379 0.7597657 -2.000702
v 2.046875 0.100586 -4.000702
v 2.046875 0.100586 -2.000702
v -0.8088379 0.7597657 -4.000702
v -0.8310547 0.6635742 -4.000702
v 2.024414 0.004394531 -2.000702
v 2.024414 0.004394531 -4.000702
v -0.8310547 0.6635742 -2.000702
v -0.784668 -0.001953125 3.988281
v -0.7346191 0.6982422 3.988281
v -0.7346191 -0.001953125 3.988281
v -0.784668 0.6982422 3.988281
v -0.784668 -0.001953125 3.938293
v -0.784668 0.6982422 3.988281
v -0.784668 -0.001953125 3.988281
v -0.784668 0.6982422 3.938293
v -0.7346191 -0.001953125 3.938293
v -0.784668 0.6982422 3.938293
v -0.784668 -0.001953125 3.938293
v -0.7346191 0.6982422 3.938293
v -0.7346191 -0.001953125 3.988281
v -0.7346191 0.6982422 3.938293
v -0.7346191 -0.001953125 3.938293
v -0.7346191 0.6982422 3.988281
v -0.784668 -0.001953125 0.01528907
v -0.7346191 0.6982422 0.01528907
v -0.7346191 -0.001953125 0.01528907
v -0.784668 0.6982422 0.01528907
v -0.784668 -0.001953125 -0.03469896
v -0.784668 0.6982422 0.01528907
v -0.784668 -0.001953125 0.01528907
v -0.784668 0.6982422 -0.03469896
v -0.7346191 -0.001953125 -0.03469896
v -0.784668 0.6982422 -0.03469896
v -0.784668 -0.001953125 -0.03469896
v -0.7346191 0.6982422 -0.03469896
v -0.7346191 -0.001953125 0.01528907
v -0.7346191 0.6982422 -0.03469896
v -0.7346191 -0.001953125 -0.03469896
v -0.7346191 0.6982422 0.01528907
v -0.8310547 0.6635742 3.999298
v 2.046875 0.100586 3.999298
v 2.024414 0.004394531 3.999298
v -0.8088379 0.7597657 3.999298
v -0.8310547 0.6635742 1.999298
v -0.8088379 0.7597657 3.999298
v -0.8310547 0.6635742 3.999298
v -0.8088379 0.7597657 1.999298
v 2.024414 0.004394531 3.999298
v 2.046875 0.100586 1.999298
v 2.024414 0.004394531 1.999298
v 2.046875 0.100586 3.999298
v -0.8088379 0.7597657 3.999298
v 2.046875 0.100586 1.999298
v 2.046875 0.100586 3.999298
v -0.8088379 0.7597657 1.999298
v -0.8310547 0.6635742 1.999298
v 2.024414 0.004394531 3.999298
v 2.024414 0.004394531 1.999298
v -0.8310547 0.6635742 3.999298
v -0.8310547 0.6635742 -2.000702
v -0.8088379 0.7597657 -0.0007020235
v -0.8310547 0.6635742 -0.0007020235
v -0.8088379 0.7597657 -2.000702
v 2.024414 0.004394531 -0.0007020235
v 2.046875 0.100586 -2.000702
v 2.024414 0.004394531 -2.000702
v 2.046875 0.100586 -0.0007020235
v -0.8088379 0.7597657 -0.0007020235
v 2.046875 0.100586 -2.000702
v 2.046875 0.100586 -0.0007020235
v -0.8088379 0.7597657 -2.000702
v -0.8310547 0.6635742 -2.000702
v 2.024414 0.004394531 -0.0007020235
v 2.024414 0.004394531 -2.000702
v -0.8310547 0.6635742 -0.0007020235

vn 0 0 0.9999999
vn 0 0 0.9999999
vn 0 0 0.9999999
vn 0 0 0.9999999
vn -1 0 0
vn -1 0 0
vn -1 0 0
vn -1 0 0
vn 0 0 -0.9999999
vn 0 0 -0.9999999
vn 0 0 -0.9999999
vn 0 0 -0.9999999
vn 1 0 0
vn 1 0 0
vn 1 0 0
vn 1 0 0
vn 0 0 0.9999999
vn 0 0 0.9999999
vn 0 0 0.9999999
vn 0 0 0.9999999
vn -1 0 0
vn -1 0 0
vn -1 0 0
vn -1 0 0
vn 0 0 -0.9999999
vn 0 0 -0.9999999
vn 0 0 -0.9999999
vn 0 0 -0.9999999
vn 1 0 0
vn 1 0 0
vn 1 0 0
vn 1 0 0
vn 0 0 0.9999999
vn 0 0 0.9999999
vn 0 0 0.9999999
vn 0 0 0.9999999
vn -1 0 0
vn -1 0 0
vn -1 0 0
vn -1 0 0
vn 0 0 -0.9999999
vn 0 0 -0.9999999
vn 0 0 -0.9999999
vn 0 0 -0.9999999
vn 1 0 0
vn 1 0 0
vn 1 0 0
vn 1 0 0
vn -0.9743495 0.2250398 0
vn -0.9743495 0.2250398 0
vn -0.9743495 0.2250398 0
vn -0.9743495 0.2250398 0
vn 0.9738047 -0.2273858 0
vn 0.9738047 -0.2273858 0
vn 0.9738047 -0.2273858 0
vn 0.9738047 -0.2273858 0
vn 0.2249143 0.9743785 0
vn 0.2249143 0.9743785 0
vn 0.2249143 0.9743785 0
vn 0.2249143 0.9743785 0
vn -0.2249325 -0.9743744 0
vn -0.2249325 -0.9743744 0
vn -0.2249325 -0.9743744 0
vn -0.2249325 -0.9743744 0
vn -0.9743495 0.2250398 0
vn -0.9743495 0.2250398 0
vn -0.9743495 0.2250398 0
vn -0.9743495 0.2250398 0
vn 0 0 -1
vn 0 0 -1
vn 0 0 -1
vn 0 0 -1
vn 0.9738047 -0.2273858 0
vn 0.9738047 -0.2273858 0
vn 0.9738047 -0.2273858 0
vn 0.9738047 -0.2273858 0
vn 0.2249143 0.9743785 0
vn 0.2249143 0.9743785 0
vn 0.2249143 0.9743785 0
vn 0.2249143 0.9743785 0
vn -0.2249325 -0.9743744 0
vn -0.2249325 -0.9743744 0
vn -0.2249325 -0.9743744 0
vn -0.2249325 -0.9743744 0
vn 0 0 0.9999999
vn 0 0 0.9999999
vn 0 0 0.9999999
vn 0 0 0.9999999
vn -1 0 0
vn -1 0 0
vn -1 0 0
vn -1 0 0
vn 0 0 -0.9999999
vn 0 0 -0.9999999
vn 0 0 -0.9999999
vn 0 0 -0.9999999
vn 1 0 0
vn 1 0 0
vn 1 0 0
vn 1 0 0
vn 0 0 0.9999999
vn 0 0 0.9999999
vn 0 0 0.9999999
vn 0 0 0.9999999
vn -1 0 0
vn -1 0 0
vn -1 0 0
vn -1 0 0
vn 0 0 -0.9999999
vn 0 0 -0.9999999
vn 0 0 -0.9999999
vn 0 0 -0.9999999
vn 1 0 0
vn 1 0 0
vn 1 0 0
vn 1 0 0
vn 0 0 1
vn 0 0 1
vn 0 0 0.9999999
vn 0 0 1
vn -0.9743495 0.2250398 0
vn -0.9743495 0.2250398 0
vn -0.9743495 0.2250398 0
vn -0.9743495 0.2250398 0
vn 0.9738047 -0.2273858 0
vn 0.9738047 -0.2273858 0
vn 0.9738047 -0.2273858 0
vn 0.9738047 -0.2273858 0
vn 0.2249143 0.9743785 0
vn 0.2249143 0.9743785 0
vn 0.2249143 0.9743785 0
vn 0.2249143 0.9743785 0
vn -0.2249325 -0.9743744 0
vn -0.2249325 -0.9743744 0
vn -0.2249325 -0.9743744 0
vn -0.2249325 -0.9743744 0
vn -0.9743496 0.2250398 0
vn -0.9743496 0.2250398 0
vn -0.9743496 0.2250398 0
vn -0.9743496 0.2250398 0
vn 0.9738047 -0.2273858 0
vn 0.9738047 -0.2273858 0
vn 0.9738047 -0.2273858 0
vn 0.9738047 -0.2273858 0
vn 0.2249143 0.9743786 0
vn 0.2249143 0.9743786 0
vn 0.2249143 0.9743786 0
vn 0.2249143 0.9743786 0
vn -0.2249325 -0.9743744 0
vn -0.2249325 -0.9743744 0
vn -0.2249325 -0.9743744 0
vn -0.2249325 -0.9743744 0

vt 0.1635814 0.2764233
vt 0.1650814 0.2974233
vt 0.1650814 0.2764233
vt 0.1635814 0.2974233
vt 0.1635814 0.2764233
vt 0.1650814 0.2974233
vt 0.1650814 0.2764233
vt 0.1635814 0.2974233
vt 0.1635814 0.2764233
vt 0.1650814 0.2974233
vt 0.1650814 0.2764233
vt 0.1635814 0.2974233
vt 0.1635814 0.2764233
vt 0.1650814 0.2974233
vt 0.1650814 0.2764233
vt 0.1635814 0.2974233
vt 0.1635814 0.2764233
vt 0.1650814 0.2974233
vt 0.1650814 0.2764233
vt 0.1635814 0.2974233
vt 0.1635814 0.2764233
vt 0.1650814 0.2974233
vt 0.1650814 0.2764233
vt 0.1635814 0.2974233
vt 0.1635814 0.2764233
vt 0.1650814 0.2974233
vt 0.1650814 0.2764233
vt 0.1635814 0.2974233
vt 0.1635814 0.2764233
vt 0.1650814 0.2974233
vt 0.1650814 0.2764233
vt 0.1635814 0.2974233
vt 0.1635814 0.2764233
vt 0.1650814 0.2974233
vt 0.1650814 0.2764233
vt 0.1635814 0.2974233
vt 0.1635814 0.2764233
vt 0.1650814 0.2974233
vt 0.1650814 0.2764233
vt 0.1635814 0.2974233
vt 0.1635814 0.2764233
vt 0.1650814 0.2974233
vt 0.1650814 0.2764233
vt 0.1635814 0.2974233
vt 0.1635814 0.2764233
vt 0.1650814 0.2974233
vt 0.1650814 0.2764233
vt 0.1635814 0.2974233
vt 0.1746182 0.3096044
vt 0.1946182 0.3105937
vt 0.1946182 0.3096044
vt 0.1746182 0.3105937
vt 0.1748833 0.3095322
vt 0.1948833 0.3105214
vt 0.1948833 0.3095322
vt 0.1748833 0.3105214
vt 0.2046189 0.2512707
vt 0.1646189 0.309884
vt 0.2046189 0.309884
vt 0.1646189 0.2512707
vt 0.170468 0.3091697
vt 0.1997746 0.3110496
vt 0.1997746 0.3091697
vt 0.170468 0.3110496
vt 0.1746182 0.3096044
vt 0.1946182 0.3105937
vt 0.1946182 0.3096044
vt 0.1746182 0.3105937
vt 0.1696014 0.3095306
vt 0.198908 0.3105199
vt 0.198908 0.3095306
vt 0.1696014 0.3105199
vt 0.1748833 0.3095322
vt 0.1948833 0.3105214
vt 0.1948833 0.3095322
vt 0.1748833 0.3105214
vt 0.2046189 0.2512707
vt 0.1646189 0.309884
vt 0.2046189 0.309884
vt 0.1646189 0.2512707
vt 0.170468 0.3091697
vt 0.1997746 0.3110496
vt 0.1997746 0.3091697
vt 0.170468 0.3110496
vt 0.1635814 0.2764233
vt 0.1650814 0.2974233
vt 0.1650814 0.2764233
vt 0.1635814 0.2974233
vt 0.1635814 0.2764233
vt 0.1650814 0.2974233
vt 0.1650814 0.2764233
vt 0.1635814 0.2974233
vt 0.1635814 0.2764233
vt 0.1650814 0.2974233
vt 0.1650814 0.2764233
vt 0.1635814 0.2974233
vt 0.1635814 0.2764233
vt 0.1650814 0.2974233
vt 0.1650814 0.2764233
vt 0.1635814 0.2974233
vt 0.1635814 0.2764233
vt 0.1650814 0.2974233
vt 0.1650814 0.2764233
vt 0.1635814 0.2974233
vt 0.1635814 0.2764233
vt 0.1650814 0.2974233
vt 0.1650814 0.2764233
vt 0.1635814 0.2974233
vt 0.1635814 0.2764233
vt 0.1650814 0.2974233
vt 0.1650814 0.2764233
vt 0.1635814 0.2974233
vt 0.1635814 0.2764233
vt 0.1650814 0.2974233
vt 0.1650814 0.2764233
vt 0.1635814 0.2974233
vt 0.1696014 0.3095306
vt 0.198908 0.3105199
vt 0.198908 0.3095306
vt 0.1696014 0.3105199
vt 0.1746182 0.3096044
vt 0.1946182 0.3105937
vt 0.1946182 0.3096044
vt 0.1746182 0.3105937
vt 0.1748833 0.3095322
vt 0.1948833 0.3105214
vt 0.1948833 0.3095322
vt 0.1748833 0.3105214
vt 0.2046189 0.2512707
vt 0.1646189 0.309884
vt 0.2046189 0.309884
vt 0.1646189 0.2512707
vt 0.170468 0.3091697
vt 0.1997746 0.3110496
vt 0.1997746 0.3091697
vt 0.170468 0.3110496
vt 0.1746182 0.3096044
vt 0.1946182 0.3105937
vt 0.1946182 0.3096044
vt 0.1746182 0.3105937
vt 0.1748833 0.3095322
vt 0.1948833 0.3105214
vt 0.1948833 0.3095322
vt 0.1748833 0.3105214
vt 0.2046189 0.2512707
vt 0.1646189 0.309884
vt 0.2046189 0.309884
vt 0.1646189 0.2512707
vt 0.170468 0.3091697
vt 0.1997746 0.3110496
vt 0.1997746 0.3091697
vt 0.170468 0.3110496

g model
usemtl model
usemap model
f 2/2/2 1/1/1 3/3/3
f 2/2/2 4/4/4 1/1/1
f 6/6/6 5/5/5 7/7/7
f 6/6/6 8/8/8 5/5/5
f 10/10/10 9/9/9 11/11/11
f 10/10/10 12/12/12 9/9/9
f 14/14/14 13/13/13 15/15/15
f 14/14/14 16/16/16 13/13/13
f 18/18/18 17/17/17 19/19/19
f 18/18/18 20/20/20 17/17/17
f 22/22/22 21/21/21 23/23/23
f 22/22/22 24/24/24 21/21/21
f 26/26/26 25/25/25 27/27/27
f 26/26/26 28/28/28 25/25/25
f 30/30/30 29/29/29 31/31/31
f 30/30/30 32/32/32 29/29/29
f 34/34/34 33/33/33 35/35/35
f 34/34/34 36/36/36 33/33/33
f 38/38/38 37/37/37 39/39/39
f 38/38/38 40/40/40 37/37/37
f 42/42/42 41/41/41 43/43/43
f 42/42/42 44/44/44 41/41/41
f 46/46/46 45/45/45 47/47/47
f 46/46/46 48/48/48 45/45/45
f 50/50/50 49/49/49 51/51/51
f 50/50/50 52/52/52 49/49/49
f 54/54/54 53/53/53 55/55/55
f 54/54/54 56/56/56 53/53/53
f 58/58/58 57/57/57 59/59/59
f 58/58/58 60/60/60 57/57/57
f 62/62/62 61/61/61 63/63/63
f 62/62/62 64/64/64 61/61/61
f 66/66/66 65/65/65 67/67/67
f 66/66/66 68/68/68 65/65/65
f 70/70/70 69/69/69 71/71/71
f 70/70/70 72/72/72 69/69/69
f 74/74/74 73/73/73 75/75/75
f 74/74/74 76/76/76 73/73/73
f 78/78/78 77/77/77 79/79/79
f 78/78/78 80/80/80 77/77/77
f 82/82/82 81/81/81 83/83/83
f 82/82/82 84/84/84 81/81/81
f 86/86/86 85/85/85 87/87/87
f 86/86/86 88/88/88 85/85/85
f 90/90/90 89/89/89 91/91/91
f 90/90/90 92/92/92 89/89/89
f 94/94/94 93/93/93 95/95/95
f 94/94/94 96/96/96 93/93/93
f 98/98/98 97/97/97 99/99/99
f 98/98/98 100/100/100 97/97/97
f 102/102/102 101/101/101 103/103/103
f 102/102/102 104/104/104 101/101/101
f 106/106/106 105/105/105 107/107/107
f 106/106/106 108/108/108 105/105/105
f 110/110/110 109/109/109 111/111/111
f 110/110/110 112/112/112 109/109/109
f 114/114/114 113/113/113 115/115/115
f 114/114/114 116/116/116 113/113/113
f 118/118/118 117/117/117 119/119/119
f 118/118/118 120/120/120 117/117/117
f 122/122/122 121/121/121 123/123/123
f 122/122/122 124/124/124 121/121/121
f 126/126/126 125/125/125 127/127/127
f 126/126/126 128/128/128 125/125/125
f 130/130/130 129/129/129 131/131/131
f 130/130/130 132/132/132 129/129/129
f 134/134/134 133/133/133 135/135/135
f 134/134/134 136/136/136 133/133/133
f 138/138/138 137/137/137 139/139/139
f 138/138/138 140/140/140 137/137/137
f 142/142/142 141/141/141 143/143/143
f 142/142/142 144/144/144 141/141/141
f 146/146/146 145/145/145 147/147/147
f 146/146/146 148/148/148 145/145/145
f 150/150/150 149/149/149 151/151/151
f 150/150/150 152/152/152 149/149/149
